<?xml version="1.0" standalone="no"?>
<!DOCTYPE svg PUBLIC "-//W3C//DTD SVG 1.1//EN" "http://www.w3.org/Graphics/SVG/1.1/DTD/svg11.dtd" >
<svg xmlns="http://www.w3.org/2000/svg" xmlns:xlink="http://www.w3.org/1999/xlink" version="1.1">
<metadata>
Created by FontForge 20201107 at Thu Nov 20 20:45:38 2025
 By 
Copyright by Pangram Pangram Foundry. All rights reserved.
</metadata>
<defs>
<font id="PPNeueMontreal-Italic" horiz-adv-x="0" >
  <font-face 
    font-family="PP Neue Montreal"
    font-weight="400"
    font-style="italic"
    font-stretch="normal"
    units-per-em="2048"
    panose-1="0 0 5 0 0 0 0 0 0 0"
    ascent="1638"
    descent="-410"
    x-height="1044"
    cap-height="1464"
    bbox="-459 -475 4381 1925"
    underline-thickness="122"
    underline-position="-61"
    slope="-11"
    unicode-range="U+000D-1F150"
  />
<missing-glyph horiz-adv-x="1347" 
 />
    <glyph glyph-name="f_f" unicode="ff" horiz-adv-x="1075" 
d="M252 0h-164l176 901h-145l26 143h148l26 142q16 87 45 145.5t70 89.5t87 43.5t108 12.5q36 0 106 -11l-26 -139q-61 6 -84 6q-72 0 -99 -29t-43 -110l-28 -150h346l26 142q16 87 45 145.5t70 89.5t87 43.5t108 12.5q36 0 106 -11l-26 -139q-61 6 -84 6q-72 0 -99 -29
t-43 -110l-28 -150h198l-26 -143h-201l-174 -901h-164l176 901h-346z" />
    <glyph glyph-name="f_f_i" unicode="ffi" horiz-adv-x="1482" 
d="M252 0h-164l176 901h-145l26 143h148l26 142q16 87 45 145.5t70 89.5t87 43.5t108 12.5q36 0 106 -11l-26 -139q-61 6 -84 6q-72 0 -99 -29t-43 -110l-28 -150h346l26 142q16 87 45 145.5t70 89.5t87 43.5t108 12.5q36 0 106 -11l-26 -139q-61 6 -84 6q-72 0 -99 -29
t-43 -110l-28 -150h198l-26 -143h-201l-174 -901h-164l176 901h-346zM1520 1247h-197l39 197h197zM1262 0h-164l202 1044h164z" />
    <glyph glyph-name="f_i" unicode="fi" horiz-adv-x="980" 
d="M653 1044l-26 -143h-201l-174 -901h-164l176 901h-145l26 143h148l26 142q17 87 46 145.5t70 89.5t86.5 43.5t107.5 12.5q36 0 106 -11l-26 -139q-61 6 -84 6q-72 0 -99 -29t-43 -110l-28 -150h198zM821 1247l39 197h197l-39 -197h-197zM760 0h-164l203 1044h164z" />
    <glyph glyph-name="f_l" unicode="fl" horiz-adv-x="978" 
d="M653 1044l-26 -143h-201l-174 -901h-164l176 901h-145l26 143h148l26 142q17 87 46 145.5t70 89.5t86.5 43.5t107.5 12.5q36 0 106 -11l-26 -139q-61 6 -84 6q-72 0 -99 -29t-43 -110l-28 -150h198zM594 0l285 1464h163l-284 -1464h-164z" />
    <glyph glyph-name=".notdef" horiz-adv-x="1347" 
 />
    <glyph glyph-name=".null" 
 />
    <glyph glyph-name="nonmarkingreturn" horiz-adv-x="682" 
 />
    <glyph glyph-name="CR" unicode="&#xd;" horiz-adv-x="438" 
 />
    <glyph glyph-name="space" unicode=" " horiz-adv-x="438" 
 />
    <glyph glyph-name="exclam" unicode="!" horiz-adv-x="444" 
d="M244 377h-103l88 667l82 420h185l-82 -420zM217 0h-197l39 197h197z" />
    <glyph glyph-name="quotedbl" unicode="&#x22;" horiz-adv-x="643" 
d="M317 965h-122l75 499h164zM614 965h-122l75 499h164z" />
    <glyph glyph-name="numbersign" unicode="#" horiz-adv-x="1187" 
d="M1225 1026l-54 -143h-215l-122 -316h239l-51 -143h-244l-166 -424h-143l166 424h-246l-166 -424h-143l166 424h-197l53 143h199l123 316h-221l51 143h227l152 389h143l-151 -389h245l152 389h143l-151 -389h211zM444 567h246l123 316h-246z" />
    <glyph glyph-name="dollar" unicode="$" horiz-adv-x="1208" 
d="M1188 975h-174q18 245 -193 291l-96 -498q51 -20 82 -33.5t76.5 -36.5t73.5 -43.5t60.5 -50.5t50.5 -62t30 -74.5t12 -90.5q0 -181 -146.5 -292t-392.5 -114l-34 -178h-119l35 184q-216 27 -328.5 156.5t-85.5 335.5h174q-13 -144 50.5 -229.5t219.5 -104.5l101 512
q-65 27 -111.5 49.5t-100.5 58.5t-87 74.5t-55.5 93.5t-22.5 119q0 174 145 282t375 108h8l29 145h119l-31 -156q174 -29 267 -141t69 -305zM387 1053q3 -83 60 -136.5t169 -103.5l89 463q-149 -2 -235 -61t-83 -162zM932 360q0 87 -57.5 138.5t-180.5 103.5l-92 -473
q167 4 248.5 66.5t81.5 164.5z" />
    <glyph glyph-name="percent" unicode="%" horiz-adv-x="1665" 
d="M408 633q-134 0 -204.5 84t-70.5 219q0 133 50.5 248.5t146.5 187.5t217 72q134 0 204 -84t70 -219q0 -99 -30 -191t-82.5 -162t-131 -112.5t-169.5 -42.5zM414 0h-164l1063 1415h164zM416 772q79 0 140 57t90.5 139.5t29.5 170.5q0 78 -34.5 122t-102.5 44
q-79 0 -140 -57t-90.5 -139.5t-29.5 -170.5q0 -78 34.5 -122t102.5 -44zM1190 -29q-134 0 -204.5 84t-70.5 219q0 133 50.5 248.5t146.5 187.5t217 72q134 0 204.5 -84t70.5 -219q0 -133 -50.5 -248.5t-146.5 -187.5t-217 -72zM1198 111q79 0 140 57t90.5 139t29.5 170
q0 78 -34.5 122t-102.5 44q-79 0 -140 -57t-90.5 -139.5t-29.5 -170.5q0 -78 34 -121.5t103 -43.5z" />
    <glyph glyph-name="ampersand" unicode="&#x26;" horiz-adv-x="1212" 
d="M1022 713h164q-88 -265 -230 -443l168 -270h-194l-90 143q-197 -172 -434 -172q-182 0 -280.5 91t-98.5 241q0 72 26 138t64 115t96.5 97t109 79t115.5 65q-55 92 -81.5 163.5t-26.5 145.5q0 163 112 275t289 112q146 0 223.5 -80t77.5 -207q0 -51 -12.5 -96t-39 -84
t-57 -70.5t-79 -65.5t-91.5 -59.5t-106 -60.5l230 -371q76 117 145 314zM700 1335q-95 0 -148.5 -59t-53.5 -148q0 -100 88 -258q140 73 209 145.5t69 162.5q0 72 -41.5 114.5t-122.5 42.5zM416 135q204 0 348 131l-260 424q-71 -40 -121 -75t-95 -78.5t-68 -94t-23 -106.5
q0 -96 57 -148.5t162 -52.5z" />
    <glyph glyph-name="quotesingle" unicode="'" horiz-adv-x="346" 
d="M317 965h-122l75 499h164z" />
    <glyph glyph-name="parenleft" unicode="(" horiz-adv-x="538" 
d="M356 -240h-143q-147 256 -147 594q0 309 131.5 630.5t361.5 561.5h143q-239 -314 -347.5 -597.5t-108.5 -598.5q0 -279 110 -590z" />
    <glyph glyph-name="parenright" unicode=")" horiz-adv-x="538" 
d="M29 -240h-144q240 314 348.5 598t108.5 598q0 276 -111 590h144q147 -256 147 -594q0 -309 -131.5 -630.5t-361.5 -561.5z" />
    <glyph glyph-name="asterisk" unicode="*" horiz-adv-x="929" 
d="M559 1010l-221 -232l-94 74l217 221l-256 82l63 111l258 -78l52 276h135l-54 -276l283 78l23 -111l-291 -82l131 -221l-113 -74z" />
    <glyph glyph-name="plus" unicode="+" horiz-adv-x="1136" 
d="M584 190h-164l78 396h-383l30 162h383l78 395h164l-78 -395h383l-31 -162h-382z" />
    <glyph glyph-name="comma" unicode="," horiz-adv-x="399" 
d="M-49 -260l20 102q58 19 85.5 52.5t39.5 105.5h-94l39 197h197l-39 -197q-8 -40 -17.5 -69.5t-27.5 -62t-43.5 -55.5t-66 -42.5t-93.5 -30.5z" />
    <glyph glyph-name="hyphen" unicode="-" horiz-adv-x="727" 
d="M621 440h-549l32 164h549z" />
    <glyph glyph-name="period" unicode="." horiz-adv-x="387" 
d="M193 0h-197l39 197h196z" />
    <glyph glyph-name="slash" unicode="/" horiz-adv-x="831" 
d="M98 0h-164l877 1464h164z" />
    <glyph glyph-name="zero" unicode="0" horiz-adv-x="1282" 
d="M541 -29q-113 0 -198 38t-136 107t-76 160.5t-25 204.5q0 147 31.5 288.5t93.5 263t146 214t196 145t236 52.5q113 0 197.5 -37.5t135.5 -107t76 -161t25 -204.5q0 -147 -30.5 -287.5t-90.5 -262.5t-143 -214.5t-196.5 -145.5t-241.5 -53zM553 135q95 0 178.5 47
t143.5 126t103.5 181t65 215t21.5 226q0 165 -61.5 257.5t-206.5 92.5q-95 0 -178.5 -47t-143.5 -126t-103.5 -181t-65 -215t-21.5 -226q0 -165 61.5 -257.5t206.5 -92.5z" />
    <glyph glyph-name="one" unicode="1" horiz-adv-x="663" 
d="M215 0l211 1079q-51 -41 -125.5 -55t-183.5 -14l30 153q121 3 198 34t116 81.5t69 136.5h144l-275 -1415h-184z" />
    <glyph glyph-name="two" unicode="2" horiz-adv-x="1146" 
d="M944 0h-981q40 197 171.5 342t369.5 270q29 15 77.5 39.5t78 40t72 39t69.5 43t59.5 46t52 53t38 59t26.5 70t8 79.5q0 43 -10 76.5t-34.5 62.5t-71 44.5t-113.5 15.5q-313 0 -385 -360h-189q19 108 67.5 202t121.5 166.5t176.5 114t224.5 41.5q182 0 290.5 -91.5
t108.5 -258.5q0 -65 -20.5 -127t-45.5 -107.5t-78 -96t-85.5 -78t-102 -69t-94 -55t-93.5 -48.5q-14 -7 -21 -11q-161 -83 -259.5 -160t-142.5 -174v-4h748z" />
    <glyph glyph-name="three" unicode="3" horiz-adv-x="1226" 
d="M555 -29q-272 0 -407 142t-87 366h193q-31 -162 43.5 -253t269.5 -91q186 0 271.5 81.5t85.5 215.5q0 124 -69.5 174.5t-199.5 50.5h-131l31 164h143q134 0 218.5 76t84.5 193q0 190 -251 190q-309 0 -359 -289h-192q33 201 183.5 327t383.5 126q198 0 312 -90.5
t114 -241.5q0 -124 -76.5 -218.5t-206.5 -141.5v-7q109 -33 159 -104.5t50 -187.5q0 -100 -36.5 -187t-105.5 -153t-177.5 -104t-243.5 -38z" />
    <glyph glyph-name="four" unicode="4" horiz-adv-x="1175" 
d="M817 0h-184l63 332h-682l33 164l860 919h185l-179 -919h195l-33 -164h-194zM858 1155l-616 -659h487z" />
    <glyph glyph-name="five" unicode="5" horiz-adv-x="1169" 
d="M479 -29q-118 0 -209 38t-142 100.5t-71 139.5t-6 159h189q-5 -56 6 -103.5t38.5 -86.5t79.5 -61t125 -22q123 0 220.5 60.5t147.5 155.5t50 204q0 231 -243 231q-222 0 -349 -133h-196l297 762h772l-33 -164h-623l-167 -428v-4q138 131 346 131q183 0 283 -102t100 -275
q0 -118 -45 -227t-123.5 -192t-195 -133t-251.5 -50z" />
    <glyph glyph-name="six" unicode="6" horiz-adv-x="1224" 
d="M561 -29q-219 0 -335.5 129t-116.5 379q0 149 31.5 292t93 264t145.5 213t195.5 144t236.5 52q195 0 299 -112.5t88 -274.5h-188q6 107 -50.5 165t-181.5 58q-93 0 -172 -43t-135 -117.5t-93.5 -169.5t-55.5 -205l-5 -24l5 -2q73 102 180.5 153.5t232.5 51.5
q184 0 292 -106t108 -290q0 -150 -71.5 -277t-204 -203.5t-298.5 -76.5zM567 135q164 0 267.5 110t103.5 271q0 123 -66.5 183.5t-189.5 60.5q-164 0 -273.5 -99.5t-109.5 -261.5q0 -124 69.5 -194t198.5 -70z" />
    <glyph glyph-name="seven" unicode="7" horiz-adv-x="1044" 
d="M313 0h-194q33 170 123.5 361.5t207.5 357t243 304t239 224.5l2 4h-776l30 164h981l-26 -143q-139 -100 -275 -248.5t-247 -316.5t-193.5 -353.5t-114.5 -353.5z" />
    <glyph glyph-name="eight" unicode="8" horiz-adv-x="1230" 
d="M514 -29q-209 0 -336 90.5t-127 268.5q0 74 26 140t65 111.5t89 82t95 56.5t86 30v4q-158 88 -158 266q0 176 145.5 300t376.5 124q187 0 298.5 -86t111.5 -246q0 -129 -71 -224t-193 -140v-5q206 -78 206 -286q0 -96 -43 -184t-120 -155t-194 -107t-257 -40zM682 834
q144 0 231.5 70.5t87.5 185.5q0 96 -66 143t-183 47q-155 0 -234.5 -74t-79.5 -180q0 -93 63 -142.5t181 -49.5zM545 135q178 0 287.5 89.5t109.5 226.5q0 110 -79 164.5t-222 54.5q-185 0 -294 -90t-109 -226q0 -219 307 -219z" />
    <glyph glyph-name="nine" unicode="9" horiz-adv-x="1224" 
d="M485 -29q-195 0 -299 112.5t-88 274.5h189q-6 -107 50 -165t181 -58q93 0 172 43t135 117.5t94 169.5t56 205l4 24l-4 2q-73 -102 -181 -153t-233 -51q-184 0 -291.5 105.5t-107.5 289.5q0 150 71.5 277t203.5 203.5t298 76.5q219 0 336 -129t117 -379
q0 -187 -50.5 -361.5t-140.5 -308.5t-223.5 -214.5t-288.5 -80.5zM614 655q164 0 273.5 99.5t109.5 261.5q0 124 -69.5 194t-198.5 70q-164 0 -267.5 -110t-103.5 -271q0 -123 66.5 -183.5t189.5 -60.5z" />
    <glyph glyph-name="colon" unicode=":" horiz-adv-x="409" 
d="M322 625h-197l39 196h196zM201 0h-197l39 197h197z" />
    <glyph glyph-name="semicolon" unicode=";" horiz-adv-x="409" 
d="M322 625h-197l39 196h196zM-47 -260l20 102q58 19 85.5 52.5t39.5 105.5h-94l39 197h197l-39 -197q-8 -40 -17.5 -69.5t-27.5 -62t-43.5 -55.5t-66 -42.5t-93.5 -30.5z" />
    <glyph glyph-name="less" unicode="&#x3c;" horiz-adv-x="1042" 
d="M895 350l-31 -151l-766 348l35 184l901 346l-33 -176l-751 -272l-2 -4z" />
    <glyph glyph-name="equal" unicode="=" horiz-adv-x="1138" 
d="M1067 731h-911l28 162h912zM1008 442h-912l29 162h911z" />
    <glyph glyph-name="greater" unicode="&#x3e;" horiz-adv-x="1040" 
d="M948 545l-901 -346l33 176l751 272l3 4l-648 275l31 151l766 -348z" />
    <glyph glyph-name="question" unicode="?" horiz-adv-x="1009" 
d="M512 375h-184q8 45 21 86t25.5 72.5t33 64.5t34.5 54.5t41 48.5l41 41t45.5 38.5t43.5 34t46 33.5q10 7 49.5 34t57 40.5t49.5 43.5t47 55t28 62.5t13 77.5q0 79 -57 123.5t-162 44.5q-66 0 -123.5 -17.5t-110 -55.5t-89.5 -106.5t-52 -160.5h-184q36 223 190 363.5
t381 140.5q186 0 290 -87.5t104 -236.5q0 -40 -9 -78t-21 -67t-34.5 -59t-40 -49.5t-46.5 -43.5t-45.5 -36t-46.5 -32.5t-40 -27.5q-9 -7 -39 -28l-40 -28t-35.5 -27t-35.5 -30.5t-31 -32t-31 -38t-25.5 -42t-24 -50.5t-18 -57t-15.5 -68zM449 0h-197l39 197h196z" />
    <glyph glyph-name="at" unicode="@" horiz-adv-x="1798" 
d="M760 -217q-327 0 -507.5 179.5t-180.5 508.5q0 207 79.5 391.5t214 315t318.5 206.5t387 76q327 0 511.5 -174.5t184.5 -464.5q0 -175 -61 -326.5t-167.5 -242t-231.5 -90.5q-182 0 -238 166h-4q-129 -158 -315 -158q-134 0 -208.5 87.5t-74.5 246.5q0 150 68 278.5
t179.5 202.5t237.5 74q103 0 170.5 -53t81.5 -132h4l58 170h145l-166 -514q-35 -104 -13.5 -164.5t95.5 -60.5q79 0 147 68t107 181t39 241q0 252 -151.5 387t-405.5 135q-173 0 -327.5 -61t-269 -169t-181 -266t-66.5 -344q0 -260 144 -405.5t432 -145.5q193 0 356 62
l29 -117q-182 -88 -420 -88zM784 313q95 0 177 58.5t128 150.5t46 191q0 102 -50.5 152t-132.5 50q-138 0 -241 -121.5t-103 -279.5q0 -95 44 -148t132 -53z" />
    <glyph glyph-name="A" unicode="A" horiz-adv-x="1323" 
d="M109 0h-195l825 1464h207l260 -1464h-194l-58 367h-645zM811 1294l-410 -764h525l-111 764h-4z" />
    <glyph glyph-name="B" unicode="B" horiz-adv-x="1355" 
d="M682 0h-631l285 1464h582q203 0 313 -81t110 -230q0 -127 -77.5 -226t-216.5 -141v-6q223 -48 223 -280q0 -216 -165.5 -358t-422.5 -142zM401 852h426q153 0 238.5 74.5t85.5 195.5q0 91 -52 134.5t-165 43.5h-447zM268 164h439q173 0 274.5 90t101.5 231
q0 102 -56.5 152.5t-160.5 50.5h-497z" />
    <glyph glyph-name="C" unicode="C" horiz-adv-x="1447" 
d="M668 -29q-263 0 -413.5 159t-150.5 441q0 148 41.5 287.5t119 253.5t180.5 200t233 133.5t270 47.5q106 0 196 -28t152.5 -77t105 -114t60 -139.5t11.5 -153.5h-185q0 71 -20.5 132t-62.5 110.5t-113.5 77.5t-165.5 28q-182 0 -328.5 -99t-227.5 -270.5t-81 -381.5
q0 -443 399 -443q89 0 166.5 23.5t133 61.5t99 90.5t70.5 106t43 111.5h189q-72 -249 -265.5 -403t-455.5 -154z" />
    <glyph glyph-name="D" unicode="D" horiz-adv-x="1423" 
d="M602 0h-551l285 1464h502q561 0 561 -557q0 -185 -60.5 -351.5t-164.5 -289t-253.5 -194.5t-318.5 -72zM268 164h361q167 0 301.5 100t208 268.5t73.5 370.5q0 95 -18.5 163.5t-62.5 123.5t-125.5 82.5t-200.5 27.5h-318z" />
    <glyph glyph-name="E" unicode="E" horiz-adv-x="1255" 
d="M1090 0h-1039l285 1464h1014l-33 -164h-830l-88 -460h731l-32 -164h-731l-99 -512h854z" />
    <glyph glyph-name="F" unicode="F" horiz-adv-x="1183" 
d="M236 0h-185l285 1464h993l-33 -164h-809l-92 -475h654l-31 -163h-653z" />
    <glyph glyph-name="G" unicode="G" horiz-adv-x="1505" 
d="M641 -29q-265 0 -402 152.5t-137 425.5q0 187 64 359t175.5 301.5t273.5 206.5t348 77q129 0 229.5 -37.5t162 -103t91.5 -149.5t27 -181h-189q0 151 -92 229t-264 78q-183 0 -330.5 -104.5t-228 -279t-80.5 -380.5q0 -430 370 -430q207 0 371 129.5t205 333.5h-477
l30 164h662l-147 -762h-123l-21 207h-4q-110 -120 -231.5 -178t-282.5 -58z" />
    <glyph glyph-name="H" unicode="H" horiz-adv-x="1458" 
d="M236 0h-185l285 1464h184l-121 -622h783l121 622h184l-285 -1464h-184l131 678h-782z" />
    <glyph glyph-name="I" unicode="I" horiz-adv-x="491" 
d="M236 0h-185l285 1464h184z" />
    <glyph glyph-name="J" unicode="J" horiz-adv-x="1032" 
d="M371 -29q-102 0 -175.5 27t-114 71.5t-60 107t-19 128t15.5 141.5l9 41h184l-8 -41q-19 -98 -18 -167t48 -106.5t150 -37.5q62 0 111 17.5t80.5 45t55 70.5t36 83.5t22.5 94.5l199 1018h184l-207 -1058q-19 -98 -54 -174t-92.5 -136.5t-145 -92.5t-201.5 -32z" />
    <glyph glyph-name="K" unicode="K" horiz-adv-x="1308" 
d="M1257 1464h220l-693 -604l453 -860h-209l-381 739l-321 -280l-90 -459h-185l285 1464h184l-151 -778z" />
    <glyph glyph-name="L" unicode="L" horiz-adv-x="1134" 
d="M1004 0h-953l285 1464h184l-252 -1300h768z" />
    <glyph glyph-name="M" unicode="M" horiz-adv-x="1732" 
d="M236 0h-185l285 1464h252l221 -1224h4l676 1224h272l-284 -1464h-185l234 1204h-4l-676 -1204h-164l-209 1204h-4z" />
    <glyph glyph-name="N" unicode="N" horiz-adv-x="1452" 
d="M236 0h-185l285 1464h221l498 -1202h8l233 1202h185l-285 -1464h-221l-498 1202h-8z" />
    <glyph glyph-name="O" unicode="O" horiz-adv-x="1589" 
d="M696 -29q-276 0 -435 163t-159 431q0 184 67.5 354.5t182 296.5t277.5 201.5t344 75.5q276 0 435 -163t159 -431q0 -184 -67.5 -354.5t-182 -296.5t-277.5 -201.5t-344 -75.5zM711 135q146 0 272.5 63t212.5 168t135 244t49 289q0 93 -24 169.5t-73.5 136t-132 92
t-192.5 32.5q-146 0 -272.5 -63t-212.5 -168t-135 -244t-49 -289q0 -93 24 -169.5t73.5 -136t132 -92t192.5 -32.5z" />
    <glyph glyph-name="P" unicode="P" horiz-adv-x="1257" 
d="M236 0h-185l285 1464h563q422 0 422 -346q0 -220 -154 -363t-403 -143h-410zM387 776h408q155 0 247.5 93.5t92.5 236.5q0 105 -55.5 149.5t-200.5 44.5h-392z" />
    <glyph glyph-name="Q" unicode="Q" horiz-adv-x="1589" 
d="M1567 899q0 -204 -80.5 -388t-222.5 -314l141 -174l-133 -109l-144 178q-202 -121 -432 -121q-276 0 -435 163t-159 431q0 184 67.5 354.5t182 296.5t277.5 201.5t344 75.5q276 0 435 -163t159 -431zM711 135q170 0 313 84l-164 205l133 108l166 -206q105 108 163 258
t58 315q0 93 -24 169.5t-73.5 136t-132 92t-192.5 32.5q-146 0 -272.5 -63t-212.5 -168t-135 -244t-49 -289q0 -93 24 -169.5t73.5 -136t132 -92t192.5 -32.5z" />
    <glyph glyph-name="R" unicode="R" horiz-adv-x="1325" 
d="M236 0h-185l285 1464h567q216 0 327 -88.5t111 -251.5t-97 -287.5t-251 -158.5v-6q64 -13 103.5 -55t52.5 -99.5t14 -124t-6.5 -131.5t-14.5 -119t-6.5 -90t15.5 -41l-2 -12h-199q-7 11 -7.5 42.5t10 75.5t16 96t11.5 105t-3.5 102t-29 87t-65 61t-112.5 23h-420z
M383 756h395q168 0 271.5 97t103.5 247q0 104 -68.5 152t-230.5 48h-367z" />
    <glyph glyph-name="S" unicode="S" horiz-adv-x="1277" 
d="M623 -29q-182 0 -318 61.5t-206 178.5t-58 274h180q-1 -170 105 -260t301 -90q114 0 197 27t133.5 91t50.5 161q0 37 -7.5 65t-28.5 53t-46 43.5t-73 40t-95.5 39t-126.5 43.5q-90 30 -152 56.5t-115 60t-84 71t-48 86.5t-17 111q0 100 43 179t118 129t173.5 76t212.5 26
q250 0 383 -114.5t112 -342.5h-180q8 149 -72 221t-260 72q-71 0 -130 -11t-109 -35.5t-78.5 -70t-28.5 -108.5q0 -35 6.5 -62t26 -50.5t41 -40t65 -36t83 -34.5t110.5 -39q52 -18 83.5 -29.5t75 -28t69.5 -29.5t59.5 -30.5t53 -34.5t42.5 -38.5t35.5 -44.5t24 -51t16 -60.5
t4.5 -69.5q0 -145 -73 -249t-200.5 -155t-297.5 -51z" />
    <glyph glyph-name="T" unicode="T" horiz-adv-x="1216" 
d="M598 0h-184l252 1300h-488l33 164h1159l-33 -164h-487z" />
    <glyph glyph-name="U" unicode="U" horiz-adv-x="1404" 
d="M594 -29q-271 0 -389 140t-72 376l191 977h184l-191 -977q-36 -186 37.5 -269t259.5 -83q387 0 457 352l191 977h184l-191 -977q-22 -114 -70.5 -205.5t-127.5 -162.5t-196.5 -109.5t-266.5 -38.5z" />
    <glyph glyph-name="V" unicode="V" horiz-adv-x="1275" 
d="M639 0h-201l-239 1464h200l170 -1276h2l668 1276h197z" />
    <glyph glyph-name="W" unicode="W" horiz-adv-x="1878" 
d="M510 0h-205l-98 1464h194l60 -1200h4l534 1200h213l99 -1200h4l512 1200h194l-647 -1464h-205l-94 1255h-4z" />
    <glyph glyph-name="X" unicode="X" horiz-adv-x="1189" 
d="M117 0h-223l645 754l-326 710h205l246 -581h2l477 581h209l-615 -712l350 -752h-204l-269 616h-2z" />
    <glyph glyph-name="Y" unicode="Y" horiz-adv-x="1290" 
d="M635 0h-184l116 600l-364 864h194l283 -723h4l567 723h203l-702 -864z" />
    <glyph glyph-name="Z" unicode="Z" horiz-adv-x="1230" 
d="M1079 0h-1138l32 164l1112 1132v4h-852l33 164h1077l-32 -164l-1112 -1132v-4h913z" />
    <glyph glyph-name="bracketleft" unicode="[" horiz-adv-x="577" 
d="M381 -240h-387l346 1786h387l-31 -164h-202l-283 -1458h203z" />
    <glyph glyph-name="backslash" unicode="\" horiz-adv-x="778" 
d="M653 0h-164l-282 1464h164z" />
    <glyph glyph-name="bracketright" unicode="]" horiz-adv-x="577" 
d="M287 -240h-387l30 164h203l283 1458h-203l33 164h387z" />
    <glyph glyph-name="asciicircum" unicode="^" horiz-adv-x="970" 
d="M313 901h-190l469 563h164l250 -563h-177l-178 414h-2z" />
    <glyph glyph-name="underscore" unicode="_" horiz-adv-x="1167" 
d="M958 -299h-1064l32 164h1065z" />
    <glyph glyph-name="grave" unicode="`" horiz-adv-x="446" 
d="M406 1210h-134l-127 275h195z" />
    <glyph glyph-name="a" unicode="a" horiz-adv-x="1103" 
d="M332 -29q-149 0 -229 71.5t-80 203.5q0 68 23.5 121.5t62 90.5t101 66.5t128 48.5t154.5 37q175 35 222 51q101 35 121 103q5 20 5 43q0 60 -44.5 92.5t-154.5 32.5q-131 0 -203.5 -51t-101.5 -166h-168q38 170 162 265t325 95q192 0 280.5 -88.5t55.5 -257.5l-96 -493
q-13 -57 -5 -90t48 -33q11 0 35 4l-23 -107q-52 -20 -98 -20q-69 0 -102.5 38t-30.5 124h-6q-143 -181 -381 -181zM379 115q147 0 254.5 80t136.5 223l31 151q-32 -30 -73.5 -44t-176.5 -42q-81 -17 -130 -29.5t-98.5 -30.5t-75 -39t-41.5 -51.5t-16 -70.5q0 -147 189 -147z
" />
    <glyph glyph-name="b" unicode="b" horiz-adv-x="1155" 
d="M725 1073q172 0 274.5 -110t102.5 -314q0 -141 -45.5 -267t-123.5 -216t-187 -142.5t-232 -52.5q-211 0 -295 164h-12l-27 -135h-164l285 1464h164l-107 -549h7q147 158 360 158zM528 115q170 0 289 149t119 371q0 295 -252 295q-112 0 -207.5 -72t-150 -190.5
t-54.5 -253.5q0 -143 66 -221t190 -78z" />
    <glyph glyph-name="c" unicode="c" horiz-adv-x="1077" 
d="M469 -29q-196 0 -308 114t-112 308q0 180 78 335.5t221 250t318 94.5q193 0 297.5 -116t89.5 -295h-160q12 130 -49 199t-189 69t-230 -75t-156 -193.5t-54 -253.5q0 -60 14.5 -111t44 -93t82 -65.5t123.5 -23.5q77 0 141.5 25t107 65.5t69 84t39.5 89.5h163
q-46 -179 -193.5 -293.5t-336.5 -114.5z" />
    <glyph glyph-name="d" unicode="d" horiz-adv-x="1153" 
d="M944 909l109 555h164l-285 -1464h-164l25 129h-5q-147 -158 -360 -158q-172 0 -274.5 110t-102.5 314q0 141 45.5 267t123.5 216t187 142.5t232 52.5q211 0 295 -164h10zM469 115q135 0 242.5 101t148.5 257l17 82q4 50 4 76q0 143 -66 221t-190 78q-170 0 -289 -149
t-119 -371q0 -295 252 -295z" />
    <glyph glyph-name="e" unicode="e" horiz-adv-x="1122" 
d="M1053 479h-826q-4 -46 -4 -69q0 -145 64 -221t207 -76q74 0 138 21.5t106 56t68 67t40 64.5h170q-76 -162 -211.5 -257.5t-323.5 -95.5q-208 0 -318 116t-110 323q0 186 79.5 338.5t221 240.5t316.5 88q205 0 306 -104.5t101 -284.5q0 -80 -24 -207zM655 934
q-153 0 -257.5 -83.5t-145.5 -227.5h651q16 88 -3.5 157t-82 111.5t-162.5 42.5z" />
    <glyph glyph-name="f" unicode="f" horiz-adv-x="567" 
d="M625 1333q-72 0 -99 -29t-43 -110l-28 -150h198l-26 -143h-201l-174 -901h-164l176 901h-145l26 143h148l26 142q17 87 46 145.5t70 89.5t86.5 43.5t107.5 12.5q36 0 106 -11l-26 -139q-61 6 -84 6z" />
    <glyph glyph-name="g" unicode="g" horiz-adv-x="1157" 
d="M952 915l25 129h164l-189 -968q-42 -219 -183 -332t-355 -113q-194 0 -310.5 92t-109.5 238h160q0 -186 260 -186q316 0 377 315l24 127h-4q-142 -164 -362 -164q-174 0 -278.5 103.5t-104.5 310.5q0 165 74.5 304t206 220.5t290.5 81.5q214 0 311 -158h4zM485 197
q122 0 216.5 68t143 177t48.5 236q0 252 -244 252q-123 0 -219.5 -65.5t-146.5 -169.5t-50 -224q0 -129 62.5 -201.5t189.5 -72.5z" />
    <glyph glyph-name="h" unicode="h" horiz-adv-x="1091" 
d="M733 1075q157 0 236 -101.5t43 -285.5l-133 -688h-164l133 688q22 111 -20 177.5t-162 66.5q-127 0 -228 -80t-131 -197l-127 -655h-164l285 1464h164l-107 -553q62 74 159 119t216 45z" />
    <glyph glyph-name="i" unicode="i" horiz-adv-x="401" 
d="M438 1247h-196l39 197h196zM180 0h-164l203 1044h164z" />
    <glyph glyph-name="j" unicode="j" horiz-adv-x="401" 
d="M438 1247h-196l39 197h196zM-119 -369q-44 0 -106 11l26 139q53 -6 82 -6q47 0 75.5 36t45.5 123l215 1110h164l-219 -1126q-29 -149 -106.5 -218t-176.5 -69z" />
    <glyph glyph-name="k" unicode="k" horiz-adv-x="978" 
d="M858 1044h209l-485 -378l325 -666h-190l-262 565l-195 -149l-80 -416h-164l285 1464h164l-168 -860z" />
    <glyph glyph-name="l" unicode="l" horiz-adv-x="401" 
d="M180 0h-164l285 1464h164z" />
    <glyph glyph-name="m" unicode="m" horiz-adv-x="1636" 
d="M1323 1075q150 0 211 -89.5t29 -256.5l-142 -729h-164l134 688q12 70 10.5 124t-38.5 87t-110 33q-123 0 -212.5 -83t-112.5 -198l-127 -651h-164l133 688q12 70 11 124t-37.5 87t-110.5 33q-125 0 -214.5 -85t-115.5 -214l-123 -633h-164l203 1044h164l-25 -131
q133 162 338 162q110 0 169.5 -45t74.5 -139h4q156 184 379 184z" />
    <glyph glyph-name="n" unicode="n" horiz-adv-x="1091" 
d="M733 1075q157 0 236 -101.5t43 -285.5l-133 -688h-164l133 688q22 111 -20 177.5t-162 66.5q-129 0 -230 -80.5t-129 -200.5l-127 -651h-164l203 1044h164l-27 -133h2q62 74 159 119t216 45z" />
    <glyph glyph-name="o" unicode="o" horiz-adv-x="1136" 
d="M453 -29q-192 0 -298 112t-106 300q0 186 80 343.5t226.5 252t328.5 94.5q192 0 297.5 -111.5t105.5 -299.5q0 -139 -47 -265.5t-129.5 -220.5t-201.5 -149.5t-256 -55.5zM475 115q130 0 234 76.5t158.5 197t54.5 256.5q0 129 -65.5 207t-194.5 78q-130 0 -234 -77
t-158.5 -197.5t-54.5 -256.5q0 -129 65.5 -206.5t194.5 -77.5z" />
    <glyph glyph-name="p" unicode="p" horiz-adv-x="1153" 
d="M723 1073q172 0 274.5 -110t102.5 -314q0 -141 -45.5 -267t-123.5 -216t-187 -142.5t-232 -52.5q-211 0 -295 164h-12l-96 -497h-164l274 1406h164l-25 -129h4q147 158 361 158zM526 115q170 0 289 149t119 371q0 295 -252 295q-136 0 -244 -103t-147 -260l-15 -73
q-6 -41 -6 -80q0 -143 66 -221t190 -78z" />
    <glyph glyph-name="q" unicode="q" horiz-adv-x="1153" 
d="M946 909l27 135h164l-275 -1406h-164l97 491h-7q-147 -158 -360 -158q-172 0 -274.5 110t-102.5 314q0 141 45.5 267t123.5 216t187 142.5t232 52.5q211 0 295 -164h12zM469 115q142 0 252.5 111t146.5 278l2 18q11 64 11 109q0 143 -66 221t-190 78q-170 0 -289 -149
t-119 -371q0 -295 252 -295z" />
    <glyph glyph-name="r" unicode="r" horiz-adv-x="679" 
d="M686 1069q44 0 82 -6l-33 -160q-34 6 -63 6q-143 0 -248 -98.5t-135 -251.5l-109 -559h-164l203 1044h164l-39 -196h4q65 109 144 165t194 56z" />
    <glyph glyph-name="s" unicode="s" horiz-adv-x="980" 
d="M463 -29q-213 0 -334 103.5t-121 267.5h162q0 -97 73.5 -162t225.5 -65q119 0 187.5 43t68.5 131q0 33 -13 59t-30 42.5t-55.5 33.5t-65 25.5t-82.5 25.5q-143 42 -195 67q-147 70 -161 206q-2 15 -2 32q0 98 56 165.5t143 97.5t198 30q195 0 301.5 -96t106.5 -234h-164
q0 34 -12.5 65t-39.5 59.5t-77 45.5t-117 17q-102 0 -167.5 -36.5t-65.5 -111.5q0 -46 32.5 -77t69 -46t127.5 -42q19 -6 29 -9q49 -15 77 -24t70.5 -26t67 -32.5t53.5 -39.5t44.5 -50t26.5 -62.5t11 -78.5q0 -155 -119 -239.5t-309 -84.5z" />
    <glyph glyph-name="t" unicode="t" horiz-adv-x="610" 
d="M625 901h-205l-123 -629q-15 -76 6.5 -107.5t93.5 -31.5q29 0 90 6l-28 -139q-64 -10 -113 -10q-62 0 -105.5 14t-75.5 47.5t-37.5 89.5t7.5 140l121 620h-154l29 143h154l67 349h164l-67 -349h204z" />
    <glyph glyph-name="u" unicode="u" horiz-adv-x="1091" 
d="M786 412l123 632h164l-203 -1044h-163l24 125h-4q-61 -65 -156 -109.5t-213 -44.5q-77 0 -135 21.5t-99.5 69t-52 123.5t8.5 186l131 673h164l-131 -677q-22 -114 18 -183t152 -69q139 0 241.5 81.5t130.5 215.5z" />
    <glyph glyph-name="v" unicode="v" horiz-adv-x="968" 
d="M475 0h-186l-172 1044h176l121 -880h2l456 880h181z" />
    <glyph glyph-name="w" unicode="w" horiz-adv-x="1509" 
d="M416 0h-183l-108 1044h180l51 -860h4l398 860h178l61 -860h4l410 860h182l-536 -1044h-174l-68 848h-4z" />
    <glyph glyph-name="x" unicode="x" horiz-adv-x="976" 
d="M80 0h-195l510 535l-282 509h196l207 -399h4l342 399h195l-467 -509l303 -535h-197l-227 426h-4z" />
    <glyph glyph-name="y" unicode="y" horiz-adv-x="1009" 
d="M47 -367q-38 0 -100 11l26 139q52 -6 74 -6q175 0 279 233l-224 1034h181l157 -845h4l471 845h181l-625 -1075q-113 -192 -208 -264t-216 -72z" />
    <glyph glyph-name="z" unicode="z" horiz-adv-x="923" 
d="M780 0h-843l24 123l739 774l2 4h-555l27 143h787l-19 -98l-764 -799v-4h631z" />
    <glyph glyph-name="braceleft" unicode="{" horiz-adv-x="595" 
d="M397 -240h-39q-73 0 -121.5 9t-87 34.5t-54.5 71t-15.5 117t20.5 174.5l41 211q9 53 10 96.5t-22 70.5t-70 27l33 164q68 -1 103.5 51t52.5 142l43 221q20 103 47.5 173.5t60.5 114.5t81.5 68t100 32.5t126.5 8.5h38l-32 -164h-39q-79 0 -124.5 -42t-66.5 -148l-61 -318
q-29 -150 -164 -219v-4q52 -36 73.5 -87t4.5 -134l-62 -307q-22 -113 7.5 -156t109.5 -43h39z" />
    <glyph glyph-name="bar" unicode="|" horiz-adv-x="452" 
d="M145 -262h-143l346 1786h144z" />
    <glyph glyph-name="braceright" unicode="}" horiz-adv-x="595" 
d="M-61 -240h-39l32 164h39q79 0 124.5 42.5t66.5 148.5l61 317q29 150 164 219v4q-52 36 -73.5 87.5t-4.5 134.5l62 307q22 113 -7.5 155.5t-109.5 42.5h-39l33 164h39q73 0 121.5 -9t87 -34.5t54.5 -70.5t15.5 -116.5t-20.5 -174.5l-41 -211q-9 -53 -10 -96.5t22 -71
t70 -27.5l-33 -164q-68 1 -103.5 -50.5t-52.5 -141.5l-43 -221q-20 -103 -47.5 -173.5t-60 -115t-81 -68.5t-100 -32.5t-126.5 -8.5z" />
    <glyph glyph-name="asciitilde" unicode="~" horiz-adv-x="880" 
d="M260 553h-143q21 106 83.5 174t145.5 68q41 0 79 -13.5t61 -30.5t50 -30.5t48 -13.5q40 0 64 28t30 60h143q-21 -106 -83.5 -174t-145.5 -68q-51 0 -96.5 22t-80.5 44t-61 22q-40 0 -64 -28t-30 -60z" />
    <glyph glyph-name="uni00A0" unicode="&#xa0;" horiz-adv-x="438" 
 />
    <glyph glyph-name="exclamdown" unicode="&#xa1;" horiz-adv-x="438" 
d="M410 1001h-197l39 197h197zM158 -266h-185l82 420l170 667h103l-88 -667z" />
    <glyph glyph-name="cent" unicode="&#xa2;" horiz-adv-x="1142" 
d="M1130 877h-159q12 124 -42.5 193t-172.5 75l-158 -813q67 6 123.5 33t94 66t61.5 80t36 83h164q-45 -173 -184.5 -287t-321.5 -121l-34 -176h-123l35 185q-152 28 -237 137t-85 276q0 254 150.5 448t384.5 226l30 164h123l-31 -160q174 -12 267 -126t79 -283zM293 623
q0 -106 45 -183t139 -102l154 795q-152 -42 -245 -187t-93 -323z" />
    <glyph glyph-name="sterling" unicode="&#xa3;" horiz-adv-x="1177" 
d="M1163 950h-184q62 318 -234 318q-147 0 -238 -88t-91 -228q0 -41 5.5 -77t19 -89.5t16.5 -66.5h325l-28 -154h-287q-12 -110 -78.5 -215.5t-161.5 -165.5v-4q4 2 31 15t41 18.5t40 14t51 12.5t52 4q48 0 90 -14.5t68.5 -31.5t66 -31.5t83.5 -14.5q59 0 113.5 23t125.5 69
l49 -150q-92 -62 -160 -92.5t-151 -30.5q-61 0 -115.5 19.5t-89 43t-83.5 43t-101 19.5q-54 0 -107.5 -21t-150.5 -75l-72 135q102 58 182.5 184.5t92.5 245.5h-170l28 154h127q-1 5 -8 31t-9 35.5t-7 32.5t-7 38.5t-4 37t-2 42.5q0 95 36.5 184t103 158.5t168.5 111.5
t223 42q104 0 183.5 -25t127 -69t75 -105t28.5 -132.5t-13 -150.5z" />
    <glyph glyph-name="currency" unicode="&#xa4;" horiz-adv-x="1081" 
d="M1108 1077l-164 -135q37 -70 37 -164q0 -176 -123 -315l105 -129l-105 -88l-104 129q-118 -78 -250 -78q-140 0 -234 82l-157 -133l-72 86l162 135q-37 67 -37 162q0 179 127 319l-107 131l105 86l104 -129q120 76 250 76q138 0 232 -82l157 133zM330 641
q0 -103 50.5 -152t137.5 -49q130 0 213.5 97t83.5 233q0 101 -50 150t-136 49q-131 0 -215 -96.5t-84 -231.5z" />
    <glyph glyph-name="yen" unicode="&#xa5;" horiz-adv-x="1220" 
d="M1130 1405h203l-590 -780h334l-22 -123h-361l-22 -117h360l-24 -123h-359l-51 -262h-184l51 262h-359l25 123h356l23 117h-356l22 123h334l-287 780h195l223 -676h4z" />
    <glyph glyph-name="brokenbar" unicode="&#xa6;" horiz-adv-x="452" 
d="M350 786h-143l141 738h144zM145 -262h-143l150 764h143z" />
    <glyph glyph-name="section" unicode="&#xa7;" horiz-adv-x="1206" 
d="M1112 1114h-164q9 100 -45 159.5t-172 59.5q-112 0 -175.5 -52.5t-63.5 -137.5q0 -43 10.5 -75t38 -61.5t57.5 -51t88 -58.5l88 -55q61 -38 89 -56t71.5 -48t62 -48t43.5 -44.5t35 -49.5t17.5 -52.5t7.5 -62.5q0 -112 -72 -198.5t-194 -120.5q57 -77 57 -185
q0 -159 -114 -261.5t-300 -102.5q-110 0 -191.5 31.5t-123.5 84.5t-57.5 115.5t-4.5 130.5h164q-9 -100 45 -159.5t172 -59.5q112 0 176 53t64 138q0 42 -15.5 78.5t-47 67.5t-60.5 52t-72 48l-88 55q-61 39 -88.5 56.5t-71.5 47.5t-62 47.5t-43.5 44.5t-35 49.5t-17 52
t-7.5 62.5q0 112 72 199t194 121q-57 77 -57 184q0 159 113.5 262t299.5 103q110 0 191.5 -32t123.5 -85t57.5 -115.5t4.5 -130.5zM657 715l-108 67q-19 12 -70 47q-91 -9 -142.5 -59.5t-51.5 -126.5q0 -70 51 -117t219 -151l109 -68q12 -7 69 -47q91 9 143 59.5t52 126.5
q0 70 -51.5 117.5t-219.5 151.5z" />
    <glyph glyph-name="dieresis" unicode="&#xa8;" horiz-adv-x="700" 
d="M422 1247h-197l39 197h197zM741 1247h-196l39 197h196z" />
    <glyph glyph-name="copyright" unicode="&#xa9;" horiz-adv-x="1751" 
d="M799 -29q-304 0 -486 168t-182 471q0 144 43 278t124 243t190.5 190.5t250 126.5t295.5 45q304 0 486 -168t182 -471q0 -144 -43 -278t-124 -243t-190.5 -190.5t-250 -126.5t-295.5 -45zM811 98q166 0 306.5 60.5t235.5 164t148 241.5t53 292q0 248 -138.5 379
t-393.5 131q-219 0 -390.5 -104t-262 -275.5t-90.5 -378.5q0 -247 139 -378.5t393 -131.5zM831 272q-166 0 -255 95.5t-89 265.5q0 151 67 279t185 204t260 76q163 0 251 -95t77 -235h-143q1 25 -6 52.5t-26 61t-64 55.5t-109 22q-153 0 -248.5 -117.5t-95.5 -290.5
q0 -111 49.5 -172t167.5 -61q68 0 122 21t85.5 54t48.5 61t25 56h143q-39 -145 -157 -238.5t-288 -93.5z" />
    <glyph glyph-name="ordfeminine" unicode="&#xaa;" horiz-adv-x="888" 
d="M348 625q-106 0 -164.5 56t-58.5 157q0 120 87.5 183t258.5 95q48 9 73.5 14.5t61.5 15t55 19.5t38.5 24t27.5 33t8 42q0 90 -139 90q-89 0 -136.5 -38t-66.5 -118h-157q29 131 125 206t255 75q152 0 219.5 -72t38.5 -217l-69 -356q-8 -45 2 -64.5t45 -19.5h18l-18 -97
q-58 -14 -96 -14q-120 0 -115 123h-2q-114 -137 -291 -137zM412 756q103 0 176.5 59.5t93.5 157.5l20 98q-30 -21 -54.5 -29t-131.5 -32q-45 -10 -70 -16t-56 -16t-46.5 -20t-31 -24.5t-21.5 -33.5t-6 -44q0 -100 127 -100z" />
    <glyph glyph-name="guillemotleft" unicode="&#xab;" horiz-adv-x="958" 
d="M453 264l-35 -172l-344 332l37 194l473 330l-37 -198l-357 -242v-4zM803 264l-35 -172l-344 332l37 194l473 330l-37 -198l-356 -242v-4z" />
    <glyph glyph-name="logicalnot" unicode="&#xac;" horiz-adv-x="1054" 
d="M881 295h-185l70 356h-664l33 164h848z" />
    <glyph glyph-name="uni00AD" unicode="&#xad;" horiz-adv-x="727" 
d="M621 440h-549l32 164h549z" />
    <glyph glyph-name="registered" unicode="&#xae;" horiz-adv-x="1169" 
d="M604 506q-185 0 -305.5 110.5t-120.5 292.5q0 159 72 293t203.5 214.5t294.5 80.5q185 0 305.5 -110.5t120.5 -292.5q0 -159 -72 -293t-203.5 -214.5t-294.5 -80.5zM604 586q211 0 344 143t133 361q0 148 -89.5 237.5t-243.5 89.5q-140 0 -249.5 -66t-169 -180.5
t-59.5 -257.5q0 -148 90 -237.5t244 -89.5zM549 729h-129l106 547h197q190 0 190 -146q0 -57 -39.5 -98t-107.5 -55l-2 -4q38 -6 58 -32.5t21 -58.5t0.5 -65.5t-3.5 -55t8 -26.5l-2 -6h-129q-8 9 -4 30t5 49.5t-0.5 54t-20.5 43.5t-56 18h-53zM608 1028h58q58 0 91.5 22.5
t33.5 63.5q0 36 -25 48t-74 12h-57z" />
    <glyph glyph-name="macron" unicode="&#xaf;" horiz-adv-x="692" 
d="M750 1247h-529l29 144h528z" />
    <glyph glyph-name="degree" unicode="&#xb0;" horiz-adv-x="788" 
d="M461 879q-130 0 -196 75t-66 181q0 146 114.5 252t266.5 106q130 0 196 -75t66 -181q0 -146 -114.5 -252t-266.5 -106zM483 1001q93 0 159.5 66.5t66.5 159.5q0 65 -40 104t-112 39q-93 0 -159 -66t-66 -159q0 -65 39.5 -104.5t111.5 -39.5z" />
    <glyph glyph-name="plusminus" unicode="&#xb1;" horiz-adv-x="1136" 
d="M598 248h-164l78 395h-383l31 162h383l78 395h163l-77 -395h383l-31 -162h-383zM932 -16h-930l31 161h930z" />
    <glyph glyph-name="uni00B2" unicode="&#xb2;" horiz-adv-x="716" 
d="M698 743h-612q7 36 18 67.5t28.5 59.5t33 50t42 45t43.5 37.5t49 35t48 30.5t52 30t49 28q107 63 157.5 116t50.5 122q0 98 -104 98q-154 0 -186 -184h-158q27 143 123.5 230t245.5 87q115 0 181 -52.5t66 -153.5q0 -50 -19 -97.5t-44.5 -81t-66.5 -67.5t-69 -52.5
t-67 -41.5q-104 -62 -153 -97.5t-76 -72.5v-2h395z" />
    <glyph glyph-name="uni00B3" unicode="&#xb3;" horiz-adv-x="753" 
d="M436 739q-164 0 -242.5 83.5t-50.5 224.5h160q-16 -86 14.5 -130.5t120.5 -44.5t139.5 41.5t49.5 110.5q0 57 -34.5 80.5t-103.5 23.5h-63l23 121h59q76 0 119 36t43 93q0 99 -113 99q-75 0 -119 -38t-55 -102h-158q21 117 119.5 195t241.5 78q118 0 184 -54.5t66 -148.5
q0 -151 -162 -209v-2q119 -41 119 -168q0 -126 -99.5 -207.5t-257.5 -81.5z" />
    <glyph glyph-name="acute" unicode="&#xb4;" horiz-adv-x="446" 
d="M393 1210h-133l135 275h195z" />
    <glyph glyph-name="uni00B5" unicode="&#xb5;" horiz-adv-x="1142" 
d="M817 412l123 632h164l-203 -1044h-164l25 125h-4q-56 -63 -146 -108.5t-192 -45.5q-141 0 -209 82l-80 -415h-164l275 1406h164l-132 -677q-48 -252 179 -252q135 0 237 84.5t127 212.5z" />
    <glyph glyph-name="paragraph" unicode="&#xb6;" horiz-adv-x="1128" 
d="M567 0h-143l133 686h-94q-163 0 -245.5 71t-82.5 206q0 222 133 361.5t346 139.5h537l-285 -1464h-143l252 1300h-156z" />
    <glyph glyph-name="periodcentered" unicode="&#xb7;" horiz-adv-x="409" 
d="M281 414h-197l39 196h196z" />
    <glyph glyph-name="cedilla" unicode="&#xb8;" horiz-adv-x="595" 
d="M121 -406q-117 0 -207 64l53 51q78 -31 137 -31q54 0 86.5 26t32.5 67q0 47 -69 47q-48 0 -86 -15l-19 39l160 158h102l-116 -113l-2 -4q71 10 122.5 -16t51.5 -86q0 -82 -69 -134.5t-177 -52.5z" />
    <glyph glyph-name="uni00B9" unicode="&#xb9;" horiz-adv-x="456" 
d="M242 745l114 590q-47 -32 -182 -32l25 129q200 3 233 145h131l-162 -832h-159z" />
    <glyph glyph-name="ordmasculine" unicode="&#xba;" horiz-adv-x="909" 
d="M467 625q-151 0 -233 87t-82 242q0 137 62 257t176.5 194t254.5 74q151 0 233.5 -87.5t82.5 -242.5q0 -102 -37 -197.5t-101 -167.5t-157 -115.5t-199 -43.5zM492 758q91 0 164.5 56t111 141t37.5 178q0 99 -46 156t-138 57q-91 0 -164.5 -55.5t-111.5 -141t-38 -178.5
q0 -99 46.5 -156t138.5 -57z" />
    <glyph glyph-name="guillemotright" unicode="&#xbb;" horiz-adv-x="958" 
d="M496 422l-473 -330l36 199l357 241v5l-262 239l34 172l344 -332zM846 422l-473 -330l37 199l356 241v5l-262 239l35 172l344 -332z" />
    <glyph glyph-name="onequarter" unicode="&#xbc;" horiz-adv-x="1599" 
d="M217 0h-188l1212 1464h189zM238 633l114 590q-49 -33 -182 -33l25 129q200 3 233 145h131l-162 -831h-159zM1346 0h-162l35 184h-388l31 154l481 493h162l-98 -514h119l-27 -133h-119zM1309 643l-318 -326h254z" />
    <glyph glyph-name="onehalf" unicode="&#xbd;" horiz-adv-x="1615" 
d="M221 0h-188l1212 1464h189zM242 633l114 590q-49 -33 -182 -33l25 129q200 3 233 145h131l-162 -831h-159zM1440 0h-613q7 36 18 67.5t28.5 59.5t33 50t42 45t43.5 37.5t49 35t48 30.5t52 30t49 28q107 63 158 116t51 122q0 98 -105 98q-154 0 -186 -184h-158
q27 143 123.5 230t245.5 87q115 0 181.5 -53t66.5 -154q0 -50 -19 -97.5t-45 -81t-67 -67.5t-69 -52.5t-67 -41.5q-104 -62 -153 -97.5t-76 -72.5v-2h395z" />
    <glyph glyph-name="threequarters" unicode="&#xbe;" horiz-adv-x="1892" 
d="M428 616q-164 0 -242.5 83.5t-50.5 224.5h160q-16 -86 14.5 -130t120.5 -44t139 41t49 110q0 57 -34.5 81t-102.5 24h-63l22 120h60q76 0 119 36t43 93q0 99 -113 99q-75 0 -119 -38t-55 -102h-158q21 117 119.5 195t241.5 78q118 0 183.5 -54.5t65.5 -148.5
q0 -152 -161 -209v-2q118 -41 118 -168q0 -126 -99 -207.5t-257 -81.5zM543 0h-189l1213 1464h188zM1630 0h-162l35 184h-387l31 154l481 493h162l-98 -514h118l-26 -133h-119zM1593 643l-317 -326h254z" />
    <glyph glyph-name="questiondown" unicode="&#xbf;" horiz-adv-x="1009" 
d="M748 999h-197l39 197h196zM340 -297q-186 0 -289.5 87.5t-103.5 236.5q0 40 9 78t21 67t34 59t39.5 49.5t47 43.5t45.5 36t46.5 32.5t39.5 27.5t39 28l40 28t35.5 27t35.5 30.5t31 32t31 38t25.5 42t24 50.5t18 57t15.5 68h185q-11 -57 -28.5 -108t-35 -87.5t-47.5 -75.5
t-48.5 -60.5t-57.5 -53.5t-55.5 -44.5t-59.5 -43.5q-10 -7 -49.5 -34t-57 -40.5t-49.5 -43.5t-47 -55t-28 -62.5t-13 -77.5q0 -79 57 -123.5t162 -44.5q66 0 123.5 17.5t110 55.5t89.5 106.5t52 160.5h184q-36 -223 -190 -363.5t-381 -140.5z" />
    <glyph glyph-name="Agrave" unicode="&#xc0;" horiz-adv-x="1323" 
d="M924 1630h-133l-127 275h194zM109 0h-195l825 1464h207l260 -1464h-194l-58 367h-645zM811 1294l-410 -764h525l-111 764h-4z" />
    <glyph glyph-name="Aacute" unicode="&#xc1;" horiz-adv-x="1323" 
d="M942 1630h-133l135 275h195zM109 0h-195l825 1464h207l260 -1464h-194l-58 367h-645zM811 1294l-410 -764h525l-111 764h-4z" />
    <glyph glyph-name="Acircumflex" unicode="&#xc2;" horiz-adv-x="1323" 
d="M764 1630h-170l242 275h184l135 -275h-164l-71 187h-5zM109 0h-195l825 1464h207l260 -1464h-194l-58 367h-645zM811 1294l-410 -764h525l-111 764h-4z" />
    <glyph glyph-name="Atilde" unicode="&#xc3;" horiz-adv-x="1323" 
d="M715 1655h-123q19 96 72.5 144t115.5 48q56 0 135 -36.5t101 -36.5q48 0 61 69h123q-19 -96 -71.5 -144t-116.5 -48q-56 0 -135 36.5t-101 36.5q-50 0 -61 -69zM109 0h-195l825 1464h207l260 -1464h-194l-58 367h-645zM811 1294l-410 -764h525l-111 764h-4z" />
    <glyph glyph-name="Adieresis" unicode="&#xc4;" horiz-adv-x="1323" 
d="M819 1667h-196l39 197h196zM1139 1667h-197l39 197h197zM109 0h-195l825 1464h207l260 -1464h-194l-58 367h-645zM811 1294l-410 -764h525l-111 764h-4z" />
    <glyph glyph-name="Aring" unicode="&#xc5;" horiz-adv-x="1323" 
d="M856 1567q-67 0 -107 40.5t-40 104.5q0 89 63.5 151t153.5 62q68 0 108.5 -40.5t40.5 -104.5q0 -90 -64 -151.5t-155 -61.5zM872 1647q47 0 82 35.5t35 82.5q0 37 -21.5 58.5t-56.5 21.5q-49 0 -82.5 -33t-33.5 -86q0 -36 19.5 -57.5t57.5 -21.5zM109 0h-195l825 1464
h207l260 -1464h-194l-58 367h-645zM811 1294l-410 -764h525l-111 764h-4z" />
    <glyph glyph-name="AE" unicode="&#xc6;" horiz-adv-x="1986" 
d="M2081 1464l-33 -164h-829l-89 -460h732l-33 -164h-731l-99 -512h854l-32 -164h-1039l72 367h-530l-213 -367h-201l889 1464h1282zM856 1294l-440 -764h469l149 764h-178z" />
    <glyph glyph-name="Ccedilla" unicode="&#xc7;" horiz-adv-x="1447" 
d="M926 1329q-182 0 -328.5 -99t-227.5 -270.5t-81 -381.5q0 -443 399 -443q89 0 166.5 23.5t133 61.5t99 90.5t70.5 106t43 111.5h189q-70 -243 -258 -396.5t-441 -160.5l-88 -84l-2 -4q71 10 122.5 -16t51.5 -86q0 -82 -69 -134.5t-177 -52.5q-116 0 -206 64l53 51
q77 -31 137 -31q54 0 86.5 26t32.5 67q0 47 -70 47q-49 0 -86 -15l-18 39l135 133q-230 23 -359 179.5t-129 416.5q0 148 41.5 287.5t119 253.5t180.5 200t233 133.5t270 47.5q106 0 196 -28t152.5 -77t105 -114t60 -139.5t11.5 -153.5h-185q0 71 -20.5 132t-62.5 110.5
t-113.5 77.5t-165.5 28z" />
    <glyph glyph-name="Egrave" unicode="&#xc8;" horiz-adv-x="1255" 
d="M918 1630h-134l-127 275h195zM1090 0h-1039l285 1464h1014l-33 -164h-830l-88 -460h731l-32 -164h-731l-99 -512h854z" />
    <glyph glyph-name="Eacute" unicode="&#xc9;" horiz-adv-x="1255" 
d="M936 1630h-133l135 275h195zM1090 0h-1039l285 1464h1014l-33 -164h-830l-88 -460h731l-32 -164h-731l-99 -512h854z" />
    <glyph glyph-name="Ecircumflex" unicode="&#xca;" horiz-adv-x="1255" 
d="M758 1630h-170l241 275h185l135 -275h-164l-72 187h-4zM1090 0h-1039l285 1464h1014l-33 -164h-830l-88 -460h731l-32 -164h-731l-99 -512h854z" />
    <glyph glyph-name="Edieresis" unicode="&#xcb;" horiz-adv-x="1255" 
d="M813 1667h-197l39 197h197zM1133 1667h-197l39 197h196zM1090 0h-1039l285 1464h1014l-33 -164h-830l-88 -460h731l-32 -164h-731l-99 -512h854z" />
    <glyph glyph-name="Igrave" unicode="&#xcc;" horiz-adv-x="491" 
d="M510 1630h-133l-127 275h194zM236 0h-185l285 1464h184z" />
    <glyph glyph-name="Iacute" unicode="&#xcd;" horiz-adv-x="491" 
d="M528 1630h-133l135 275h195zM236 0h-185l285 1464h184z" />
    <glyph glyph-name="Icircumflex" unicode="&#xce;" horiz-adv-x="491" 
d="M350 1630h-170l242 275h184l135 -275h-163l-72 187h-4zM236 0h-185l285 1464h184z" />
    <glyph glyph-name="Idieresis" unicode="&#xcf;" horiz-adv-x="491" 
d="M406 1667h-197l39 197h196zM725 1667h-197l39 197h197zM236 0h-185l285 1464h184z" />
    <glyph glyph-name="Eth" unicode="&#xd0;" horiz-adv-x="1443" 
d="M356 1464h502q561 0 561 -557q0 -185 -60 -351.5t-164.5 -289t-253.5 -194.5t-318 -72h-551l133 686h-144l27 143h145zM289 164h360q167 0 301.5 100t208.5 268.5t74 370.5q0 95 -18.5 163.5t-63 123.5t-126 82.5t-200.5 27.5h-317l-90 -471h467l-29 -143h-467z" />
    <glyph glyph-name="Ntilde" unicode="&#xd1;" horiz-adv-x="1452" 
d="M782 1655h-123q19 96 73 144t116 48q56 0 134.5 -36.5t100.5 -36.5q49 0 62 69h123q-19 -96 -72 -144t-117 -48q-56 0 -134.5 36.5t-100.5 36.5q-29 0 -43.5 -21.5t-18.5 -47.5zM236 0h-185l285 1464h221l498 -1202h8l233 1202h185l-285 -1464h-221l-498 1202h-8z" />
    <glyph glyph-name="Ograve" unicode="&#xd2;" horiz-adv-x="1589" 
d="M1059 1630h-133l-127 275h194zM696 -29q-276 0 -435 163t-159 431q0 184 67.5 354.5t182 296.5t277.5 201.5t344 75.5q276 0 435 -163t159 -431q0 -184 -67.5 -354.5t-182 -296.5t-277.5 -201.5t-344 -75.5zM711 135q146 0 272.5 63t212.5 168t135 244t49 289
q0 93 -24 169.5t-73.5 136t-132 92t-192.5 32.5q-146 0 -272.5 -63t-212.5 -168t-135 -244t-49 -289q0 -93 24 -169.5t73.5 -136t132 -92t192.5 -32.5z" />
    <glyph glyph-name="Oacute" unicode="&#xd3;" horiz-adv-x="1589" 
d="M1077 1630h-133l135 275h195zM696 -29q-276 0 -435 163t-159 431q0 184 67.5 354.5t182 296.5t277.5 201.5t344 75.5q276 0 435 -163t159 -431q0 -184 -67.5 -354.5t-182 -296.5t-277.5 -201.5t-344 -75.5zM711 135q146 0 272.5 63t212.5 168t135 244t49 289
q0 93 -24 169.5t-73.5 136t-132 92t-192.5 32.5q-146 0 -272.5 -63t-212.5 -168t-135 -244t-49 -289q0 -93 24 -169.5t73.5 -136t132 -92t192.5 -32.5z" />
    <glyph glyph-name="Ocircumflex" unicode="&#xd4;" horiz-adv-x="1589" 
d="M899 1630h-170l242 275h184l135 -275h-164l-71 187h-4zM696 -29q-276 0 -435 163t-159 431q0 184 67.5 354.5t182 296.5t277.5 201.5t344 75.5q276 0 435 -163t159 -431q0 -184 -67.5 -354.5t-182 -296.5t-277.5 -201.5t-344 -75.5zM711 135q146 0 272.5 63t212.5 168
t135 244t49 289q0 93 -24 169.5t-73.5 136t-132 92t-192.5 32.5q-146 0 -272.5 -63t-212.5 -168t-135 -244t-49 -289q0 -93 24 -169.5t73.5 -136t132 -92t192.5 -32.5z" />
    <glyph glyph-name="Otilde" unicode="&#xd5;" horiz-adv-x="1589" 
d="M850 1655h-123q19 96 72.5 144t115.5 48q56 0 135 -36.5t101 -36.5q48 0 61 69h123q-19 -96 -71.5 -144t-116.5 -48q-56 0 -135 36.5t-101 36.5q-50 0 -61 -69zM696 -29q-276 0 -435 163t-159 431q0 184 67.5 354.5t182 296.5t277.5 201.5t344 75.5q276 0 435 -163
t159 -431q0 -184 -67.5 -354.5t-182 -296.5t-277.5 -201.5t-344 -75.5zM711 135q146 0 272.5 63t212.5 168t135 244t49 289q0 93 -24 169.5t-73.5 136t-132 92t-192.5 32.5q-146 0 -272.5 -63t-212.5 -168t-135 -244t-49 -289q0 -93 24 -169.5t73.5 -136t132 -92
t192.5 -32.5z" />
    <glyph glyph-name="Odieresis" unicode="&#xd6;" horiz-adv-x="1589" 
d="M954 1667h-196l39 197h196zM1274 1667h-197l39 197h197zM696 -29q-276 0 -435 163t-159 431q0 184 67.5 354.5t182 296.5t277.5 201.5t344 75.5q276 0 435 -163t159 -431q0 -184 -67.5 -354.5t-182 -296.5t-277.5 -201.5t-344 -75.5zM711 135q146 0 272.5 63t212.5 168
t135 244t49 289q0 93 -24 169.5t-73.5 136t-132 92t-192.5 32.5q-146 0 -272.5 -63t-212.5 -168t-135 -244t-49 -289q0 -93 24 -169.5t73.5 -136t132 -92t192.5 -32.5z" />
    <glyph glyph-name="multiply" unicode="&#xd7;" horiz-adv-x="1136" 
d="M571 549l-368 -309l-94 116l368 310l-248 309l140 117l247 -310l371 310l94 -117l-370 -309l250 -310l-140 -116z" />
    <glyph glyph-name="Oslash" unicode="&#xd8;" horiz-adv-x="1599" 
d="M1628 1456l62 -70l-195 -163q78 -138 78 -324q0 -184 -67.5 -354.5t-182 -296.5t-277.5 -201.5t-344 -75.5q-151 0 -269.5 51.5t-196.5 145.5l-189 -158l-55 72l192 162q-75 138 -75 321q0 184 67 354.5t182 296.5t277.5 201.5t343.5 75.5q301 0 463 -195zM295 565
q0 -117 35 -200l975 819q-106 145 -340 145q-146 0 -272.5 -63t-213 -168t-135.5 -244t-49 -289zM1386 899q0 116 -34 203l-979 -817q111 -150 344 -150q146 0 272.5 63t212.5 168t135 244t49 289z" />
    <glyph glyph-name="Ugrave" unicode="&#xd9;" horiz-adv-x="1404" 
d="M946 1630h-133l-127 275h195zM594 -29q-271 0 -389 140t-72 376l191 977h184l-191 -977q-36 -186 37.5 -269t259.5 -83q387 0 457 352l191 977h184l-191 -977q-22 -114 -70.5 -205.5t-127.5 -162.5t-196.5 -109.5t-266.5 -38.5z" />
    <glyph glyph-name="Uacute" unicode="&#xda;" horiz-adv-x="1404" 
d="M965 1630h-134l136 275h194zM594 -29q-271 0 -389 140t-72 376l191 977h184l-191 -977q-36 -186 37.5 -269t259.5 -83q387 0 457 352l191 977h184l-191 -977q-22 -114 -70.5 -205.5t-127.5 -162.5t-196.5 -109.5t-266.5 -38.5z" />
    <glyph glyph-name="Ucircumflex" unicode="&#xdb;" horiz-adv-x="1404" 
d="M786 1630h-170l242 275h184l136 -275h-164l-72 187h-4zM594 -29q-271 0 -389 140t-72 376l191 977h184l-191 -977q-36 -186 37.5 -269t259.5 -83q387 0 457 352l191 977h184l-191 -977q-22 -114 -70.5 -205.5t-127.5 -162.5t-196.5 -109.5t-266.5 -38.5z" />
    <glyph glyph-name="Udieresis" unicode="&#xdc;" horiz-adv-x="1404" 
d="M842 1667h-197l39 197h197zM1161 1667h-196l39 197h196zM594 -29q-271 0 -389 140t-72 376l191 977h184l-191 -977q-36 -186 37.5 -269t259.5 -83q387 0 457 352l191 977h184l-191 -977q-22 -114 -70.5 -205.5t-127.5 -162.5t-196.5 -109.5t-266.5 -38.5z" />
    <glyph glyph-name="Yacute" unicode="&#xdd;" horiz-adv-x="1290" 
d="M909 1630h-133l135 275h195zM635 0h-184l116 600l-364 864h194l283 -723h4l567 723h203l-702 -864z" />
    <glyph glyph-name="Thorn" unicode="&#xde;" horiz-adv-x="1257" 
d="M236 0h-185l285 1464h184l-47 -245h371q97 0 172 -17t134.5 -55t91.5 -106.5t32 -163.5q0 -219 -155 -364.5t-404 -145.5h-408zM338 530h418q153 0 242 92.5t89 237.5q0 105 -56 150t-189 45h-402z" />
    <glyph glyph-name="germandbls" unicode="&#xdf;" horiz-adv-x="1060" 
d="M489 -29q-82 0 -186 29l29 143q75 -32 153 -32q149 0 236.5 107t87.5 257q0 65 -18.5 114t-46.5 76.5t-67.5 45t-74.5 23t-74 5.5h-61l29 144h55q144 0 239 83.5t95 209.5q0 174 -203 174q-132 0 -200.5 -77t-100.5 -241l-201 -1032h-164l203 1044q43 224 170 336.5
t322 112.5q164 0 255 -76.5t91 -216.5q0 -147 -96 -249.5t-232 -139.5v-4q131 -42 192.5 -118t61.5 -208q0 -97 -33.5 -188t-94 -163t-156 -115.5t-210.5 -43.5z" />
    <glyph glyph-name="agrave" unicode="&#xe0;" horiz-adv-x="1103" 
d="M758 1210h-133l-127 275h194zM332 -29q-149 0 -229 71.5t-80 203.5q0 68 23.5 121.5t62 90.5t101 66.5t128 48.5t154.5 37q175 35 222 51q101 35 121 103q5 20 5 43q0 60 -44.5 92.5t-154.5 32.5q-131 0 -203.5 -51t-101.5 -166h-168q38 170 162 265t325 95
q192 0 280.5 -88.5t55.5 -257.5l-96 -493q-13 -57 -5 -90t48 -33q11 0 35 4l-23 -107q-52 -20 -98 -20q-69 0 -102.5 38t-30.5 124h-6q-143 -181 -381 -181zM379 115q147 0 254.5 80t136.5 223l31 151q-32 -30 -73.5 -44t-176.5 -42q-81 -17 -130 -29.5t-98.5 -30.5t-75 -39
t-41.5 -51.5t-16 -70.5q0 -147 189 -147z" />
    <glyph glyph-name="aacute" unicode="&#xe1;" horiz-adv-x="1103" 
d="M776 1210h-133l135 275h195zM332 -29q-149 0 -229 71.5t-80 203.5q0 68 23.5 121.5t62 90.5t101 66.5t128 48.5t154.5 37q175 35 222 51q101 35 121 103q5 20 5 43q0 60 -44.5 92.5t-154.5 32.5q-131 0 -203.5 -51t-101.5 -166h-168q38 170 162 265t325 95
q192 0 280.5 -88.5t55.5 -257.5l-96 -493q-13 -57 -5 -90t48 -33q11 0 35 4l-23 -107q-52 -20 -98 -20q-69 0 -102.5 38t-30.5 124h-6q-143 -181 -381 -181zM379 115q147 0 254.5 80t136.5 223l31 151q-32 -30 -73.5 -44t-176.5 -42q-81 -17 -130 -29.5t-98.5 -30.5t-75 -39
t-41.5 -51.5t-16 -70.5q0 -147 189 -147z" />
    <glyph glyph-name="acircumflex" unicode="&#xe2;" horiz-adv-x="1103" 
d="M598 1210h-170l242 275h184l135 -275h-164l-71 187h-4zM332 -29q-149 0 -229 71.5t-80 203.5q0 68 23.5 121.5t62 90.5t101 66.5t128 48.5t154.5 37q175 35 222 51q101 35 121 103q5 20 5 43q0 60 -44.5 92.5t-154.5 32.5q-131 0 -203.5 -51t-101.5 -166h-168
q38 170 162 265t325 95q192 0 280.5 -88.5t55.5 -257.5l-96 -493q-13 -57 -5 -90t48 -33q11 0 35 4l-23 -107q-52 -20 -98 -20q-69 0 -102.5 38t-30.5 124h-6q-143 -181 -381 -181zM379 115q147 0 254.5 80t136.5 223l31 151q-32 -30 -73.5 -44t-176.5 -42
q-81 -17 -130 -29.5t-98.5 -30.5t-75 -39t-41.5 -51.5t-16 -70.5q0 -147 189 -147z" />
    <glyph glyph-name="atilde" unicode="&#xe3;" horiz-adv-x="1103" 
d="M549 1235h-123q19 96 72.5 144t115.5 48q56 0 135 -36.5t101 -36.5q48 0 61 69h123q-19 -96 -71.5 -144t-116.5 -48q-56 0 -135 37t-101 37q-50 0 -61 -70zM332 -29q-149 0 -229 71.5t-80 203.5q0 68 23.5 121.5t62 90.5t101 66.5t128 48.5t154.5 37q175 35 222 51
q101 35 121 103q5 20 5 43q0 60 -44.5 92.5t-154.5 32.5q-131 0 -203.5 -51t-101.5 -166h-168q38 170 162 265t325 95q192 0 280.5 -88.5t55.5 -257.5l-96 -493q-13 -57 -5 -90t48 -33q11 0 35 4l-23 -107q-52 -20 -98 -20q-69 0 -102.5 38t-30.5 124h-6
q-143 -181 -381 -181zM379 115q147 0 254.5 80t136.5 223l31 151q-32 -30 -73.5 -44t-176.5 -42q-81 -17 -130 -29.5t-98.5 -30.5t-75 -39t-41.5 -51.5t-16 -70.5q0 -147 189 -147z" />
    <glyph glyph-name="adieresis" unicode="&#xe4;" horiz-adv-x="1103" 
d="M653 1247h-196l39 197h196zM973 1247h-197l39 197h197zM332 -29q-149 0 -229 71.5t-80 203.5q0 68 23.5 121.5t62 90.5t101 66.5t128 48.5t154.5 37q175 35 222 51q101 35 121 103q5 20 5 43q0 60 -44.5 92.5t-154.5 32.5q-131 0 -203.5 -51t-101.5 -166h-168
q38 170 162 265t325 95q192 0 280.5 -88.5t55.5 -257.5l-96 -493q-13 -57 -5 -90t48 -33q11 0 35 4l-23 -107q-52 -20 -98 -20q-69 0 -102.5 38t-30.5 124h-6q-143 -181 -381 -181zM379 115q147 0 254.5 80t136.5 223l31 151q-32 -30 -73.5 -44t-176.5 -42
q-81 -17 -130 -29.5t-98.5 -30.5t-75 -39t-41.5 -51.5t-16 -70.5q0 -147 189 -147z" />
    <glyph glyph-name="aring" unicode="&#xe5;" horiz-adv-x="1103" 
d="M690 1147q-67 0 -107 40.5t-40 104.5q0 89 63.5 151t153.5 62q68 0 108.5 -40.5t40.5 -104.5q0 -90 -64 -151.5t-155 -61.5zM707 1227q47 0 81.5 35.5t34.5 83.5q0 36 -21.5 57.5t-56.5 21.5q-49 0 -82.5 -32.5t-33.5 -85.5q0 -36 20 -58t58 -22zM332 -29
q-149 0 -229 71.5t-80 203.5q0 68 23.5 121.5t62 90.5t101 66.5t128 48.5t154.5 37q175 35 222 51q101 35 121 103q5 20 5 43q0 60 -44.5 92.5t-154.5 32.5q-131 0 -203.5 -51t-101.5 -166h-168q38 170 162 265t325 95q192 0 280.5 -88.5t55.5 -257.5l-96 -493
q-13 -57 -5 -90t48 -33q11 0 35 4l-23 -107q-52 -20 -98 -20q-69 0 -102.5 38t-30.5 124h-6q-143 -181 -381 -181zM379 115q147 0 254.5 80t136.5 223l31 151q-32 -30 -73.5 -44t-176.5 -42q-81 -17 -130 -29.5t-98.5 -30.5t-75 -39t-41.5 -51.5t-16 -70.5q0 -147 189 -147z
" />
    <glyph glyph-name="ae" unicode="&#xe6;" horiz-adv-x="1853" 
d="M1784 479h-826q-4 -46 -4 -69q0 -145 64 -221t207 -76q74 0 138 21.5t106 56t68 67t40 64.5h170q-76 -162 -211.5 -257.5t-323.5 -95.5q-143 0 -240 55t-143 158q-67 -99 -183.5 -155t-278.5 -56q-170 0 -257 70t-87 205q0 68 23.5 121.5t62 90.5t101 66.5t128 48.5
t154.5 37q175 35 222 51q101 35 121 103q5 20 5 43q0 61 -43.5 93t-153.5 32q-132 0 -204 -51t-101 -166h-168q35 162 156.5 261t330.5 99q274 0 326 -168q81 80 188.5 124t229.5 44q205 0 306 -104.5t101 -284.5q0 -80 -24 -207zM1386 934q-153 0 -257.5 -83.5
t-145.5 -227.5h651q16 88 -3.5 157t-82 111.5t-162.5 42.5zM772 418l21 104q3 22 10 51q-33 -31 -78.5 -47t-173.5 -43q-79 -16 -129 -29t-98 -31.5t-74 -40.5t-41.5 -52.5t-15.5 -71.5q0 -143 186 -143q93 0 173 32t140 102t80 169z" />
    <glyph glyph-name="ccedilla" unicode="&#xe7;" horiz-adv-x="1077" 
d="M1053 662h-160q12 130 -49 199t-189 69t-230 -75t-156 -193.5t-54 -253.5q0 -60 14.5 -111t44 -93t82 -65.5t123.5 -23.5q77 0 141.5 25t107 65.5t69 84t39.5 89.5h163q-43 -168 -177 -280.5t-310 -125.5l-88 -86l-2 -4q71 10 122.5 -16t51.5 -86q0 -82 -69 -134.5
t-177 -52.5q-117 0 -207 64l54 51q77 -31 137 -31q54 0 86.5 26t32.5 67q0 47 -70 47q-49 0 -86 -15l-18 39l133 131q-171 17 -267 129t-96 291q0 180 78 335.5t221 250t318 94.5q193 0 297.5 -116t89.5 -295z" />
    <glyph glyph-name="egrave" unicode="&#xe8;" horiz-adv-x="1122" 
d="M707 1489l65 -275h-133l-127 275h195zM1053 479h-826q-4 -46 -4 -69q0 -145 64 -221t207 -76q74 0 138 21.5t106 56t68 67t40 64.5h170q-76 -162 -211.5 -257.5t-323.5 -95.5q-208 0 -318 116t-110 323q0 186 79.5 338.5t221 240.5t316.5 88q205 0 306 -104.5t101 -284.5
q0 -80 -24 -207zM655 934q-153 0 -257.5 -83.5t-145.5 -227.5h651q16 88 -3.5 157t-82 111.5t-162.5 42.5z" />
    <glyph glyph-name="eacute" unicode="&#xe9;" horiz-adv-x="1122" 
d="M793 1489h194l-196 -275h-134zM1053 479h-826q-4 -46 -4 -69q0 -145 64 -221t207 -76q74 0 138 21.5t106 56t68 67t40 64.5h170q-76 -162 -211.5 -257.5t-323.5 -95.5q-208 0 -318 116t-110 323q0 186 79.5 338.5t221 240.5t316.5 88q205 0 306 -104.5t101 -284.5
q0 -80 -24 -207zM655 934q-153 0 -257.5 -83.5t-145.5 -227.5h651q16 88 -3.5 157t-82 111.5t-162.5 42.5z" />
    <glyph glyph-name="ecircumflex" unicode="&#xea;" horiz-adv-x="1122" 
d="M768 1401h-4l-152 -187h-170l242 275h184l136 -275h-164zM1053 479h-826q-4 -46 -4 -69q0 -145 64 -221t207 -76q74 0 138 21.5t106 56t68 67t40 64.5h170q-76 -162 -211.5 -257.5t-323.5 -95.5q-208 0 -318 116t-110 323q0 186 79.5 338.5t221 240.5t316.5 88
q205 0 306 -104.5t101 -284.5q0 -80 -24 -207zM655 934q-153 0 -257.5 -83.5t-145.5 -227.5h651q16 88 -3.5 157t-82 111.5t-162.5 42.5z" />
    <glyph glyph-name="edieresis" unicode="&#xeb;" horiz-adv-x="1122" 
d="M510 1448h197l-39 -197h-197zM829 1448h197l-39 -197h-196zM1053 479h-826q-4 -46 -4 -69q0 -145 64 -221t207 -76q74 0 138 21.5t106 56t68 67t40 64.5h170q-76 -162 -211.5 -257.5t-323.5 -95.5q-208 0 -318 116t-110 323q0 186 79.5 338.5t221 240.5t316.5 88
q205 0 306 -104.5t101 -284.5q0 -80 -24 -207zM655 934q-153 0 -257.5 -83.5t-145.5 -227.5h651q16 88 -3.5 157t-82 111.5t-162.5 42.5z" />
    <glyph glyph-name="igrave" unicode="&#xec;" horiz-adv-x="401" 
d="M383 1210h-133l-127 275h194zM180 0h-164l203 1044h164z" />
    <glyph glyph-name="iacute" unicode="&#xed;" horiz-adv-x="401" 
d="M401 1210h-133l135 275h195zM180 0h-164l203 1044h164z" />
    <glyph glyph-name="icircumflex" unicode="&#xee;" horiz-adv-x="401" 
d="M223 1210h-170l242 275h184l135 -275h-163l-72 187h-4zM180 0h-164l203 1044h164z" />
    <glyph glyph-name="idieresis" unicode="&#xef;" horiz-adv-x="401" 
d="M279 1247h-197l39 197h196zM598 1247h-197l39 197h197zM180 0h-164l203 1044h164z" />
    <glyph glyph-name="eth" unicode="&#xf0;" horiz-adv-x="1161" 
d="M1184 1436l6 -123l-219 -56q149 -213 149 -497q0 -127 -29 -246t-85 -217.5t-132.5 -172.5t-177.5 -115.5t-215 -41.5q-202 0 -316 117.5t-114 323.5q0 174 78.5 327t217 245.5t302.5 92.5q232 0 316 -182q-21 165 -150 328l-352 -91l-4 123l264 68q-63 63 -178 145h209
q70 -45 129 -104zM487 111q124 0 228 71t162.5 187.5t58.5 248.5q0 148 -75 234t-214 86q-185 0 -306.5 -146.5t-121.5 -361.5q0 -150 67 -234.5t201 -84.5z" />
    <glyph glyph-name="ntilde" unicode="&#xf1;" horiz-adv-x="1091" 
d="M586 1305q-28 0 -43 -22t-19 -48h-123q19 96 73 144t116 48q56 0 134.5 -36.5t100.5 -36.5q49 0 62 69h123q-19 -96 -72 -144t-117 -48q-56 0 -134.5 37t-100.5 37zM733 1075q157 0 236 -101.5t43 -285.5l-133 -688h-164l133 688q22 111 -20 177.5t-162 66.5
q-129 0 -230 -80.5t-129 -200.5l-127 -651h-164l203 1044h164l-27 -133h2q62 74 159 119t216 45z" />
    <glyph glyph-name="ograve" unicode="&#xf2;" horiz-adv-x="1136" 
d="M758 1210h-133l-127 275h194zM453 -29q-192 0 -298 112t-106 300q0 186 80 343.5t226.5 252t328.5 94.5q192 0 297.5 -111.5t105.5 -299.5q0 -139 -47 -265.5t-129.5 -220.5t-201.5 -149.5t-256 -55.5zM475 115q130 0 234 76.5t158.5 197t54.5 256.5q0 129 -65.5 207
t-194.5 78q-130 0 -234 -77t-158.5 -197.5t-54.5 -256.5q0 -129 65.5 -206.5t194.5 -77.5z" />
    <glyph glyph-name="oacute" unicode="&#xf3;" horiz-adv-x="1136" 
d="M776 1210h-133l135 275h195zM453 -29q-192 0 -298 112t-106 300q0 186 80 343.5t226.5 252t328.5 94.5q192 0 297.5 -111.5t105.5 -299.5q0 -139 -47 -265.5t-129.5 -220.5t-201.5 -149.5t-256 -55.5zM475 115q130 0 234 76.5t158.5 197t54.5 256.5q0 129 -65.5 207
t-194.5 78q-130 0 -234 -77t-158.5 -197.5t-54.5 -256.5q0 -129 65.5 -206.5t194.5 -77.5z" />
    <glyph glyph-name="ocircumflex" unicode="&#xf4;" horiz-adv-x="1136" 
d="M598 1210h-170l242 275h184l135 -275h-164l-71 187h-4zM453 -29q-192 0 -298 112t-106 300q0 186 80 343.5t226.5 252t328.5 94.5q192 0 297.5 -111.5t105.5 -299.5q0 -139 -47 -265.5t-129.5 -220.5t-201.5 -149.5t-256 -55.5zM475 115q130 0 234 76.5t158.5 197
t54.5 256.5q0 129 -65.5 207t-194.5 78q-130 0 -234 -77t-158.5 -197.5t-54.5 -256.5q0 -129 65.5 -206.5t194.5 -77.5z" />
    <glyph glyph-name="otilde" unicode="&#xf5;" horiz-adv-x="1136" 
d="M549 1235h-123q19 96 72.5 144t115.5 48q56 0 135 -36.5t101 -36.5q48 0 61 69h123q-19 -96 -71.5 -144t-116.5 -48q-56 0 -135 37t-101 37q-50 0 -61 -70zM453 -29q-192 0 -298 112t-106 300q0 186 80 343.5t226.5 252t328.5 94.5q192 0 297.5 -111.5t105.5 -299.5
q0 -139 -47 -265.5t-129.5 -220.5t-201.5 -149.5t-256 -55.5zM475 115q130 0 234 76.5t158.5 197t54.5 256.5q0 129 -65.5 207t-194.5 78q-130 0 -234 -77t-158.5 -197.5t-54.5 -256.5q0 -129 65.5 -206.5t194.5 -77.5z" />
    <glyph glyph-name="odieresis" unicode="&#xf6;" horiz-adv-x="1136" 
d="M653 1247h-196l39 197h196zM973 1247h-197l39 197h197zM453 -29q-192 0 -298 112t-106 300q0 186 80 343.5t226.5 252t328.5 94.5q192 0 297.5 -111.5t105.5 -299.5q0 -139 -47 -265.5t-129.5 -220.5t-201.5 -149.5t-256 -55.5zM475 115q130 0 234 76.5t158.5 197
t54.5 256.5q0 129 -65.5 207t-194.5 78q-130 0 -234 -77t-158.5 -197.5t-54.5 -256.5q0 -129 65.5 -206.5t194.5 -77.5z" />
    <glyph glyph-name="divide" unicode="&#xf7;" horiz-adv-x="1136" 
d="M741 911h-196l39 197h196zM1044 588h-929l30 162h930zM608 229h-196l39 197h196z" />
    <glyph glyph-name="oslash" unicode="&#xf8;" horiz-adv-x="1159" 
d="M1153 1065l57 -72l-153 -129q41 -87 41 -202q0 -186 -80 -343.5t-226.5 -252.5t-328.5 -95q-207 0 -316 131l-145 -122l-55 71l153 129q-41 87 -41 203q0 186 80 343.5t226.5 252t328.5 94.5q207 0 314 -129zM225 399q0 -50 13 -104l641 541q-65 94 -207 94
q-130 0 -234 -77t-158.5 -197.5t-54.5 -256.5zM932 645q0 55 -12 105l-644 -539q70 -96 209 -96q130 0 234 76.5t158.5 197t54.5 256.5z" />
    <glyph glyph-name="ugrave" unicode="&#xf9;" horiz-adv-x="1091" 
d="M649 1485l66 -275h-133l-127 275h194zM786 412l123 632h164l-203 -1044h-163l24 125h-4q-61 -65 -156 -109.5t-213 -44.5q-77 0 -135 21.5t-99.5 69t-52 123.5t8.5 186l131 673h164l-131 -677q-22 -114 18 -183t152 -69q139 0 241.5 81.5t130.5 215.5z" />
    <glyph glyph-name="uacute" unicode="&#xfa;" horiz-adv-x="1091" 
d="M735 1485h195l-197 -275h-133zM786 412l123 632h164l-203 -1044h-163l24 125h-4q-61 -65 -156 -109.5t-213 -44.5q-77 0 -135 21.5t-99.5 69t-52 123.5t8.5 186l131 673h164l-131 -677q-22 -114 18 -183t152 -69q139 0 241.5 81.5t130.5 215.5z" />
    <glyph glyph-name="ucircumflex" unicode="&#xfb;" horiz-adv-x="1091" 
d="M711 1397h-4l-152 -187h-170l242 275h184l135 -275h-164zM786 412l123 632h164l-203 -1044h-163l24 125h-4q-61 -65 -156 -109.5t-213 -44.5q-77 0 -135 21.5t-99.5 69t-52 123.5t8.5 186l131 673h164l-131 -677q-22 -114 18 -183t152 -69q139 0 241.5 81.5t130.5 215.5z
" />
    <glyph glyph-name="udieresis" unicode="&#xfc;" horiz-adv-x="1091" 
d="M453 1444h196l-39 -197h-196zM772 1444h197l-39 -197h-197zM786 412l123 632h164l-203 -1044h-163l24 125h-4q-61 -65 -156 -109.5t-213 -44.5q-77 0 -135 21.5t-99.5 69t-52 123.5t8.5 186l131 673h164l-131 -677q-22 -114 18 -183t152 -69q139 0 241.5 81.5
t130.5 215.5z" />
    <glyph glyph-name="yacute" unicode="&#xfd;" horiz-adv-x="1009" 
d="M688 1210h-133l135 275h195zM47 -367q-38 0 -100 11l26 139q52 -6 74 -6q175 0 279 233l-224 1034h181l157 -845h4l471 845h181l-625 -1075q-113 -192 -208 -264t-216 -72z" />
    <glyph glyph-name="thorn" unicode="&#xfe;" horiz-adv-x="1155" 
d="M725 1073q172 0 274.5 -110t102.5 -314q0 -141 -45.5 -267t-123.5 -216t-187 -142.5t-232 -52.5q-211 0 -295 164h-12l-96 -497h-164l354 1826h164l-107 -549h7q147 158 360 158zM528 115q170 0 289 149t119 371q0 295 -252 295q-142 0 -251.5 -110t-145.5 -275l-6 -29
q-9 -50 -9 -102q0 -143 66 -221t190 -78z" />
    <glyph glyph-name="ydieresis" unicode="&#xff;" horiz-adv-x="1009" 
d="M565 1247h-196l39 197h196zM885 1247h-197l39 197h197zM47 -367q-38 0 -100 11l26 139q52 -6 74 -6q175 0 279 233l-224 1034h181l157 -845h4l471 845h181l-625 -1075q-113 -192 -208 -264t-216 -72z" />
    <glyph glyph-name="Amacron" unicode="&#x100;" horiz-adv-x="1323" 
d="M1145 1667h-529l29 143h529zM109 0h-195l825 1464h207l260 -1464h-194l-58 367h-645zM811 1294l-410 -764h525l-111 764h-4z" />
    <glyph glyph-name="amacron" unicode="&#x101;" horiz-adv-x="1103" 
d="M979 1247h-528l28 144h529zM332 -29q-149 0 -229 71.5t-80 203.5q0 68 23.5 121.5t62 90.5t101 66.5t128 48.5t154.5 37q175 35 222 51q101 35 121 103q5 20 5 43q0 60 -44.5 92.5t-154.5 32.5q-131 0 -203.5 -51t-101.5 -166h-168q38 170 162 265t325 95
q192 0 280.5 -88.5t55.5 -257.5l-96 -493q-13 -57 -5 -90t48 -33q11 0 35 4l-23 -107q-52 -20 -98 -20q-69 0 -102.5 38t-30.5 124h-6q-143 -181 -381 -181zM379 115q147 0 254.5 80t136.5 223l31 151q-32 -30 -73.5 -44t-176.5 -42q-81 -17 -130 -29.5t-98.5 -30.5t-75 -39
t-41.5 -51.5t-16 -70.5q0 -147 189 -147z" />
    <glyph glyph-name="Abreve" unicode="&#x102;" horiz-adv-x="1323" 
d="M864 1610q-114 0 -171.5 69t-35.5 205h123q-11 -81 11.5 -116t87.5 -35q138 0 176 151h123q-31 -133 -115.5 -203.5t-198.5 -70.5zM109 0h-195l825 1464h207l260 -1464h-194l-58 367h-645zM811 1294l-410 -764h525l-111 764h-4z" />
    <glyph glyph-name="abreve" unicode="&#x103;" horiz-adv-x="1103" 
d="M698 1190q-114 0 -171 69t-35 205h122q-11 -81 11.5 -116t87.5 -35q138 0 176 151h123q-31 -133 -115.5 -203.5t-198.5 -70.5zM332 -29q-149 0 -229 71.5t-80 203.5q0 68 23.5 121.5t62 90.5t101 66.5t128 48.5t154.5 37q175 35 222 51q101 35 121 103q5 20 5 43
q0 60 -44.5 92.5t-154.5 32.5q-131 0 -203.5 -51t-101.5 -166h-168q38 170 162 265t325 95q192 0 280.5 -88.5t55.5 -257.5l-96 -493q-13 -57 -5 -90t48 -33q11 0 35 4l-23 -107q-52 -20 -98 -20q-69 0 -102.5 38t-30.5 124h-6q-143 -181 -381 -181zM379 115q147 0 254.5 80
t136.5 223l31 151q-32 -30 -73.5 -44t-176.5 -42q-81 -17 -130 -29.5t-98.5 -30.5t-75 -39t-41.5 -51.5t-16 -70.5q0 -147 189 -147z" />
    <glyph glyph-name="Aogonek" unicode="&#x104;" horiz-adv-x="1323" 
d="M1206 0h-18q-172 -118 -172 -188q0 -24 18 -38t47 -14q51 0 105 21l-25 -123q-68 -20 -137 -20q-78 0 -119 31.5t-41 86.5q0 75 61 140.5t140 103.5h-53l-58 367h-645l-200 -367h-195l825 1464h207zM811 1294l-410 -764h525l-111 764h-4z" />
    <glyph glyph-name="aogonek" unicode="&#x105;" horiz-adv-x="1103" 
d="M991 729l-96 -493q-13 -57 -5 -90t48 -33q11 0 35 4l-23 -107q-4 -1 -11 -4t-11 -4q-172 -118 -172 -188q0 -24 18 -38t47 -14q51 0 105 21l-25 -123q-68 -20 -137 -20q-78 0 -119 31.5t-41 86.5q0 72 58 136.5t135 103.5q-84 25 -78 154h-6q-143 -181 -381 -181
q-149 0 -229 71.5t-80 203.5q0 68 23.5 121.5t62 90.5t101 66.5t128 48.5t154.5 37q175 35 222 51q101 35 121 103q5 20 5 43q0 60 -44.5 92.5t-154.5 32.5q-131 0 -203.5 -51t-101.5 -166h-168q38 170 162 265t325 95q192 0 280.5 -88.5t55.5 -257.5zM379 115
q147 0 254.5 80t136.5 223l31 151q-32 -30 -73.5 -44t-176.5 -42q-81 -17 -130 -29.5t-98.5 -30.5t-75 -39t-41.5 -51.5t-16 -70.5q0 -147 189 -147z" />
    <glyph glyph-name="Cacute" unicode="&#x106;" horiz-adv-x="1447" 
d="M1049 1630h-134l136 275h194zM668 -29q-263 0 -413.5 159t-150.5 441q0 148 41.5 287.5t119 253.5t180.5 200t233 133.5t270 47.5q106 0 196 -28t152.5 -77t105 -114t60 -139.5t11.5 -153.5h-185q0 71 -20.5 132t-62.5 110.5t-113.5 77.5t-165.5 28q-182 0 -328.5 -99
t-227.5 -270.5t-81 -381.5q0 -443 399 -443q89 0 166.5 23.5t133 61.5t99 90.5t70.5 106t43 111.5h189q-72 -249 -265.5 -403t-455.5 -154z" />
    <glyph glyph-name="cacute" unicode="&#x107;" horiz-adv-x="1077" 
d="M770 1210h-133l135 275h195zM469 -29q-196 0 -308 114t-112 308q0 180 78 335.5t221 250t318 94.5q193 0 297.5 -116t89.5 -295h-160q12 130 -49 199t-189 69t-230 -75t-156 -193.5t-54 -253.5q0 -60 14.5 -111t44 -93t82 -65.5t123.5 -23.5q77 0 141.5 25t107 65.5
t69 84t39.5 89.5h163q-46 -179 -193.5 -293.5t-336.5 -114.5z" />
    <glyph glyph-name="Ccircumflex" unicode="&#x108;" horiz-adv-x="1447" 
d="M870 1630h-170l242 275h184l136 -275h-164l-72 187h-4zM668 -29q-263 0 -413.5 159t-150.5 441q0 148 41.5 287.5t119 253.5t180.5 200t233 133.5t270 47.5q106 0 196 -28t152.5 -77t105 -114t60 -139.5t11.5 -153.5h-185q0 71 -20.5 132t-62.5 110.5t-113.5 77.5
t-165.5 28q-182 0 -328.5 -99t-227.5 -270.5t-81 -381.5q0 -443 399 -443q89 0 166.5 23.5t133 61.5t99 90.5t70.5 106t43 111.5h189q-72 -249 -265.5 -403t-455.5 -154z" />
    <glyph glyph-name="ccircumflex" unicode="&#x109;" horiz-adv-x="1077" 
d="M592 1210h-170l242 275h184l135 -275h-164l-71 187h-5zM469 -29q-196 0 -308 114t-112 308q0 180 78 335.5t221 250t318 94.5q193 0 297.5 -116t89.5 -295h-160q12 130 -49 199t-189 69t-230 -75t-156 -193.5t-54 -253.5q0 -60 14.5 -111t44 -93t82 -65.5t123.5 -23.5
q77 0 141.5 25t107 65.5t69 84t39.5 89.5h163q-46 -179 -193.5 -293.5t-336.5 -114.5z" />
    <glyph glyph-name="Cdotaccent" unicode="&#x10a;" horiz-adv-x="1447" 
d="M1085 1667h-196l39 197h196zM668 -29q-263 0 -413.5 159t-150.5 441q0 148 41.5 287.5t119 253.5t180.5 200t233 133.5t270 47.5q106 0 196 -28t152.5 -77t105 -114t60 -139.5t11.5 -153.5h-185q0 71 -20.5 132t-62.5 110.5t-113.5 77.5t-165.5 28q-182 0 -328.5 -99
t-227.5 -270.5t-81 -381.5q0 -443 399 -443q89 0 166.5 23.5t133 61.5t99 90.5t70.5 106t43 111.5h189q-72 -249 -265.5 -403t-455.5 -154z" />
    <glyph glyph-name="cdotaccent" unicode="&#x10b;" horiz-adv-x="1077" 
d="M807 1247h-197l39 197h197zM469 -29q-196 0 -308 114t-112 308q0 180 78 335.5t221 250t318 94.5q193 0 297.5 -116t89.5 -295h-160q12 130 -49 199t-189 69t-230 -75t-156 -193.5t-54 -253.5q0 -60 14.5 -111t44 -93t82 -65.5t123.5 -23.5q77 0 141.5 25t107 65.5t69 84
t39.5 89.5h163q-46 -179 -193.5 -293.5t-336.5 -114.5z" />
    <glyph glyph-name="Ccaron" unicode="&#x10c;" horiz-adv-x="1447" 
d="M1073 1630h-184l-135 275h157l76 -187h4l146 187h178zM668 -29q-263 0 -413.5 159t-150.5 441q0 148 41.5 287.5t119 253.5t180.5 200t233 133.5t270 47.5q106 0 196 -28t152.5 -77t105 -114t60 -139.5t11.5 -153.5h-185q0 71 -20.5 132t-62.5 110.5t-113.5 77.5
t-165.5 28q-182 0 -328.5 -99t-227.5 -270.5t-81 -381.5q0 -443 399 -443q89 0 166.5 23.5t133 61.5t99 90.5t70.5 106t43 111.5h189q-72 -249 -265.5 -403t-455.5 -154z" />
    <glyph glyph-name="ccaron" unicode="&#x10d;" horiz-adv-x="1077" 
d="M795 1210h-185l-135 275h158l76 -187h4l145 187h178zM469 -29q-196 0 -308 114t-112 308q0 180 78 335.5t221 250t318 94.5q193 0 297.5 -116t89.5 -295h-160q12 130 -49 199t-189 69t-230 -75t-156 -193.5t-54 -253.5q0 -60 14.5 -111t44 -93t82 -65.5t123.5 -23.5
q77 0 141.5 25t107 65.5t69 84t39.5 89.5h163q-46 -179 -193.5 -293.5t-336.5 -114.5z" />
    <glyph glyph-name="Dcaron" unicode="&#x10e;" horiz-adv-x="1423" 
d="M868 1630h-184l-135 275h158l75 -187h4l146 187h178zM602 0h-551l285 1464h502q561 0 561 -557q0 -185 -60.5 -351.5t-164.5 -289t-253.5 -194.5t-318.5 -72zM268 164h361q167 0 301.5 100t208 268.5t73.5 370.5q0 95 -18.5 163.5t-62.5 123.5t-125.5 82.5t-200.5 27.5
h-318z" />
    <glyph glyph-name="dcaron" unicode="&#x10f;" horiz-adv-x="1185" 
d="M934 909h10l109 555h164l-285 -1464h-164l25 129h-5q-147 -158 -360 -158q-172 0 -274.5 110t-102.5 314q0 141 45.5 267t123.5 216t187 142.5t232 52.5q211 0 295 -164zM1223 1071l123 393h192l-188 -393h-127zM469 115q135 0 242.5 101t148.5 257l17 82q4 50 4 76
q0 143 -66 221t-190 78q-170 0 -289 -149t-119 -371q0 -295 252 -295z" />
    <glyph glyph-name="Dcroat" unicode="&#x110;" horiz-adv-x="1443" 
d="M356 1464h502q561 0 561 -557q0 -185 -60 -351.5t-164.5 -289t-253.5 -194.5t-318 -72h-551l133 686h-144l27 143h145zM289 164h360q167 0 301.5 100t208.5 268.5t74 370.5q0 95 -18.5 163.5t-63 123.5t-126 82.5t-200.5 27.5h-317l-90 -471h467l-29 -143h-467z" />
    <glyph glyph-name="dcroat" unicode="&#x111;" horiz-adv-x="1153" 
d="M1190 1325h137l-24 -123h-138l-233 -1202h-164l25 129h-5q-147 -158 -360 -158q-172 0 -274.5 110t-102.5 314q0 141 45.5 267t123.5 216t187 142.5t232 52.5q211 0 295 -164h10l57 293h-309l25 123h309l27 139h164zM469 115q135 0 242.5 101t148.5 257l17 82q4 50 4 76
q0 143 -66 221t-190 78q-170 0 -289 -149t-119 -371q0 -295 252 -295z" />
    <glyph glyph-name="Emacron" unicode="&#x112;" horiz-adv-x="1255" 
d="M1139 1667h-529l29 143h528zM1090 0h-1039l285 1464h1014l-33 -164h-830l-88 -460h731l-32 -164h-731l-99 -512h854z" />
    <glyph glyph-name="emacron" unicode="&#x113;" horiz-adv-x="1122" 
d="M494 1395h528l-29 -144h-528zM1053 479h-826q-4 -46 -4 -69q0 -145 64 -221t207 -76q74 0 138 21.5t106 56t68 67t40 64.5h170q-76 -162 -211.5 -257.5t-323.5 -95.5q-208 0 -318 116t-110 323q0 186 79.5 338.5t221 240.5t316.5 88q205 0 306 -104.5t101 -284.5
q0 -80 -24 -207zM655 934q-153 0 -257.5 -83.5t-145.5 -227.5h651q16 88 -3.5 157t-82 111.5t-162.5 42.5z" />
    <glyph glyph-name="Edotaccent" unicode="&#x116;" horiz-adv-x="1255" 
d="M973 1667h-197l39 197h197zM1090 0h-1039l285 1464h1014l-33 -164h-830l-88 -460h731l-32 -164h-731l-99 -512h854z" />
    <glyph glyph-name="edotaccent" unicode="&#x117;" horiz-adv-x="1122" 
d="M670 1448h196l-39 -197h-196zM1053 479h-826q-4 -46 -4 -69q0 -145 64 -221t207 -76q74 0 138 21.5t106 56t68 67t40 64.5h170q-76 -162 -211.5 -257.5t-323.5 -95.5q-208 0 -318 116t-110 323q0 186 79.5 338.5t221 240.5t316.5 88q205 0 306 -104.5t101 -284.5
q0 -80 -24 -207zM655 934q-153 0 -257.5 -83.5t-145.5 -227.5h651q16 88 -3.5 157t-82 111.5t-162.5 42.5z" />
    <glyph glyph-name="Eogonek" unicode="&#x118;" horiz-adv-x="1255" 
d="M1350 1464l-33 -164h-830l-88 -460h731l-32 -164h-731l-99 -512h854l-32 -164h-23q-172 -118 -172 -188q0 -24 18.5 -38t47.5 -14q50 0 104 21l-25 -123q-68 -20 -137 -20q-78 0 -119 31.5t-41 86.5q0 75 61 140.5t140 103.5h-893l285 1464h1014z" />
    <glyph glyph-name="eogonek" unicode="&#x119;" horiz-adv-x="1122" 
d="M1053 479h-826q-4 -46 -4 -69q0 -145 64 -221t207 -76q74 0 138 21.5t106 56t68 67t40 64.5h170q-59 -126 -154.5 -213t-224.5 -121q-156 -108 -156 -176q0 -24 18.5 -38t47.5 -14q50 0 104 21l-24 -123q-68 -20 -138 -20q-78 0 -118.5 31.5t-40.5 86.5q0 61 41 116.5
t104 96.5q-204 1 -313 117.5t-109 321.5q0 186 79.5 338.5t221 240.5t316.5 88q205 0 306 -104.5t101 -284.5q0 -80 -24 -207zM655 934q-153 0 -257.5 -83.5t-145.5 -227.5h651q16 88 -3.5 157t-82 111.5t-162.5 42.5z" />
    <glyph glyph-name="Ecaron" unicode="&#x11a;" horiz-adv-x="1255" 
d="M961 1630h-185l-135 275h158l75 -187h5l145 187h178zM1090 0h-1039l285 1464h1014l-33 -164h-830l-88 -460h731l-32 -164h-731l-99 -512h854z" />
    <glyph glyph-name="ecaron" unicode="&#x11b;" horiz-adv-x="1122" 
d="M1057 1489l-242 -275h-184l-135 275h157l76 -186h4l146 186h178zM1053 479h-826q-4 -46 -4 -69q0 -145 64 -221t207 -76q74 0 138 21.5t106 56t68 67t40 64.5h170q-76 -162 -211.5 -257.5t-323.5 -95.5q-208 0 -318 116t-110 323q0 186 79.5 338.5t221 240.5t316.5 88
q205 0 306 -104.5t101 -284.5q0 -80 -24 -207zM655 934q-153 0 -257.5 -83.5t-145.5 -227.5h651q16 88 -3.5 157t-82 111.5t-162.5 42.5z" />
    <glyph glyph-name="Gcircumflex" unicode="&#x11c;" horiz-adv-x="1505" 
d="M858 1630h-170l242 275h184l135 -275h-164l-71 187h-4zM641 -29q-265 0 -402 152.5t-137 425.5q0 187 64 359t175.5 301.5t273.5 206.5t348 77q129 0 229.5 -37.5t162 -103t91.5 -149.5t27 -181h-189q0 151 -92 229t-264 78q-183 0 -330.5 -104.5t-228 -279t-80.5 -380.5
q0 -430 370 -430q207 0 371 129.5t205 333.5h-477l30 164h662l-147 -762h-123l-21 207h-4q-110 -120 -231.5 -178t-282.5 -58z" />
    <glyph glyph-name="gcircumflex" unicode="&#x11d;" horiz-adv-x="1157" 
d="M735 1397h-4l-151 -187h-170l241 275h185l135 -275h-164zM952 915l25 129h164l-189 -968q-42 -219 -183 -332t-355 -113q-194 0 -310.5 92t-109.5 238h160q0 -186 260 -186q316 0 377 315l24 127h-4q-142 -164 -362 -164q-174 0 -278.5 103.5t-104.5 310.5
q0 165 74.5 304t206 220.5t290.5 81.5q214 0 311 -158h4zM485 197q122 0 216.5 68t143 177t48.5 236q0 252 -244 252q-123 0 -219.5 -65.5t-146.5 -169.5t-50 -224q0 -129 62.5 -201.5t189.5 -72.5z" />
    <glyph glyph-name="Gbreve" unicode="&#x11e;" horiz-adv-x="1505" 
d="M958 1610q-114 0 -171 69t-35 205h122q-11 -81 11.5 -116t87.5 -35q138 0 176 151h123q-31 -133 -115.5 -203.5t-198.5 -70.5zM641 -29q-265 0 -402 152.5t-137 425.5q0 187 64 359t175.5 301.5t273.5 206.5t348 77q129 0 229.5 -37.5t162 -103t91.5 -149.5t27 -181h-189
q0 151 -92 229t-264 78q-183 0 -330.5 -104.5t-228 -279t-80.5 -380.5q0 -430 370 -430q207 0 371 129.5t205 333.5h-477l30 164h662l-147 -762h-123l-21 207h-4q-110 -120 -231.5 -178t-282.5 -58z" />
    <glyph glyph-name="gbreve" unicode="&#x11f;" horiz-adv-x="1157" 
d="M680 1190q-114 0 -171.5 69t-35.5 205h123q-11 -81 11 -116t87 -35q138 0 176 151h123q-31 -133 -115 -203.5t-198 -70.5zM952 915l25 129h164l-189 -968q-42 -219 -183 -332t-355 -113q-194 0 -310.5 92t-109.5 238h160q0 -186 260 -186q316 0 377 315l24 127h-4
q-142 -164 -362 -164q-174 0 -278.5 103.5t-104.5 310.5q0 165 74.5 304t206 220.5t290.5 81.5q214 0 311 -158h4zM485 197q122 0 216.5 68t143 177t48.5 236q0 252 -244 252q-123 0 -219.5 -65.5t-146.5 -169.5t-50 -224q0 -129 62.5 -201.5t189.5 -72.5z" />
    <glyph glyph-name="Gdotaccent" unicode="&#x120;" horiz-adv-x="1505" 
d="M1073 1667h-196l38 197h197zM641 -29q-265 0 -402 152.5t-137 425.5q0 187 64 359t175.5 301.5t273.5 206.5t348 77q129 0 229.5 -37.5t162 -103t91.5 -149.5t27 -181h-189q0 151 -92 229t-264 78q-183 0 -330.5 -104.5t-228 -279t-80.5 -380.5q0 -430 370 -430
q207 0 371 129.5t205 333.5h-477l30 164h662l-147 -762h-123l-21 207h-4q-110 -120 -231.5 -178t-282.5 -58z" />
    <glyph glyph-name="gdotaccent" unicode="&#x121;" horiz-adv-x="1157" 
d="M637 1444h197l-39 -197h-197zM952 915l25 129h164l-189 -968q-42 -219 -183 -332t-355 -113q-194 0 -310.5 92t-109.5 238h160q0 -186 260 -186q316 0 377 315l24 127h-4q-142 -164 -362 -164q-174 0 -278.5 103.5t-104.5 310.5q0 165 74.5 304t206 220.5t290.5 81.5
q214 0 311 -158h4zM485 197q122 0 216.5 68t143 177t48.5 236q0 252 -244 252q-123 0 -219.5 -65.5t-146.5 -169.5t-50 -224q0 -129 62.5 -201.5t189.5 -72.5z" />
    <glyph glyph-name="uni0122" unicode="&#x122;" horiz-adv-x="1505" 
d="M928 1329q-183 0 -330.5 -104.5t-228 -279t-80.5 -380.5q0 -430 370 -430q207 0 371 129.5t205 333.5h-477l30 164h662l-147 -762h-123l-21 207h-4q-110 -120 -231.5 -178t-282.5 -58q-265 0 -402 152.5t-137 425.5q0 187 64 359t175.5 301.5t273.5 206.5t348 77
q129 0 229.5 -37.5t162 -103t91.5 -149.5t27 -181h-189q0 151 -92 229t-264 78zM621 -260h-95l31 160h197l-31 -160q-16 -81 -72 -133.5t-166 -77.5l17 82q58 15 84 43t35 86z" />
    <glyph glyph-name="uni0123" unicode="&#x123;" horiz-adv-x="1157" 
d="M737 1391h94l-34 -181h-197l35 181q19 94 77.5 151.5t166.5 85.5l-19 -94q-59 -18 -86 -48.5t-37 -94.5zM952 915l25 129h164l-189 -968q-42 -219 -183 -332t-355 -113q-194 0 -310.5 92t-109.5 238h160q0 -186 260 -186q316 0 377 315l24 127h-4q-142 -164 -362 -164
q-174 0 -278.5 103.5t-104.5 310.5q0 165 74.5 304t206 220.5t290.5 81.5q214 0 311 -158h4zM485 197q122 0 216.5 68t143 177t48.5 236q0 252 -244 252q-123 0 -219.5 -65.5t-146.5 -169.5t-50 -224q0 -129 62.5 -201.5t189.5 -72.5z" />
    <glyph glyph-name="Hcircumflex" unicode="&#x124;" horiz-adv-x="1458" 
d="M834 1630h-170l241 275h185l135 -275h-164l-72 187h-4zM236 0h-185l285 1464h184l-121 -622h783l121 622h184l-285 -1464h-184l131 678h-782z" />
    <glyph glyph-name="hcircumflex" unicode="&#x125;" horiz-adv-x="1091" 
d="M442 1724h-4l-151 -186h-170l241 274h185l135 -274h-164zM733 1075q157 0 236 -101.5t43 -285.5l-133 -688h-164l133 688q22 111 -20 177.5t-162 66.5q-127 0 -228 -80t-131 -197l-127 -655h-164l285 1464h164l-107 -553q62 74 159 119t216 45z" />
    <glyph glyph-name="Hbar" unicode="&#x126;" horiz-adv-x="1507" 
d="M1466 1239h146l-29 -143h-145l-213 -1096h-185l131 678h-782l-131 -678h-184l213 1096h-142l29 143h141l43 225h185l-43 -225h782l43 225h184zM422 842h782l49 254h-782z" />
    <glyph glyph-name="hbar" unicode="&#x127;" horiz-adv-x="1091" 
d="M733 1075q157 0 236 -101.5t43 -285.5l-133 -688h-164l133 688q22 111 -20 177.5t-162 66.5q-127 0 -228 -80t-131 -197l-127 -655h-164l234 1202h-123l25 123h122l27 139h164l-27 -139h324l-25 -123h-323l-56 -291q62 74 159 119t216 45z" />
    <glyph glyph-name="Itilde" unicode="&#x128;" horiz-adv-x="491" 
d="M301 1655h-123q19 96 73 144t116 48q56 0 134.5 -36.5t100.5 -36.5q49 0 62 69h122q-19 -96 -71.5 -144t-116.5 -48q-56 0 -135 36.5t-101 36.5q-50 0 -61 -69zM236 0h-185l285 1464h184z" />
    <glyph glyph-name="itilde" unicode="&#x129;" horiz-adv-x="401" 
d="M174 1235h-123q19 96 73 144t116 48q56 0 134.5 -36.5t100.5 -36.5q49 0 62 69h122q-19 -96 -71.5 -144t-116.5 -48q-56 0 -134.5 37t-100.5 37q-28 0 -43 -22t-19 -48zM180 0h-164l203 1044h164z" />
    <glyph glyph-name="Imacron" unicode="&#x12a;" horiz-adv-x="491" 
d="M731 1667h-528l28 143h529zM236 0h-185l285 1464h184z" />
    <glyph glyph-name="imacron" unicode="&#x12b;" horiz-adv-x="401" 
d="M604 1247h-528l28 144h529zM180 0h-164l203 1044h164z" />
    <glyph glyph-name="Iogonek" unicode="&#x12e;" horiz-adv-x="491" 
d="M51 0l285 1464h184l-284 -1464h-3q-172 -118 -172 -188q0 -24 18.5 -38t47.5 -14q50 0 104 21l-24 -123q-68 -20 -137 -20q-78 0 -119 31.5t-41 86.5q0 75 61 140.5t140 103.5h-60z" />
    <glyph glyph-name="iogonek" unicode="&#x12f;" horiz-adv-x="401" 
d="M242 1247l39 197h196l-39 -197h-196zM43 0h-27l203 1044h164l-203 -1044h-14q-172 -118 -172 -188q0 -24 18 -38t47 -14q51 0 105 21l-25 -123q-68 -20 -137 -20q-78 0 -119 31.5t-41 86.5q0 75 61 140.5t140 103.5z" />
    <glyph glyph-name="Idotaccent" unicode="&#x130;" horiz-adv-x="491" 
d="M565 1667h-196l39 197h196zM236 0h-185l285 1464h184z" />
    <glyph glyph-name="dotlessi" unicode="&#x131;" horiz-adv-x="401" 
d="M180 0h-164l203 1044h164z" />
    <glyph glyph-name="Jcircumflex" unicode="&#x134;" horiz-adv-x="1032" 
d="M901 1630h-170l242 275h184l135 -275h-164l-71 187h-4zM371 -29q-102 0 -175.5 27t-114 71.5t-60 107t-19 128t15.5 141.5l9 41h184l-8 -41q-19 -98 -18 -167t48 -106.5t150 -37.5q62 0 111 17.5t80.5 45t55 70.5t36 83.5t22.5 94.5l199 1018h184l-207 -1058
q-19 -98 -54 -174t-92.5 -136.5t-145 -92.5t-201.5 -32z" />
    <glyph glyph-name="jcircumflex" unicode="&#x135;" horiz-adv-x="401" 
d="M223 1210h-170l242 275h184l135 -275h-163l-72 187h-4zM-119 -369q-44 0 -106 11l26 139q53 -6 82 -6q47 0 75.5 36t45.5 123l215 1110h164l-219 -1126q-29 -149 -106.5 -218t-176.5 -69z" />
    <glyph glyph-name="uni0136" unicode="&#x136;" horiz-adv-x="1308" 
d="M1257 1464h220l-693 -604l453 -860h-209l-381 739l-321 -280l-90 -459h-185l285 1464h184l-151 -778zM569 -260h-94l31 160h196l-30 -160q-16 -81 -72 -133.5t-166 -77.5l17 82q57 15 83 43t35 86z" />
    <glyph glyph-name="uni0137" unicode="&#x137;" horiz-adv-x="978" 
d="M858 1044h209l-485 -378l325 -666h-190l-262 565l-195 -149l-80 -416h-164l285 1464h164l-168 -860zM387 -260h-94l31 160h196l-31 -160q-16 -81 -71.5 -133.5t-165.5 -77.5l16 82q58 15 84 43t35 86z" />
    <glyph glyph-name="kgreenlandic" unicode="&#x138;" horiz-adv-x="991" 
d="M889 1044h209l-506 -401l315 -643h-190l-252 543l-213 -170l-72 -373h-164l203 1044h164l-92 -473z" />
    <glyph glyph-name="Lacute" unicode="&#x139;" horiz-adv-x="1134" 
d="M528 1630h-133l135 275h195zM1004 0h-953l285 1464h184l-252 -1300h768z" />
    <glyph glyph-name="lacute" unicode="&#x13a;" horiz-adv-x="401" 
d="M465 1538h-133l135 274h195zM180 0h-164l285 1464h164z" />
    <glyph glyph-name="uni013B" unicode="&#x13b;" horiz-adv-x="1134" 
d="M520 1464l-252 -1300h768l-32 -164h-953l285 1464h184zM473 -260h-94l31 160h196l-31 -160q-16 -81 -71.5 -133.5t-165.5 -77.5l16 82q58 15 84 43t35 86z" />
    <glyph glyph-name="uni013C" unicode="&#x13c;" horiz-adv-x="401" 
d="M16 0l285 1464h164l-285 -1464h-164zM43 -260h-94l31 160h196l-31 -160q-16 -81 -71.5 -133.5t-165.5 -77.5l16 82q58 15 84 43t35 86z" />
    <glyph glyph-name="Lcaron" unicode="&#x13d;" horiz-adv-x="1134" 
d="M1004 0h-953l285 1464h184l-252 -1300h768zM809 1071h-127l123 393h192z" />
    <glyph glyph-name="lcaron" unicode="&#x13e;" horiz-adv-x="434" 
d="M180 0h-164l285 1464h164zM598 1071h-127l123 393h192z" />
    <glyph glyph-name="Lslash" unicode="&#x141;" horiz-adv-x="1185" 
d="M408 618l-89 -454h768l-32 -164h-953l95 483l-162 -102l31 168l163 104l158 811h184l-131 -678l398 254l-31 -168z" />
    <glyph glyph-name="lslash" unicode="&#x142;" horiz-adv-x="563" 
d="M440 920l174 108l-30 -158l-174 -108l-148 -762h-164l125 643l-172 -108l31 157l172 109l129 663h164z" />
    <glyph glyph-name="Nacute" unicode="&#x143;" horiz-adv-x="1452" 
d="M1010 1630h-133l135 275h194zM236 0h-185l285 1464h221l498 -1202h8l233 1202h185l-285 -1464h-221l-498 1202h-8z" />
    <glyph glyph-name="nacute" unicode="&#x144;" horiz-adv-x="1091" 
d="M754 1485h194l-196 -275h-134zM733 1075q157 0 236 -101.5t43 -285.5l-133 -688h-164l133 688q22 111 -20 177.5t-162 66.5q-129 0 -230 -80.5t-129 -200.5l-127 -651h-164l203 1044h164l-27 -133h2q62 74 159 119t216 45z" />
    <glyph glyph-name="uni0145" unicode="&#x145;" horiz-adv-x="1452" 
d="M1063 262l233 1202h185l-285 -1464h-221l-498 1202h-8l-233 -1202h-185l285 1464h221l498 -1202h8zM569 -260h-94l31 160h196l-30 -160q-16 -81 -72 -133.5t-166 -77.5l17 82q57 15 83 43t35 86z" />
    <glyph glyph-name="uni0146" unicode="&#x146;" horiz-adv-x="1091" 
d="M733 1075q157 0 236 -101.5t43 -285.5l-133 -688h-164l133 688q22 111 -20 177.5t-162 66.5q-129 0 -230 -80.5t-129 -200.5l-127 -651h-164l203 1044h164l-27 -133h2q62 74 159 119t216 45zM393 -260h-94l31 160h196l-30 -160q-16 -81 -72 -133.5t-166 -77.5l16 82
q58 15 84 43t35 86z" />
    <glyph glyph-name="Ncaron" unicode="&#x147;" horiz-adv-x="1452" 
d="M1034 1630h-184l-135 275h157l76 -187h4l146 187h178zM236 0h-185l285 1464h221l498 -1202h8l233 1202h185l-285 -1464h-221l-498 1202h-8z" />
    <glyph glyph-name="ncaron" unicode="&#x148;" horiz-adv-x="1091" 
d="M1018 1485l-242 -275h-184l-135 275h157l76 -187h4l146 187h178zM733 1075q157 0 236 -101.5t43 -285.5l-133 -688h-164l133 688q22 111 -20 177.5t-162 66.5q-129 0 -230 -80.5t-129 -200.5l-127 -651h-164l203 1044h164l-27 -133h2q62 74 159 119t216 45z" />
    <glyph glyph-name="Eng" unicode="&#x14a;" horiz-adv-x="1452" 
d="M762 -365q-67 0 -111 13l27 143q267 -31 309 170l-514 1241h-4l-233 -1202h-185l285 1464h225l496 -1206h4l235 1206h185l-285 -1464q-36 -188 -152 -276.5t-282 -88.5z" />
    <glyph glyph-name="eng" unicode="&#x14b;" horiz-adv-x="1091" 
d="M733 1075q157 0 236 -101.5t43 -285.5l-148 -760q-29 -149 -105.5 -208.5t-191.5 -59.5q-69 0 -121 12l29 144q108 -8 161 18t69 111l143 743q22 111 -20 177.5t-162 66.5q-129 0 -230 -80.5t-129 -200.5l-127 -651h-164l203 1044h164l-27 -133h2q62 74 159 119t216 45z
" />
    <glyph glyph-name="Omacron" unicode="&#x14c;" horiz-adv-x="1589" 
d="M1280 1667h-528l28 143h529zM696 -29q-276 0 -435 163t-159 431q0 184 67.5 354.5t182 296.5t277.5 201.5t344 75.5q276 0 435 -163t159 -431q0 -184 -67.5 -354.5t-182 -296.5t-277.5 -201.5t-344 -75.5zM711 135q146 0 272.5 63t212.5 168t135 244t49 289
q0 93 -24 169.5t-73.5 136t-132 92t-192.5 32.5q-146 0 -272.5 -63t-212.5 -168t-135 -244t-49 -289q0 -93 24 -169.5t73.5 -136t132 -92t192.5 -32.5z" />
    <glyph glyph-name="omacron" unicode="&#x14d;" horiz-adv-x="1136" 
d="M979 1247h-528l28 144h529zM453 -29q-192 0 -298 112t-106 300q0 186 80 343.5t226.5 252t328.5 94.5q192 0 297.5 -111.5t105.5 -299.5q0 -139 -47 -265.5t-129.5 -220.5t-201.5 -149.5t-256 -55.5zM475 115q130 0 234 76.5t158.5 197t54.5 256.5q0 129 -65.5 207
t-194.5 78q-130 0 -234 -77t-158.5 -197.5t-54.5 -256.5q0 -129 65.5 -206.5t194.5 -77.5z" />
    <glyph glyph-name="Ohungarumlaut" unicode="&#x150;" horiz-adv-x="1589" 
d="M938 1630h-133l178 275h195zM1229 1630h-133l178 275h194zM696 -29q-276 0 -435 163t-159 431q0 184 67.5 354.5t182 296.5t277.5 201.5t344 75.5q276 0 435 -163t159 -431q0 -184 -67.5 -354.5t-182 -296.5t-277.5 -201.5t-344 -75.5zM711 135q146 0 272.5 63t212.5 168
t135 244t49 289q0 93 -24 169.5t-73.5 136t-132 92t-192.5 32.5q-146 0 -272.5 -63t-212.5 -168t-135 -244t-49 -289q0 -93 24 -169.5t73.5 -136t132 -92t192.5 -32.5z" />
    <glyph glyph-name="ohungarumlaut" unicode="&#x151;" horiz-adv-x="1136" 
d="M637 1210h-133l178 275h195zM928 1210h-133l178 275h194zM453 -29q-192 0 -298 112t-106 300q0 186 80 343.5t226.5 252t328.5 94.5q192 0 297.5 -111.5t105.5 -299.5q0 -139 -47 -265.5t-129.5 -220.5t-201.5 -149.5t-256 -55.5zM475 115q130 0 234 76.5t158.5 197
t54.5 256.5q0 129 -65.5 207t-194.5 78q-130 0 -234 -77t-158.5 -197.5t-54.5 -256.5q0 -129 65.5 -206.5t194.5 -77.5z" />
    <glyph glyph-name="OE" unicode="&#x152;" horiz-adv-x="2263" 
d="M2357 1464l-33 -164h-829l-88 -460h731l-33 -164h-731l-98 -512h854l-33 -164h-1038l63 328q-101 -166 -245.5 -261.5t-311.5 -95.5q-216 0 -340.5 154t-124.5 416q0 143 38.5 283.5t110 260t167 211.5t217.5 144.5t252 52.5q336 0 395 -356l63 327h1014zM621 135
q104 0 196.5 44.5t161.5 120.5t119.5 175t76 211.5t25.5 226.5q0 216 -89.5 316t-238.5 100q-163 0 -298.5 -106.5t-211 -283.5t-75.5 -382q0 -197 81.5 -309.5t252.5 -112.5z" />
    <glyph glyph-name="oe" unicode="&#x153;" horiz-adv-x="1980" 
d="M1911 479h-826q-4 -46 -4 -69q0 -145 64 -221t207 -76q74 0 138 21.5t106 56t68 67t40 64.5h170q-76 -162 -211.5 -257.5t-323.5 -95.5q-153 0 -254 63.5t-143 182.5q-88 -114 -213.5 -179t-275.5 -65q-192 0 -298 112t-106 300q0 186 80 343.5t226.5 252t328.5 94.5
q139 0 234 -59.5t137 -167.5q85 108 206.5 168.5t266.5 60.5q205 0 306 -104.5t101 -284.5q0 -80 -24 -207zM1513 934q-153 0 -257.5 -83.5t-145.5 -227.5h651q16 88 -3.5 157t-82 111.5t-162.5 42.5zM475 115q130 0 234 76.5t158.5 197t54.5 256.5q0 129 -65.5 207
t-194.5 78q-130 0 -234 -77t-158.5 -197.5t-54.5 -256.5q0 -129 65.5 -206.5t194.5 -77.5z" />
    <glyph glyph-name="Racute" unicode="&#x154;" horiz-adv-x="1325" 
d="M924 1630h-133l135 275h194zM236 0h-185l285 1464h567q216 0 327 -88.5t111 -251.5t-97 -287.5t-251 -158.5v-6q64 -13 103.5 -55t52.5 -99.5t14 -124t-6.5 -131.5t-14.5 -119t-6.5 -90t15.5 -41l-2 -12h-199q-7 11 -7.5 42.5t10 75.5t16 96t11.5 105t-3.5 102t-29 87
t-65 61t-112.5 23h-420zM383 756h395q168 0 271.5 97t103.5 247q0 104 -68.5 152t-230.5 48h-367z" />
    <glyph glyph-name="racute" unicode="&#x155;" horiz-adv-x="679" 
d="M598 1485h195l-197 -275h-133zM344 848h4q65 109 144 165t194 56q44 0 82 -6l-33 -160q-34 6 -63 6q-143 0 -248 -98.5t-135 -251.5l-109 -559h-164l203 1044h164z" />
    <glyph glyph-name="uni0156" unicode="&#x156;" horiz-adv-x="1325" 
d="M1341 1124q0 -163 -97 -287.5t-251 -158.5v-6q64 -13 103.5 -55t52.5 -99.5t14 -124t-6.5 -131.5t-14.5 -119t-6.5 -90t15.5 -41l-2 -12h-199q-7 11 -7.5 42.5t10 75.5t16 96t11.5 105t-3.5 102t-29 87t-65 61t-112.5 23h-420l-114 -592h-185l285 1464h567
q216 0 327 -88.5t111 -251.5zM383 756h395q168 0 271.5 97t103.5 247q0 104 -68.5 152t-230.5 48h-367zM524 -260h-94l31 160h196l-30 -160q-16 -81 -72 -133.5t-166 -77.5l17 82q57 15 83 43t35 86z" />
    <glyph glyph-name="uni0157" unicode="&#x157;" horiz-adv-x="679" 
d="M686 1069q44 0 82 -6l-33 -160q-34 6 -63 6q-143 0 -248 -98.5t-135 -251.5l-109 -559h-164l203 1044h164l-39 -196h4q65 109 144 165t194 56zM43 -260h-94l31 160h196l-31 -160q-16 -81 -71.5 -133.5t-165.5 -77.5l16 82q58 15 84 43t35 86z" />
    <glyph glyph-name="Rcaron" unicode="&#x158;" horiz-adv-x="1325" 
d="M948 1630h-184l-135 275h157l76 -187h4l146 187h178zM236 0h-185l285 1464h567q216 0 327 -88.5t111 -251.5t-97 -287.5t-251 -158.5v-6q64 -13 103.5 -55t52.5 -99.5t14 -124t-6.5 -131.5t-14.5 -119t-6.5 -90t15.5 -41l-2 -12h-199q-7 11 -7.5 42.5t10 75.5t16 96
t11.5 105t-3.5 102t-29 87t-65 61t-112.5 23h-420zM383 756h395q168 0 271.5 97t103.5 247q0 104 -68.5 152t-230.5 48h-367z" />
    <glyph glyph-name="rcaron" unicode="&#x159;" horiz-adv-x="679" 
d="M862 1485l-241 -275h-185l-135 275h158l76 -187h4l145 187h178zM344 848h4q65 109 144 165t194 56q44 0 82 -6l-33 -160q-34 6 -63 6q-143 0 -248 -98.5t-135 -251.5l-109 -559h-164l203 1044h164z" />
    <glyph glyph-name="Sacute" unicode="&#x15a;" horiz-adv-x="1277" 
d="M899 1630h-133l135 275h195zM623 -29q-182 0 -318 61.5t-206 178.5t-58 274h180q-1 -170 105 -260t301 -90q114 0 197 27t133.5 91t50.5 161q0 37 -7.5 65t-28.5 53t-46 43.5t-73 40t-95.5 39t-126.5 43.5q-90 30 -152 56.5t-115 60t-84 71t-48 86.5t-17 111
q0 100 43 179t118 129t173.5 76t212.5 26q250 0 383 -114.5t112 -342.5h-180q8 149 -72 221t-260 72q-71 0 -130 -11t-109 -35.5t-78.5 -70t-28.5 -108.5q0 -35 6.5 -62t26 -50.5t41 -40t65 -36t83 -34.5t110.5 -39q52 -18 83.5 -29.5t75 -28t69.5 -29.5t59.5 -30.5
t53 -34.5t42.5 -38.5t35.5 -44.5t24 -51t16 -60.5t4.5 -69.5q0 -145 -73 -249t-200.5 -155t-297.5 -51z" />
    <glyph glyph-name="sacute" unicode="&#x15b;" horiz-adv-x="980" 
d="M694 1210h-133l135 275h195zM463 -29q-213 0 -334 103.5t-121 267.5h162q0 -97 73.5 -162t225.5 -65q119 0 187.5 43t68.5 131q0 33 -13 59t-30 42.5t-55.5 33.5t-65 25.5t-82.5 25.5q-143 42 -195 67q-147 70 -161 206q-2 15 -2 32q0 98 56 165.5t143 97.5t198 30
q195 0 301.5 -96t106.5 -234h-164q0 34 -12.5 65t-39.5 59.5t-77 45.5t-117 17q-102 0 -167.5 -36.5t-65.5 -111.5q0 -46 32.5 -77t69 -46t127.5 -42q19 -6 29 -9q49 -15 77 -24t70.5 -26t67 -32.5t53.5 -39.5t44.5 -50t26.5 -62.5t11 -78.5q0 -155 -119 -239.5t-309 -84.5z
" />
    <glyph glyph-name="Scircumflex" unicode="&#x15c;" horiz-adv-x="1277" 
d="M721 1630h-170l242 275h184l135 -275h-164l-71 187h-5zM623 -29q-182 0 -318 61.5t-206 178.5t-58 274h180q-1 -170 105 -260t301 -90q114 0 197 27t133.5 91t50.5 161q0 37 -7.5 65t-28.5 53t-46 43.5t-73 40t-95.5 39t-126.5 43.5q-90 30 -152 56.5t-115 60t-84 71
t-48 86.5t-17 111q0 100 43 179t118 129t173.5 76t212.5 26q250 0 383 -114.5t112 -342.5h-180q8 149 -72 221t-260 72q-71 0 -130 -11t-109 -35.5t-78.5 -70t-28.5 -108.5q0 -35 6.5 -62t26 -50.5t41 -40t65 -36t83 -34.5t110.5 -39q52 -18 83.5 -29.5t75 -28t69.5 -29.5
t59.5 -30.5t53 -34.5t42.5 -38.5t35.5 -44.5t24 -51t16 -60.5t4.5 -69.5q0 -145 -73 -249t-200.5 -155t-297.5 -51z" />
    <glyph glyph-name="scircumflex" unicode="&#x15d;" horiz-adv-x="980" 
d="M516 1210h-170l242 275h184l135 -275h-164l-71 187h-4zM463 -29q-213 0 -334 103.5t-121 267.5h162q0 -97 73.5 -162t225.5 -65q119 0 187.5 43t68.5 131q0 33 -13 59t-30 42.5t-55.5 33.5t-65 25.5t-82.5 25.5q-143 42 -195 67q-147 70 -161 206q-2 15 -2 32
q0 98 56 165.5t143 97.5t198 30q195 0 301.5 -96t106.5 -234h-164q0 34 -12.5 65t-39.5 59.5t-77 45.5t-117 17q-102 0 -167.5 -36.5t-65.5 -111.5q0 -46 32.5 -77t69 -46t127.5 -42q19 -6 29 -9q49 -15 77 -24t70.5 -26t67 -32.5t53.5 -39.5t44.5 -50t26.5 -62.5t11 -78.5
q0 -155 -119 -239.5t-309 -84.5z" />
    <glyph glyph-name="Scedilla" unicode="&#x15e;" horiz-adv-x="1277" 
d="M1257 1036h-180q8 149 -72 221t-260 72q-71 0 -130 -11t-109 -35.5t-78.5 -70t-28.5 -108.5q0 -35 6.5 -62t26 -50.5t41 -40t65 -36t83 -34.5t110.5 -39q52 -18 83.5 -29.5t75 -28t69.5 -29.5t59.5 -30.5t53 -34.5t42.5 -38.5t35.5 -44.5t24 -51t16 -60.5t4.5 -69.5
q0 -216 -153.5 -334.5t-407.5 -120.5l-88 -84l-2 -4q71 10 122.5 -16t51.5 -86q0 -82 -69 -134.5t-177 -52.5q-117 0 -207 64l53 51q77 -31 138 -31q54 0 86 25.5t32 67.5q0 47 -69 47q-48 0 -86 -15l-19 39l136 133q-240 22 -375.5 158t-118.5 352h180q-1 -170 105 -260
t301 -90q114 0 197 27t133.5 91t50.5 161q0 37 -7.5 65t-28.5 53t-46 43.5t-73 40t-95.5 39t-126.5 43.5q-90 30 -152 56.5t-115 60t-84 71t-48 86.5t-17 111q0 100 43 179t118 129t173.5 76t212.5 26q250 0 383 -114.5t112 -342.5z" />
    <glyph glyph-name="scedilla" unicode="&#x15f;" horiz-adv-x="980" 
d="M541 608q49 -15 77 -24t70.5 -26t67 -32.5t53.5 -39.5t44.5 -50t26.5 -62.5t11 -78.5q0 -155 -119 -239.5t-309 -84.5h-4l-88 -84l-2 -4q71 10 122.5 -16t51.5 -86q0 -82 -69 -134.5t-177 -52.5q-117 0 -207 64l53 51q77 -31 138 -31q54 0 86 25.5t32 67.5q0 47 -69 47
q-48 0 -86 -15l-19 39l137 135q-167 24 -260.5 123.5t-93.5 241.5h162q0 -97 73.5 -162t225.5 -65q119 0 187.5 43t68.5 131q0 33 -13 59t-30 42.5t-55.5 33.5t-65 25.5t-82.5 25.5q-143 42 -195 67q-147 70 -161 206q-2 15 -2 32q0 98 56 165.5t143 97.5t198 30
q195 0 301.5 -96t106.5 -234h-164q0 34 -12.5 65t-39.5 59.5t-77 45.5t-117 17q-102 0 -167.5 -36.5t-65.5 -111.5q0 -46 32.5 -77t69 -46t127.5 -42q19 -6 29 -9z" />
    <glyph glyph-name="Scaron" unicode="&#x160;" horiz-adv-x="1277" 
d="M924 1630h-185l-135 275h158l76 -187h4l145 187h178zM623 -29q-182 0 -318 61.5t-206 178.5t-58 274h180q-1 -170 105 -260t301 -90q114 0 197 27t133.5 91t50.5 161q0 37 -7.5 65t-28.5 53t-46 43.5t-73 40t-95.5 39t-126.5 43.5q-90 30 -152 56.5t-115 60t-84 71
t-48 86.5t-17 111q0 100 43 179t118 129t173.5 76t212.5 26q250 0 383 -114.5t112 -342.5h-180q8 149 -72 221t-260 72q-71 0 -130 -11t-109 -35.5t-78.5 -70t-28.5 -108.5q0 -35 6.5 -62t26 -50.5t41 -40t65 -36t83 -34.5t110.5 -39q52 -18 83.5 -29.5t75 -28t69.5 -29.5
t59.5 -30.5t53 -34.5t42.5 -38.5t35.5 -44.5t24 -51t16 -60.5t4.5 -69.5q0 -145 -73 -249t-200.5 -155t-297.5 -51z" />
    <glyph glyph-name="scaron" unicode="&#x161;" horiz-adv-x="980" 
d="M719 1210h-184l-136 275h158l76 -187h4l145 187h179zM463 -29q-213 0 -334 103.5t-121 267.5h162q0 -97 73.5 -162t225.5 -65q119 0 187.5 43t68.5 131q0 33 -13 59t-30 42.5t-55.5 33.5t-65 25.5t-82.5 25.5q-143 42 -195 67q-147 70 -161 206q-2 15 -2 32
q0 98 56 165.5t143 97.5t198 30q195 0 301.5 -96t106.5 -234h-164q0 34 -12.5 65t-39.5 59.5t-77 45.5t-117 17q-102 0 -167.5 -36.5t-65.5 -111.5q0 -46 32.5 -77t69 -46t127.5 -42q19 -6 29 -9q49 -15 77 -24t70.5 -26t67 -32.5t53.5 -39.5t44.5 -50t26.5 -62.5t11 -78.5
q0 -155 -119 -239.5t-309 -84.5z" />
    <glyph glyph-name="uni0162" unicode="&#x162;" horiz-adv-x="1216" 
d="M178 1300l33 164h1159l-33 -164h-487l-252 -1300h-37l-117 -113l-2 -4q71 10 122.5 -16t51.5 -86q0 -82 -68.5 -134.5t-176.5 -52.5q-117 0 -207 64l53 51q77 -31 137 -31q54 0 86.5 26t32.5 67q0 47 -70 47q-49 0 -86 -15l-18 39l160 158h-45l252 1300h-488z" />
    <glyph glyph-name="uni0163" unicode="&#x163;" horiz-adv-x="610" 
d="M625 901h-205l-123 -629q-15 -76 6.5 -107.5t93.5 -31.5q29 0 90 6l-28 -139q-64 -10 -113 -10h-22l-78 -74l-2 -4q71 10 122.5 -16t51.5 -86q0 -82 -69 -134.5t-177 -52.5q-117 0 -207 64l53 51q77 -31 138 -31q54 0 86 25.5t32 66.5q0 47 -69 47q-51 0 -86 -14l-19 39
l136 133q-143 50 -101 277l121 620h-154l29 143h154l67 349h164l-67 -349h204z" />
    <glyph glyph-name="Tcaron" unicode="&#x164;" horiz-adv-x="1216" 
d="M915 1630h-184l-135 275h158l75 -187h5l145 187h178zM598 0h-184l252 1300h-488l33 164h1159l-33 -164h-487z" />
    <glyph glyph-name="tcaron" unicode="&#x165;" horiz-adv-x="610" 
d="M541 1149l123 315h192l-188 -315h-127zM352 1393h164l-67 -349h204l-28 -143h-205l-123 -629q-15 -76 6.5 -107.5t93.5 -31.5q29 0 90 6l-28 -139q-64 -10 -113 -10q-62 0 -105.5 14t-75.5 47.5t-37.5 89.5t7.5 140l121 620h-154l29 143h154z" />
    <glyph glyph-name="Tbar" unicode="&#x166;" horiz-adv-x="1216" 
d="M1370 1464l-33 -164h-487l-92 -471h338l-29 -143h-336l-133 -686h-184l133 686h-316l29 143h313l93 471h-488l33 164h1159z" />
    <glyph glyph-name="tbar" unicode="&#x167;" horiz-adv-x="620" 
d="M659 1044l-28 -143h-205l-37 -190h205l-29 -144h-205l-57 -295q-15 -76 6.5 -107.5t93.5 -31.5q29 0 91 6l-29 -139q-64 -10 -113 -10q-62 0 -105.5 14t-75.5 47.5t-37.5 89.5t7.5 140l56 286h-154l29 144h153l37 190h-153l28 143h154l67 349h164l-67 -349h204z" />
    <glyph glyph-name="Utilde" unicode="&#x168;" horiz-adv-x="1404" 
d="M737 1655h-123q19 96 73 144t116 48q56 0 134.5 -36.5t100.5 -36.5q49 0 62 69h123q-19 -96 -72 -144t-117 -48q-56 0 -134.5 36.5t-100.5 36.5q-29 0 -43.5 -21.5t-18.5 -47.5zM594 -29q-271 0 -389 140t-72 376l191 977h184l-191 -977q-36 -186 37.5 -269t259.5 -83
q387 0 457 352l191 977h184l-191 -977q-22 -114 -70.5 -205.5t-127.5 -162.5t-196.5 -109.5t-266.5 -38.5z" />
    <glyph glyph-name="utilde" unicode="&#x169;" horiz-adv-x="1091" 
d="M567 1305q-50 0 -61 -70h-123q19 96 72.5 144t115.5 48q56 0 135 -36.5t101 -36.5q48 0 61 69h123q-19 -96 -71.5 -144t-116.5 -48q-56 0 -135 37t-101 37zM786 412l123 632h164l-203 -1044h-163l24 125h-4q-61 -65 -156 -109.5t-213 -44.5q-77 0 -135 21.5t-99.5 69
t-52 123.5t8.5 186l131 673h164l-131 -677q-22 -114 18 -183t152 -69q139 0 241.5 81.5t130.5 215.5z" />
    <glyph glyph-name="Umacron" unicode="&#x16a;" horiz-adv-x="1404" 
d="M1167 1667h-528l29 143h528zM594 -29q-271 0 -389 140t-72 376l191 977h184l-191 -977q-36 -186 37.5 -269t259.5 -83q387 0 457 352l191 977h184l-191 -977q-22 -114 -70.5 -205.5t-127.5 -162.5t-196.5 -109.5t-266.5 -38.5z" />
    <glyph glyph-name="umacron" unicode="&#x16b;" horiz-adv-x="1091" 
d="M436 1391h529l-29 -144h-528zM786 412l123 632h164l-203 -1044h-163l24 125h-4q-61 -65 -156 -109.5t-213 -44.5q-77 0 -135 21.5t-99.5 69t-52 123.5t8.5 186l131 673h164l-131 -677q-22 -114 18 -183t152 -69q139 0 241.5 81.5t130.5 215.5z" />
    <glyph glyph-name="Ubreve" unicode="&#x16c;" horiz-adv-x="1404" 
d="M887 1610q-114 0 -171.5 69t-35.5 205h123q-11 -81 11 -116t87 -35q138 0 176 151h123q-31 -133 -115 -203.5t-198 -70.5zM594 -29q-271 0 -389 140t-72 376l191 977h184l-191 -977q-36 -186 37.5 -269t259.5 -83q387 0 457 352l191 977h184l-191 -977
q-22 -114 -70.5 -205.5t-127.5 -162.5t-196.5 -109.5t-266.5 -38.5z" />
    <glyph glyph-name="ubreve" unicode="&#x16d;" horiz-adv-x="1091" 
d="M655 1190q-114 0 -171 69t-35 205h122q-11 -81 11.5 -116t87.5 -35q138 0 176 151h123q-31 -133 -115.5 -203.5t-198.5 -70.5zM786 412l123 632h164l-203 -1044h-163l24 125h-4q-61 -65 -156 -109.5t-213 -44.5q-77 0 -135 21.5t-99.5 69t-52 123.5t8.5 186l131 673h164
l-131 -677q-22 -114 18 -183t152 -69q139 0 241.5 81.5t130.5 215.5z" />
    <glyph glyph-name="Uring" unicode="&#x16e;" horiz-adv-x="1404" 
d="M879 1567q-67 0 -107.5 40.5t-40.5 104.5q0 89 63.5 151t153.5 62q68 0 109 -40.5t41 -104.5q0 -90 -64 -151.5t-155 -61.5zM895 1647q47 0 82 35.5t35 82.5q0 37 -21.5 58.5t-56.5 21.5q-49 0 -83 -33t-34 -86q0 -35 20 -57t58 -22zM594 -29q-271 0 -389 140t-72 376
l191 977h184l-191 -977q-36 -186 37.5 -269t259.5 -83q387 0 457 352l191 977h184l-191 -977q-22 -114 -70.5 -205.5t-127.5 -162.5t-196.5 -109.5t-266.5 -38.5z" />
    <glyph glyph-name="uring" unicode="&#x16f;" horiz-adv-x="1091" 
d="M647 1147q-67 0 -107 40.5t-40 104.5q0 89 63.5 151t153.5 62q68 0 108.5 -40.5t40.5 -104.5q0 -90 -64 -151.5t-155 -61.5zM702 1425q-49 0 -82.5 -32.5t-33.5 -85.5q0 -36 20 -58t58 -22q47 0 81.5 35.5t34.5 83.5q0 36 -21 57.5t-57 21.5zM786 412l123 632h164
l-203 -1044h-163l24 125h-4q-61 -65 -156 -109.5t-213 -44.5q-77 0 -135 21.5t-99.5 69t-52 123.5t8.5 186l131 673h164l-131 -677q-22 -114 18 -183t152 -69q139 0 241.5 81.5t130.5 215.5z" />
    <glyph glyph-name="Uhungarumlaut" unicode="&#x170;" horiz-adv-x="1404" 
d="M825 1630h-133l178 275h195zM1116 1630h-133l178 275h195zM594 -29q-271 0 -389 140t-72 376l191 977h184l-191 -977q-36 -186 37.5 -269t259.5 -83q387 0 457 352l191 977h184l-191 -977q-22 -114 -70.5 -205.5t-127.5 -162.5t-196.5 -109.5t-266.5 -38.5z" />
    <glyph glyph-name="uhungarumlaut" unicode="&#x171;" horiz-adv-x="1091" 
d="M639 1485h195l-240 -275h-133zM1124 1485l-239 -275h-133l178 275h194zM786 412l123 632h164l-203 -1044h-163l24 125h-4q-61 -65 -156 -109.5t-213 -44.5q-77 0 -135 21.5t-99.5 69t-52 123.5t8.5 186l131 673h164l-131 -677q-22 -114 18 -183t152 -69q139 0 241.5 81.5
t130.5 215.5z" />
    <glyph glyph-name="Uogonek" unicode="&#x172;" horiz-adv-x="1404" 
d="M1071 487l191 977h184l-191 -977q-35 -185 -143.5 -312.5t-294.5 -176.5q-168 -118 -168 -186q0 -24 18.5 -38t47.5 -14q50 0 104 21l-24 -123q-68 -20 -138 -20q-78 0 -118.5 31.5t-40.5 86.5q0 63 43 119t108 98q-18 -2 -55 -2q-271 0 -389 140t-72 376l191 977h184
l-191 -977q-36 -186 37.5 -269t259.5 -83q387 0 457 352z" />
    <glyph glyph-name="uogonek" unicode="&#x173;" horiz-adv-x="1091" 
d="M786 412l123 632h164l-203 -1044h-20q-172 -118 -172 -188q0 -24 18 -38t47 -14q51 0 105 21l-25 -123q-68 -20 -137 -20q-78 0 -119 31.5t-41 86.5q0 75 61 140.5t140 103.5h-20l24 125h-4q-61 -65 -156 -109.5t-213 -44.5q-77 0 -135 21.5t-99.5 69t-52 123.5t8.5 186
l131 673h164l-131 -677q-22 -114 18 -183t152 -69q139 0 241.5 81.5t130.5 215.5z" />
    <glyph glyph-name="Wcircumflex" unicode="&#x174;" horiz-adv-x="1878" 
d="M1036 1630h-170l242 275h184l135 -275h-163l-72 187h-4zM510 0h-205l-98 1464h194l60 -1200h4l534 1200h213l99 -1200h4l512 1200h194l-647 -1464h-205l-94 1255h-4z" />
    <glyph glyph-name="wcircumflex" unicode="&#x175;" horiz-adv-x="1509" 
d="M770 1210h-170l242 275h184l135 -275h-164l-71 187h-4zM416 0h-183l-108 1044h180l51 -860h4l398 860h178l61 -860h4l410 860h182l-536 -1044h-174l-68 848h-4z" />
    <glyph glyph-name="Ycircumflex" unicode="&#x176;" horiz-adv-x="1290" 
d="M731 1630h-170l242 275h184l135 -275h-164l-71 187h-4zM635 0h-184l116 600l-364 864h194l283 -723h4l567 723h203l-702 -864z" />
    <glyph glyph-name="ycircumflex" unicode="&#x177;" horiz-adv-x="1009" 
d="M510 1210h-170l242 275h184l135 -275h-164l-71 187h-4zM47 -367q-38 0 -100 11l26 139q52 -6 74 -6q175 0 279 233l-224 1034h181l157 -845h4l471 845h181l-625 -1075q-113 -192 -208 -264t-216 -72z" />
    <glyph glyph-name="Ydieresis" unicode="&#x178;" horiz-adv-x="1290" 
d="M786 1667h-196l39 197h196zM1106 1667h-197l39 197h197zM635 0h-184l116 600l-364 864h194l283 -723h4l567 723h203l-702 -864z" />
    <glyph glyph-name="Zacute" unicode="&#x179;" horiz-adv-x="1230" 
d="M874 1630h-133l136 275h194zM1079 0h-1138l32 164l1112 1132v4h-852l33 164h1077l-32 -164l-1112 -1132v-4h913z" />
    <glyph glyph-name="zacute" unicode="&#x17a;" horiz-adv-x="923" 
d="M653 1210h-133l135 275h195zM780 0h-843l24 123l739 774l2 4h-555l27 143h787l-19 -98l-764 -799v-4h631z" />
    <glyph glyph-name="Zdotaccent" unicode="&#x17b;" horiz-adv-x="1230" 
d="M911 1667h-196l39 197h196zM1079 0h-1138l32 164l1112 1132v4h-852l33 164h1077l-32 -164l-1112 -1132v-4h913z" />
    <glyph glyph-name="zdotaccent" unicode="&#x17c;" horiz-adv-x="923" 
d="M690 1247h-196l38 197h197zM780 0h-843l24 123l739 774l2 4h-555l27 143h787l-19 -98l-764 -799v-4h631z" />
    <glyph glyph-name="Zcaron" unicode="&#x17d;" horiz-adv-x="1230" 
d="M899 1630h-184l-135 275h157l76 -187h4l146 187h178zM1079 0h-1138l32 164l1112 1132v4h-852l33 164h1077l-32 -164l-1112 -1132v-4h913z" />
    <glyph glyph-name="zcaron" unicode="&#x17e;" horiz-adv-x="923" 
d="M678 1210h-184l-136 275h158l76 -187h4l145 187h179zM780 0h-843l24 123l739 774l2 4h-555l27 143h787l-19 -98l-764 -799v-4h631z" />
    <glyph glyph-name="florin" unicode="&#x192;" horiz-adv-x="702" 
d="M702 1333q-73 0 -100 -31.5t-45 -123.5l-47 -236h201l-6 -143h-224l-141 -717q-17 -87 -44.5 -145.5t-66 -89.5t-81.5 -43.5t-101 -12.5q-41 0 -102 12l-8 140q71 -9 92 -9q77 0 104 29t43 111l143 725h-163l6 143h186l49 244q17 87 46 145.5t70 89.5t86.5 43.5
t107.5 12.5q33 0 112 -9l-33 -141q-61 6 -84 6z" />
    <glyph glyph-name="uni0218" unicode="&#x218;" horiz-adv-x="1277" 
d="M1257 1036h-180q8 149 -72 221t-260 72q-71 0 -130 -11t-109 -35.5t-78.5 -70t-28.5 -108.5q0 -35 6.5 -62t26 -50.5t41 -40t65 -36t83 -34.5t110.5 -39q52 -18 83.5 -29.5t75 -28t69.5 -29.5t59.5 -30.5t53 -34.5t42.5 -38.5t35.5 -44.5t24 -51t16 -60.5t4.5 -69.5
q0 -145 -73 -249t-200.5 -155t-297.5 -51q-182 0 -318 61.5t-206 178.5t-58 274h180q-1 -170 105 -260t301 -90q114 0 197 27t133.5 91t50.5 161q0 37 -7.5 65t-28.5 53t-46 43.5t-73 40t-95.5 39t-126.5 43.5q-90 30 -152 56.5t-115 60t-84 71t-48 86.5t-17 111
q0 100 43 179t118 129t173.5 76t212.5 26q250 0 383 -114.5t112 -342.5zM551 -260h-94l30 160h197l-31 -160q-16 -81 -71.5 -133.5t-165.5 -77.5l16 82q58 15 84 43t35 86z" />
    <glyph glyph-name="uni0219" unicode="&#x219;" horiz-adv-x="980" 
d="M541 608q49 -15 77 -24t70.5 -26t67 -32.5t53.5 -39.5t44.5 -50t26.5 -62.5t11 -78.5q0 -155 -119 -239.5t-309 -84.5q-213 0 -334 103.5t-121 267.5h162q0 -97 73.5 -162t225.5 -65q119 0 187.5 43t68.5 131q0 33 -13 59t-30 42.5t-55.5 33.5t-65 25.5t-82.5 25.5
q-143 42 -195 67q-147 70 -161 206q-2 15 -2 32q0 98 56 165.5t143 97.5t198 30q195 0 301.5 -96t106.5 -234h-164q0 34 -12.5 65t-39.5 59.5t-77 45.5t-117 17q-102 0 -167.5 -36.5t-65.5 -111.5q0 -46 32.5 -77t69 -46t127.5 -42q19 -6 29 -9zM377 -260h-94l30 160h197
l-31 -160q-16 -81 -71.5 -133.5t-165.5 -77.5l16 82q58 15 84 43t35 86z" />
    <glyph glyph-name="uni021A" unicode="&#x21a;" horiz-adv-x="1216" 
d="M178 1300l33 164h1159l-33 -164h-487l-252 -1300h-184l252 1300h-488zM451 -260h-95l31 160h197l-31 -160q-16 -81 -72 -133.5t-166 -77.5l17 82q58 15 84 43t35 86z" />
    <glyph glyph-name="uni021B" unicode="&#x21b;" horiz-adv-x="610" 
d="M625 901h-205l-123 -629q-15 -76 6.5 -107.5t93.5 -31.5q29 0 90 6l-28 -139q-64 -10 -113 -10q-62 0 -105.5 14t-75.5 47.5t-37.5 89.5t7.5 140l121 620h-154l29 143h154l67 349h164l-67 -349h204zM252 -231h-94l30 159h197l-31 -159q-16 -81 -71.5 -133.5t-165.5 -77.5
l16 82q58 15 84 43t35 86z" />
    <glyph glyph-name="uni0237" unicode="&#x237;" horiz-adv-x="401" 
d="M-119 -369q-44 0 -106 11l26 139q53 -6 82 -6q47 0 75.5 36t45.5 123l215 1110h164l-219 -1126q-29 -149 -106.5 -218t-176.5 -69z" />
    <glyph glyph-name="circumflex" unicode="&#x2c6;" horiz-adv-x="724" 
d="M385 1210h-170l242 275h184l135 -275h-164l-71 187h-4z" />
    <glyph glyph-name="caron" unicode="&#x2c7;" horiz-adv-x="724" 
d="M588 1210h-185l-135 275h158l76 -187h4l145 187h178z" />
    <glyph glyph-name="breve" unicode="&#x2d8;" horiz-adv-x="684" 
d="M465 1190q-114 0 -171.5 69t-35.5 205h123q-11 -81 11 -116t87 -35q138 0 176 151h123q-31 -133 -115 -203.5t-198 -70.5z" />
    <glyph glyph-name="dotaccent" unicode="&#x2d9;" horiz-adv-x="362" 
d="M420 1247h-197l39 197h197z" />
    <glyph glyph-name="ring" unicode="&#x2da;" horiz-adv-x="522" 
d="M377 1126q-67 0 -107.5 41t-40.5 105q0 89 63.5 151t153.5 62q68 0 109 -41t41 -105q0 -90 -64 -151.5t-155 -61.5zM393 1206q47 0 82 36t35 83q0 37 -21.5 58.5t-56.5 21.5q-49 0 -83 -33t-34 -86q0 -36 20 -58t58 -22z" />
    <glyph glyph-name="ogonek" unicode="&#x2db;" horiz-adv-x="483" 
d="M96 -362q-78 0 -118.5 31.5t-40.5 86.5q0 75 60.5 140.5t139.5 103.5h123q-172 -118 -172 -188q0 -24 18.5 -38t47.5 -14q50 0 104 21l-25 -123q-68 -20 -137 -20z" />
    <glyph glyph-name="tilde" unicode="&#x2dc;" horiz-adv-x="735" 
d="M342 1235h-123q19 96 73 144t116 48q56 0 134.5 -36.5t100.5 -36.5q49 0 62 69h122q-19 -96 -71.5 -144t-116.5 -48q-56 0 -135 37t-101 37q-50 0 -61 -70z" />
    <glyph glyph-name="hungarumlaut" unicode="&#x2dd;" horiz-adv-x="737" 
d="M328 1210h-133l178 275h194zM618 1210h-133l179 275h194z" />
    <glyph glyph-name="gravecomb" unicode="&#x300;" 
d="M406 1210h-134l-127 275h195z" />
    <glyph glyph-name="acutecomb" unicode="&#x301;" 
d="M393 1210h-133l135 275h195z" />
    <glyph glyph-name="uni0302" unicode="&#x302;" 
d="M385 1210h-170l242 275h184l135 -275h-164l-71 187h-4z" />
    <glyph glyph-name="tildecomb" unicode="&#x303;" 
d="M342 1235h-123q19 96 73 144t116 48q56 0 134.5 -36.5t100.5 -36.5q49 0 62 69h122q-19 -96 -71.5 -144t-116.5 -48q-56 0 -135 37t-101 37q-50 0 -61 -70z" />
    <glyph glyph-name="uni0304" unicode="&#x304;" 
d="M750 1247h-529l29 144h528z" />
    <glyph glyph-name="uni0306" unicode="&#x306;" 
d="M465 1190q-114 0 -171.5 69t-35.5 205h123q-11 -81 11 -116t87 -35q138 0 176 151h123q-31 -133 -115 -203.5t-198 -70.5z" />
    <glyph glyph-name="uni0307" unicode="&#x307;" 
d="M420 1247h-197l39 197h197z" />
    <glyph glyph-name="uni0308" unicode="&#x308;" 
d="M422 1247h-197l39 197h197zM741 1247h-196l39 197h196z" />
    <glyph glyph-name="uni030A" unicode="&#x30a;" 
d="M377 1147q-67 0 -107.5 40.5t-40.5 104.5q0 89 63.5 151t153.5 62q68 0 109 -40.5t41 -104.5q0 -90 -64 -151.5t-155 -61.5zM393 1227q47 0 82 36t35 83q0 36 -21 57.5t-57 21.5q-49 0 -83 -32.5t-34 -85.5q0 -36 20 -58t58 -22z" />
    <glyph glyph-name="uni030B" unicode="&#x30b;" 
d="M328 1210h-133l178 275h194zM618 1210h-133l179 275h194z" />
    <glyph glyph-name="uni030C" unicode="&#x30c;" 
d="M588 1210h-185l-135 275h158l76 -187h4l145 187h178z" />
    <glyph glyph-name="uni0312" unicode="&#x312;" 
d="M502 1628l-19 -94q-59 -18 -86 -48.5t-37 -94.5h95l-35 -181h-197l35 181q19 94 77.5 151.5t166.5 85.5z" />
    <glyph glyph-name="uni0326" unicode="&#x326;" 
d="M-72 -260l31 160h197l-31 -160q-16 -81 -72 -133.5t-166 -77.5l17 82q58 15 84 43t35 86h-95z" />
    <glyph glyph-name="uni0327" unicode="&#x327;" 
d="M121 -406q-117 0 -207 64l53 51q78 -31 137 -31q54 0 86.5 26t32.5 67q0 47 -69 47q-48 0 -86 -15l-19 39l160 158h102l-116 -113l-2 -4q71 10 122.5 -16t51.5 -86q0 -82 -69 -134.5t-177 -52.5z" />
    <glyph glyph-name="uni0328" unicode="&#x328;" 
d="M96 -362q-78 0 -118.5 31.5t-40.5 86.5q0 75 60.5 140.5t139.5 103.5h123q-172 -118 -172 -188q0 -24 18.5 -38t47.5 -14q50 0 104 21l-25 -123q-68 -20 -137 -20z" />
    <glyph glyph-name="uni0335" unicode="&#x335;" 
d="M948 686h-835l28 143h836z" />
    <glyph glyph-name="uni0336" unicode="&#x336;" 
d="M1128 645h-1024l35 184h1024z" />
    <glyph glyph-name="uni0337" unicode="&#x337;" 
d="M1253 995l-1208 -1013l-55 71l1206 1014z" />
    <glyph glyph-name="uni0338" unicode="&#x338;" 
d="M1253 995l-1208 -1013l-55 71l1206 1014z" />
    <glyph glyph-name="uni0394" unicode="&#x394;" horiz-adv-x="1302" 
d="M719 1464h219l248 -1304l-31 -160h-1214l30 160zM805 1294h-17l-624 -1130h827z" />
    <glyph glyph-name="uni03A9" unicode="&#x3a9;" horiz-adv-x="1626" 
d="M565 0h-592l33 164h336q-203 151 -203 444q0 172 66.5 333.5t179.5 283t272.5 195t335.5 73.5q268 0 424 -159.5t156 -418.5q0 -217 -107 -425.5t-284 -325.5h295l-33 -164h-592l29 137q235 111 369 303.5t134 438.5q0 217 -106 331.5t-303 114.5q-144 0 -267.5 -62
t-205.5 -164.5t-128 -234.5t-46 -272q0 -91 19 -162.5t57 -125t81 -91t105 -76.5z" />
    <glyph glyph-name="uni03BC" unicode="&#x3bc;" horiz-adv-x="1101" 
d="M797 412l123 632h163l-202 -1044h-164l24 125h-4q-56 -63 -146 -108.5t-192 -45.5q-141 0 -209 82l-79 -415h-164l274 1406h164l-131 -677q-48 -252 178 -252q135 0 237.5 85t127.5 212z" />
    <glyph glyph-name="pi" unicode="&#x3c0;" horiz-adv-x="1126" 
d="M1139 901h-156l-121 -629q-15 -83 -1.5 -111t71.5 -28q25 0 55 6l-26 -139q-43 -14 -117 -14q-42 0 -71 7.5t-50.5 26t-31 51t-8 82.5t14.5 119l121 629h-387l-174 -901h-164l174 901h-164l27 143h1034z" />
    <glyph glyph-name="uni0400" unicode="&#x400;" horiz-adv-x="1255" 
d="M918 1630h-134l-127 275h195zM1090 0h-1039l285 1464h1014l-33 -164h-830l-88 -460h731l-32 -164h-731l-99 -512h854z" />
    <glyph glyph-name="uni0401" unicode="&#x401;" horiz-adv-x="1255" 
d="M813 1667h-197l39 197h197zM1133 1667h-197l39 197h196zM1090 0h-1039l285 1464h1014l-33 -164h-830l-88 -460h731l-32 -164h-731l-99 -512h854z" />
    <glyph glyph-name="uni0402" unicode="&#x402;" horiz-adv-x="1472" 
d="M956 -375q-88 0 -131 15l31 159q46 -14 105 -14q41 0 72.5 27t41.5 82l125 651q57 291 -209 291q-163 0 -274 -91.5t-144 -261.5l-94 -483h-184l254 1300h-369l31 164h1003l-30 -164h-451l-92 -471h4q181 170 418 170q191 0 279 -109.5t49 -311.5l-136 -701
q-25 -127 -105.5 -189.5t-193.5 -62.5z" />
    <glyph glyph-name="uni0403" unicode="&#x403;" horiz-adv-x="1015" 
d="M883 1630h-133l135 275h194zM233 0h-182l285 1464h831l-32 -164h-648z" />
    <glyph glyph-name="uni0404" unicode="&#x404;" horiz-adv-x="1406" 
d="M918 1329q-120 0 -222 -42.5t-173.5 -117t-120.5 -163t-78 -191.5h575l-33 -164h-573q-4 -62 -4 -88q0 -192 114.5 -310t280.5 -118q180 0 298.5 88t160.5 244h192q-56 -236 -231.5 -366t-450.5 -130q-245 0 -398 150.5t-153 406.5q0 152 36 294t108 263.5t172 212.5
t236.5 143t293.5 52q240 0 376 -126t122 -325h-193q-2 135 -87 211t-248 76z" />
    <glyph glyph-name="uni0405" unicode="&#x405;" horiz-adv-x="1277" 
d="M623 -29q-182 0 -318 61.5t-206 178.5t-58 274h180q-1 -170 105 -260t301 -90q114 0 197 27t133.5 91t50.5 161q0 37 -7.5 65t-28.5 53t-46 43.5t-73 40t-95.5 39t-126.5 43.5q-90 30 -152 56.5t-115 60t-84 71t-48 86.5t-17 111q0 100 43 179t118 129t173.5 76t212.5 26
q250 0 383 -114.5t112 -342.5h-180q8 149 -72 221t-260 72q-71 0 -130 -11t-109 -35.5t-78.5 -70t-28.5 -108.5q0 -35 6.5 -62t26 -50.5t41 -40t65 -36t83 -34.5t110.5 -39q52 -18 83.5 -29.5t75 -28t69.5 -29.5t59.5 -30.5t53 -34.5t42.5 -38.5t35.5 -44.5t24 -51t16 -60.5
t4.5 -69.5q0 -145 -73 -249t-200.5 -155t-297.5 -51z" />
    <glyph glyph-name="uni0406" unicode="&#x406;" horiz-adv-x="491" 
d="M236 0h-185l285 1464h184z" />
    <glyph glyph-name="uni0407" unicode="&#x407;" horiz-adv-x="491" 
d="M406 1667h-197l39 197h196zM725 1667h-197l39 197h197zM236 0h-185l285 1464h184z" />
    <glyph glyph-name="uni0408" unicode="&#x408;" horiz-adv-x="1032" 
d="M371 -29q-102 0 -175.5 27t-114 71.5t-60 107t-19 128t15.5 141.5l9 41h184l-8 -41q-19 -98 -18 -167t48 -106.5t150 -37.5q62 0 111 17.5t80.5 45t55 70.5t36 83.5t22.5 94.5l199 1018h184l-207 -1058q-19 -98 -54 -174t-92.5 -136.5t-145 -92.5t-201.5 -32z" />
    <glyph glyph-name="uni0409" unicode="&#x409;" horiz-adv-x="1935" 
d="M27 -31q-83 0 -125 25l30 160q57 -21 105 -21q89 0 141 50t84 186l254 1095h793l-115 -590h293q189 0 294 -86t105 -243q0 -161 -77.5 -286t-211.5 -192t-301 -67h-456l252 1300h-428l-213 -913q-28 -119 -68.5 -201t-95 -129t-117 -67.5t-143.5 -20.5zM1161 711
l-106 -547h284q166 0 263.5 101t97.5 247q0 95 -63.5 147t-172.5 52h-303z" />
    <glyph glyph-name="uni040A" unicode="&#x40a;" horiz-adv-x="1951" 
d="M233 0h-182l285 1464h184l-114 -590h620l115 590h184l-115 -590h293q189 0 294.5 -86.5t105.5 -242.5q0 -161 -77.5 -286t-211.5 -192t-301 -67h-457l139 711h-622zM1180 711l-109 -547h285q166 0 263 101t97 247q0 95 -63 147t-172 52h-301z" />
    <glyph glyph-name="uni040B" unicode="&#x40b;" horiz-adv-x="1470" 
d="M479 0h-184l254 1300h-369l33 164h1004l-33 -164h-451l-100 -512h4q181 170 418 170q191 0 278.5 -109.5t48.5 -311.5l-104 -537h-184l98 504q57 291 -209 291q-163 0 -274 -91.5t-144 -261.5z" />
    <glyph glyph-name="uni040C" unicode="&#x40c;" horiz-adv-x="1292" 
d="M952 1905h195l-197 -275h-133zM1251 1464h232l-762 -759l483 -705h-225l-434 633h-187l-122 -633h-185l285 1464h184l-129 -667h191z" />
    <glyph glyph-name="uni040D" unicode="&#x40d;" horiz-adv-x="1499" 
d="M1022 1630h-133l-127 275h194zM236 0h-185l285 1464h184l-227 -1161h4l1046 1161h185l-285 -1464h-184l227 1161h-4z" />
    <glyph glyph-name="uni040E" unicode="&#x40e;" horiz-adv-x="1222" 
d="M803 1610q-114 0 -171.5 69t-35.5 205h123q-11 -81 11 -116t87 -35q138 0 176 151h123q-31 -133 -115 -203.5t-198 -70.5zM401 0h-204l282 424l-276 1040h196l215 -839h4l560 839h206z" />
    <glyph glyph-name="uni040F" unicode="&#x40f;" horiz-adv-x="1417" 
d="M662 -266h-166l49 266h-494l285 1464h184l-252 -1300h742l252 1300h184l-285 -1464h-448z" />
    <glyph glyph-name="uni0410" unicode="&#x410;" horiz-adv-x="1323" 
d="M109 0h-195l825 1464h207l260 -1464h-194l-58 367h-645zM811 1294l-410 -764h525l-111 764h-4z" />
    <glyph glyph-name="uni0411" unicode="&#x411;" horiz-adv-x="1294" 
d="M641 0h-590l285 1464h975l-33 -164h-791l-75 -387h428q190 0 293.5 -86t103.5 -249q0 -113 -40.5 -216.5t-114.5 -184.5t-188.5 -129t-252.5 -48zM381 750l-115 -586h422q84 0 154.5 33.5t115 88t69 120t24.5 131.5q0 100 -61.5 156.5t-168.5 56.5h-440z" />
    <glyph glyph-name="uni0412" unicode="&#x412;" horiz-adv-x="1355" 
d="M682 0h-631l285 1464h582q203 0 313 -81t110 -230q0 -127 -77.5 -226t-216.5 -141v-6q223 -48 223 -280q0 -216 -165.5 -358t-422.5 -142zM401 852h426q153 0 238.5 74.5t85.5 195.5q0 91 -52 134.5t-165 43.5h-447zM268 164h439q173 0 274.5 90t101.5 231
q0 102 -56.5 152.5t-160.5 50.5h-497z" />
    <glyph glyph-name="uni0413" unicode="&#x413;" horiz-adv-x="1015" 
d="M233 0h-182l285 1464h831l-32 -164h-648z" />
    <glyph glyph-name="uni0414" unicode="&#x414;" horiz-adv-x="1374" 
d="M25 -266h-168l84 428h100q85 0 134.5 81.5t98.5 286.5l222 934h839l-252 -1302h166l-84 -428h-166l52 264h-975zM301 166v-4h598l221 1138h-477l-203 -854q-47 -191 -139 -280z" />
    <glyph glyph-name="uni0415" unicode="&#x415;" horiz-adv-x="1255" 
d="M1090 0h-1039l285 1464h1014l-33 -164h-830l-88 -460h731l-32 -164h-731l-99 -512h854z" />
    <glyph glyph-name="uni0416" unicode="&#x416;" horiz-adv-x="1916" 
d="M1876 1464h221l-694 -768l403 -696h-204l-363 633h-166l-123 -633h-184l123 633h-166l-608 -633h-234l713 735l-373 729h195l342 -667h164l129 667h184l-129 -667h170z" />
    <glyph glyph-name="uni0417" unicode="&#x417;" horiz-adv-x="1200" 
d="M502 -29q-124 0 -217.5 23t-160.5 72t-91.5 133t-1.5 198h184q-15 -71 1.5 -123t60.5 -81.5t103.5 -43.5t137.5 -14q168 0 284 96t116 234q0 89 -68.5 140.5t-185.5 51.5h-175l31 164h166q96 0 171.5 45t113 113t37.5 145q0 90 -76 143.5t-197 53.5q-151 0 -251 -68
t-122 -180h-184q37 189 193.5 300.5t394.5 111.5q197 0 312.5 -87t115.5 -237q0 -133 -80 -249t-219 -169v-4q100 -34 154.5 -102.5t54.5 -161.5q0 -132 -81.5 -248.5t-220.5 -186t-300 -69.5z" />
    <glyph glyph-name="uni0418" unicode="&#x418;" horiz-adv-x="1499" 
d="M236 0h-185l285 1464h184l-227 -1161h4l1046 1161h185l-285 -1464h-184l227 1161h-4z" />
    <glyph glyph-name="uni0419" unicode="&#x419;" horiz-adv-x="1499" 
d="M963 1610q-114 0 -171.5 69t-35.5 205h123q-11 -81 11 -116t87 -35q138 0 176 151h123q-31 -133 -115 -203.5t-198 -70.5zM236 0h-185l285 1464h184l-227 -1161h4l1046 1161h185l-285 -1464h-184l227 1161h-4z" />
    <glyph glyph-name="uni041A" unicode="&#x41a;" horiz-adv-x="1292" 
d="M1251 1464h232l-762 -759l483 -705h-225l-434 633h-187l-122 -633h-185l285 1464h184l-129 -667h191z" />
    <glyph glyph-name="uni041B" unicode="&#x41b;" horiz-adv-x="1347" 
d="M27 -31q-83 0 -125 25l30 160q57 -21 105 -21q89 0 141 50t84 186l254 1095h860l-284 -1464h-185l254 1300h-497l-213 -913q-28 -119 -68.5 -201t-95 -129t-117 -67.5t-143.5 -20.5z" />
    <glyph glyph-name="uni041C" unicode="&#x41c;" horiz-adv-x="1732" 
d="M236 0h-185l285 1464h252l221 -1224h4l676 1224h272l-284 -1464h-185l234 1204h-4l-676 -1204h-164l-209 1204h-4z" />
    <glyph glyph-name="uni041D" unicode="&#x41d;" horiz-adv-x="1458" 
d="M236 0h-185l285 1464h184l-121 -622h783l121 622h184l-285 -1464h-184l131 678h-782z" />
    <glyph glyph-name="uni041E" unicode="&#x41e;" horiz-adv-x="1589" 
d="M696 -29q-276 0 -435 163t-159 431q0 184 67.5 354.5t182 296.5t277.5 201.5t344 75.5q276 0 435 -163t159 -431q0 -184 -67.5 -354.5t-182 -296.5t-277.5 -201.5t-344 -75.5zM711 135q146 0 272.5 63t212.5 168t135 244t49 289q0 93 -24 169.5t-73.5 136t-132 92
t-192.5 32.5q-146 0 -272.5 -63t-212.5 -168t-135 -244t-49 -289q0 -93 24 -169.5t73.5 -136t132 -92t192.5 -32.5z" />
    <glyph glyph-name="uni041F" unicode="&#x41f;" horiz-adv-x="1417" 
d="M236 0h-185l285 1464h1110l-285 -1464h-184l252 1300h-742z" />
    <glyph glyph-name="uni0420" unicode="&#x420;" horiz-adv-x="1257" 
d="M236 0h-185l285 1464h563q422 0 422 -346q0 -220 -154 -363t-403 -143h-410zM387 776h408q155 0 247.5 93.5t92.5 236.5q0 105 -55.5 149.5t-200.5 44.5h-392z" />
    <glyph glyph-name="uni0421" unicode="&#x421;" horiz-adv-x="1447" 
d="M668 -29q-263 0 -413.5 159t-150.5 441q0 148 41.5 287.5t119 253.5t180.5 200t233 133.5t270 47.5q106 0 196 -28t152.5 -77t105 -114t60 -139.5t11.5 -153.5h-185q0 71 -20.5 132t-62.5 110.5t-113.5 77.5t-165.5 28q-182 0 -328.5 -99t-227.5 -270.5t-81 -381.5
q0 -443 399 -443q89 0 166.5 23.5t133 61.5t99 90.5t70.5 106t43 111.5h189q-72 -249 -265.5 -403t-455.5 -154z" />
    <glyph glyph-name="uni0422" unicode="&#x422;" horiz-adv-x="1216" 
d="M598 0h-184l252 1300h-488l33 164h1159l-33 -164h-487z" />
    <glyph glyph-name="uni0423" unicode="&#x423;" horiz-adv-x="1222" 
d="M401 0h-204l282 424l-276 1040h196l215 -839h4l560 839h206z" />
    <glyph glyph-name="uni0424" unicode="&#x424;" horiz-adv-x="1488" 
d="M1470 836q0 -181 -93.5 -326t-253 -229t-359.5 -101l-35 -180h-184l35 180q-123 11 -220 50.5t-163 106t-90.5 165.5t-0.5 221q44 230 227 374t458 167l38 200h185l-39 -200q234 -17 364.5 -130t130.5 -298zM946 1120l-153 -796q219 25 355 157.5t136 323.5
q0 132 -88.5 214t-249.5 101zM289 723q-31 -168 56.5 -271.5t262.5 -125.5l154 792q-190 -22 -316 -126.5t-157 -268.5z" />
    <glyph glyph-name="uni0425" unicode="&#x425;" horiz-adv-x="1189" 
d="M117 0h-223l645 754l-326 710h205l246 -581h2l477 581h209l-615 -712l350 -752h-204l-269 616h-2z" />
    <glyph glyph-name="uni0426" unicode="&#x426;" horiz-adv-x="1484" 
d="M1278 -266h-166l49 266h-1110l285 1464h184l-252 -1300h742l252 1300h184l-252 -1300h166z" />
    <glyph glyph-name="uni0427" unicode="&#x427;" horiz-adv-x="1226" 
d="M971 0h-185l125 635h-4q-79 -74 -182.5 -122t-212.5 -48q-195 0 -289.5 119.5t-54.5 335.5l104 544h185l-105 -544q-28 -141 33 -216t199 -75q107 0 181.5 38t176.5 130l129 667h184z" />
    <glyph glyph-name="uni0428" unicode="&#x428;" horiz-adv-x="1806" 
d="M1550 0h-1499l285 1464h184l-252 -1300h473l252 1300h185l-252 -1300h473l252 1300h184z" />
    <glyph glyph-name="uni0429" unicode="&#x429;" horiz-adv-x="1873" 
d="M1667 -266h-166l49 266h-1499l285 1464h184l-252 -1300h473l252 1300h185l-252 -1300h473l252 1300h184l-252 -1300h166z" />
    <glyph glyph-name="uni042A" unicode="&#x42a;" horiz-adv-x="1396" 
d="M756 0h-563l251 1300h-286l32 164h472l-109 -551h401q193 0 295.5 -85.5t102.5 -249.5q0 -113 -40.5 -216.5t-114.5 -184.5t-188.5 -129t-252.5 -48zM522 750l-114 -586h395q88 0 159 33.5t114 88t66 119.5t23 132q0 101 -58.5 157t-170.5 56h-414z" />
    <glyph glyph-name="uni042B" unicode="&#x42b;" horiz-adv-x="1619" 
d="M559 0h-508l285 1464h184l-108 -551h346q190 0 293.5 -86t103.5 -249q0 -113 -40.5 -216.5t-114.5 -184.5t-188.5 -129t-252.5 -48zM1364 0h-184l284 1464h185zM381 750l-115 -586h340q84 0 153.5 33.5t113 88t67 119.5t23.5 132q0 100 -58.5 156.5t-165.5 56.5h-358z
" />
    <glyph glyph-name="uni042C" unicode="&#x42c;" horiz-adv-x="1255" 
d="M621 0h-570l285 1464h184l-108 -551h407q190 0 290.5 -85.5t100.5 -249.5q0 -113 -39.5 -216.5t-112 -184.5t-186 -129t-251.5 -48zM381 750l-115 -586h402q84 0 153.5 33.5t112.5 88t66.5 119.5t23.5 132q0 100 -58 156.5t-165 56.5h-420z" />
    <glyph glyph-name="uni042D" unicode="&#x42d;" horiz-adv-x="1404" 
d="M858 1493q247 0 386.5 -141.5t139.5 -401.5q0 -138 -32 -275t-98.5 -264t-160 -225t-226.5 -156.5t-287 -58.5q-272 0 -418.5 128t-112.5 368h193q-17 -160 85 -246t283 -86q101 0 192 41.5t159.5 114t119 164t80.5 196.5h-573l33 164h571q6 49 6 98q0 198 -105 307
t-286 109q-163 0 -281.5 -76.5t-173.5 -210.5h-192q70 215 249 333t449 118z" />
    <glyph glyph-name="uni042E" unicode="&#x42e;" horiz-adv-x="1931" 
d="M1389 1493q256 0 389 -142.5t133 -400.5q0 -145 -34 -286.5t-102 -266t-162 -220t-223 -151t-276 -55.5q-242 0 -372 143.5t-130 401.5q0 70 9 141h-256l-129 -657h-185l285 1464h184l-125 -643h256q36 139 102.5 259.5t158.5 213t215 146t262 53.5zM1145 135
q118 0 217.5 54t164.5 139t111 192t66 209.5t20 194.5q0 191 -90.5 298t-255.5 107q-118 0 -217.5 -53.5t-164.5 -137.5t-111 -190t-66 -209t-20 -196q0 -192 90.5 -300t255.5 -108z" />
    <glyph glyph-name="uni042F" unicode="&#x42f;" horiz-adv-x="1318" 
d="M164 0h-199l4 12q22 10 44.5 79.5t50 162t67 187t112 168t167.5 91.5v5q-97 24 -153 97t-56 189q0 206 158.5 339.5t400.5 133.5h588l-285 -1464h-184l120 612h-399q-76 0 -136.5 -29.5t-98.5 -78.5t-66.5 -108.5t-46.5 -123t-31 -117.5t-27.5 -97t-29.5 -58zM690 776
h340l103 524h-388q-179 0 -268.5 -74t-89.5 -216q0 -234 303 -234z" />
    <glyph glyph-name="uni0430" unicode="&#x430;" horiz-adv-x="1103" 
d="M332 -29q-149 0 -229 71.5t-80 203.5q0 68 23.5 121.5t62 90.5t101 66.5t128 48.5t154.5 37q175 35 222 51q101 35 121 103q5 20 5 43q0 60 -44.5 92.5t-154.5 32.5q-131 0 -203.5 -51t-101.5 -166h-168q38 170 162 265t325 95q192 0 280.5 -88.5t55.5 -257.5l-96 -493
q-13 -57 -5 -90t48 -33q11 0 35 4l-23 -107q-52 -20 -98 -20q-69 0 -102.5 38t-30.5 124h-6q-143 -181 -381 -181zM379 115q147 0 254.5 80t136.5 223l31 151q-32 -30 -73.5 -44t-176.5 -42q-81 -17 -130 -29.5t-98.5 -30.5t-75 -39t-41.5 -51.5t-16 -70.5q0 -147 189 -147z
" />
    <glyph glyph-name="uni0431" unicode="&#x431;" horiz-adv-x="1114" 
d="M473 -31q-192 0 -291.5 116t-99.5 366q0 90 17.5 192.5t62 219t109.5 213.5t171 172t236 98l172 30q170 32 182 90h182q-34 -174 -280 -223l-244 -47q-138 -27 -244.5 -121.5t-152.5 -220.5h4q63 92 178 156.5t252 64.5q166 0 254 -99t88 -274q0 -134 -41 -263.5
t-115 -234.5t-189 -170t-251 -65zM500 113q82 0 151 39t113 100t75 137t44.5 147t13.5 134q0 123 -57.5 192.5t-177.5 69.5q-70 0 -130.5 -26t-102.5 -71t-74.5 -100.5t-51 -118t-28 -121t-9.5 -112.5q0 -124 57 -197t177 -73z" />
    <glyph glyph-name="uni0432" unicode="&#x432;" horiz-adv-x="1005" 
d="M500 0h-484l205 1044h459q134 0 205 -55.5t71 -154.5q0 -102 -63 -178.5t-154 -106.5v-4q75 -14 121.5 -67.5t46.5 -131.5q0 -62 -26 -122t-74.5 -110.5t-128.5 -82t-178 -31.5zM358 901l-59 -301h285q81 0 137.5 59t56.5 134q0 108 -135 108h-285zM274 467l-63 -324h299
q105 0 165 53t60 142q0 61 -39 95t-104 34h-318z" />
    <glyph glyph-name="uni0433" unicode="&#x433;" horiz-adv-x="839" 
d="M180 0h-164l205 1044h694l-28 -143h-531z" />
    <glyph glyph-name="uni0434" unicode="&#x434;" horiz-adv-x="1138" 
d="M1051 1044l-177 -901h146l-80 -409h-145l51 266h-787l-53 -266h-145l80 409h82q46 0 88 52t61 129l182 720h697zM244 143h463l147 758h-367l-143 -569q-30 -124 -100 -185v-4z" />
    <glyph glyph-name="uni0435" unicode="&#x435;" horiz-adv-x="1122" 
d="M1053 479h-826q-4 -46 -4 -69q0 -145 64 -221t207 -76q74 0 138 21.5t106 56t68 67t40 64.5h170q-76 -162 -211.5 -257.5t-323.5 -95.5q-208 0 -318 116t-110 323q0 186 79.5 338.5t221 240.5t316.5 88q205 0 306 -104.5t101 -284.5q0 -80 -24 -207zM655 934
q-153 0 -257.5 -83.5t-145.5 -227.5h651q16 88 -3.5 157t-82 111.5t-162.5 42.5z" />
    <glyph glyph-name="uni0436" unicode="&#x436;" horiz-adv-x="1357" 
d="M94 0h-194l462 528l-256 516h183l223 -452h102l88 452h168l-88 -452h121l354 452h187l-430 -536l235 -508h-176l-205 449h-114l-88 -449h-168l88 449h-101z" />
    <glyph glyph-name="uni0437" unicode="&#x437;" horiz-adv-x="927" 
d="M369 -29q-197 0 -298.5 89t-68.5 243h164q-20 -88 44.5 -138t188.5 -50q111 0 180.5 52t69.5 144q0 73 -45.5 109.5t-124.5 36.5h-166l27 143h160q60 0 104.5 20.5t68.5 52.5t35 65.5t11 66.5q0 59 -54 93t-135 34q-116 0 -172 -49.5t-92 -151.5h-164q29 150 150.5 247
t304.5 97q141 0 235.5 -64t94.5 -177q0 -99 -67 -187t-156 -117v-2q67 -18 112 -74t45 -135q0 -109 -62.5 -189.5t-163.5 -119.5t-226 -39z" />
    <glyph glyph-name="uni0438" unicode="&#x438;" horiz-adv-x="1132" 
d="M180 0h-168l213 1044h166l-158 -770l715 770h170l-213 -1044h-168l162 778z" />
    <glyph glyph-name="uni0439" unicode="&#x439;" horiz-adv-x="1132" 
d="M705 1190q-114 0 -171.5 69t-35.5 205h123q-11 -81 11 -116t87 -35q138 0 176 151h123q-31 -133 -115 -203.5t-198 -70.5zM180 0h-168l213 1044h166l-158 -770l715 770h170l-213 -1044h-168l162 778z" />
    <glyph glyph-name="uni043A" unicode="&#x43a;" horiz-adv-x="958" 
d="M874 1044h199l-516 -534l309 -510h-192l-271 449h-131l-88 -449h-168l205 1044h168l-88 -452h137z" />
    <glyph glyph-name="uni043B" unicode="&#x43b;" horiz-adv-x="1026" 
d="M18 -31q-57 0 -106 19l29 157q41 -14 79 -14q47 0 73.5 32.5t45.5 108.5l193 772h676l-205 -1044h-164l176 901h-354l-174 -702q-28 -113 -101 -171.5t-168 -58.5z" />
    <glyph glyph-name="uni043C" unicode="&#x43c;" horiz-adv-x="1380" 
d="M176 0h-166l217 1044h222l159 -802h4l541 802h229l-247 -1044h-168l182 772h-4l-514 -770h-144l-143 791h-4z" />
    <glyph glyph-name="uni043D" unicode="&#x43d;" horiz-adv-x="1128" 
d="M856 604l86 440h168l-203 -1044h-168l90 461h-555l-90 -461h-168l203 1044h168l-86 -440h555z" />
    <glyph glyph-name="uni043E" unicode="&#x43e;" horiz-adv-x="1136" 
d="M453 -29q-192 0 -298 112t-106 300q0 186 80 343.5t226.5 252t328.5 94.5q192 0 297.5 -111.5t105.5 -299.5q0 -139 -47 -265.5t-129.5 -220.5t-201.5 -149.5t-256 -55.5zM475 115q130 0 234 76.5t158.5 197t54.5 256.5q0 129 -65.5 207t-194.5 78q-130 0 -234 -77
t-158.5 -197.5t-54.5 -256.5q0 -129 65.5 -206.5t194.5 -77.5z" />
    <glyph glyph-name="uni043F" unicode="&#x43f;" horiz-adv-x="1087" 
d="M184 0h-168l203 1044h850l-203 -1044h-168l174 901h-514z" />
    <glyph glyph-name="uni0440" unicode="&#x440;" horiz-adv-x="1153" 
d="M723 1073q172 0 274.5 -110t102.5 -314q0 -141 -45.5 -267t-123.5 -216t-187 -142.5t-232 -52.5q-211 0 -295 164h-12l-96 -497h-164l274 1406h164l-25 -129h4q147 158 361 158zM526 115q170 0 289 149t119 371q0 295 -252 295q-136 0 -244 -103t-147 -260l-15 -73
q-6 -41 -6 -80q0 -143 66 -221t190 -78z" />
    <glyph glyph-name="uni0441" unicode="&#x441;" horiz-adv-x="1077" 
d="M469 -29q-196 0 -308 114t-112 308q0 180 78 335.5t221 250t318 94.5q193 0 297.5 -116t89.5 -295h-160q12 130 -49 199t-189 69t-230 -75t-156 -193.5t-54 -253.5q0 -60 14.5 -111t44 -93t82 -65.5t123.5 -23.5q77 0 141.5 25t107 65.5t69 84t39.5 89.5h163
q-46 -179 -193.5 -293.5t-336.5 -114.5z" />
    <glyph glyph-name="uni0442" unicode="&#x442;" horiz-adv-x="919" 
d="M455 0h-168l174 901h-365l29 143h872l-28 -143h-340z" />
    <glyph glyph-name="uni0443" unicode="&#x443;" horiz-adv-x="1009" 
d="M47 -367q-38 0 -100 11l26 139q52 -6 74 -6q175 0 279 233l-224 1034h181l157 -845h4l471 845h181l-625 -1075q-113 -192 -208 -264t-216 -72z" />
    <glyph glyph-name="uni0444" unicode="&#x444;" horiz-adv-x="1269" 
d="M1219 653q0 -124 -41.5 -240t-118 -209.5t-193.5 -155.5t-258 -75l-65 -335h-164l65 335q-150 16 -247 90t-131 191.5t-5 267.5q44 233 204 379.5t392 169.5l76 393h164l-76 -393q190 -20 294 -129.5t104 -288.5zM793 926l-156 -807q124 19 218 94t141.5 183t47.5 231
q0 125 -65 202.5t-186 96.5zM233 522q-16 -67 -8.5 -133.5t32.5 -121.5t80.5 -95t135.5 -53l156 807q-153 -25 -258.5 -132t-137.5 -272z" />
    <glyph glyph-name="uni0445" unicode="&#x445;" horiz-adv-x="976" 
d="M80 0h-195l510 535l-282 509h196l207 -399h4l342 399h195l-467 -509l303 -535h-197l-227 426h-4z" />
    <glyph glyph-name="uni0446" unicode="&#x446;" horiz-adv-x="1148" 
d="M948 -266h-145l51 266h-838l203 1044h168l-174 -901h504l174 901h168l-174 -901h145z" />
    <glyph glyph-name="uni0447" unicode="&#x447;" horiz-adv-x="1013" 
d="M791 0h-168l92 465h-4q-60 -64 -151 -107t-204 -43q-66 0 -119 17t-94.5 55.5t-54.5 100.5t2 151l80 405h166l-72 -364q-22 -112 22 -166.5t142 -54.5q181 0 320 178l79 407h168z" />
    <glyph glyph-name="uni0448" unicode="&#x448;" horiz-adv-x="1482" 
d="M1262 0h-1246l203 1044h166l-174 -901h373l174 901h166l-174 -901h372l174 901h166z" />
    <glyph glyph-name="uni0449" unicode="&#x449;" horiz-adv-x="1554" 
d="M1354 -266h-146l52 266h-1244l203 1044h166l-174 -901h373l174 901h166l-174 -901h372l174 901h166l-174 -901h148z" />
    <glyph glyph-name="uni044A" unicode="&#x44a;" horiz-adv-x="1075" 
d="M594 0h-424l176 899h-246l29 145h412l-76 -393h223q147 0 230 -78.5t83 -226.5q0 -160 -109.5 -253t-297.5 -93zM436 508l-69 -365h237q105 0 168.5 53t63.5 142q0 77 -50.5 123.5t-130.5 46.5h-219z" />
    <glyph glyph-name="uni044B" unicode="&#x44b;" horiz-adv-x="1263" 
d="M420 0h-404l205 1044h166l-76 -393h203q147 0 230 -78.5t83 -226.5q0 -160 -109.5 -253t-297.5 -93zM1042 0h-168l203 1044h168zM283 508l-70 -365h217q105 0 168.5 53t63.5 142q0 77 -50.5 123.5t-130.5 46.5h-198z" />
    <glyph glyph-name="uni044C" unicode="&#x44c;" horiz-adv-x="921" 
d="M440 0h-424l205 1044h166l-76 -393h224q147 0 230 -78.5t83 -226.5q0 -160 -110 -253t-298 -93zM283 508l-70 -365h238q105 0 168 53t63 142q0 77 -50 123.5t-130 46.5h-219z" />
    <glyph glyph-name="uni044D" unicode="&#x44d;" horiz-adv-x="1040" 
d="M598 1073q190 0 290.5 -107t100.5 -290q0 -105 -23 -205.5t-71 -191.5t-116.5 -159t-166.5 -108.5t-213 -40.5q-189 0 -299.5 96t-89.5 257h164q-5 -90 63.5 -149.5t188.5 -59.5q72 0 134 28.5t106.5 78t75.5 107.5t51 126h-404l27 143h405q4 50 4 70q0 129 -66 195.5
t-188 66.5q-127 0 -209.5 -55t-111.5 -146h-164q48 158 182.5 251t329.5 93z" />
    <glyph glyph-name="uni044E" unicode="&#x44e;" horiz-adv-x="1429" 
d="M1055 1075q156 0 241.5 -103.5t85.5 -287.5q0 -103 -25 -205t-75 -193.5t-118.5 -162.5t-162.5 -112.5t-200 -41.5q-170 0 -260 103t-90 288q0 29 4 91h-183l-88 -451h-168l203 1044h168l-88 -450h184q29 100 80.5 185.5t122 152.5t166 105t203.5 38zM827 113
q93 0 169 57t120.5 143.5t68 178t23.5 172.5q0 129 -50.5 198.5t-151.5 69.5q-87 0 -161 -51.5t-121 -133t-73 -177t-26 -187.5q0 -130 50.5 -200t151.5 -70z" />
    <glyph glyph-name="uni044F" unicode="&#x44f;" horiz-adv-x="983" 
d="M125 0h-182l2 8q14 6 27.5 41t25.5 82t34 102.5t48.5 104t72 85.5t103.5 48v2q-79 21 -119 89.5t-22 162.5q30 148 146 233.5t300 85.5h404l-203 -1044h-166l76 397h-244q-62 0 -110 -26t-73.5 -65t-45.5 -87.5t-29 -91.5t-21 -79t-24 -48zM459 541h241l70 360h-246
q-106 0 -163.5 -49t-71.5 -119q-9 -33 -3 -67t22 -62t55 -45.5t96 -17.5z" />
    <glyph glyph-name="uni0450" unicode="&#x450;" horiz-adv-x="1122" 
d="M707 1489l65 -275h-133l-127 275h195zM1053 479h-826q-4 -46 -4 -69q0 -145 64 -221t207 -76q74 0 138 21.5t106 56t68 67t40 64.5h170q-76 -162 -211.5 -257.5t-323.5 -95.5q-208 0 -318 116t-110 323q0 186 79.5 338.5t221 240.5t316.5 88q205 0 306 -104.5t101 -284.5
q0 -80 -24 -207zM655 934q-153 0 -257.5 -83.5t-145.5 -227.5h651q16 88 -3.5 157t-82 111.5t-162.5 42.5z" />
    <glyph glyph-name="uni0451" unicode="&#x451;" horiz-adv-x="1122" 
d="M510 1448h197l-39 -197h-197zM829 1448h197l-39 -197h-196zM1053 479h-826q-4 -46 -4 -69q0 -145 64 -221t207 -76q74 0 138 21.5t106 56t68 67t40 64.5h170q-76 -162 -211.5 -257.5t-323.5 -95.5q-208 0 -318 116t-110 323q0 186 79.5 338.5t221 240.5t316.5 88
q205 0 306 -104.5t101 -284.5q0 -80 -24 -207zM655 934q-153 0 -257.5 -83.5t-145.5 -227.5h651q16 88 -3.5 157t-82 111.5t-162.5 42.5z" />
    <glyph glyph-name="uni0452" unicode="&#x452;" horiz-adv-x="1093" 
d="M580 -369q-62 0 -131 15l20 145q55 -10 106 -10q99 0 119 113l154 794q22 111 -20 177.5t-162 66.5q-127 0 -228 -80t-131 -197l-127 -655h-164l234 1202h-123l25 123h122l27 139h164l-27 -139h324l-25 -123h-323l-56 -291h4q62 74 157.5 119t213.5 45q158 0 237.5 -102
t43.5 -285l-160 -831q-21 -108 -99 -167t-175 -59z" />
    <glyph glyph-name="uni0453" unicode="&#x453;" horiz-adv-x="839" 
d="M666 1210h-134l136 275h194zM180 0h-164l205 1044h694l-28 -143h-531z" />
    <glyph glyph-name="uni0454" unicode="&#x454;" horiz-adv-x="1028" 
d="M1018 729h-164q3 91 -51 146t-170 55q-78 0 -143 -27.5t-111.5 -76.5t-79 -106.5t-53.5 -125.5h379l-29 -143h-379q-4 -50 -4 -72q0 -129 63.5 -196.5t184.5 -67.5q117 0 204 59t117 150h164q-45 -159 -183.5 -256t-328.5 -97q-188 0 -287.5 110t-99.5 294q0 107 28 210
t81.5 190.5t127 154.5t170.5 105t205 38q184 0 277 -93.5t82 -250.5z" />
    <glyph glyph-name="uni0455" unicode="&#x455;" horiz-adv-x="980" 
d="M463 -29q-213 0 -334 103.5t-121 267.5h162q0 -97 73.5 -162t225.5 -65q119 0 187.5 43t68.5 131q0 33 -13 59t-30 42.5t-55.5 33.5t-65 25.5t-82.5 25.5q-143 42 -195 67q-147 70 -161 206q-2 15 -2 32q0 98 56 165.5t143 97.5t198 30q195 0 301.5 -96t106.5 -234h-164
q0 34 -12.5 65t-39.5 59.5t-77 45.5t-117 17q-102 0 -167.5 -36.5t-65.5 -111.5q0 -46 32.5 -77t69 -46t127.5 -42q19 -6 29 -9q49 -15 77 -24t70.5 -26t67 -32.5t53.5 -39.5t44.5 -50t26.5 -62.5t11 -78.5q0 -155 -119 -239.5t-309 -84.5z" />
    <glyph glyph-name="uni0456" unicode="&#x456;" horiz-adv-x="401" 
d="M438 1247h-196l39 197h196zM180 0h-164l203 1044h164z" />
    <glyph glyph-name="uni0457" unicode="&#x457;" horiz-adv-x="401" 
d="M319 1247h-176l39 197h176zM537 1247h-177l39 197h176zM180 0h-164l203 1044h164z" />
    <glyph glyph-name="uni0458" unicode="&#x458;" horiz-adv-x="401" 
d="M438 1247h-196l39 197h196zM-119 -369q-44 0 -106 11l26 139q53 -6 82 -6q47 0 75.5 36t45.5 123l215 1110h164l-219 -1126q-29 -149 -106.5 -218t-176.5 -69z" />
    <glyph glyph-name="uni0459" unicode="&#x459;" horiz-adv-x="1472" 
d="M18 -31q-57 0 -106 19l29 157q41 -14 79 -14q47 0 73.5 32.5t45.5 108.5l193 772h626l-75 -393h202q147 0 230.5 -78.5t83.5 -226.5q0 -160 -110 -253t-298 -93h-403l176 901h-303l-174 -702q-28 -113 -101 -171.5t-168 -58.5zM854 508l-70 -365h217q105 0 168.5 53
t63.5 142q0 77 -50 123.5t-130 46.5h-199z" />
    <glyph glyph-name="uni045A" unicode="&#x45a;" horiz-adv-x="1505" 
d="M915 651h203q147 0 230.5 -78.5t83.5 -226.5q0 -160 -110 -253t-298 -93h-403l100 510h-438l-99 -510h-168l203 1044h168l-76 -391h439l75 391h166zM817 143h217q105 0 168.5 53t63.5 142q0 77 -50.5 123.5t-130.5 46.5h-198z" />
    <glyph glyph-name="uni045B" unicode="&#x45b;" horiz-adv-x="1091" 
d="M733 1075q157 0 236 -101.5t43 -285.5l-133 -688h-164l133 688q22 111 -20 177.5t-162 66.5q-127 0 -228 -80t-131 -197l-127 -655h-164l234 1202h-123l25 123h122l27 139h164l-27 -139h324l-25 -123h-323l-56 -291q62 74 159 119t216 45z" />
    <glyph glyph-name="uni045C" unicode="&#x45c;" horiz-adv-x="958" 
d="M702 1485h195l-197 -275h-133zM874 1044h199l-516 -534l309 -510h-192l-271 449h-131l-88 -449h-168l205 1044h168l-88 -452h137z" />
    <glyph glyph-name="uni045D" unicode="&#x45d;" horiz-adv-x="1132" 
d="M764 1210h-133l-127 275h194zM180 0h-168l213 1044h166l-158 -770l715 770h170l-213 -1044h-168l162 778z" />
    <glyph glyph-name="uni045E" unicode="&#x45e;" horiz-adv-x="1009" 
d="M610 1190q-114 0 -171.5 69t-35.5 205h123q-11 -81 11.5 -116t87.5 -35q138 0 176 151h123q-31 -133 -115.5 -203.5t-198.5 -70.5zM47 -367q-38 0 -100 11l26 139q52 -6 74 -6q175 0 279 233l-224 1034h181l157 -845h4l471 845h181l-625 -1075q-113 -192 -208 -264
t-216 -72z" />
    <glyph glyph-name="uni045F" unicode="&#x45f;" horiz-adv-x="1077" 
d="M477 -266h-145l51 266h-367l203 1044h168l-174 -901h504l174 901h168l-203 -1044h-326z" />
    <glyph glyph-name="uni0490" unicode="&#x490;" horiz-adv-x="962" 
d="M233 0h-182l285 1464h610l39 203h168l-72 -367h-594z" />
    <glyph glyph-name="uni0491" unicode="&#x491;" horiz-adv-x="827" 
d="M180 0h-164l205 1044h537l43 226h145l-72 -369h-518z" />
    <glyph glyph-name="uni0492" unicode="&#x492;" horiz-adv-x="1122" 
d="M1266 1464l-33 -164h-647l-101 -514h437l-33 -143h-432l-125 -643h-182l124 643h-254l33 143h250l131 678h832z" />
    <glyph glyph-name="uni0493" unicode="&#x493;" horiz-adv-x="909" 
d="M985 1044l-29 -143h-530l-61 -311h354l-29 -123h-348l-92 -467h-164l92 467h-184l29 123h178l90 454h694z" />
    <glyph glyph-name="uni0496" unicode="&#x496;" horiz-adv-x="1916" 
d="M2097 1464l-694 -768l340 -585h141l-74 -377h-168l52 266h-92l-363 633h-166l-123 -633h-184l123 633h-166l-608 -633h-234l713 735l-373 729h195l342 -667h164l129 667h184l-129 -667h170l600 667h221z" />
    <glyph glyph-name="uni0497" unicode="&#x497;" horiz-adv-x="1357" 
d="M1444 1044l-430 -536l178 -385h86l-76 -389h-143l51 266h-37l-205 449h-114l-88 -449h-168l88 449h-101l-391 -449h-194l462 528l-256 516h183l223 -452h102l88 452h168l-88 -452h121l354 452h187z" />
    <glyph glyph-name="uni049A" unicode="&#x49a;" horiz-adv-x="1292" 
d="M1483 1464l-762 -759l407 -594h119l-73 -377h-168l51 266h-78l-434 633h-187l-122 -633h-185l285 1464h184l-129 -667h191l669 667h232z" />
    <glyph glyph-name="uni049B" unicode="&#x49b;" horiz-adv-x="958" 
d="M1073 1044l-516 -534l236 -387h122l-75 -389h-144l52 266h-74l-271 449h-131l-88 -449h-168l205 1044h168l-88 -452h137l436 452h199z" />
    <glyph glyph-name="uni04A2" unicode="&#x4a2;" horiz-adv-x="1458" 
d="M1303 1464h184l-264 -1353h75l-73 -377h-168l51 266h-90l131 678h-782l-131 -678h-185l285 1464h184l-121 -622h783z" />
    <glyph glyph-name="uni04A3" unicode="&#x4a3;" horiz-adv-x="1128" 
d="M942 1044h168l-178 -921h84l-76 -389h-143l51 266h-109l90 461h-555l-90 -461h-168l203 1044h168l-86 -440h555z" />
    <glyph glyph-name="uni04AE" unicode="&#x4ae;" horiz-adv-x="1290" 
d="M635 0h-184l116 600l-364 864h194l283 -723h4l567 723h203l-702 -864z" />
    <glyph glyph-name="uni04AF" unicode="&#x4af;" horiz-adv-x="1003" 
d="M418 -362h-166l84 434l-234 972h172l183 -720h4l446 720h189l-594 -972z" />
    <glyph glyph-name="uni04B0" unicode="&#x4b0;" horiz-adv-x="1273" 
d="M1446 1464l-703 -864l-12 -63h328l-33 -144h-324l-75 -393h-185l76 393h-348l33 144h344l12 63l-364 864h194l283 -723h4l567 723h203z" />
    <glyph glyph-name="uni04B1" unicode="&#x4b1;" horiz-adv-x="1003" 
d="M1096 1044l-594 -972l-21 -103h269l-25 -123h-266l-41 -208h-166l41 208h-264l24 123h262l21 103l-234 972h172l183 -720h4l446 720h189z" />
    <glyph glyph-name="uni04B2" unicode="&#x4b2;" horiz-adv-x="1189" 
d="M1352 1464l-615 -712l299 -641h125l-74 -377h-167l51 266h-88l-269 616h-2l-495 -616h-223l645 754l-326 710h205l246 -581h2l477 581h209z" />
    <glyph glyph-name="uni04B3" unicode="&#x4b3;" horiz-adv-x="976" 
d="M1057 1044l-467 -509l233 -412h113l-76 -389h-143l51 266h-72l-227 426h-4l-385 -426h-195l510 535l-282 509h196l207 -399h4l342 399h195z" />
    <glyph glyph-name="uni04B6" unicode="&#x4b6;" horiz-adv-x="1226" 
d="M1071 1464h184l-264 -1353h70l-74 -377h-168l51 266h-84l125 635h-4q-79 -74 -182.5 -122t-212.5 -48q-195 0 -289.5 119.5t-54.5 335.5l104 544h185l-105 -544q-28 -141 33 -216t199 -75q107 0 181.5 38t176.5 130z" />
    <glyph glyph-name="uni04B7" unicode="&#x4b7;" horiz-adv-x="1013" 
d="M827 1044h168l-180 -921h66l-76 -389h-143l51 266h-90l92 465h-4q-60 -64 -151 -107t-204 -43q-66 0 -119 17t-94.5 55.5t-54.5 100.5t2 151l80 405h166l-72 -364q-22 -112 22 -166.5t142 -54.5q181 0 320 178z" />
    <glyph glyph-name="uni04BA" unicode="&#x4ba;" horiz-adv-x="1226" 
d="M236 0h-185l287 1464h184l-133 -676h4q181 170 418 170q191 0 279 -109.5t49 -311.5l-105 -537h-184l98 504q57 291 -209 291q-163 0 -273.5 -91t-143.5 -262z" />
    <glyph glyph-name="uni04BB" unicode="&#x4bb;" horiz-adv-x="1091" 
d="M733 1075q157 0 236 -101.5t43 -285.5l-133 -688h-164l133 688q22 111 -20 177.5t-162 66.5q-127 0 -228 -80t-131 -197l-127 -655h-164l285 1464h164l-107 -553q62 74 159 119t216 45z" />
    <glyph glyph-name="uni04D8" unicode="&#x4d8;" horiz-adv-x="1484" 
d="M944 1493q189 0 318.5 -100.5t177.5 -273t6 -384.5q-43 -222 -160.5 -396.5t-288.5 -272t-366 -97.5q-191 0 -326 91t-188.5 250t-14.5 356q10 59 27 110h1139q38 251 -66.5 402t-310.5 151q-187 0 -318.5 -79t-181.5 -220h-184q76 220 277 341.5t460 121.5zM674 133
q192 0 338 130.5t217 348.5h-940q-41 -208 62 -343.5t323 -135.5z" />
    <glyph glyph-name="uni04D9" unicode="&#x4d9;" horiz-adv-x="1075" 
d="M635 1073q190 0 290.5 -107t100.5 -290q0 -101 -24.5 -201t-75 -190.5t-120.5 -160.5t-167.5 -111.5t-208.5 -41.5q-84 0 -151.5 22t-110.5 61t-72 90t-40 112.5t-10.5 124.5t13.5 129q4 30 23 84h774q4 46 4 63q0 132 -67.5 202.5t-184.5 70.5q-121 0 -210.5 -50
t-121.5 -135h-159q60 152 199 240t319 88zM457 115q76 0 139.5 28t108 77.5t74.5 106.5t50 124h-610q-8 -48 -10 -95t13 -90.5t42 -77t76.5 -53.5t116.5 -20z" />
    <glyph glyph-name="uni04E2" unicode="&#x4e2;" horiz-adv-x="1499" 
d="M1243 1667h-528l28 143h529zM236 0h-185l285 1464h184l-227 -1161h4l1046 1161h185l-285 -1464h-184l227 1161h-4z" />
    <glyph glyph-name="uni04E3" unicode="&#x4e3;" horiz-adv-x="1132" 
d="M985 1247h-528l28 144h529zM180 0h-168l213 1044h166l-158 -770l715 770h170l-213 -1044h-168l162 778z" />
    <glyph glyph-name="uni04E8" unicode="&#x4e8;" horiz-adv-x="1589" 
d="M973 1493q276 0 435 -163t159 -431q0 -184 -67.5 -354.5t-182 -296.5t-277.5 -201.5t-344 -75.5q-276 0 -435 163t-159 431q0 184 67.5 354.5t182 296.5t277.5 201.5t344 75.5zM958 1329q-228 0 -397.5 -144t-236.5 -370h1052q4 58 4 84q0 93 -24 169.5t-73.5 136
t-132 92t-192.5 32.5zM711 135q229 0 398.5 144t236.5 372h-1053q-4 -58 -4 -86q0 -93 24 -169.5t73.5 -136t132 -92t192.5 -32.5z" />
    <glyph glyph-name="uni04E9" unicode="&#x4e9;" horiz-adv-x="1136" 
d="M684 1073q192 0 297.5 -111.5t105.5 -299.5q0 -139 -47 -265.5t-129.5 -220.5t-201.5 -149.5t-256 -55.5q-192 0 -298 112t-106 300q0 186 80 343.5t226.5 252t328.5 94.5zM662 930q-147 0 -257.5 -94.5t-158.5 -241.5h674q2 16 2 51q0 129 -65.5 207t-194.5 78zM475 115
q147 0 257.5 94.5t158.5 241.5h-674q-2 -16 -2 -52q0 -129 65.5 -206.5t194.5 -77.5z" />
    <glyph glyph-name="uni04EE" unicode="&#x4ee;" horiz-adv-x="1222" 
d="M1083 1667h-528l29 143h528zM401 0h-204l282 424l-276 1040h196l215 -839h4l560 839h206z" />
    <glyph glyph-name="uni04EF" unicode="&#x4ef;" horiz-adv-x="1009" 
d="M891 1247h-529l29 144h529zM47 -367q-38 0 -100 11l26 139q52 -6 74 -6q175 0 279 233l-224 1034h181l157 -845h4l471 845h181l-625 -1075q-113 -192 -208 -264t-216 -72z" />
    <glyph glyph-name="uni139A" unicode="&#x139a;" horiz-adv-x="1347" 
 />
    <glyph glyph-name="Wgrave" unicode="&#x1e80;" horiz-adv-x="1878" 
d="M1196 1630h-133l-127 275h194zM510 0h-205l-98 1464h194l60 -1200h4l534 1200h213l99 -1200h4l512 1200h194l-647 -1464h-205l-94 1255h-4z" />
    <glyph glyph-name="wgrave" unicode="&#x1e81;" horiz-adv-x="1509" 
d="M930 1210h-133l-127 275h194zM416 0h-183l-108 1044h180l51 -860h4l398 860h178l61 -860h4l410 860h182l-536 -1044h-174l-68 848h-4z" />
    <glyph glyph-name="Wacute" unicode="&#x1e82;" horiz-adv-x="1878" 
d="M1214 1630h-133l136 275h194zM510 0h-205l-98 1464h194l60 -1200h4l534 1200h213l99 -1200h4l512 1200h194l-647 -1464h-205l-94 1255h-4z" />
    <glyph glyph-name="wacute" unicode="&#x1e83;" horiz-adv-x="1509" 
d="M948 1210h-133l135 275h195zM416 0h-183l-108 1044h180l51 -860h4l398 860h178l61 -860h4l410 860h182l-536 -1044h-174l-68 848h-4z" />
    <glyph glyph-name="Wdieresis" unicode="&#x1e84;" horiz-adv-x="1878" 
d="M1092 1667h-197l39 197h196zM1411 1667h-197l39 197h197zM510 0h-205l-98 1464h194l60 -1200h4l534 1200h213l99 -1200h4l512 1200h194l-647 -1464h-205l-94 1255h-4z" />
    <glyph glyph-name="wdieresis" unicode="&#x1e85;" horiz-adv-x="1509" 
d="M825 1247h-196l39 197h196zM1145 1247h-197l39 197h197zM416 0h-183l-108 1044h180l51 -860h4l398 860h178l61 -860h4l410 860h182l-536 -1044h-174l-68 848h-4z" />
    <glyph glyph-name="Ygrave" unicode="&#x1ef2;" horiz-adv-x="1290" 
d="M891 1630h-133l-127 275h194zM635 0h-184l116 600l-364 864h194l283 -723h4l567 723h203l-702 -864z" />
    <glyph glyph-name="ygrave" unicode="&#x1ef3;" horiz-adv-x="1009" 
d="M670 1210h-133l-127 275h194zM47 -367q-38 0 -100 11l26 139q52 -6 74 -6q175 0 279 233l-224 1034h181l157 -845h4l471 845h181l-625 -1075q-113 -192 -208 -264t-216 -72z" />
    <glyph glyph-name="uni2000" unicode="&#x2000;" horiz-adv-x="1024" 
 />
    <glyph glyph-name="uni2001" unicode="&#x2001;" horiz-adv-x="2048" 
 />
    <glyph glyph-name="uni2002" unicode="&#x2002;" horiz-adv-x="1024" 
 />
    <glyph glyph-name="uni2003" unicode="&#x2003;" horiz-adv-x="2048" 
 />
    <glyph glyph-name="uni2004" unicode="&#x2004;" horiz-adv-x="681" 
 />
    <glyph glyph-name="uni2005" unicode="&#x2005;" horiz-adv-x="512" 
 />
    <glyph glyph-name="uni2006" unicode="&#x2006;" horiz-adv-x="342" 
 />
    <glyph glyph-name="uni2007" unicode="&#x2007;" horiz-adv-x="1433" 
 />
    <glyph glyph-name="uni2008" unicode="&#x2008;" horiz-adv-x="387" 
 />
    <glyph glyph-name="uni2009" unicode="&#x2009;" horiz-adv-x="256" 
 />
    <glyph glyph-name="uni200A" unicode="&#x200a;" horiz-adv-x="86" 
 />
    <glyph glyph-name="uni200B" unicode="&#x200b;" 
 />
    <glyph glyph-name="endash" unicode="&#x2013;" horiz-adv-x="1202" 
d="M1096 440h-1024l32 164h1024z" />
    <glyph glyph-name="emdash" unicode="&#x2014;" horiz-adv-x="2217" 
d="M2116 438h-2048l32 164h2048z" />
    <glyph glyph-name="quoteleft" unicode="&#x2018;" horiz-adv-x="382" 
d="M467 1464l-21 -102q-58 -19 -85 -53t-39 -105h94l-39 -196h-197l39 196q11 51 24.5 86.5t40 73t72 62.5t111.5 38z" />
    <glyph glyph-name="quoteright" unicode="&#x2019;" horiz-adv-x="368" 
d="M186 1008l21 102q58 19 85.5 52.5t39.5 105.5h-94l38 196h197l-39 -196q-8 -40 -17.5 -69.5t-27.5 -62t-43.5 -55.5t-66 -42.5t-93.5 -30.5z" />
    <glyph glyph-name="quotesinglbase" unicode="&#x201a;" horiz-adv-x="399" 
d="M-49 -260l20 102q58 19 85.5 52.5t39.5 105.5h-94l39 197h197l-39 -197q-8 -40 -17.5 -69.5t-27.5 -62t-43.5 -55.5t-66 -42.5t-93.5 -30.5z" />
    <glyph glyph-name="quotedblleft" unicode="&#x201c;" horiz-adv-x="684" 
d="M180 1008l39 196q11 51 24.5 86.5t40 73t72 62.5t111.5 38l-21 -102q-58 -19 -85 -53t-39 -105h94l-39 -196h-197zM768 1464l-20 -102q-58 -19 -85.5 -53t-39.5 -105h94l-39 -196h-197l39 196q11 51 24.5 86.5t40 73t72 62.5t111.5 38z" />
    <glyph glyph-name="quotedblright" unicode="&#x201d;" horiz-adv-x="669" 
d="M186 1008l21 102q58 19 85.5 52.5t39.5 105.5h-94l38 196h197l-39 -196q-8 -40 -17.5 -69.5t-27.5 -62t-43.5 -55.5t-66 -42.5t-93.5 -30.5zM487 1008l21 102q58 19 85.5 52.5t39.5 105.5h-94l39 196h196l-39 -196q-8 -40 -17.5 -69.5t-27.5 -62t-43.5 -55.5t-66 -42.5
t-93.5 -30.5z" />
    <glyph glyph-name="quotedblbase" unicode="&#x201e;" horiz-adv-x="702" 
d="M-49 -260l20 102q58 19 85.5 52.5t39.5 105.5h-94l39 197h197l-39 -197q-8 -40 -17.5 -69.5t-27.5 -62t-43.5 -55.5t-66 -42.5t-93.5 -30.5zM254 -260l20 102q58 19 85.5 52.5t39.5 105.5h-94l39 197h197l-39 -197q-8 -40 -17.5 -69.5t-27.5 -62t-43.5 -55.5t-66 -42.5
t-93.5 -30.5z" />
    <glyph glyph-name="dagger" unicode="&#x2020;" horiz-adv-x="958" 
d="M399 -362h-184l242 1247h-361l33 164h360l80 415h185l-80 -415h358l-33 -164h-358z" />
    <glyph glyph-name="daggerdbl" unicode="&#x2021;" horiz-adv-x="1028" 
d="M434 -362h-184l115 591h-361l33 164h360l95 492h-361l33 164h360l80 415h184l-79 -415h358l-33 -164h-358l-94 -492h358l-33 -164h-358z" />
    <glyph glyph-name="bullet" unicode="&#x2022;" horiz-adv-x="772" 
d="M584 389h-451l88 451h451z" />
    <glyph glyph-name="ellipsis" unicode="&#x2026;" horiz-adv-x="1189" 
d="M193 0h-197l39 197h196zM594 0h-197l39 197h197zM995 0h-196l39 197h196z" />
    <glyph glyph-name="perthousand" unicode="&#x2030;" horiz-adv-x="2404" 
d="M408 633q-134 0 -204.5 84t-70.5 219q0 133 50.5 248.5t146.5 187.5t217 72q134 0 204 -84t70 -219q0 -99 -30 -191t-82.5 -162t-131 -112.5t-169.5 -42.5zM414 0h-164l1063 1415h164zM416 772q79 0 140 57t90.5 139.5t29.5 170.5q0 78 -34.5 122t-102.5 44
q-79 0 -140 -57t-90.5 -139.5t-29.5 -170.5q0 -78 34.5 -122t102.5 -44zM1190 -29q-134 0 -204.5 84t-70.5 219q0 133 50.5 248.5t146.5 187.5t217 72q134 0 204.5 -84t70.5 -219q0 -133 -50.5 -248.5t-146.5 -187.5t-217 -72zM1931 -29q-134 0 -204 84t-70 219
q0 133 50.5 248.5t146.5 187.5t217 72q134 0 204 -84t70 -219q0 -133 -50.5 -248.5t-146.5 -187.5t-217 -72zM1198 111q79 0 140 57t90.5 139t29.5 170q0 78 -34.5 122t-102.5 44q-79 0 -140 -57t-90.5 -139.5t-29.5 -170.5q0 -78 34 -121.5t103 -43.5zM1939 111
q79 0 140.5 57t91 139t29.5 170q0 77 -34.5 121.5t-103.5 44.5q-79 0 -140 -57t-90.5 -139.5t-29.5 -170.5q0 -78 34 -121.5t103 -43.5z" />
    <glyph glyph-name="guilsinglleft" unicode="&#x2039;" horiz-adv-x="608" 
d="M453 264l-35 -172l-344 332l37 194l473 330l-37 -198l-357 -242v-4z" />
    <glyph glyph-name="guilsinglright" unicode="&#x203a;" horiz-adv-x="608" 
d="M496 422l-473 -330l36 199l357 241v5l-262 239l34 172l344 -332z" />
    <glyph glyph-name="fraction" unicode="&#x2044;" horiz-adv-x="409" 
d="M-270 0h-189l1213 1464h188z" />
    <glyph glyph-name="uni2070" unicode="&#x2070;" horiz-adv-x="817" 
d="M453 739q-138 0 -209.5 86t-71.5 232q0 144 57.5 269.5t162 202.5t231.5 77q137 0 205.5 -86t68.5 -232q0 -144 -54.5 -269t-157.5 -202.5t-232 -77.5zM469 866q81 0 143.5 66.5t91.5 160.5t29 193q0 193 -131 193q-80 0 -142.5 -65t-93 -159.5t-30.5 -195.5
q0 -193 133 -193z" />
    <glyph glyph-name="uni2074" unicode="&#x2074;" horiz-adv-x="755" 
d="M637 745h-162l35 185h-387l31 153l481 494h162l-99 -514h119l-26 -133h-119zM600 1389l-317 -326h254z" />
    <glyph glyph-name="uni2075" unicode="&#x2075;" horiz-adv-x="747" 
d="M422 727q-149 0 -224 78.5t-61 189.5h164q-6 -63 26 -99t107 -36q89 0 142 55t53 140q0 133 -127 133q-95 0 -166 -68h-156l178 457h496l-25 -133h-376l-80 -201l-2 -2q84 68 196 68q107 0 167.5 -63.5t60.5 -174.5q0 -151 -104.5 -247.5t-268.5 -96.5z" />
    <glyph glyph-name="uni2076" unicode="&#x2076;" horiz-adv-x="770" 
d="M451 733q-135 0 -207 83.5t-72 232.5q0 109 31 209t86.5 177t139.5 123t183 46q114 0 180.5 -66t63.5 -164h-166q2 47 -23.5 74t-78.5 27q-83 0 -146.5 -74t-83.5 -174l-2 -10l9 -3q85 95 221 95q108 0 169.5 -61.5t61.5 -166.5q0 -141 -103 -244.5t-263 -103.5zM457 860
q85 0 140.5 57t55.5 138q0 61 -36 93t-101 32q-83 0 -136.5 -50t-53.5 -133q0 -64 34.5 -100.5t96.5 -36.5z" />
    <glyph glyph-name="uni2077" unicode="&#x2077;" horiz-adv-x="645" 
d="M356 745h-170q38 194 166 394.5t264 302.5v2h-421l26 133h596l-24 -121q-160 -115 -278 -310.5t-159 -400.5z" />
    <glyph glyph-name="uni2078" unicode="&#x2078;" horiz-adv-x="770" 
d="M426 737q-127 0 -206 56.5t-79 160.5q0 55 22 100t58 74t64 44.5t59 27.5v2q-88 52 -88 139q0 112 98.5 189.5t241.5 77.5q113 0 182.5 -49.5t69.5 -135.5q0 -48 -18.5 -89.5t-48.5 -68t-50.5 -40.5t-40.5 -23v-2q123 -57 123 -166q0 -129 -110 -213t-277 -84zM526 1253
q73 0 118.5 39.5t45.5 104.5q0 42 -30.5 66t-86.5 24q-73 0 -119 -40.5t-46 -103.5q0 -43 30.5 -66.5t87.5 -23.5zM451 864q86 0 142 48t56 120q0 50 -37.5 79.5t-105.5 29.5q-88 0 -144.5 -47.5t-56.5 -120.5q0 -50 39 -79.5t107 -29.5z" />
    <glyph glyph-name="uni2079" unicode="&#x2079;" horiz-adv-x="772" 
d="M416 739q-117 0 -183.5 64t-64.5 166h166q-3 -101 98 -101q83 0 146.5 74t83.5 174l2 10l-5 2q-84 -94 -221 -94q-109 0 -170 65t-61 179q0 134 103.5 233t262.5 99q136 0 207.5 -83.5t71.5 -240.5q0 -104 -31 -202t-86 -175t-138.5 -123.5t-180.5 -46.5zM496 1163
q85 0 143.5 57t58.5 136q0 59 -34.5 93t-96.5 34q-85 0 -140.5 -57t-55.5 -138q0 -61 33 -93t92 -32z" />
    <glyph glyph-name="uni2080" unicode="&#x2080;" horiz-adv-x="817" 
d="M266 -221q-138 0 -209 85.5t-71 231.5q0 144 57 269.5t161.5 202.5t231.5 77q137 0 206 -85.5t69 -231.5q0 -144 -55 -269t-158 -202.5t-232 -77.5zM283 -94q81 0 143.5 66.5t91.5 160.5t29 193q0 192 -131 192q-80 0 -142.5 -65t-93 -159.5t-30.5 -195.5
q0 -192 133 -192z" />
    <glyph glyph-name="uni2081" unicode="&#x2081;" horiz-adv-x="456" 
d="M57 -205l115 590q-49 -33 -182 -33l24 129q200 3 234 146h131l-162 -832h-160z" />
    <glyph glyph-name="uni2082" unicode="&#x2082;" horiz-adv-x="716" 
d="M514 -205h-612q7 36 18 67.5t28.5 59.5t33 50t41.5 45t43 37.5t49.5 35t48 30t51.5 30.5t49 28q107 63 158 116t51 122q0 98 -104 98q-155 0 -187 -184h-157q27 143 123 230t245 87q115 0 181.5 -53t66.5 -154q0 -50 -19 -97.5t-44.5 -81t-66.5 -67.5t-69 -52.5
t-67 -41.5q-106 -63 -154.5 -98t-75.5 -72v-2h396z" />
    <glyph glyph-name="uni2083" unicode="&#x2083;" horiz-adv-x="753" 
d="M250 -223q-164 0 -242.5 83t-50.5 224h160q-16 -86 14.5 -130t120.5 -44t139 41t49 110q0 57 -34.5 81t-102.5 24h-63l22 121h60q76 0 118.5 36t42.5 93q0 98 -112 98q-75 0 -119 -37.5t-55 -101.5h-158q21 117 119 194.5t241 77.5q118 0 184 -54.5t66 -148.5
q0 -150 -162 -208v-3q119 -41 119 -167t-99 -207.5t-257 -81.5z" />
    <glyph glyph-name="uni2084" unicode="&#x2084;" horiz-adv-x="755" 
d="M453 -205h-162l35 185h-387l30 153l482 494h161l-98 -514h119l-27 -133h-119zM416 438l-318 -325h254z" />
    <glyph glyph-name="uni2085" unicode="&#x2085;" horiz-adv-x="747" 
d="M238 -223q-149 0 -224 78.5t-61 189.5h164q-6 -63 26 -99t107 -36q89 0 141.5 54.5t52.5 139.5q0 66 -32.5 100t-94.5 34q-94 0 -165 -68h-156l178 457h496l-25 -133h-377l-80 -201l-2 -2q83 67 197 67q107 0 167 -63t60 -174q0 -151 -104 -247.5t-268 -96.5z" />
    <glyph glyph-name="uni2086" unicode="&#x2086;" horiz-adv-x="770" 
d="M266 -223q-135 0 -206.5 83t-71.5 232q0 109 31 209t86.5 177t139.5 123t183 46q114 0 180.5 -65.5t63.5 -163.5h-166q2 46 -23.5 73t-79.5 27q-83 0 -146 -73.5t-83 -174.5l-2 -10l8 -2q84 94 221 94q108 0 170 -61t62 -166q0 -141 -103.5 -244.5t-263.5 -103.5z
M272 -96q85 0 141 56.5t56 137.5q0 61 -36 93t-101 32q-83 0 -137 -49.5t-54 -132.5q0 -64 34.5 -100.5t96.5 -36.5z" />
    <glyph glyph-name="uni2087" unicode="&#x2087;" horiz-adv-x="645" 
d="M172 -205h-170q38 194 166 394.5t264 302.5v2h-422l27 133h596l-25 -121q-160 -115 -277.5 -310.5t-158.5 -400.5z" />
    <glyph glyph-name="uni2088" unicode="&#x2088;" horiz-adv-x="770" 
d="M240 -223q-127 0 -206 56.5t-79 160.5q0 55 22 100t58 74t64 44.5t59 27.5v2q-88 52 -88 139q0 112 98.5 189t241.5 77q113 0 182.5 -49t69.5 -135q0 -48 -18.5 -89.5t-48.5 -68t-50.5 -40.5t-40.5 -23v-2q123 -57 123 -166q0 -129 -110 -213t-277 -84zM340 293
q74 0 119 39.5t45 103.5q0 42 -30.5 66t-86.5 24q-73 0 -119.5 -40t-46.5 -103q0 -43 31 -66.5t88 -23.5zM264 -96q86 0 142.5 48t56.5 120q0 50 -38 79t-106 29q-88 0 -144 -47t-56 -121q0 -50 38.5 -79t106.5 -29z" />
    <glyph glyph-name="uni2089" unicode="&#x2089;" horiz-adv-x="772" 
d="M229 -223q-117 0 -183 63.5t-64 165.5h165q-3 -100 99 -100q83 0 146 73.5t83 174.5l2 10l-4 2q-84 -94 -221 -94q-109 0 -170.5 64.5t-61.5 178.5q0 134 104 233t263 99q136 0 207.5 -83t71.5 -240q0 -104 -31 -202t-86.5 -175t-139 -123.5t-180.5 -46.5zM309 201
q85 0 144 56.5t59 135.5q0 59 -34.5 93t-96.5 34q-85 0 -141 -56.5t-56 -137.5q0 -61 33 -93t92 -32z" />
    <glyph glyph-name="Euro" unicode="&#x20ac;" horiz-adv-x="1343" 
d="M918 1268q-139 0 -254.5 -106.5t-182.5 -280.5h410l-23 -123h-424q-11 -44 -22 -125h424l-25 -123h-405q0 -375 272 -375q143 0 239.5 97t143.5 276h186q-74 -251 -228 -394t-372 -143q-206 0 -316.5 138t-111.5 401h-129l25 123h111q6 70 20 125h-109l23 123h119
q84 244 257.5 397.5t385.5 153.5q203 0 312.5 -132t92.5 -360h-180q0 328 -239 328z" />
    <glyph glyph-name="trademark" unicode="&#x2122;" horiz-adv-x="1333" 
d="M412 891h-127l90 463h-180l20 110h487l-20 -110h-180zM784 891h-120l110 573h182l43 -411h5l204 411h181l-111 -573h-121l82 424h-4l-209 -424h-113l-43 424h-4z" />
    <glyph glyph-name="uni2126" unicode="&#x2126;" horiz-adv-x="1626" 
d="M565 0h-592l33 164h336q-203 151 -203 444q0 172 66.5 333.5t179.5 283t272.5 195t335.5 73.5q268 0 424 -159.5t156 -418.5q0 -217 -107 -425.5t-284 -325.5h295l-33 -164h-592l29 137q235 111 369 303.5t134 438.5q0 217 -106 331.5t-303 114.5q-144 0 -267.5 -62
t-205.5 -164.5t-128 -234.5t-46 -272q0 -91 19 -162.5t57 -125t81 -91t105 -76.5z" />
    <glyph glyph-name="oneeighth" unicode="&#x215b;" horiz-adv-x="1613" 
d="M217 0h-188l1212 1464h189zM238 633l114 590q-49 -33 -182 -33l25 129q200 3 233 145h131l-162 -831h-159zM1126 -18q-127 0 -205.5 56.5t-78.5 160.5q0 44 15.5 83t37.5 64t52.5 46.5t52 32t44.5 19.5v2q-88 52 -88 140q0 112 98.5 189t241.5 77q113 0 182.5 -49
t69.5 -135q0 -48 -18.5 -90t-48 -68.5t-50.5 -40.5t-40 -23v-2q122 -56 122 -165q0 -129 -110 -213t-277 -84zM1227 498q74 0 119 39.5t45 103.5q0 42 -30.5 66t-86.5 24q-73 0 -119.5 -40t-46.5 -103q0 -43 31 -66.5t88 -23.5zM1151 109q86 0 142.5 47.5t56.5 119.5
q0 50 -38 79.5t-106 29.5q-88 0 -144 -47t-56 -121q0 -50 38.5 -79t106.5 -29z" />
    <glyph glyph-name="threeeighths" unicode="&#x215c;" horiz-adv-x="1861" 
d="M426 616q-164 0 -242.5 83.5t-50.5 224.5h160q-16 -86 14.5 -130t120.5 -44t139 41t49 110q0 57 -34.5 81t-102.5 24h-63l22 120h60q76 0 118.5 36t42.5 93q0 99 -112 99q-75 0 -119 -38t-55 -102h-158q21 117 119 195t241 78q118 0 184 -54.5t66 -148.5
q0 -152 -161 -209v-2q118 -41 118 -168q0 -126 -99 -207.5t-257 -81.5zM500 0h-189l1213 1464h188zM1368 -18q-127 0 -206 56.5t-79 160.5q0 55 22 100t58 73.5t64 44t59 27.5v2q-88 52 -88 140q0 112 98.5 189t241.5 77q113 0 182.5 -49t69.5 -135q0 -39 -13.5 -74.5
t-31.5 -59t-42.5 -43.5t-40 -29t-30.5 -16v-2q123 -57 123 -165q0 -129 -110 -213t-277 -84zM1468 498q74 0 119 39.5t45 103.5q0 42 -30 66t-86 24q-73 0 -119.5 -40t-46.5 -103q0 -43 30.5 -66.5t87.5 -23.5zM1393 109q86 0 142 47.5t56 119.5q0 50 -37.5 79.5
t-105.5 29.5q-88 0 -144.5 -47.5t-56.5 -120.5q0 -50 38.5 -79t107.5 -29z" />
    <glyph glyph-name="fiveeighths" unicode="&#x215d;" horiz-adv-x="1816" 
d="M397 614q-149 0 -223.5 79t-60.5 190h163q-6 -63 26.5 -99t107.5 -36q89 0 141.5 54.5t52.5 139.5q0 133 -127 133q-96 0 -166 -67h-155l178 456h495l-24 -133h-377l-80 -201l-2 -2q84 68 197 68q107 0 167 -63.5t60 -174.5q0 -151 -104.5 -247.5t-268.5 -96.5zM459 0
h-189l1213 1464h188zM1327 -18q-127 0 -206 56.5t-79 160.5q0 55 22 100t58 73.5t64 44t59 27.5v2q-88 52 -88 140q0 112 98.5 189t241.5 77q113 0 182.5 -49t69.5 -135q0 -39 -13.5 -74.5t-31.5 -59t-42.5 -43.5t-40 -29t-30.5 -16v-2q123 -57 123 -165q0 -129 -110 -213
t-277 -84zM1427 498q74 0 119 39.5t45 103.5q0 42 -30 66t-86 24q-73 0 -119.5 -40t-46.5 -103q0 -43 30.5 -66.5t87.5 -23.5zM1352 109q86 0 142 47.5t56 119.5q0 50 -37.5 79.5t-105.5 29.5q-88 0 -144.5 -47.5t-56.5 -120.5q0 -50 39 -79t107 -29z" />
    <glyph glyph-name="seveneighths" unicode="&#x215e;" horiz-adv-x="1648" 
d="M252 0h-189l1213 1464h188zM348 633h-170q38 194 166 394t264 302v2h-422l27 133h596l-25 -121q-160 -115 -277.5 -310t-158.5 -400zM1161 -18q-127 0 -205.5 56.5t-78.5 160.5q0 44 15.5 83t37.5 64t52 46.5t52 32t45 19.5v2q-88 52 -88 140q0 112 98.5 189t241.5 77
q113 0 182.5 -49t69.5 -135q0 -39 -13.5 -74.5t-31.5 -59t-42.5 -43.5t-40 -29t-30.5 -16v-2q123 -57 123 -165q0 -129 -110 -213t-277 -84zM1262 498q74 0 118.5 39.5t44.5 103.5q0 42 -30 66t-86 24q-73 0 -119.5 -40t-46.5 -103q0 -43 31 -66.5t88 -23.5zM1186 109
q86 0 142 47.5t56 119.5q0 50 -37.5 79.5t-105.5 29.5q-88 0 -144.5 -47.5t-56.5 -120.5q0 -50 39 -79t107 -29z" />
    <glyph glyph-name="arrowleft" unicode="&#x2190;" horiz-adv-x="1603" 
d="M647 201l-129 -101l-405 553l618 553l92 -100l-432 -381h1151l-29 -143h-1151z" />
    <glyph glyph-name="arrowup" unicode="&#x2191;" horiz-adv-x="1191" 
d="M563 0h-143l225 1151l-450 -358l-80 110l653 512l453 -512l-121 -110l-312 358z" />
    <glyph glyph-name="arrowright" unicode="&#x2192;" horiz-adv-x="1601" 
d="M1538 653l-620 -553l-91 101l433 381h-1149l28 143h1149l-284 381l129 100z" />
    <glyph glyph-name="arrowdown" unicode="&#x2193;" horiz-adv-x="1204" 
d="M1139 430l-654 -512l-452 512l121 111l311 -359l225 1151h144l-226 -1151l451 359z" />
    <glyph glyph-name="arrowboth" unicode="&#x2194;" horiz-adv-x="2379" 
d="M643 201l-129 -101l-405 553l618 553l92 -100l-432 -381h1684l-285 381l129 100l405 -553l-618 -553l-92 101l432 381h-1684z" />
    <glyph glyph-name="arrowupdn" unicode="&#x2195;" horiz-adv-x="1208" 
d="M1083 150l-653 -512l-453 512l121 110l312 -358l282 1444l-450 -359l-80 111l653 512l453 -512l-121 -111l-311 359l-283 -1444l451 358z" />
    <glyph glyph-name="uni2196" unicode="&#x2196;" horiz-adv-x="1214" 
d="M1108 246l-121 -103l-655 815l-101 -514h-143l148 758h757l-26 -143h-514z" />
    <glyph glyph-name="uni2197" unicode="&#x2197;" horiz-adv-x="1214" 
d="M1051 958l-973 -815l-80 103l971 813h-514l28 143h758l-147 -758h-144z" />
    <glyph glyph-name="uni2198" unicode="&#x2198;" horiz-adv-x="1243" 
d="M1036 117h-757l26 143h514l-655 813l121 103l655 -816l100 514h144z" />
    <glyph glyph-name="uni2199" unicode="&#x2199;" horiz-adv-x="1241" 
d="M803 117h-758l148 757h143l-100 -514l972 816l82 -103l-973 -813h514z" />
    <glyph glyph-name="partialdiff" unicode="&#x2202;" horiz-adv-x="1085" 
d="M403 -29q-168 0 -271 98.5t-103 280.5q0 163 80 305t215 226t290 84q213 0 277 -170q-2 162 -54.5 270.5t-144 166.5t-233.5 89l26 143q281 -53 420 -210t139 -433q0 -167 -49 -322t-132.5 -271.5t-204 -186.5t-255.5 -70zM418 115q111 0 209.5 65.5t156.5 173t58 224.5
q0 113 -58.5 178t-171.5 65q-111 0 -207.5 -63t-153 -169t-56.5 -227q0 -124 60 -185.5t163 -61.5z" />
    <glyph glyph-name="emptyset" unicode="&#x2205;" horiz-adv-x="1726" 
d="M1665 1409l57 -74l-157 -133q104 -144 104 -354q0 -172 -73.5 -333.5t-196 -280.5t-291.5 -191t-350 -72q-142 0 -260.5 44t-202.5 126l-160 -133l-57 72l158 131q-107 151 -107 358q0 172 74 333.5t197.5 280t292 190t349.5 71.5q288 0 461 -170zM233 580
q0 -172 86 -297l1100 921q-143 137 -389 137q-159 0 -307 -62.5t-255 -165.5t-171 -243t-64 -290zM1565 834q0 172 -84 299l-1102 -922q143 -137 389 -137q161 0 309 62.5t254.5 166t170 243t63.5 288.5z" />
    <glyph glyph-name="uni2206" unicode="&#x2206;" horiz-adv-x="1294" 
d="M715 1464h219l248 -1304l-31 -160h-1214l30 160zM801 1294h-17l-624 -1130h827z" />
    <glyph glyph-name="product" unicode="&#x220f;" horiz-adv-x="1456" 
d="M197 -205h-185l324 1669h1149l-324 -1669h-184l293 1505h-781z" />
    <glyph glyph-name="summation" unicode="&#x2211;" horiz-adv-x="1226" 
d="M1026 -205h-1102l33 170l700 680v4l-442 647l33 168h1081l-31 -164h-866l-2 -4l393 -591l-18 -103l-647 -639v-4h901z" />
    <glyph glyph-name="minus" unicode="&#x2212;" horiz-adv-x="1136" 
d="M1044 586h-929l30 162h930z" />
    <glyph glyph-name="uni2219" unicode="&#x2219;" horiz-adv-x="602" 
d="M414 610h-197l39 197h197z" />
    <glyph glyph-name="radical" unicode="&#x221a;" horiz-adv-x="1275" 
d="M508 -205h-164l-111 684h-151l33 164h266l88 -618h4l752 1439h184z" />
    <glyph glyph-name="infinity" unicode="&#x221e;" horiz-adv-x="1509" 
d="M336 268q-103 0 -168.5 70.5t-65.5 214.5q0 111 49 208.5t137 157.5t193 60q60 0 112 -21t91 -58.5t61 -65t47 -65.5q5 -8 7 -11h4q41 39 63 59t68.5 56t83 55.5t87.5 35t101 15.5q106 0 172 -70.5t66 -214.5q0 -172 -111 -299t-266 -127q-36 0 -68.5 7.5t-60.5 25.5
t-48 33t-43 44t-34 44t-32 47.5t-27 40.5h-4l-36 -35q-36 -35 -44 -42t-43.5 -38t-52.5 -41t-51.5 -32t-60 -30t-59.5 -16t-67 -8zM395 434q30 0 61.5 10.5t53.5 21.5t53.5 37.5t44.5 38.5t45 45t37 38q-3 5 -16.5 28t-19.5 33t-20.5 31t-24.5 31.5t-27 26t-32 23
t-35.5 13.5t-41.5 6q-85 0 -144 -72t-59 -172q0 -71 34 -105t91 -34zM1077 434q84 0 141.5 71t57.5 169q0 72 -33.5 107.5t-91.5 35.5q-29 0 -60.5 -10.5t-53 -21.5t-54 -38t-45 -38.5t-45.5 -45.5t-37 -38q2 -3 14.5 -24.5t17.5 -29t18 -27.5t21 -29t22.5 -24.5t27 -23.5
t29 -17t34.5 -12.5t37 -3.5z" />
    <glyph glyph-name="integral" unicode="&#x222b;" horiz-adv-x="753" 
d="M-2 -358q-75 0 -133 20l33 164q33 -8 69 -8q99 0 151.5 60t74.5 173l217 1120q29 153 123.5 247.5t242.5 94.5q75 0 133 -20l-32 -164q-33 8 -70 8q-179 0 -225 -233l-217 -1120q-33 -170 -122 -256t-245 -86z" />
    <glyph glyph-name="approxequal" unicode="&#x2248;" horiz-adv-x="1202" 
d="M293 670h-143q7 41 25.5 79t50 74.5t84 59t118.5 22.5q76 0 229.5 -35.5t229.5 -35.5q64 0 94 21t39 71h143q-8 -42 -27 -80.5t-51 -75t-84 -58.5t-118 -22q-75 0 -229 36t-230 36q-65 0 -93.5 -21t-37.5 -71zM229 348h-143q7 40 26 78.5t50.5 75.5t84.5 59.5t118 22.5
q76 0 230 -36t230 -36q61 0 91.5 20t39.5 72h144q-7 -40 -25.5 -78.5t-50.5 -75t-84.5 -59t-118.5 -22.5q-75 0 -229 35.5t-230 35.5q-65 0 -94.5 -21t-38.5 -71z" />
    <glyph glyph-name="notequal" unicode="&#x2260;" horiz-adv-x="1138" 
d="M1104 893l-29 -162h-356l-84 -127h409l-28 -162h-490l-151 -229h-144l152 229h-279l29 162h359l83 127h-411l29 162h489l154 231h143l-154 -231h279z" />
    <glyph glyph-name="lessequal" unicode="&#x2264;" horiz-adv-x="1028" 
d="M897 373l-31 -154l-768 338l35 184l899 336l-31 -174l-751 -262l-2 -4zM823 0h-833l28 143h834z" />
    <glyph glyph-name="greaterequal" unicode="&#x2265;" horiz-adv-x="1019" 
d="M942 555l-899 -336l31 174l751 262l2 4l-649 265l31 153l768 -338zM834 0h-834l29 143h833z" />
    <glyph glyph-name="uni2266" unicode="&#x2266;" horiz-adv-x="1155" 
d="M1061 707l-33 -172l-848 325l39 201l975 328l-35 -172l-805 -254v-5zM979 289h-911l32 162h912zM924 0h-912l31 162h911z" />
    <glyph glyph-name="uni2267" unicode="&#x2267;" horiz-adv-x="1148" 
d="M1104 860l-975 -325l33 172l805 251l2 5l-707 254l33 172l848 -328zM993 289h-911l31 162h911zM936 0h-911l32 162h912z" />
    <glyph glyph-name="uni2460" unicode="&#x2460;" horiz-adv-x="1751" 
d="M797 -29q-304 0 -486 168t-182 471q0 144 43 278t124 243t190.5 190.5t250 126.5t295.5 45q304 0 486 -168t182 -471q0 -144 -43 -278t-124 -243t-190.5 -190.5t-250 -126.5t-295.5 -45zM805 115q165 0 304 59.5t231.5 160.5t144 234.5t51.5 282.5q0 242 -134 370
t-378 128q-165 0 -304 -59.5t-231.5 -160.5t-144 -235t-51.5 -283q0 -242 134 -369.5t378 -127.5zM768 317l115 590q-49 -33 -183 -33l25 130q200 3 233 145h132l-162 -832h-160z" />
    <glyph glyph-name="uni2461" unicode="&#x2461;" horiz-adv-x="1751" 
d="M797 -29q-304 0 -486 168t-182 471q0 144 43 278t124 243t190.5 190.5t250 126.5t295.5 45q304 0 486 -168t182 -471q0 -144 -43 -278t-124 -243t-190.5 -190.5t-250 -126.5t-295.5 -45zM805 115q165 0 304 59.5t231.5 160.5t144 234.5t51.5 282.5q0 242 -134 370
t-378 128q-165 0 -304 -59.5t-231.5 -160.5t-144 -235t-51.5 -283q0 -242 134 -369.5t378 -127.5zM1145 317h-613q7 36 18 67.5t28.5 59.5t33 50t42 45t43.5 37.5t49 35t48 30.5t52 30t49 28q107 63 158 116t51 122q0 98 -105 98q-154 0 -186 -184h-158q27 143 123.5 230
t245.5 87q115 0 181.5 -52.5t66.5 -153.5q0 -50 -19 -97.5t-44.5 -81t-66.5 -67.5t-69 -52.5t-67 -41.5q-106 -63 -154.5 -98t-75.5 -72v-2h395z" />
    <glyph glyph-name="uni2462" unicode="&#x2462;" horiz-adv-x="1751" 
d="M797 -29q-304 0 -486 168t-182 471q0 144 43 278t124 243t190.5 190.5t250 126.5t295.5 45q304 0 486 -168t182 -471q0 -144 -43 -278t-124 -243t-190.5 -190.5t-250 -126.5t-295.5 -45zM805 115q165 0 304 59.5t231.5 160.5t144 234.5t51.5 282.5q0 242 -134 370
t-378 128q-165 0 -304 -59.5t-231.5 -160.5t-144 -235t-51.5 -283q0 -242 134 -369.5t378 -127.5zM864 297q-164 0 -242.5 83t-50.5 224h160q-16 -86 14.5 -130t120.5 -44t139.5 41.5t49.5 110.5q0 57 -34.5 80.5t-102.5 23.5h-64l23 121h59q76 0 119 36t43 93q0 98 -113 98
q-75 0 -119 -37.5t-55 -101.5h-158q21 117 119.5 194.5t241.5 77.5q118 0 184 -54t66 -148q0 -151 -162 -209v-2q119 -41 119 -168q0 -126 -99.5 -207.5t-257.5 -81.5z" />
    <glyph glyph-name="uni2463" unicode="&#x2463;" horiz-adv-x="1751" 
d="M797 -29q-304 0 -486 168t-182 471q0 144 43 278t124 243t190.5 190.5t250 126.5t295.5 45q304 0 486 -168t182 -471q0 -144 -43 -278t-124 -243t-190.5 -190.5t-250 -126.5t-295.5 -45zM805 115q165 0 304 59.5t231.5 160.5t144 234.5t51.5 282.5q0 242 -134 370
t-378 128q-165 0 -304 -59.5t-231.5 -160.5t-144 -235t-51.5 -283q0 -242 134 -369.5t378 -127.5zM1040 315h-161l34 185h-387l31 153l481 494h162l-98 -514h119l-27 -133h-119zM1004 958l-318 -325h254z" />
    <glyph glyph-name="uni2464" unicode="&#x2464;" horiz-adv-x="1751" 
d="M797 -29q-304 0 -486 168t-182 471q0 144 43 278t124 243t190.5 190.5t250 126.5t295.5 45q304 0 486 -168t182 -471q0 -144 -43 -278t-124 -243t-190.5 -190.5t-250 -126.5t-295.5 -45zM805 115q165 0 304 59.5t231.5 160.5t144 234.5t51.5 282.5q0 242 -134 370
t-378 128q-165 0 -304 -59.5t-231.5 -160.5t-144 -235t-51.5 -283q0 -242 134 -369.5t378 -127.5zM842 297q-149 0 -224 78.5t-61 189.5h164q-6 -63 26 -99t107 -36q89 0 142 55t53 140q0 133 -127 133q-95 0 -166 -68h-156l178 457h496l-25 -133h-377l-79 -201l-2 -2
q84 68 196 68q107 0 167 -63.5t60 -174.5q0 -151 -104 -247.5t-268 -96.5z" />
    <glyph glyph-name="uni2465" unicode="&#x2465;" horiz-adv-x="1751" 
d="M797 -29q-304 0 -486 168t-182 471q0 144 43 278t124 243t190.5 190.5t250 126.5t295.5 45q304 0 486 -168t182 -471q0 -144 -43 -278t-124 -243t-190.5 -190.5t-250 -126.5t-295.5 -45zM805 115q165 0 304 59.5t231.5 160.5t144 234.5t51.5 282.5q0 242 -134 370
t-378 128q-165 0 -304 -59.5t-231.5 -160.5t-144 -235t-51.5 -283q0 -242 134 -369.5t378 -127.5zM850 297q-135 0 -207 83t-72 232q0 146 52.5 271.5t155 204.5t233.5 79q114 0 180 -65.5t63 -163.5h-165q2 46 -23.5 73t-79.5 27q-83 0 -146 -73.5t-83 -173.5l-2 -11l8 -2
q84 94 221 94q108 0 170 -61t62 -166q0 -141 -103.5 -244.5t-263.5 -103.5zM856 424q85 0 141 56.5t56 137.5q0 61 -36.5 93t-101.5 32q-83 0 -136.5 -49.5t-53.5 -132.5q0 -64 34.5 -100.5t96.5 -36.5z" />
    <glyph glyph-name="uni2466" unicode="&#x2466;" horiz-adv-x="1751" 
d="M797 -29q-304 0 -486 168t-182 471q0 144 43 278t124 243t190.5 190.5t250 126.5t295.5 45q304 0 486 -168t182 -471q0 -144 -43 -278t-124 -243t-190.5 -190.5t-250 -126.5t-295.5 -45zM805 115q165 0 304 59.5t231.5 160.5t144 234.5t51.5 282.5q0 242 -134 370
t-378 128q-165 0 -304 -59.5t-231.5 -160.5t-144 -235t-51.5 -283q0 -242 134 -369.5t378 -127.5zM815 293h-170q38 194 166 394t264 302v2h-422l27 133h596l-25 -120q-160 -115 -277.5 -310.5t-158.5 -400.5z" />
    <glyph glyph-name="uni2467" unicode="&#x2467;" horiz-adv-x="1751" 
d="M797 -29q-304 0 -486 168t-182 471q0 144 43 278t124 243t190.5 190.5t250 126.5t295.5 45q304 0 486 -168t182 -471q0 -144 -43 -278t-124 -243t-190.5 -190.5t-250 -126.5t-295.5 -45zM805 115q165 0 304 59.5t231.5 160.5t144 234.5t51.5 282.5q0 242 -134 370
t-378 128q-165 0 -304 -59.5t-231.5 -160.5t-144 -235t-51.5 -283q0 -242 134 -369.5t378 -127.5zM821 297q-127 0 -205.5 56.5t-78.5 160.5q0 44 15.5 83t37.5 64.5t52 47t52 32t45 19.5v2q-88 52 -88 139q0 112 98.5 189t241.5 77q113 0 182.5 -49t69.5 -135
q0 -48 -18.5 -89.5t-48.5 -68t-50.5 -40.5t-40.5 -23v-2q123 -57 123 -166q0 -129 -110 -213t-277 -84zM922 813q74 0 118.5 39.5t44.5 103.5q0 42 -30 66.5t-86 24.5q-73 0 -119.5 -40.5t-46.5 -103.5q0 -43 31 -66.5t88 -23.5zM846 424q86 0 142 48t56 120q0 50 -37.5 79
t-105.5 29q-88 0 -144.5 -47.5t-56.5 -120.5q0 -50 39 -79t107 -29z" />
    <glyph glyph-name="uni2468" unicode="&#x2468;" horiz-adv-x="1751" 
d="M797 -29q-304 0 -486 168t-182 471q0 144 43 278t124 243t190.5 190.5t250 126.5t295.5 45q304 0 486 -168t182 -471q0 -144 -43 -278t-124 -243t-190.5 -190.5t-250 -126.5t-295.5 -45zM805 115q165 0 304 59.5t231.5 160.5t144 234.5t51.5 282.5q0 242 -134 370
t-378 128q-165 0 -304 -59.5t-231.5 -160.5t-144 -235t-51.5 -283q0 -242 134 -369.5t378 -127.5zM821 297q-118 0 -184 63.5t-64 165.5h166q-3 -100 99 -100q83 0 146 73.5t83 174.5l2 10l-4 2q-84 -94 -221 -94q-109 0 -170.5 65t-61.5 179q0 134 104 232.5t263 98.5
q136 0 207 -83t71 -240q0 -104 -31 -202t-86 -175t-138.5 -123.5t-180.5 -46.5zM901 721q85 0 144 56.5t59 135.5q0 59 -34.5 93t-96.5 34q-85 0 -141 -56.5t-56 -137.5q0 -61 33 -93t92 -32z" />
    <glyph glyph-name="uni24EA" unicode="&#x24ea;" horiz-adv-x="1751" 
d="M797 -29q-304 0 -486 168t-182 471q0 144 43 278t124 243t190.5 190.5t250 126.5t295.5 45q304 0 486 -168t182 -471q0 -144 -43 -278t-124 -243t-190.5 -190.5t-250 -126.5t-295.5 -45zM805 115q165 0 304 59.5t231.5 160.5t144 234.5t51.5 282.5q0 242 -134 370
t-378 128q-165 0 -304 -59.5t-231.5 -160.5t-144 -235t-51.5 -283q0 -242 134 -369.5t378 -127.5zM834 299q-138 0 -209.5 85.5t-71.5 231.5q0 144 57.5 269.5t162 202.5t231.5 77q137 0 205.5 -85.5t68.5 -231.5q0 -144 -54.5 -269t-157.5 -202.5t-232 -77.5zM850 426
q81 0 143.5 66.5t91.5 160.5t29 193q0 192 -131 192q-80 0 -142.5 -65t-93 -159.5t-30.5 -195.5q0 -192 133 -192z" />
    <glyph glyph-name="upblock" unicode="&#x2580;" horiz-adv-x="1720" 
d="M1630 731h-1464l143 733h1465z" />
    <glyph glyph-name="dnblock" unicode="&#x2584;" horiz-adv-x="1724" 
d="M1493 0h-1464l143 733h1464z" />
    <glyph glyph-name="block" unicode="&#x2588;" horiz-adv-x="1771" 
d="M1516 0h-1465l285 1464h1464z" />
    <glyph glyph-name="filledbox" unicode="&#x25a0;" horiz-adv-x="1771" 
d="M1516 0h-1465l285 1464h1464z" />
    <glyph glyph-name="uni25A1" unicode="&#x25a1;" horiz-adv-x="1771" 
d="M1516 0h-1465l285 1464h1464zM467 1300l-219 -1136h1136l220 1136h-1137z" />
    <glyph glyph-name="uni25AA" unicode="&#x25aa;" horiz-adv-x="688" 
d="M549 430h-451l88 451h451z" />
    <glyph glyph-name="uni25AB" unicode="&#x25ab;" horiz-adv-x="770" 
d="M623 389h-533l105 533h532zM326 758l-39 -205h205l38 205h-204z" />
    <glyph glyph-name="triagup" unicode="&#x25b2;" horiz-adv-x="1701" 
d="M1569 0h-1639l1104 1464z" />
    <glyph glyph-name="triagrt" unicode="&#x25ba;" horiz-adv-x="1716" 
d="M1683 733l-1622 -819l318 1638z" />
    <glyph glyph-name="triagdn" unicode="&#x25bc;" horiz-adv-x="1701" 
d="M1851 1464l-1103 -1464l-535 1464h1638z" />
    <glyph glyph-name="triaglf" unicode="&#x25c4;" horiz-adv-x="1716" 
d="M1737 1550l-320 -1638l-1304 819z" />
    <glyph glyph-name="lozenge" unicode="&#x25ca;" horiz-adv-x="1175" 
d="M578 0h-185l-270 733l555 731h184l271 -733zM307 737l211 -573h4l426 561l-209 575h-4z" />
    <glyph glyph-name="circle" unicode="&#x25cb;" horiz-adv-x="1751" 
d="M797 -29q-304 0 -486 168t-182 471q0 144 43 278t124 243t190.5 190.5t250 126.5t295.5 45q304 0 486 -168t182 -471q0 -144 -43 -278t-124 -243t-190.5 -190.5t-250 -126.5t-295.5 -45zM805 115q165 0 304 59.5t231.5 160.5t144 234.5t51.5 282.5q0 242 -134 370
t-378 128q-165 0 -304 -59.5t-231.5 -160.5t-144 -235t-51.5 -283q0 -242 134 -369.5t378 -127.5z" />
    <glyph glyph-name="uni25CF" unicode="&#x25cf;" horiz-adv-x="1722" 
d="M754 -29q-137 0 -254.5 47t-199.5 129t-128.5 195.5t-46.5 243.5q0 172 78 339t204.5 291t296.5 200.5t345 76.5q182 0 325.5 -81t222 -221t78.5 -314q0 -137 -49.5 -273t-138 -248.5t-202.5 -199.5t-252.5 -136t-278.5 -49z" />
    <glyph glyph-name="uni2B0E" unicode="&#x2b0e;" horiz-adv-x="1308" 
d="M709 276l440 351l80 -111l-654 -512l-452 512l121 111l301 -351l123 629h-551l26 144h717z" />
    <glyph glyph-name="uni2B0F" unicode="&#x2b0f;" horiz-adv-x="1323" 
d="M141 532l652 512l454 -512l-123 -110l-303 350l-149 -772h-717l29 143h553l120 629l-438 -350z" />
    <glyph glyph-name="uni2B10" unicode="&#x2b10;" horiz-adv-x="1325" 
d="M1364 1040l-29 -143h-553l-120 -629l438 350l78 -110l-652 -512l-454 512l123 110l303 -350l149 772h717z" />
    <glyph glyph-name="uni2B11" unicode="&#x2b11;" horiz-adv-x="1308" 
d="M758 768l-123 -629h551l-27 -143h-717l152 772l-440 -350l-80 110l653 512l453 -512l-121 -110z" />
    <glyph glyph-name="uni2BA0" unicode="&#x2ba0;" horiz-adv-x="1228" 
d="M1098 1153h143l-108 -553l-31 -164h-772l278 -370l-131 -101l-403 553l620 553l90 -100l-424 -371h629z" />
    <glyph glyph-name="uni2BA1" unicode="&#x2ba1;" horiz-adv-x="1226" 
d="M614 977l129 100l406 -553l-621 -553l-90 101l422 370h-772l21 103l118 614h144l-107 -553h629z" />
    <glyph glyph-name="uni2BA2" unicode="&#x2ba2;" horiz-adv-x="1228" 
d="M793 997l-422 -370h772l-21 -103l-118 -614h-144l107 553h-629l278 -371l-129 -100l-405 553l618 553z" />
    <glyph glyph-name="uni2BA3" unicode="&#x2ba3;" horiz-adv-x="1228" 
d="M621 997l131 101l403 -553l-620 -553l-91 100l424 371h-628l-109 -553h-143l108 553l31 164h772z" />
    <glyph glyph-name="uni2BA4" unicode="&#x2ba4;" horiz-adv-x="1308" 
d="M758 768l-123 -629h551l-27 -143h-717l152 772l-440 -350l-80 110l653 512l453 -512l-121 -110z" />
    <glyph glyph-name="uni2BA5" unicode="&#x2ba5;" horiz-adv-x="1323" 
d="M141 532l652 512l454 -512l-123 -110l-303 350l-149 -772h-717l29 143h553l120 629l-438 -350z" />
    <glyph glyph-name="uni2BA6" unicode="&#x2ba6;" horiz-adv-x="1325" 
d="M1364 1040l-29 -143h-553l-120 -629l438 350l78 -110l-652 -512l-454 512l123 110l303 -350l149 772h717z" />
    <glyph glyph-name="uni2BA7" unicode="&#x2ba7;" horiz-adv-x="1308" 
d="M709 276l440 351l80 -111l-654 -512l-452 512l121 111l301 -351l123 629h-551l26 144h717z" />
    <glyph glyph-name="fi" unicode="&#xfb01;" horiz-adv-x="968" 
d="M653 1044l-26 -143h-201l-174 -901h-164l176 901h-145l26 143h148l26 142q17 87 46 145.5t70 89.5t86.5 43.5t107.5 12.5q36 0 106 -11l-26 -139q-61 6 -84 6q-72 0 -99 -29t-43 -110l-28 -150h198zM809 1247l39 197h196l-38 -197h-197zM748 0h-164l202 1044h164z" />
    <glyph glyph-name="fl" unicode="&#xfb02;" horiz-adv-x="968" 
d="M653 1044l-26 -143h-201l-174 -901h-164l176 901h-145l26 143h148l26 142q17 87 46 145.5t70 89.5t86.5 43.5t107.5 12.5q36 0 106 -11l-26 -139q-61 6 -84 6q-72 0 -99 -29t-43 -110l-28 -150h198zM584 0l284 1464h164l-284 -1464h-164z" />
    <glyph glyph-name="uniFEFF" unicode="&#xfeff;" 
 />
    <glyph glyph-name="u1F150" unicode="&#x1f150;" horiz-adv-x="1142" 
d="M586 600q-163 0 -267 100t-104 258q0 140 76 265t202 199.5t267 74.5q163 0 266.5 -100t103.5 -258q0 -105 -45 -204.5t-119 -172.5t-174.5 -117.5t-205.5 -44.5z" />
    <glyph glyph-name="Adieresis.ss02" horiz-adv-x="1323" 
d="M719 1661q-47 0 -68.5 29t-13.5 71q8 43 41.5 73t81.5 30q47 0 68.5 -29.5t13.5 -73.5q-8 -42 -41.5 -71t-81.5 -29zM1038 1661q-47 0 -68.5 29t-13.5 71q8 43 41.5 73t81.5 30q47 0 68.5 -29.5t13.5 -73.5q-8 -42 -41.5 -71t-81.5 -29zM109 0h-195l825 1464h207
l260 -1464h-194l-58 367h-645zM811 1294l-410 -764h525l-111 764h-4z" />
    <glyph glyph-name="Cdotaccent.ss02" horiz-adv-x="1447" 
d="M985 1661q-47 0 -68.5 29t-13.5 71q8 43 41.5 73t81.5 30q47 0 68.5 -29.5t13.5 -73.5q-8 -42 -41.5 -71t-81.5 -29zM668 -29q-263 0 -413.5 159t-150.5 441q0 148 41.5 287.5t119 253.5t180.5 200t233 133.5t270 47.5q106 0 196 -28t152.5 -77t105 -114t60 -139.5
t11.5 -153.5h-185q0 71 -20.5 132t-62.5 110.5t-113.5 77.5t-165.5 28q-182 0 -328.5 -99t-227.5 -270.5t-81 -381.5q0 -443 399 -443q89 0 166.5 23.5t133 61.5t99 90.5t70.5 106t43 111.5h189q-72 -249 -265.5 -403t-455.5 -154z" />
    <glyph glyph-name="Edieresis.ss02" horiz-adv-x="1255" 
d="M713 1661q-47 0 -68.5 29t-13.5 71q8 43 41.5 73t81.5 30q47 0 68.5 -29.5t13.5 -73.5q-8 -42 -41.5 -71t-81.5 -29zM1032 1661q-47 0 -68.5 29t-13.5 71q8 43 41.5 73t81.5 30q47 0 68.5 -29.5t13.5 -73.5q-8 -42 -41.5 -71t-81.5 -29zM1090 0h-1039l285 1464h1014
l-33 -164h-830l-88 -460h731l-32 -164h-731l-99 -512h854z" />
    <glyph glyph-name="Edotaccent.ss02" horiz-adv-x="1255" 
d="M872 1661q-47 0 -68 29t-13 71q8 43 41 73t81 30q47 0 68.5 -29.5t13.5 -73.5q-8 -42 -41.5 -71t-81.5 -29zM1090 0h-1039l285 1464h1014l-33 -164h-830l-88 -460h731l-32 -164h-731l-99 -512h854z" />
    <glyph glyph-name="uni0122.ss02" horiz-adv-x="1505" 
d="M641 -29q-265 0 -402 152.5t-137 425.5q0 187 64 359t175.5 301.5t273.5 206.5t348 77q129 0 229.5 -37.5t162 -103t91.5 -149.5t27 -181h-189q0 151 -92 229t-264 78q-183 0 -330.5 -104.5t-228 -279t-80.5 -380.5q0 -430 370 -430q207 0 371 129.5t205 333.5h-477
l30 164h662l-147 -762h-123l-21 207h-4q-110 -120 -231.5 -178t-282.5 -58zM481 -475l17 84q128 26 145 102q-55 -19 -92.5 5t-26.5 85q9 49 44 77t83 28q58 0 80.5 -40.5t9.5 -107.5q-36 -184 -260 -233z" />
    <glyph glyph-name="Gdotaccent.ss02" horiz-adv-x="1505" 
d="M973 1661q-47 0 -68.5 29t-13.5 71q8 43 41.5 73t81.5 30q47 0 68.5 -29.5t13.5 -73.5q-8 -42 -41.5 -71t-81.5 -29zM641 -29q-265 0 -402 152.5t-137 425.5q0 187 64 359t175.5 301.5t273.5 206.5t348 77q129 0 229.5 -37.5t162 -103t91.5 -149.5t27 -181h-189
q0 151 -92 229t-264 78q-183 0 -330.5 -104.5t-228 -279t-80.5 -380.5q0 -430 370 -430q207 0 371 129.5t205 333.5h-477l30 164h662l-147 -762h-123l-21 207h-4q-110 -120 -231.5 -178t-282.5 -58z" />
    <glyph glyph-name="Idieresis.ss02" horiz-adv-x="491" 
d="M305 1661q-47 0 -68.5 29t-13.5 71q8 43 41.5 73t81.5 30q47 0 68.5 -29.5t13.5 -73.5q-8 -42 -41.5 -71t-81.5 -29zM625 1661q-47 0 -68.5 29t-13.5 71q8 43 41.5 73t81.5 30q47 0 68.5 -29.5t13.5 -73.5q-8 -42 -41.5 -71t-81.5 -29zM236 0h-185l285 1464h184z" />
    <glyph glyph-name="Idotaccent.ss02" horiz-adv-x="491" 
d="M465 1661q-47 0 -68.5 29t-13.5 71q8 43 41.5 73t81.5 30q47 0 68.5 -29.5t13.5 -73.5q-8 -42 -41.5 -71t-81.5 -29zM236 0h-185l285 1464h184z" />
    <glyph glyph-name="uni0136.ss02" horiz-adv-x="1308" 
d="M1257 1464h220l-693 -604l453 -860h-209l-381 739l-321 -280l-90 -459h-185l285 1464h184l-151 -778zM600 -94q58 0 80.5 -40.5t9.5 -107.5q-36 -184 -260 -233l16 84q129 26 146 102q-55 -19 -92.5 5t-26.5 85q9 49 44 77t83 28z" />
    <glyph glyph-name="uni013B.ss02" horiz-adv-x="1134" 
d="M1004 0h-953l285 1464h184l-252 -1300h768zM334 -475l16 84q129 26 146 102q-55 -19 -92.5 5t-26.5 85q9 49 44 77t83 28q58 0 80.5 -40.5t9.5 -107.5q-36 -184 -260 -233z" />
    <glyph glyph-name="uni0145.ss02" horiz-adv-x="1452" 
d="M236 0h-185l285 1464h221l498 -1202h8l233 1202h185l-285 -1464h-221l-498 1202h-8zM430 -475l16 84q129 26 146 102q-55 -19 -92.5 5t-26.5 85q9 49 44 77t83 28q58 0 80.5 -40.5t9.5 -107.5q-36 -184 -260 -233z" />
    <glyph glyph-name="Odieresis.ss02" horiz-adv-x="1589" 
d="M854 1661q-47 0 -68.5 29t-13.5 71q8 43 41.5 73t81.5 30q47 0 68.5 -29.5t13.5 -73.5q-8 -42 -41.5 -71t-81.5 -29zM1174 1661q-47 0 -68.5 29t-13.5 71q8 43 41 73t81 30q47 0 68.5 -29.5t13.5 -73.5q-8 -42 -41 -71t-81 -29zM696 -29q-276 0 -435 163t-159 431
q0 184 67.5 354.5t182 296.5t277.5 201.5t344 75.5q276 0 435 -163t159 -431q0 -184 -67.5 -354.5t-182 -296.5t-277.5 -201.5t-344 -75.5zM711 135q146 0 272.5 63t212.5 168t135 244t49 289q0 93 -24 169.5t-73.5 136t-132 92t-192.5 32.5q-146 0 -272.5 -63t-212.5 -168
t-135 -244t-49 -289q0 -93 24 -169.5t73.5 -136t132 -92t192.5 -32.5z" />
    <glyph glyph-name="uni0156.ss02" horiz-adv-x="1325" 
d="M236 0h-185l285 1464h567q216 0 327 -88.5t111 -251.5t-97 -287.5t-251 -158.5v-6q64 -13 103.5 -55t52.5 -99.5t14 -124t-6.5 -131.5t-14.5 -119t-6.5 -90t15.5 -41l-2 -12h-199q-7 11 -7.5 42.5t10 75.5t16 96t11.5 105t-3.5 102t-29 87t-65 61t-112.5 23h-420z
M383 756h395q168 0 271.5 97t103.5 247q0 104 -68.5 152t-230.5 48h-367zM385 -475l16 84q129 26 146 102q-55 -19 -92.5 5t-26.5 85q9 49 44 77t83 28q58 0 80.5 -40.5t9.5 -107.5q-36 -184 -260 -233z" />
    <glyph glyph-name="uni0218.ss02" horiz-adv-x="1277" 
d="M623 -29q-182 0 -318 61.5t-206 178.5t-58 274h180q-1 -170 105 -260t301 -90q114 0 197 27t133.5 91t50.5 161q0 37 -7.5 65t-28.5 53t-46 43.5t-73 40t-95.5 39t-126.5 43.5q-90 30 -152 56.5t-115 60t-84 71t-48 86.5t-17 111q0 100 43 179t118 129t173.5 76t212.5 26
q250 0 383 -114.5t112 -342.5h-180q8 149 -72 221t-260 72q-71 0 -130 -11t-109 -35.5t-78.5 -70t-28.5 -108.5q0 -35 6.5 -62t26 -50.5t41 -40t65 -36t83 -34.5t110.5 -39q52 -18 83.5 -29.5t75 -28t69.5 -29.5t59.5 -30.5t53 -34.5t42.5 -38.5t35.5 -44.5t24 -51t16 -60.5
t4.5 -69.5q0 -145 -73 -249t-200.5 -155t-297.5 -51zM412 -475l16 84q128 26 145 102q-55 -19 -92 5t-26 85q9 49 44 77t83 28q58 0 80.5 -40.5t9.5 -107.5q-36 -184 -260 -233z" />
    <glyph glyph-name="uni021A.ss02" horiz-adv-x="1216" 
d="M598 0h-184l252 1300h-488l33 164h1159l-33 -164h-487zM311 -475l17 84q128 26 145 102q-55 -19 -92.5 5t-26.5 85q9 49 44 77t83 28q58 0 80.5 -40.5t9.5 -107.5q-36 -184 -260 -233z" />
    <glyph glyph-name="Udieresis.ss02" horiz-adv-x="1404" 
d="M741 1661q-47 0 -68.5 29t-13.5 71q8 43 41.5 73t81.5 30q47 0 68.5 -29.5t13.5 -73.5q-8 -42 -41.5 -71t-81.5 -29zM1061 1661q-47 0 -68.5 29t-13.5 71q8 43 41.5 73t81.5 30q47 0 68.5 -29.5t13.5 -73.5q-8 -42 -41.5 -71t-81.5 -29zM594 -29q-271 0 -389 140t-72 376
l191 977h184l-191 -977q-36 -186 37.5 -269t259.5 -83q387 0 457 352l191 977h184l-191 -977q-22 -114 -70.5 -205.5t-127.5 -162.5t-196.5 -109.5t-266.5 -38.5z" />
    <glyph glyph-name="Wdieresis.ss02" horiz-adv-x="1878" 
d="M991 1661q-47 0 -68.5 29t-13.5 71q8 43 41.5 73t81.5 30q47 0 68.5 -29.5t13.5 -73.5q-8 -42 -41.5 -71t-81.5 -29zM1311 1661q-47 0 -68.5 29t-13.5 71q8 43 41.5 73t81.5 30q47 0 68.5 -29.5t13.5 -73.5q-8 -42 -41.5 -71t-81.5 -29zM510 0h-205l-98 1464h194
l60 -1200h4l534 1200h213l99 -1200h4l512 1200h194l-647 -1464h-205l-94 1255h-4z" />
    <glyph glyph-name="Ydieresis.ss02" horiz-adv-x="1290" 
d="M686 1661q-47 0 -68.5 29t-13.5 71q8 43 41.5 73t81.5 30q47 0 68.5 -29.5t13.5 -73.5q-8 -42 -41.5 -71t-81.5 -29zM1006 1661q-47 0 -68.5 29t-13.5 71q8 43 41.5 73t81.5 30q47 0 68 -29.5t13 -73.5q-8 -42 -41 -71t-81 -29zM635 0h-184l116 600l-364 864h194
l283 -723h4l567 723h203l-702 -864z" />
    <glyph glyph-name="Zdotaccent.ss02" horiz-adv-x="1230" 
d="M811 1661q-47 0 -68.5 29t-13.5 71q8 43 41.5 73t81.5 30q47 0 68.5 -29.5t13.5 -73.5q-8 -42 -41.5 -71t-81.5 -29zM1079 0h-1138l32 164l1112 1132v4h-852l33 164h1077l-32 -164l-1112 -1132v-4h913z" />
    <glyph glyph-name="i.latn_TRK" horiz-adv-x="401" 
d="M438 1247h-196l39 197h196zM180 0h-164l203 1044h164z" />
    <glyph glyph-name="a.ss01" horiz-adv-x="1153" 
d="M944 909l27 135h164l-203 -1044h-164l25 129h-5q-147 -158 -360 -158q-172 0 -274.5 110t-102.5 314q0 141 45.5 267t123.5 216t187 142.5t232 52.5q211 0 295 -164h10zM469 115q134 0 241.5 101t149.5 255l17 86q4 50 4 74q0 143 -66 221t-190 78q-170 0 -289 -149
t-119 -371q0 -295 252 -295z" />
    <glyph glyph-name="aacute.ss01" horiz-adv-x="1153" 
d="M770 1485h195l-197 -275h-133zM944 909l27 135h164l-203 -1044h-164l25 129h-5q-147 -158 -360 -158q-172 0 -274.5 110t-102.5 314q0 141 45.5 267t123.5 216t187 142.5t232 52.5q211 0 295 -164h10zM469 115q134 0 241.5 101t149.5 255l17 86q4 50 4 74q0 143 -66 221
t-190 78q-170 0 -289 -149t-119 -371q0 -295 252 -295z" />
    <glyph glyph-name="abreve.ss01" horiz-adv-x="1153" 
d="M690 1190q-114 0 -171.5 69t-35.5 205h123q-11 -81 11.5 -116t87.5 -35q138 0 176 151h123q-31 -133 -115.5 -203.5t-198.5 -70.5zM944 909l27 135h164l-203 -1044h-164l25 129h-5q-147 -158 -360 -158q-172 0 -274.5 110t-102.5 314q0 141 45.5 267t123.5 216t187 142.5
t232 52.5q211 0 295 -164h10zM469 115q134 0 241.5 101t149.5 255l17 86q4 50 4 74q0 143 -66 221t-190 78q-170 0 -289 -149t-119 -371q0 -295 252 -295z" />
    <glyph glyph-name="acircumflex.ss01" horiz-adv-x="1153" 
d="M745 1397h-4l-151 -187h-170l242 275h184l135 -275h-164zM944 909l27 135h164l-203 -1044h-164l25 129h-5q-147 -158 -360 -158q-172 0 -274.5 110t-102.5 314q0 141 45.5 267t123.5 216t187 142.5t232 52.5q211 0 295 -164h10zM469 115q134 0 241.5 101t149.5 255l17 86
q4 50 4 74q0 143 -66 221t-190 78q-170 0 -289 -149t-119 -371q0 -295 252 -295z" />
    <glyph glyph-name="adieresis.ss01" horiz-adv-x="1153" 
d="M487 1444h197l-39 -197h-196zM807 1444h197l-39 -197h-197zM944 909l27 135h164l-203 -1044h-164l25 129h-5q-147 -158 -360 -158q-172 0 -274.5 110t-102.5 314q0 141 45.5 267t123.5 216t187 142.5t232 52.5q211 0 295 -164h10zM469 115q134 0 241.5 101t149.5 255
l17 86q4 50 4 74q0 143 -66 221t-190 78q-170 0 -289 -149t-119 -371q0 -295 252 -295z" />
    <glyph glyph-name="agrave.ss01" horiz-adv-x="1153" 
d="M684 1485l66 -275h-134l-127 275h195zM944 909l27 135h164l-203 -1044h-164l25 129h-5q-147 -158 -360 -158q-172 0 -274.5 110t-102.5 314q0 141 45.5 267t123.5 216t187 142.5t232 52.5q211 0 295 -164h10zM469 115q134 0 241.5 101t149.5 255l17 86q4 50 4 74
q0 143 -66 221t-190 78q-170 0 -289 -149t-119 -371q0 -295 252 -295z" />
    <glyph glyph-name="amacron.ss01" horiz-adv-x="1153" 
d="M471 1391h528l-28 -144h-529zM944 909l27 135h164l-203 -1044h-164l25 129h-5q-147 -158 -360 -158q-172 0 -274.5 110t-102.5 314q0 141 45.5 267t123.5 216t187 142.5t232 52.5q211 0 295 -164h10zM469 115q134 0 241.5 101t149.5 255l17 86q4 50 4 74q0 143 -66 221
t-190 78q-170 0 -289 -149t-119 -371q0 -295 252 -295z" />
    <glyph glyph-name="aogonek.ss01" horiz-adv-x="1153" 
d="M944 909l27 135h164l-203 -1044h-14q-173 -119 -173 -188q0 -24 18.5 -38t47.5 -14q50 0 104 21l-24 -123q-68 -20 -137 -20q-78 0 -119 31.5t-41 86.5q0 75 61 140.5t140 103.5h-27l25 129h-5q-147 -158 -360 -158q-172 0 -274.5 110t-102.5 314q0 141 45.5 267
t123.5 216t187 142.5t232 52.5q211 0 295 -164h10zM469 115q134 0 241.5 101t149.5 255l17 86q4 50 4 74q0 143 -66 221t-190 78q-170 0 -289 -149t-119 -371q0 -295 252 -295z" />
    <glyph glyph-name="aring.ss01" horiz-adv-x="1153" 
d="M682 1147q-67 0 -107 40.5t-40 104.5q0 89 63.5 151t153.5 62q68 0 108.5 -40.5t40.5 -104.5q0 -90 -64 -151.5t-155 -61.5zM737 1425q-49 0 -82.5 -32.5t-33.5 -85.5q0 -36 19.5 -58t57.5 -22q47 0 82 36t35 83q0 36 -21.5 57.5t-56.5 21.5zM944 909l27 135h164
l-203 -1044h-164l25 129h-5q-147 -158 -360 -158q-172 0 -274.5 110t-102.5 314q0 141 45.5 267t123.5 216t187 142.5t232 52.5q211 0 295 -164h10zM469 115q134 0 241.5 101t149.5 255l17 86q4 50 4 74q0 143 -66 221t-190 78q-170 0 -289 -149t-119 -371q0 -295 252 -295z
" />
    <glyph glyph-name="atilde.ss01" horiz-adv-x="1153" 
d="M602 1305q-50 0 -61 -70h-123q19 96 72.5 144t115.5 48q56 0 135 -36.5t101 -36.5q48 0 61 69h123q-19 -96 -71.5 -144t-116.5 -48q-56 0 -135 37t-101 37zM944 909l27 135h164l-203 -1044h-164l25 129h-5q-147 -158 -360 -158q-172 0 -274.5 110t-102.5 314
q0 141 45.5 267t123.5 216t187 142.5t232 52.5q211 0 295 -164h10zM469 115q134 0 241.5 101t149.5 255l17 86q4 50 4 74q0 143 -66 221t-190 78q-170 0 -289 -149t-119 -371q0 -295 252 -295z" />
    <glyph glyph-name="adieresis.ss02" horiz-adv-x="1103" 
d="M553 1241q-47 0 -68.5 29t-13.5 71q8 43 41.5 73t81.5 30q47 0 68.5 -29.5t13.5 -73.5q-8 -42 -41.5 -71t-81.5 -29zM872 1241q-47 0 -68 29t-13 71q8 43 41 73t81 30q47 0 68.5 -29.5t13.5 -73.5q-8 -42 -41.5 -71t-81.5 -29zM332 -29q-149 0 -229 71.5t-80 203.5
q0 68 23.5 121.5t62 90.5t101 66.5t128 48.5t154.5 37q175 35 222 51q101 35 121 103q5 20 5 43q0 60 -44.5 92.5t-154.5 32.5q-131 0 -203.5 -51t-101.5 -166h-168q38 170 162 265t325 95q192 0 280.5 -88.5t55.5 -257.5l-96 -493q-13 -57 -5 -90t48 -33q11 0 35 4
l-23 -107q-52 -20 -98 -20q-69 0 -102.5 38t-30.5 124h-6q-143 -181 -381 -181zM379 115q147 0 254.5 80t136.5 223l31 151q-32 -30 -73.5 -44t-176.5 -42q-81 -17 -130 -29.5t-98.5 -30.5t-75 -39t-41.5 -51.5t-16 -70.5q0 -147 189 -147z" />
    <glyph glyph-name="cdotaccent.ss02" horiz-adv-x="1077" 
d="M707 1241q-47 0 -68.5 29t-13.5 71q8 43 41.5 73t81.5 30q47 0 68 -29.5t13 -73.5q-8 -42 -41 -71t-81 -29zM469 -29q-196 0 -308 114t-112 308q0 180 78 335.5t221 250t318 94.5q193 0 297.5 -116t89.5 -295h-160q12 130 -49 199t-189 69t-230 -75t-156 -193.5
t-54 -253.5q0 -60 14.5 -111t44 -93t82 -65.5t123.5 -23.5q77 0 141.5 25t107 65.5t69 84t39.5 89.5h163q-46 -179 -193.5 -293.5t-336.5 -114.5z" />
    <glyph glyph-name="edieresis.ss02" horiz-adv-x="1122" 
d="M567 1245q-47 0 -68.5 29.5t-13.5 71.5q8 43 41.5 72.5t81.5 29.5q47 0 68.5 -29.5t13.5 -72.5q-8 -42 -41.5 -71.5t-81.5 -29.5zM887 1245q-47 0 -68.5 29.5t-13.5 71.5q8 43 41.5 72.5t81.5 29.5q47 0 68.5 -29.5t13.5 -72.5q-8 -42 -41.5 -71.5t-81.5 -29.5zM1053 479
h-826q-4 -46 -4 -69q0 -145 64 -221t207 -76q74 0 138 21.5t106 56t68 67t40 64.5h170q-76 -162 -211.5 -257.5t-323.5 -95.5q-208 0 -318 116t-110 323q0 186 79.5 338.5t221 240.5t316.5 88q205 0 306 -104.5t101 -284.5q0 -80 -24 -207zM655 934q-153 0 -257.5 -83.5
t-145.5 -227.5h651q16 88 -3.5 157t-82 111.5t-162.5 42.5z" />
    <glyph glyph-name="edotaccent.ss02" horiz-adv-x="1122" 
d="M727 1245q-47 0 -68.5 29.5t-13.5 71.5q8 43 41.5 72.5t81.5 29.5q47 0 68.5 -29.5t13.5 -72.5q-8 -42 -41.5 -71.5t-81.5 -29.5zM1053 479h-826q-4 -46 -4 -69q0 -145 64 -221t207 -76q74 0 138 21.5t106 56t68 67t40 64.5h170q-76 -162 -211.5 -257.5t-323.5 -95.5
q-208 0 -318 116t-110 323q0 186 79.5 338.5t221 240.5t316.5 88q205 0 306 -104.5t101 -284.5q0 -80 -24 -207zM655 934q-153 0 -257.5 -83.5t-145.5 -227.5h651q16 88 -3.5 157t-82 111.5t-162.5 42.5z" />
    <glyph glyph-name="uni0123.ss02" horiz-adv-x="1157" 
d="M698 1217q-59 0 -82.5 39t-9.5 108q17 84 77.5 148.5t172.5 93.5l-14 -82q-60 -15 -95 -43.5t-45 -83.5q59 16 94 -5t25 -77q-9 -46 -42.5 -72t-80.5 -26zM952 915l25 129h164l-189 -968q-42 -219 -183 -332t-355 -113q-194 0 -310.5 92t-109.5 238h160q0 -186 260 -186
q316 0 377 315l24 127h-4q-142 -164 -362 -164q-174 0 -278.5 103.5t-104.5 310.5q0 165 74.5 304t206 220.5t290.5 81.5q214 0 311 -158h4zM485 197q122 0 216.5 68t143 177t48.5 236q0 252 -244 252q-123 0 -219.5 -65.5t-146.5 -169.5t-50 -224q0 -129 62.5 -201.5
t189.5 -72.5z" />
    <glyph glyph-name="gdotaccent.ss02" horiz-adv-x="1157" 
d="M694 1241q-47 0 -68.5 29t-13.5 71q8 43 41.5 73t81.5 30q47 0 68.5 -29.5t13.5 -73.5q-8 -42 -41.5 -71t-81.5 -29zM952 915l25 129h164l-189 -968q-42 -219 -183 -332t-355 -113q-194 0 -310.5 92t-109.5 238h160q0 -186 260 -186q316 0 377 315l24 127h-4
q-142 -164 -362 -164q-174 0 -278.5 103.5t-104.5 310.5q0 165 74.5 304t206 220.5t290.5 81.5q214 0 311 -158h4zM485 197q122 0 216.5 68t143 177t48.5 236q0 252 -244 252q-123 0 -219.5 -65.5t-146.5 -169.5t-50 -224q0 -129 62.5 -201.5t189.5 -72.5z" />
    <glyph glyph-name="i.ss02" horiz-adv-x="401" 
d="M338 1241q-47 0 -68.5 29t-13.5 71q8 43 41.5 73t81.5 30q47 0 68.5 -29.5t13.5 -73.5q-8 -42 -41.5 -71t-81.5 -29zM180 0h-164l203 1044h164z" />
    <glyph glyph-name="idieresis.ss02" horiz-adv-x="401" 
d="M178 1241q-47 0 -68.5 29t-13.5 71q8 43 41.5 73t81.5 30q47 0 68.5 -29.5t13.5 -73.5q-8 -42 -41.5 -71t-81.5 -29zM498 1241q-47 0 -68.5 29t-13.5 71q8 43 41.5 73t81.5 30q47 0 68.5 -29.5t13.5 -73.5q-8 -42 -41.5 -71t-81.5 -29zM180 0h-164l203 1044h164z" />
    <glyph glyph-name="iogonek.ss02" horiz-adv-x="401" 
d="M379 1444q47 0 68.5 -29.5t13.5 -73.5q-8 -42 -41.5 -71t-81.5 -29q-47 0 -68.5 29t-13.5 71q8 43 41.5 73t81.5 30zM43 0h-27l203 1044h164l-203 -1044h-14q-172 -118 -172 -188q0 -24 18 -38t47 -14q51 0 105 21l-25 -123q-68 -20 -137 -20q-78 0 -119 31.5t-41 86.5
q0 75 61 140.5t140 103.5z" />
    <glyph glyph-name="j.ss02" horiz-adv-x="401" 
d="M338 1241q-47 0 -68.5 29t-13.5 71q8 43 41.5 73t81.5 30q47 0 68.5 -29.5t13.5 -73.5q-8 -42 -41.5 -71t-81.5 -29zM-119 -369q-44 0 -106 11l26 139q53 -6 82 -6q47 0 75.5 36t45.5 123l215 1110h164l-219 -1126q-29 -149 -106.5 -218t-176.5 -69z" />
    <glyph glyph-name="uni0137.ss02" horiz-adv-x="978" 
d="M858 1044h209l-485 -378l325 -666h-190l-262 565l-195 -149l-80 -416h-164l285 1464h164l-168 -860zM418 -94q58 0 80.5 -40.5t9.5 -107.5q-36 -184 -260 -233l16 84q129 26 146 102q-55 -19 -92.5 5t-26.5 85q9 49 44 77t83 28z" />
    <glyph glyph-name="uni013C.ss02" horiz-adv-x="401" 
d="M180 0h-164l285 1464h164zM-96 -475l16 84q129 26 146 102q-55 -19 -92.5 5t-26.5 85q9 49 44 77t83 28q58 0 80.5 -40.5t9.5 -107.5q-36 -184 -260 -233z" />
    <glyph glyph-name="uni0146.ss02" horiz-adv-x="1091" 
d="M733 1075q157 0 236 -101.5t43 -285.5l-133 -688h-164l133 688q22 111 -20 177.5t-162 66.5q-129 0 -230 -80.5t-129 -200.5l-127 -651h-164l203 1044h164l-27 -133h2q62 74 159 119t216 45zM424 -94q58 0 80.5 -40.5t9.5 -107.5q-36 -184 -260 -233l16 84
q129 26 146 102q-55 -19 -92.5 5t-26.5 85q9 49 44 77t83 28z" />
    <glyph glyph-name="odieresis.ss02" horiz-adv-x="1136" 
d="M553 1241q-47 0 -68.5 29t-13.5 71q8 43 41.5 73t81.5 30q47 0 68.5 -29.5t13.5 -73.5q-8 -42 -41.5 -71t-81.5 -29zM872 1241q-47 0 -68 29t-13 71q8 43 41 73t81 30q47 0 68.5 -29.5t13.5 -73.5q-8 -42 -41.5 -71t-81.5 -29zM453 -29q-192 0 -298 112t-106 300
q0 186 80 343.5t226.5 252t328.5 94.5q192 0 297.5 -111.5t105.5 -299.5q0 -139 -47 -265.5t-129.5 -220.5t-201.5 -149.5t-256 -55.5zM475 115q130 0 234 76.5t158.5 197t54.5 256.5q0 129 -65.5 207t-194.5 78q-130 0 -234 -77t-158.5 -197.5t-54.5 -256.5
q0 -129 65.5 -206.5t194.5 -77.5z" />
    <glyph glyph-name="uni0157.ss02" horiz-adv-x="679" 
d="M686 1069q44 0 82 -6l-33 -160q-34 6 -63 6q-143 0 -248 -98.5t-135 -251.5l-109 -559h-164l203 1044h164l-39 -196h4q65 109 144 165t194 56zM74 -94q58 0 80.5 -40.5t9.5 -107.5q-36 -184 -260 -233l16 84q129 26 146 102q-55 -19 -92.5 5t-26.5 85q9 49 44 77t83 28z
" />
    <glyph glyph-name="uni0219.ss02" horiz-adv-x="980" 
d="M463 -29q-213 0 -334 103.5t-121 267.5h162q0 -97 73.5 -162t225.5 -65q119 0 187.5 43t68.5 131q0 33 -13 59t-30 42.5t-55.5 33.5t-65 25.5t-82.5 25.5q-143 42 -195 67q-147 70 -161 206q-2 15 -2 32q0 98 56 165.5t143 97.5t198 30q195 0 301.5 -96t106.5 -234h-164
q0 34 -12.5 65t-39.5 59.5t-77 45.5t-117 17q-102 0 -167.5 -36.5t-65.5 -111.5q0 -46 32.5 -77t69 -46t127.5 -42q19 -6 29 -9q49 -15 77 -24t70.5 -26t67 -32.5t53.5 -39.5t44.5 -50t26.5 -62.5t11 -78.5q0 -155 -119 -239.5t-309 -84.5zM238 -475l16 84q128 26 145 102
q-55 -19 -92 5t-26 85q9 49 44 77t83 28q58 0 80.5 -40.5t9.5 -107.5q-36 -184 -260 -233z" />
    <glyph glyph-name="uni021B.ss02" horiz-adv-x="610" 
d="M625 901h-205l-123 -629q-15 -76 6.5 -107.5t93.5 -31.5q29 0 90 6l-28 -139q-64 -10 -113 -10q-62 0 -105.5 14t-75.5 47.5t-37.5 89.5t7.5 140l121 620h-154l29 143h154l67 349h164l-67 -349h204zM283 -66q58 0 80.5 -40t9.5 -107q-36 -184 -260 -233l16 84
q128 26 145 102q-55 -19 -92 5t-26 85q9 49 44 76.5t83 27.5z" />
    <glyph glyph-name="udieresis.ss02" horiz-adv-x="1091" 
d="M510 1241q-47 0 -68.5 29t-13.5 71q8 43 41.5 73t81.5 30q47 0 68.5 -29.5t13.5 -73.5q-8 -42 -41.5 -71t-81.5 -29zM829 1241q-47 0 -68 29t-13 71q8 43 41 73t81 30q47 0 68.5 -29.5t13.5 -73.5q-8 -42 -41.5 -71t-81.5 -29zM786 412l123 632h164l-203 -1044h-163
l24 125h-4q-61 -65 -156 -109.5t-213 -44.5q-77 0 -135 21.5t-99.5 69t-52 123.5t8.5 186l131 673h164l-131 -677q-22 -114 18 -183t152 -69q139 0 241.5 81.5t130.5 215.5z" />
    <glyph glyph-name="wdieresis.ss02" horiz-adv-x="1509" 
d="M725 1241q-47 0 -68.5 29t-13.5 71q8 43 41.5 73t81.5 30q47 0 68.5 -29.5t13.5 -73.5q-8 -42 -41.5 -71t-81.5 -29zM1044 1241q-47 0 -68 29t-13 71q8 43 41 73t81 30q47 0 68.5 -29.5t13.5 -73.5q-8 -42 -41.5 -71t-81.5 -29zM416 0h-183l-108 1044h180l51 -860h4
l398 860h178l61 -860h4l410 860h182l-536 -1044h-174l-68 848h-4z" />
    <glyph glyph-name="ydieresis.ss02" horiz-adv-x="1009" 
d="M465 1241q-47 0 -68.5 29t-13.5 71q8 43 41.5 73t81.5 30q47 0 68.5 -29.5t13.5 -73.5q-8 -42 -41.5 -71t-81.5 -29zM784 1241q-47 0 -68.5 29t-13.5 71q8 43 41.5 73t81.5 30q47 0 68.5 -29.5t13.5 -73.5q-8 -42 -41.5 -71t-81.5 -29zM47 -367q-38 0 -100 11l26 139
q52 -6 74 -6q175 0 279 233l-224 1034h181l157 -845h4l471 845h181l-625 -1075q-113 -192 -208 -264t-216 -72z" />
    <glyph glyph-name="zdotaccent.ss02" horiz-adv-x="923" 
d="M590 1241q-47 0 -68.5 29t-13.5 71q8 43 41.5 73t81.5 30q47 0 68.5 -29.5t13.5 -73.5q-8 -42 -41.5 -71t-81.5 -29zM780 0h-843l24 123l739 774l2 4h-555l27 143h787l-19 -98l-764 -799v-4h631z" />
    <glyph glyph-name="i.latn_TRK.ss02" horiz-adv-x="401" 
d="M338 1241q-47 0 -68.5 29t-13.5 71q8 43 41.5 73t81.5 30q47 0 68.5 -29.5t13.5 -73.5q-8 -42 -41.5 -71t-81.5 -29zM180 0h-164l203 1044h164z" />
    <glyph glyph-name="adieresis.ss01.ss02" horiz-adv-x="1153" 
d="M545 1241q-47 0 -68.5 29t-13.5 71q8 43 41.5 73t81.5 30q47 0 68.5 -29.5t13.5 -73.5q-8 -42 -41.5 -71t-81.5 -29zM864 1241q-47 0 -68.5 29t-13.5 71q8 43 41.5 73t81.5 30q47 0 68.5 -29.5t13.5 -73.5q-8 -42 -41.5 -71t-81.5 -29zM944 909l27 135h164l-203 -1044
h-164l25 129h-5q-147 -158 -360 -158q-172 0 -274.5 110t-102.5 314q0 141 45.5 267t123.5 216t187 142.5t232 52.5q211 0 295 -164h10zM469 115q134 0 241.5 101t149.5 255l17 86q4 50 4 74q0 143 -66 221t-190 78q-170 0 -289 -149t-119 -371q0 -295 252 -295z" />
    <glyph glyph-name="s_s" horiz-adv-x="1961" 
d="M463 -29q-213 0 -334 103.5t-121 267.5h162q0 -97 73.5 -162t225.5 -65q119 0 187.5 43t68.5 131q0 33 -13 59t-30 42.5t-55.5 33.5t-65 25.5t-82.5 25.5q-143 42 -195 67q-147 71 -161 208q-2 15 -2 32q0 144 114 217.5t308 73.5q81 0 146 -14t113.5 -37t87.5 -64
t66 -83.5t50.5 -107.5t39 -124t33.5 -145q20 -93 32 -138t37.5 -102.5t59 -82t88.5 -42.5t134 -18q130 0 203 42.5t73 129.5q0 34 -13 60t-30 43t-55.5 34t-65 25.5t-82.5 25.5q-143 42 -195 67q-147 70 -161 206q-2 15 -2 32q0 98 56 165.5t143 97.5t198 30
q100 0 180 -26.5t130 -71.5t76 -102t26 -121h-160q0 71 -61 124.5t-193 53.5q-102 0 -167.5 -36.5t-65.5 -111.5q0 -46 32.5 -77t69 -46t127.5 -42q19 -6 29 -9q49 -15 75.5 -23.5t69.5 -25.5t67 -32t54 -39t46 -50.5t27 -63t11 -79.5q0 -154 -123 -239t-330 -85
q-77 0 -138.5 14t-104.5 33t-77.5 61t-55 74t-40.5 98.5t-29.5 107t-27.5 126.5q-27 131 -62 216.5t-85 136.5t-111 71.5t-147 20.5q-119 0 -188.5 -37.5t-69.5 -112.5q0 -28 11.5 -49.5t28 -36.5t53 -30.5t67.5 -25.5t91 -28q5 -1 7 -2q49 -15 77 -24t70.5 -26t67 -32.5
t53.5 -39.5t44.5 -50t26.5 -62.5t11 -78.5q0 -155 -119 -239.5t-309 -84.5z" />
    <glyph glyph-name="w_w_w" horiz-adv-x="4296" 
d="M3789 184l409 860h183l-537 -1044h-174l-68 848h-4l-395 -848h-182l-96 926l-476 -926h-174l-67 848h-4l-396 -848h-182l-96 926l-475 -926h-174l-68 848h-4l-395 -848h-183l-108 1044h180l51 -860h4l398 860h178l61 -860h4l410 860h289l51 -860h4l397 860h179l61 -860h4
l410 860h288l52 -860h4l397 860h178l62 -860h4z" />
    <glyph glyph-name="f_f_i.ss02" horiz-adv-x="1482" 
d="M252 0h-164l176 901h-145l26 143h148l26 142q16 87 45 145.5t70 89.5t87 43.5t108 12.5q36 0 106 -11l-26 -139q-61 6 -84 6q-72 0 -99 -29t-43 -110l-28 -150h346l26 142q16 87 45 145.5t70 89.5t87 43.5t108 12.5q36 0 106 -11l-26 -139q-61 6 -84 6q-72 0 -99 -29
t-43 -110l-28 -150h198l-26 -143h-201l-174 -901h-164l176 901h-346zM1419 1241q-47 0 -68.5 29t-13.5 71q8 43 41.5 73t81.5 30q47 0 68.5 -29.5t13.5 -73.5q-8 -42 -41.5 -71t-81.5 -29zM1262 0h-164l202 1044h164z" />
    <glyph glyph-name="f_i.ss02" horiz-adv-x="968" 
d="M653 1044l-26 -143h-201l-174 -901h-164l176 901h-145l26 143h148l26 142q17 87 46 145.5t70 89.5t86.5 43.5t107.5 12.5q36 0 106 -11l-26 -139q-61 6 -84 6q-72 0 -99 -29t-43 -110l-28 -150h198zM946 1444q47 0 68.5 -29.5t13.5 -73.5q-8 -42 -41.5 -71t-81.5 -29
q-47 0 -68.5 29t-13.5 71q8 43 41.5 73t81.5 30zM748 0h-164l202 1044h164z" />
    <glyph glyph-name="zero.zero" horiz-adv-x="1282" 
d="M809 1444q113 0 197.5 -37.5t135.5 -107t76 -161t25 -204.5q0 -147 -30.5 -287.5t-90.5 -262.5t-143 -214.5t-196.5 -145.5t-241.5 -53q-113 0 -198 38t-136 107t-76 160.5t-25 204.5q0 147 31.5 288.5t93.5 263t146 214t196 145t236 52.5zM797 1280q-95 0 -178.5 -47
t-143.5 -126t-103.5 -181t-65 -215t-21.5 -226q0 -162 53 -245l604 1005q-59 35 -145 35zM553 135q95 0 178.5 47t143.5 126t103.5 181t65 215t21.5 226q0 124 -31 198l-585 -976q53 -17 104 -17z" />
    </font>
</defs>
</svg>
