<?xml version="1.0" standalone="no"?>
<!DOCTYPE svg PUBLIC "-//W3C//DTD SVG 1.1//EN" "http://www.w3.org/Graphics/SVG/1.1/DTD/svg11.dtd" >
<svg xmlns="http://www.w3.org/2000/svg" xmlns:xlink="http://www.w3.org/1999/xlink" version="1.1">
<metadata>
Created by FontForge 20201107 at Wed Nov 19 22:22:00 2025
 By 
Copyright (c) 2021 by Mathieu Desjardins. All rights reserved.
</metadata>
<defs>
<font id="PPNeueMachina-Ultrabold" horiz-adv-x="1677" >
  <font-face 
    font-family="PP Neue Machina Ultrabold"
    font-weight="800"
    font-stretch="normal"
    units-per-em="2048"
    panose-1="0 0 9 0 0 0 0 0 0 0"
    ascent="1638"
    descent="-410"
    x-height="1034"
    cap-height="1444"
    bbox="-1239 -752 3445 2054"
    underline-thickness="102"
    underline-position="-153"
    unicode-range="U+0020-277E"
  />
<missing-glyph horiz-adv-x="989" 
d="M184 1505h627v-1976h-627v1976zM657 1309v63h-325v-63h129v-74h-131v-66h327v66h-129v74h129zM528 979v139h-198v-205h327v66h-129zM395 1051h66v-72h-66v72zM657 795v63h-327v-63h131v-74h-131v-66h198v140h129zM657 543v198h-63v-131h-264v-67h327zM657 276v224h-196
v-111h67v45h66v-92h-199v158h-65v-224h327zM657 -66v224h-327v-224h327zM395 92h199v-92h-199v92zM657 -176v65h-327v-65h139l-139 -94v-64h327v64h-200l137 94h63z" />
    <glyph glyph-name="f_f" unicode="ff" horiz-adv-x="1712" 
d="M1692 1217h-217q-73 0 -106.5 -36.5t-33.5 -121.5v-25h299v-289h-299v-456h299v-289h-1573v289h250v456h-250v289h252q20 202 153 306t351 104h389q119 61 310 61h176v-288zM1006 1034v37q0 45 6 86h-195q-80 0 -119.5 -29.5t-50.5 -93.5h359zM1006 289v456h-365v-456
h365z" />
    <glyph glyph-name="f_f_i" unicode="ffi" horiz-adv-x="2496" 
d="M2169 883v-594h287v-289h-2395v289h248l2 456h-250v289h252q20 202 153 306t351 104h395q130 94 344 82l361 -21v-286l-401 20q-71 3 -105.5 -43.5t-34.5 -136.5v-15l613 11q88 2 134 -42t46 -130zM1053 1157h-236q-80 0 -119.5 -29.5t-50.5 -93.5h205l195 4v33
q0 45 6 86zM1839 289v469l-463 -6v-463h463zM1047 289v459l-152 -3h-254v-456h406z" />
    <glyph glyph-name="f_i" unicode="fi" horiz-adv-x="1705" 
d="M1378 883v-594h287v-289h-1604v289h197v459l-197 -3v289l197 4v33q0 219 130 344t380 111l358 -21v-286l-401 20q-69 3 -104 -44t-35 -136v-15l614 11q87 2 132.5 -42t45.5 -130zM1049 289v469l-463 -6v-463h463z" />
    <glyph glyph-name=".notdef" horiz-adv-x="989" 
d="M184 1505h627v-1976h-627v1976zM657 1309v63h-325v-63h129v-74h-131v-66h327v66h-129v74h129zM528 979v139h-198v-205h327v66h-129zM395 1051h66v-72h-66v72zM657 795v63h-327v-63h131v-74h-131v-66h198v140h129zM657 543v198h-63v-131h-264v-67h327zM657 276v224h-196
v-111h67v45h66v-92h-199v158h-65v-224h327zM657 -66v224h-327v-224h327zM395 92h199v-92h-199v92zM657 -176v65h-327v-65h139l-139 -94v-64h327v64h-200l137 94h63z" />
    <glyph glyph-name=".null" horiz-adv-x="0" 
 />
    <glyph glyph-name="nonmarkingreturn" horiz-adv-x="682" 
 />
    <glyph glyph-name="space" unicode=" " horiz-adv-x="571" 
 />
    <glyph glyph-name="exclam" unicode="!" horiz-adv-x="737" 
d="M266 530l-61 914h330l-64 -914h-205zM367 -20q-102 0 -163 64t-61 163q0 96 61 159.5t163 63.5q100 0 163.5 -64t63.5 -159q0 -98 -63.5 -162.5t-163.5 -64.5z" />
    <glyph glyph-name="quotedbl" unicode="&#x22;" horiz-adv-x="923" 
d="M143 932v655h246v-655h-246zM532 932v655h248v-655h-248z" />
    <glyph glyph-name="numbersign" unicode="#" horiz-adv-x="2283" 
d="M2140 1034v-205h-446l-158 -409h385v-205h-465l-201 -520l-231 90l166 430h-410l-200 -520l-232 90l166 430h-371v205h449l158 409h-388v205h467l211 551l234 -90l-178 -461h409l211 551l234 -90l-178 -461h368zM860 420h408l157 409h-407z" />
    <glyph glyph-name="dollar" unicode="$" horiz-adv-x="1619" 
d="M1477 397q0 -188 -136.5 -297.5t-429.5 -119.5v-283h-204v289q-297 28 -430.5 172t-133.5 399h330q0 -129 54.5 -193.5t179.5 -84.5v356q-70 24 -116 41t-103.5 42.5t-94.5 49t-75 57t-59.5 70t-35.5 84.5t-14 104q0 173 126.5 270t371.5 109v285h204v-291
q251 -30 378.5 -166.5t127.5 -337.5h-327q0 172 -179 211v-297q65 -22 113 -39.5t110.5 -45t107.5 -54t92 -63t76.5 -75t48 -88t18.5 -104.5zM539 1071q0 -43 31.5 -70t136.5 -65v238q-168 -16 -168 -103zM911 565v-297q128 4 183 36t55 89q0 54 -60 93t-178 79z" />
    <glyph glyph-name="percent" unicode="%" horiz-adv-x="2537" 
d="M809 -154l692 1801l234 -91l-695 -1800zM618 575q-139 0 -248.5 65t-168 173t-58.5 238q0 199 133 337t342 138q104 0 194 -38t151.5 -102t96 -151t34.5 -184q0 -199 -133.5 -337.5t-342.5 -138.5zM618 821q100 0 165 67t65 163q0 95 -65 161t-165 66t-164.5 -66
t-64.5 -161q0 -96 65 -163t164 -67zM1919 -143q-140 0 -250 64.5t-168.5 172.5t-58.5 238t58.5 238t168.5 172.5t250 64.5q209 0 342 -138t133 -337t-133 -337t-342 -138zM1919 102q98 0 162.5 67.5t64.5 162.5t-64.5 161t-162.5 66q-100 0 -164.5 -66t-64.5 -161
q0 -96 65 -163t164 -67z" />
    <glyph glyph-name="ampersand" unicode="&#x26;" horiz-adv-x="2072" 
d="M1647 309l282 -338l-260 -176l-250 318q-224 -133 -532 -133q-227 0 -392.5 61t-258.5 186.5t-93 304.5q0 100 34.5 178.5t92 124.5t124.5 69.5t138 23.5q167 0 283 -127v82l-328 420v141h1119v-289h-666l498 -594q92 167 92 412h330q0 -400 -213 -664zM887 268
q202 0 346 84l-121 154q-94 120 -182.5 171.5t-200.5 51.5q-111 0 -183.5 -54.5t-72.5 -154.5q0 -252 414 -252z" />
    <glyph glyph-name="quotesingle" unicode="'" horiz-adv-x="532" 
d="M143 932v655h246v-655h-246z" />
    <glyph glyph-name="parenleft" unicode="(" horiz-adv-x="923" 
d="M780 -102v-205q-162 30 -285 107.5t-199.5 193t-114.5 259.5t-38 316t38 316t114.5 259t199 192.5t285.5 107.5v-205q-96 -30 -166.5 -78t-113 -106.5t-68 -138t-34.5 -160.5t-9 -187t9 -187t34.5 -161t68 -138t113 -106.5t166.5 -78.5z" />
    <glyph glyph-name="parenright" unicode=")" horiz-adv-x="923" 
d="M143 -307v205q96 30 166.5 78.5t113.5 106.5t68.5 138t34.5 161t9 187t-9 187t-34.5 160.5t-68.5 138t-113.5 106.5t-166.5 78v205q163 -30 285.5 -107.5t199 -192.5t114.5 -259t38 -316t-38 -316t-114.5 -259.5t-199.5 -193t-285 -107.5z" />
    <glyph glyph-name="asterisk" unicode="*" horiz-adv-x="1060" 
d="M301 1059l-199 63l64 195l199 -64l104 -79l-39 122v209h205v-209l-41 -125l102 76l199 64l63 -195l-198 -65h-131l102 -74l123 -168l-166 -121l-121 166l-41 127l-39 -123l-122 -166l-166 121l123 168l106 76z" />
    <glyph glyph-name="plus" unicode="+" horiz-adv-x="1392" 
d="M819 676h430v-246h-430v-430h-246v430h-430v246h430v430h246v-430z" />
    <glyph glyph-name="comma" unicode="," horiz-adv-x="643" 
d="M61 -352l201 725l238 -64l-201 -727z" />
    <glyph glyph-name="hyphen" unicode="-" horiz-adv-x="1392" 
d="M143 430v246h1106v-246h-1106z" />
    <glyph glyph-name="period" unicode="." horiz-adv-x="737" 
d="M367 -20q-102 0 -163 64t-61 163q0 96 61 159.5t163 63.5q100 0 163.5 -64t63.5 -159q0 -98 -63.5 -162.5t-163.5 -64.5z" />
    <glyph glyph-name="slash" unicode="/" horiz-adv-x="1130" 
d="M102 -133l693 1800l233 -90l-694 -1800z" />
    <glyph glyph-name="zero" unicode="0" horiz-adv-x="1554" 
d="M778 1464q215 0 373.5 -93.5t241 -260.5t82.5 -387q0 -221 -82.5 -388.5t-241 -261t-373.5 -93.5q-324 0 -510 203.5t-186 539.5q0 220 82 387t240.5 260.5t373.5 93.5zM778 1176q-175 0 -270.5 -116t-95.5 -337q0 -103 22 -186l547 583q-83 56 -203 56zM778 268
q175 0 271 116.5t96 338.5q0 98 -23 188l-549 -587q83 -56 205 -56z" />
    <glyph glyph-name="one" unicode="1" horiz-adv-x="1189" 
d="M176 573l-115 297q203 79 285 204.5t82 369.5h639v-1444h-330v1178l64 184h-84q-6 -88 -14.5 -155t-26 -140t-43 -129.5t-66 -113.5t-94.5 -100.5t-128.5 -82.5t-168.5 -68z" />
    <glyph glyph-name="two" unicode="2" horiz-adv-x="1425" 
d="M412 782h-330q0 142 34.5 256.5t96 193t148 131.5t187 77t216.5 24q263 0 421 -127t158 -358q0 -75 -18 -139.5t-41.5 -114t-77.5 -94t-95 -75t-127.5 -61.5t-141 -49t-169.5 -42.5t-179 -37t-201 -37.5q-72 -13 -109 -20v-82l205 62h954v-289h-1241v575q232 32 343 55
q516 110 566 319q5 22 5 44q0 77 -59.5 130t-188.5 53q-186 0 -271 -94t-85 -300z" />
    <glyph glyph-name="three" unicode="3" horiz-adv-x="1458" 
d="M61 551h328q0 -86 17.5 -140t60.5 -86.5t106 -44.5t162 -12q158 0 225.5 38t67.5 126q0 84 -52 126t-147 42h-200v287h200q179 0 179 145q0 74 -60.5 109t-212.5 35q-188 0 -256.5 -48t-68.5 -174h-328q0 109 32.5 196t90 145t140.5 96.5t179.5 55.5t210.5 17
q131 0 240 -24.5t189.5 -72t125.5 -122.5t45 -172q0 -63 -19 -110.5t-47 -76t-77 -50t-91.5 -31.5t-107.5 -21v-82q43 -6 69 -10.5t64.5 -12.5t62.5 -19t53.5 -27t47.5 -38t34.5 -51t24 -67.5t7.5 -85.5q0 -104 -48 -184t-133.5 -129t-196 -73.5t-243.5 -24.5
q-116 0 -213 17.5t-184 59t-147 105.5t-95 163t-35 226z" />
    <glyph glyph-name="four" unicode="4" horiz-adv-x="1423" 
d="M1186 530h155v-286h-155v-244h-330v244h-754v598q261 40 411 194t169 408h328q-17 -357 -229 -585t-597 -308v-82l205 61h467v318h330v-318z" />
    <glyph glyph-name="five" unicode="5" horiz-adv-x="1499" 
d="M82 530h330q0 -134 82 -198t268 -64q168 0 237.5 65t69.5 204q0 229 -229 229q-179 0 -299 -152l-369 213v617h1110v-289h-782v-205l-62 -184l68 -39q114 328 432 328q199 0 329 -135t130 -375q0 -287 -168.5 -426t-466.5 -139q-147 0 -267.5 31.5t-214.5 95.5t-146 172
t-52 251z" />
    <glyph glyph-name="six" unicode="6" horiz-adv-x="1480" 
d="M102 711q0 139 24.5 256t79 216t136.5 165t203 97.5t272 18.5l488 -41v-288l-488 41q-204 18 -321.5 -54.5t-161.5 -267.5l-82 -184h82q20 178 163.5 281.5t350.5 103.5q270 0 421.5 -140.5t151.5 -388.5q0 -245 -177.5 -395.5t-479.5 -150.5q-309 0 -485.5 183.5
t-176.5 547.5zM432 506q0 -101 84 -169.5t246 -68.5q173 0 251.5 58t78.5 200q0 125 -77.5 182.5t-244.5 57.5q-176 0 -257 -65t-81 -195z" />
    <glyph glyph-name="seven" unicode="7" horiz-adv-x="1247" 
d="M582 0h-349q0 230 61 418t176.5 326t273 234.5t360.5 156.5v82l-184 -62h-859v289h1125v-475q-220 -89 -350 -212.5t-192 -306.5t-62 -450z" />
    <glyph glyph-name="eight" unicode="8" horiz-adv-x="1411" 
d="M41 406q0 73 23.5 130.5t62 94t95.5 62.5t114 39.5t129 21.5v82q-342 30 -342 294q0 76 34 135t89 96t132.5 60.5t157.5 33t171 9.5q90 0 169.5 -9.5t156.5 -33t132.5 -60.5t89 -96t33.5 -135q0 -264 -342 -294v-82q69 -8 128.5 -23.5t115 -43.5t94.5 -66t62.5 -93
t23.5 -122q0 -112 -47.5 -195t-136.5 -133t-208 -74t-271 -24t-272 24t-209.5 74t-137 133t-47.5 195zM451 1057q0 -65 61 -93t195 -28q133 0 193.5 28t60.5 93q0 64 -61 92.5t-193 28.5q-133 0 -194.5 -28.5t-61.5 -92.5zM369 457q0 -98 80.5 -144.5t257.5 -46.5
q175 0 255 46.5t80 144.5q0 97 -80.5 144.5t-254.5 47.5q-176 0 -257 -47.5t-81 -144.5z" />
    <glyph glyph-name="nine" unicode="9" horiz-adv-x="1480" 
d="M1378 733q0 -139 -24.5 -256t-79 -216t-136 -165t-202.5 -97.5t-272 -18.5l-486 40v289l486 -41q205 -18 322 54t161 268l82 184h-82q-12 -118 -83.5 -206.5t-183 -133.5t-247.5 -45q-268 0 -420 140.5t-152 388.5q0 245 177 395.5t481 150.5q308 0 483.5 -183.5
t175.5 -547.5zM1051 938q0 101 -85 169.5t-247 68.5q-172 0 -251 -58.5t-79 -199.5q0 -125 78.5 -182.5t243.5 -57.5q177 0 258.5 65t81.5 195z" />
    <glyph glyph-name="colon" unicode=":" horiz-adv-x="737" 
d="M367 604q-102 0 -163 64t-61 163q0 96 61 160t163 64q100 0 163.5 -64.5t63.5 -159.5q0 -98 -63.5 -162.5t-163.5 -64.5zM367 -20q-102 0 -163 64t-61 163q0 96 61 159.5t163 63.5q100 0 163.5 -64t63.5 -159q0 -98 -63.5 -162.5t-163.5 -64.5z" />
    <glyph glyph-name="semicolon" unicode=";" horiz-adv-x="800" 
d="M428 604q-102 0 -162.5 64t-60.5 163q0 96 60.5 160t162.5 64q101 0 165 -64.5t64 -159.5q0 -98 -63.5 -162.5t-165.5 -64.5zM61 -352l201 725l238 -64l-201 -727z" />
    <glyph glyph-name="less" unicode="&#x3c;" horiz-adv-x="1406" 
d="M1186 -2l-1043 385v246l1043 407l80 -235l-836 -295l836 -273z" />
    <glyph glyph-name="equal" unicode="=" horiz-adv-x="1392" 
d="M143 655v248h1106v-248h-1106zM143 205v246h1106v-246h-1106z" />
    <glyph glyph-name="greater" unicode="&#x3e;" horiz-adv-x="1406" 
d="M1266 629v-246l-1045 -385l-78 235l834 273l-834 295l78 235z" />
    <glyph glyph-name="question" unicode="?" horiz-adv-x="1116" 
d="M348 1106h-246q0 88 28 162.5t84.5 133t152 91.5t221.5 33q114 0 200 -29.5t133.5 -78.5t70 -104t22.5 -116q0 -68 -23.5 -126t-61.5 -100t-96 -76.5t-117.5 -57t-136 -40t-141.5 -28t-143 -18.5v-70l156 55h467v-207h-705v408q114 2 210 17t175.5 43.5t124.5 77
t45 112.5q0 67 -50 100t-134 33q-124 0 -180 -54.5t-56 -160.5zM563 -20q-102 0 -162.5 64t-60.5 163q0 96 60.5 159.5t162.5 63.5q100 0 165 -64t65 -159q0 -97 -64.5 -162t-165.5 -65z" />
    <glyph glyph-name="at" unicode="@" horiz-adv-x="2265" 
d="M143 575q0 186 53 345t147 274.5t222 197t279.5 122t318.5 40.5q207 0 383.5 -59.5t304.5 -169.5t200.5 -276.5t72.5 -370.5q0 -136 -31.5 -251t-92 -201.5t-156 -135.5t-216.5 -49h-110q-113 0 -113 133v21l61 163h-82q-31 -141 -134.5 -225t-256.5 -84
q-206 0 -329 142.5t-123 386.5q0 242 123 384t329 142q153 0 256.5 -84t134.5 -225h82l-61 184v104h246v-837h47q198 0 198 432q0 329 -187 500.5t-546 171.5q-176 0 -325.5 -59.5t-251.5 -163.5t-159.5 -246.5t-57.5 -305.5q0 -171 57.5 -318t160 -249.5t252 -153
t324.5 -32.5l793 82v-205l-793 -84q-163 -17 -317 18t-280.5 118t-221.5 203t-148 280t-53 341zM788 578q0 -324 252 -324q254 0 254 324q0 321 -254 321q-252 0 -252 -321z" />
    <glyph glyph-name="A" unicode="A" horiz-adv-x="1593" 
d="M1552 0h-333l-129 463h-586l-129 -463h-334l416 1444h678zM754 1362l-170 -612h426l-172 612h-84z" />
    <glyph glyph-name="B" unicode="B" horiz-adv-x="1437" 
d="M655 0h-532v1444h508q126 0 217.5 -9.5t166.5 -33t120.5 -64t69.5 -101.5t24 -146q0 -75 -22 -129t-50 -82.5t-81.5 -46t-86.5 -21.5t-95 -9q-9 -1 -13 -1v-82q43 -2 73.5 -3.5t72 -6.5t70 -12.5t63.5 -20t58.5 -29.5t47 -42t37.5 -56.5t23 -73.5t9 -92
q0 -96 -35.5 -165.5t-94 -111t-149.5 -66t-184 -32.5t-217 -8zM453 1155v-260h221q37 0 54.5 0.5t46.5 2.5t43 7t33 14.5t27 23.5t14.5 34.5t6.5 48.5q0 38 -12 63t-28 38t-51 19.5t-59 7.5t-75 1h-221zM453 608v-319h243q156 0 205 12q81 19 99 89q6 24 6 56q0 24 -3 44
t-11 35t-15.5 27t-24 21t-28 15t-35.5 9.5t-39.5 6t-47 3.5t-50 1h-56.5h-243z" />
    <glyph glyph-name="C" unicode="C" horiz-adv-x="1658" 
d="M102 723q0 210 88.5 377.5t259 265.5t394.5 98q301 0 490.5 -154.5t221.5 -422.5h-327q-24 139 -126.5 214t-254.5 75q-192 0 -304 -117.5t-112 -335.5q0 -220 112 -337.5t304 -117.5q151 0 254 75.5t127 215.5h327q-32 -269 -221.5 -424t-490.5 -155q-169 0 -309 57
t-234.5 156.5t-146.5 235.5t-52 294z" />
    <glyph glyph-name="D" unicode="D" horiz-adv-x="1544" 
d="M655 1444q89 0 165 -7t159 -27.5t148.5 -53.5t126.5 -88.5t101.5 -129.5t64.5 -179.5t24 -235.5t-24 -236t-64.5 -180t-101.5 -130t-126.5 -89t-148.5 -53.5t-159 -27.5t-165 -7h-532v1444h532zM453 289h202q44 0 75 1t70.5 4.5t67 10t59.5 18t54 28.5t45 40.5t37.5 55.5
t27 72t18 91.5t5.5 112.5q0 87 -13 154t-32.5 112t-55 77t-69.5 49t-87 26.5t-95 11.5t-107 2h-202v-866z" />
    <glyph glyph-name="E" unicode="E" horiz-adv-x="1234" 
d="M1155 0h-1032v1444h1032v-289h-702v-289h600v-286h-600v-291h702v-289z" />
    <glyph glyph-name="F" unicode="F" horiz-adv-x="1234" 
d="M453 0h-330v1444h1030v-289h-700v-414l655 41v-293l-655 -40v-449z" />
    <glyph glyph-name="G" unicode="G" horiz-adv-x="1822" 
d="M102 723q0 216 94.5 386t260 262.5t372.5 92.5q271 0 463 -150t224 -386h-328q-25 128 -111 188t-248 60q-397 0 -397 -453q0 -237 86.5 -346t265.5 -109q151 0 235.5 74t84.5 217h-334v246h756q85 0 129.5 -44.5t44.5 -129.5v-631h-330v498l62 225h-82
q-2 -351 -145.5 -547t-432.5 -196q-212 0 -364.5 94t-229 260.5t-76.5 388.5z" />
    <glyph glyph-name="H" unicode="H" horiz-adv-x="1628" 
d="M1176 846v598h329v-1444h-329v559h-723v-559h-330v1444h330v-598h723z" />
    <glyph glyph-name="I" unicode="I" horiz-adv-x="1189" 
d="M1087 1444v-289h-327v-866h327v-289h-985v289h328v866h-328v289h985z" />
    <glyph glyph-name="J" unicode="J" horiz-adv-x="1097" 
d="M408 -20l-367 20v289l367 -21q59 -3 102.5 6.5t71.5 36t45 57t25.5 82t11 98t2.5 116.5v512l-435 -21v289l588 20q85 3 130.5 -42.5t45.5 -131.5v-737q0 -106 -11.5 -186.5t-38 -149t-70.5 -114.5t-109 -77t-154 -42t-204 -4z" />
    <glyph glyph-name="K" unicode="K" horiz-adv-x="1576" 
d="M1055 1444h481l-870 -723l870 -721h-481l-602 510v-510h-330v1444h330v-512z" />
    <glyph glyph-name="L" unicode="L" horiz-adv-x="1193" 
d="M1155 0l-856 -20q-85 -2 -130.5 42.5t-45.5 129.5v1292h330v-1176l702 21v-289z" />
    <glyph glyph-name="M" unicode="M" horiz-adv-x="2041" 
d="M453 0h-330v1444h647l209 -1362h84l209 1362h647v-1444h-330v1155l62 207h-82l-230 -1362h-637l-229 1362h-84l64 -207v-1155z" />
    <glyph glyph-name="N" unicode="N" 
d="M453 0h-330v1444h647l434 -1362h82l-61 207v1155h329v-1444h-649l-432 1362h-84l64 -207v-1155z" />
    <glyph glyph-name="O" unicode="O" 
d="M102 723q0 157 51.5 293t145 235t233 156t308.5 57q168 0 307 -57t232.5 -156t144.5 -235t51 -293q0 -158 -51 -294t-144.5 -235.5t-232.5 -156.5t-307 -57q-169 0 -308.5 57t-233 156.5t-145 235.5t-51.5 294zM432 723q0 -214 104 -334.5t304 -120.5t303.5 120.5
t103.5 334.5q0 212 -103.5 332.5t-303.5 120.5t-304 -120.5t-104 -332.5z" />
    <glyph glyph-name="P" unicode="P" horiz-adv-x="1368" 
d="M641 1444q120 0 208.5 -10.5t175 -42.5t141 -86.5t87.5 -147t33 -219.5q0 -92 -17 -166t-46.5 -126.5t-76 -91t-98 -62.5t-120.5 -38t-136 -19t-151 -5h-188v-430h-330v1444h518zM453 717h209q54 0 90 2.5t72.5 10t58.5 22.5t40 39.5t25.5 60.5t7.5 86q0 58 -12.5 98
t-34 63.5t-61 36t-80.5 16t-106 3.5h-209v-438z" />
    <glyph glyph-name="Q" unicode="Q" horiz-adv-x="1712" 
d="M1141 -61q161 11 322.5 1.5t412.5 -42.5v-287q-280 38 -512.5 47t-436.5 -5.5t-476 -53.5l-27 268q5 0 70.5 6.5t81 8t77.5 8.5t88 12.5t81 15t88.5 20t79.5 24.5t84.5 31.5t74.5 37.5l-45 73q-62 -51 -144.5 -77.5t-218.5 -26.5q-127 0 -243 51.5t-204 143.5t-140 229.5
t-52 298.5q0 156 54.5 292.5t152 235.5t240 156t311.5 57t311 -54t240 -151t152.5 -235t54.5 -301q0 -119 -26.5 -226t-70.5 -189t-106.5 -153.5t-129 -122.5t-144.5 -93zM860 268q202 0 315 122t113 333q0 209 -113 331t-315 122t-315 -122t-113 -331q0 -211 113 -333
t315 -122z" />
    <glyph glyph-name="R" unicode="R" horiz-adv-x="1468" 
d="M453 0h-330v1444h559q110 0 200 -10.5t175 -38.5t143 -72.5t92.5 -116.5t34.5 -166q0 -281 -369 -323v-82h211q85 0 131 -45t46 -129v-461h-330v508h-563v-508zM453 1155v-360h229q75 0 109.5 1.5t83.5 10t69.5 27t36.5 53.5t16 88t-16 88t-36.5 53.5t-69.5 27t-83.5 10
t-109.5 1.5h-229z" />
    <glyph glyph-name="S" unicode="S" horiz-adv-x="1456" 
d="M1395 397q0 -196 -149.5 -306.5t-469.5 -110.5q-192 0 -330.5 38.5t-222.5 114t-123 180t-39 244.5h330q0 -162 88.5 -225.5t306.5 -63.5q152 0 216.5 31.5t64.5 93.5q0 68 -112 122q-54 26 -246 91q-16 6 -29 10q-228 76 -317 122q-165 85 -213 211q-23 60 -23 134
q0 185 144.5 283t422.5 98q161 0 285.5 -39.5t201.5 -109.5t115.5 -161.5t38.5 -201.5h-327q0 64 -23.5 109t-67.5 69.5t-98 35t-125 10.5q-237 0 -237 -105q0 -35 19 -57t72.5 -46.5t172.5 -64.5q222 -75 285 -101q280 -115 357 -268q32 -64 32 -137z" />
    <glyph glyph-name="T" unicode="T" horiz-adv-x="1394" 
d="M61 1444h1272v-289h-471v-1155h-327v1155h-474v289z" />
    <glyph glyph-name="U" unicode="U" horiz-adv-x="1470" 
d="M82 537v907h330v-760q0 -63 2 -105t9 -90t20.5 -78t37 -60t57.5 -46.5t82.5 -26.5t112.5 -10q56 0 100.5 7t77.5 22t57.5 34t40.5 48.5t26 59t15.5 72t7 81t1.5 92.5v760h330v-907q0 -271 -168 -414t-488 -143t-485.5 143t-165.5 414z" />
    <glyph glyph-name="V" unicode="V" horiz-adv-x="1593" 
d="M457 0l-416 1444h334l379 -1362h84l381 1362h333l-417 -1444h-678z" />
    <glyph glyph-name="W" unicode="W" horiz-adv-x="2396" 
d="M289 0l-248 1444h319l228 -1362h82l178 1362h700l176 -1362h82l230 1362h319l-248 -1444h-684l-184 1362h-82l-186 -1362h-682z" />
    <glyph glyph-name="X" unicode="X" horiz-adv-x="1617" 
d="M420 0h-379l487 682v82l-487 680h379l387 -553l391 553h379l-490 -680v-82l490 -682h-379l-391 555z" />
    <glyph glyph-name="Y" unicode="Y" horiz-adv-x="1482" 
d="M780 844l310 600h352l-537 -979v-465h-330v465l-534 979h352l305 -600v-187h82v187z" />
    <glyph glyph-name="Z" unicode="Z" horiz-adv-x="1366" 
d="M1284 0h-1202v606l1120 529v82l-184 -62h-936v289h1202v-606l-1120 -529v-82l184 62h936v-289z" />
    <glyph glyph-name="bracketleft" unicode="[" horiz-adv-x="944" 
d="M143 -307v1751h658v-205h-410v-1341h410v-205h-658z" />
    <glyph glyph-name="backslash" unicode="\" horiz-adv-x="1130" 
d="M102 1577l232 90l694 -1800l-233 -90z" />
    <glyph glyph-name="bracketright" unicode="]" horiz-adv-x="944" 
d="M143 1444h658v-1751h-658v205h410v1341h-410v205z" />
    <glyph glyph-name="asciicircum" unicode="^" horiz-adv-x="1169" 
d="M1026 750h-262l-137 612h-82l-139 -612h-263l197 694h494z" />
    <glyph glyph-name="underscore" unicode="_" horiz-adv-x="1310" 
d="M102 -287v246h1106v-246h-1106z" />
    <glyph glyph-name="grave" unicode="`" horiz-adv-x="1142" 
d="M199 1546l800 -176l-55 -233l-801 176z" />
    <glyph glyph-name="a" unicode="a" horiz-adv-x="1320" 
d="M82 283q0 137 95 215.5t319 109.5l325 45q0 133 -207 133q-98 0 -150 -38t-52 -109h-310q0 128 68 223.5t183.5 144t260.5 48.5q88 0 165.5 -16.5t146.5 -53.5t118.5 -92t78 -135.5t28.5 -179.5v-289h149v-289h-229q-73 0 -113 40t-40 114v20l51 123h-82
q-16 -70 -43.5 -123t-76 -99t-126 -70.5t-182.5 -24.5q-92 0 -162.5 22t-110 54t-64 75t-32.5 79t-8 73zM412 344q0 -41 32.5 -59.5t79.5 -18.5q135 0 216 54.5t81 148.5l-264 -37q-79 -12 -112 -29.5t-33 -58.5z" />
    <glyph glyph-name="b" unicode="b" horiz-adv-x="1409" 
d="M453 0h-330v1505h330v-534l-64 -185h84q17 45 37.5 81t54.5 72.5t76 60.5t103.5 39.5t136.5 15.5q144 0 247 -74t151 -193.5t48 -269.5q0 -112 -28 -208t-82 -170.5t-140.5 -117t-195.5 -42.5q-75 0 -136.5 15t-103.5 39.5t-76 60.5t-54.5 72t-37.5 81h-84l64 -185v-63z
M453 518q0 -250 272 -250q274 0 274 250q0 248 -274 248q-135 0 -203.5 -60t-68.5 -188z" />
    <glyph glyph-name="c" unicode="c" horiz-adv-x="1284" 
d="M82 518q0 253 156 395t409 142q108 0 205.5 -29t174 -84t124 -142t51.5 -194h-328q-9 70 -70 115t-157 45q-115 0 -175 -64.5t-60 -183.5q0 -121 60 -185.5t175 -64.5q96 0 157 45t70 115h328q-4 -107 -51.5 -193.5t-124 -141.5t-174 -84t-205.5 -29q-166 0 -292.5 61.5
t-199.5 184.5t-73 292z" />
    <glyph glyph-name="d" unicode="d" horiz-adv-x="1411" 
d="M1286 1505v-1505h-328v63l62 185h-82q-17 -45 -38 -81t-55 -72t-76 -60.5t-103.5 -39.5t-135.5 -15q-109 0 -195.5 42.5t-141 117t-83 171t-28.5 207.5q0 150 48.5 269.5t152 193.5t247.5 74q92 0 163.5 -22t118 -62t75.5 -84t51 -101h82l-62 185v534h328zM958 518
q0 248 -274 248q-135 0 -203.5 -60t-68.5 -188q0 -250 272 -250q274 0 274 250z" />
    <glyph glyph-name="e" unicode="e" horiz-adv-x="1292" 
d="M82 530q0 243 150 384t395 141t396 -136t151 -368v-102h-783q0 -93 68 -148t203 -55q88 0 147 31t74 88h327q-6 -47 -29 -97.5t-69 -102.5t-107 -93t-150.5 -66.5t-192.5 -25.5q-144 0 -257 44.5t-182.5 121t-105 174.5t-35.5 210zM391 633h475q0 66 -56.5 109.5
t-182.5 43.5t-181 -43t-55 -110z" />
    <glyph glyph-name="f" unicode="f" horiz-adv-x="962" 
d="M944 1217h-219q-72 0 -104.5 -36.5t-32.5 -121.5v-25h299v-289h-299v-456h299v-289h-826v289h197v456h-197v289h197v37q0 213 126.5 323.5t383.5 110.5h176v-288z" />
    <glyph glyph-name="g" unicode="g" horiz-adv-x="1445" 
d="M1337 1034h90v-289h-69q-67 0 -96 -16q10 -14 19 -47.5t9 -71.5q0 -139 -120 -237.5t-347 -175.5q92 6 170 -5t144 -40.5t103.5 -86t37.5 -135.5q0 -46 -10.5 -84t-33.5 -68.5t-54 -55t-78.5 -43.5t-99 -33t-124 -24t-145.5 -16t-171 -9.5t-193 -5t-219 -1.5v289
q503 0 635 16q125 16 151 60q10 18 10 45q0 35 -25.5 57t-77 29t-106.5 7t-139.5 -10.5t-147.5 -20t-157 -25.5q-24 -4 -35 -6l-35 186q426 41 639 92v82q-144 -51 -282 -63t-249.5 15t-180 106t-68.5 202q0 99 45 177.5t125 127t185 74t229 25.5q258 0 409 -111
q41 54 108 72t154 18zM686 496q144 0 209.5 33.5t65.5 101.5q0 137 -275 137q-274 0 -274 -137q0 -68 65 -101.5t209 -33.5z" />
    <glyph glyph-name="h" unicode="h" horiz-adv-x="1390" 
d="M864 1055q200 0 312 -129.5t112 -366.5v-559h-330v508q0 141 -47.5 199.5t-165.5 58.5q-69 0 -120.5 -19.5t-91 -62.5t-60 -118.5t-20.5 -182.5v-383h-330v1505h330v-596l-64 -184h84q33 147 133 238.5t258 91.5z" />
    <glyph glyph-name="i" unicode="i" horiz-adv-x="1026" 
d="M506 1137q-92 0 -142.5 42t-50.5 121q0 78 51 121t142 43t143.5 -43t52.5 -121q0 -79 -52 -121t-144 -42zM985 0h-903v289h293v469l-252 -13v289l389 21q87 4 133.5 -40.5t46.5 -131.5v-594h293v-289z" />
    <glyph glyph-name="j" unicode="j" horiz-adv-x="712" 
d="M422 1137q-92 0 -142.5 42t-50.5 121q0 78 51 121t142 43q93 0 146 -43t53 -121q0 -79 -53 -121t-146 -42zM391 -410h-371l218 357q34 54 34 139v672l-252 -13v289l418 15q85 3 130.5 -41t45.5 -129v-818q0 -77 -34 -139z" />
    <glyph glyph-name="k" unicode="k" horiz-adv-x="1372" 
d="M1311 0h-375l-256 399l-227 -106v-293h-330v1505h330v-874l471 217l-4 186h329v-225q0 -74 -31 -123.5t-98 -81.5l-159 -74z" />
    <glyph glyph-name="l" unicode="l" horiz-adv-x="1005" 
d="M965 0h-904v289h287v940l-246 -12v288l396 15q88 3 134 -41.5t46 -130.5v-1059h287v-289z" />
    <glyph glyph-name="m" unicode="m" horiz-adv-x="1953" 
d="M1509 1055q96 0 164.5 -40.5t107 -114t55.5 -162.5t17 -199v-539h-329v516q0 148 -31.5 199t-122.5 51q-65 0 -108.5 -27t-67 -82.5t-32.5 -125t-9 -169.5v-362h-330v516q0 148 -31 199t-122 51q-65 0 -108.5 -27t-67 -82.5t-32.5 -125t-9 -169.5v-362h-330v1034h330
v-104l-64 -185h84q33 148 113 229t223 81q138 0 210 -81.5t97 -228.5h60q33 149 111.5 229.5t221.5 80.5z" />
    <glyph glyph-name="n" unicode="n" horiz-adv-x="1390" 
d="M745 766q-69 0 -120.5 -19.5t-91 -62.5t-60 -118.5t-20.5 -182.5v-383h-330v1034h330v-125l-64 -184h84q33 147 133 238.5t258 91.5q200 0 312 -129.5t112 -366.5v-559h-330v508q0 141 -47.5 199.5t-165.5 58.5z" />
    <glyph glyph-name="o" unicode="o" horiz-adv-x="1329" 
d="M82 518q0 132 45 235.5t125 168.5t185 99t229 34q123 0 227.5 -34t184 -99t124.5 -168.5t45 -235.5t-45 -236t-124.5 -169.5t-184 -99t-227.5 -33.5q-124 0 -229 33.5t-185 99t-125 169.5t-45 236zM412 518q0 -127 66.5 -188.5t187.5 -61.5q120 0 187 62t67 188
q0 125 -67 186.5t-187 61.5q-121 0 -187.5 -61.5t-66.5 -186.5z" />
    <glyph glyph-name="p" unicode="p" horiz-adv-x="1409" 
d="M123 -389v1423h330v-63l-64 -185h84q17 45 37.5 81t54.5 72.5t76 60.5t103.5 39.5t136.5 15.5q144 0 247 -74.5t151 -194.5t48 -270q0 -112 -28 -208t-82 -169.5t-140.5 -116t-195.5 -42.5q-75 0 -136.5 15t-103.5 39.5t-76 60.5t-54.5 72t-37.5 81h-84l64 -185v-452
h-330zM453 516q0 -129 68.5 -188.5t203.5 -59.5q136 0 205 59.5t69 188.5q0 250 -274 250q-135 0 -203.5 -60.5t-68.5 -189.5z" />
    <glyph glyph-name="q" unicode="q" horiz-adv-x="1411" 
d="M958 1034h328v-1423h-328v452l62 185h-82q-17 -45 -38 -81t-55 -72t-76 -60.5t-103.5 -39.5t-135.5 -15q-109 0 -195.5 42.5t-141 116t-83 170t-28.5 207.5q0 150 48.5 270t152 194.5t247.5 74.5q92 0 163.5 -22t118 -62t75.5 -84t51 -101h82l-62 185v63zM958 516
q0 250 -274 250q-135 0 -203.5 -60.5t-68.5 -189.5t68.5 -188.5t203.5 -59.5q136 0 205 59.5t69 188.5z" />
    <glyph glyph-name="r" unicode="r" horiz-adv-x="997" 
d="M453 0h-330v879q0 85 45.5 129.5t130.5 42.5l680 -17v-289l-526 13v-758z" />
    <glyph glyph-name="s" unicode="s" horiz-adv-x="1130" 
d="M1090 285q0 -68 -26 -121.5t-81.5 -95.5t-151 -65t-225.5 -23q-277 0 -411 103.5t-134 291.5h330q0 -67 52.5 -108.5t172.5 -41.5q144 0 144 70q0 35 -45 59q-29 15 -178 64q-16 5 -58 18.5t-61 19.5t-57.5 20.5t-58 24.5t-51 27t-48 32.5t-37.5 38.5t-31.5 46.5t-18 54
t-7.5 64.5q0 138 118 214.5t332 76.5q127 0 224.5 -30t155.5 -82.5t87 -118.5t29 -144h-330q0 58 -43 93.5t-125 35.5q-119 0 -119 -59q0 -33 56 -58.5t199 -71.5q8 -3 12 -4q162 -53 216 -80q128 -63 158 -168q11 -38 11 -83z" />
    <glyph glyph-name="t" unicode="t" horiz-adv-x="1038" 
d="M596 745v-477l381 21v-289l-537 -20q-84 -3 -129 43t-45 131v591h-246v289h246v195l330 102v-297h340v-289h-340z" />
    <glyph glyph-name="u" unicode="u" horiz-adv-x="1370" 
d="M643 268q143 0 219 87.5t76 295.5v383h330v-1034h-330v125l61 184h-81q-33 -146 -133.5 -237.5t-258.5 -91.5q-200 0 -312 129t-112 366v559h330v-506q0 -142 47 -201t164 -59z" />
    <glyph glyph-name="v" unicode="v" horiz-adv-x="1245" 
d="M664 82l235 952h326l-262 -1034h-678l-265 1034h326l236 -952h82z" />
    <glyph glyph-name="w" unicode="w" horiz-adv-x="1943" 
d="M164 0l-144 1034h316l131 -952h82l80 952h686l80 -952h82l133 952h313l-143 -1034h-688l-78 952h-84l-78 -952h-688z" />
    <glyph glyph-name="x" unicode="x" horiz-adv-x="1382" 
d="M453 0h-392l394 477v82l-394 475h392l237 -332l240 332h391l-393 -475v-82l393 -477h-391l-240 334z" />
    <glyph glyph-name="y" unicode="y" horiz-adv-x="1378" 
d="M739 467l226 567h372l-473 -973v-319q0 -86 -45.5 -130.5t-130.5 -41.5l-508 14v287l355 -4v194l-474 973h371l225 -567v-164h82v164z" />
    <glyph glyph-name="z" unicode="z" horiz-adv-x="1181" 
d="M1100 0h-1018v553l936 174v82l-184 -61h-752v286h1018v-553l-936 -172v-84l184 64h752v-289z" />
    <glyph glyph-name="braceleft" unicode="{" horiz-adv-x="1361" 
d="M1198 1239h-455l-186 61v-81q88 -22 148 -40.5t117 -43.5t92 -53.5t62 -67t38.5 -88t11.5 -113.5q0 -109 -72 -240q72 -131 72 -239q0 -64 -11.5 -113.5t-38.5 -88t-62 -67t-92 -53.5t-117 -43.5t-148 -40.5v-82l186 62h455v-205h-723v352q87 26 145 52t106.5 64.5
t71.5 93t23 128.5q-151 -151 -311 -151q-155 0 -250.5 88t-95.5 243q0 159 89.5 245.5t256.5 86.5q160 0 311 -151q0 74 -23 128.5t-71.5 93t-106.5 64.5t-145 52v352h723v-205zM549 426q49 0 104.5 41.5t100.5 105.5q-46 64 -101 106t-104 42q-60 0 -99.5 -38.5
t-39.5 -109.5q0 -70 39.5 -108.5t99.5 -38.5z" />
    <glyph glyph-name="bar" unicode="|" horiz-adv-x="532" 
d="M143 -303v2050h246v-2050h-246z" />
    <glyph glyph-name="braceright" unicode="}" horiz-adv-x="1320" 
d="M1178 573q0 -155 -96 -243t-253 -88q-160 0 -309 149q0 -73 23 -127t71 -92.5t106 -64.5t144 -52v-352h-721v205h455l184 -62v82q-87 22 -147 40.5t-116.5 43.5t-91.5 53.5t-62 67t-38.5 88t-11.5 113.5q0 106 70 239q-70 133 -70 240q0 64 11.5 113.5t38.5 88t62 67
t91.5 53.5t116.5 43.5t147 40.5v81l-184 -61h-455v205h721v-352q-86 -26 -144 -52t-106 -64.5t-71 -92.5t-23 -127q149 149 309 149q168 0 258.5 -86.5t90.5 -245.5zM588 573q44 -63 99 -105t104 -42q60 0 99.5 38.5t39.5 108.5q0 71 -39.5 109.5t-99.5 38.5q-49 0 -104 -42
t-99 -106z" />
    <glyph glyph-name="asciitilde" unicode="~" horiz-adv-x="1368" 
d="M389 348h-246q0 192 78.5 301t212.5 109q67 0 138 -25.5t119.5 -56.5t102 -56.5t89.5 -25.5q51 0 73.5 37.5t22.5 128.5h246q0 -194 -78 -303t-213 -109q-67 0 -138 25.5t-119.5 56.5t-102 56.5t-89.5 25.5q-51 0 -73.5 -37t-22.5 -127z" />
    <glyph glyph-name="exclamdown" unicode="&#xa1;" horiz-adv-x="739" 
d="M369 1055q100 0 163.5 -65t63.5 -163q0 -95 -63.5 -159t-163.5 -64q-102 0 -163 63.5t-61 159.5q0 99 61 163.5t163 64.5zM537 -410h-330l61 914h205z" />
    <glyph glyph-name="cent" unicode="&#xa2;" horiz-adv-x="1406" 
d="M803 967l2 -469q57 19 91 57t40 88h328q-4 -96 -41.5 -175t-100.5 -133t-143.5 -88t-173.5 -46v-504l-201 2v502q-211 30 -336 168.5t-125 363.5q0 224 124.5 362.5t332.5 166.5v485l203 -2v-481q126 -16 226.5 -69.5t165 -150t69.5 -223.5h-328q-6 50 -40.5 89t-92.5 57
zM473 733q0 -180 129 -231v461q-129 -54 -129 -230z" />
    <glyph glyph-name="sterling" unicode="&#xa3;" horiz-adv-x="1390" 
d="M1247 1135l-493 20q-55 2 -93.5 -0.5t-71 -12.5t-49 -31t-16.5 -54t16 -67t34 -56.5t51 -58.5q8 -9 12 -13h528v-205h-413q4 -32 4 -55q0 -53 -19.5 -95t-55.5 -70t-83.5 -49t-105.5 -34t-120 -23.5t-129 -19.5q-12 -1 -18 -2v-82l185 62h837v-289h-1104v430
q58 14 91 23.5t69.5 23.5t55.5 28.5t36 36.5t24 50t7 65h-283v205h170q-56 58 -87 116.5t-31 149.5q0 73 36.5 130.5t95 93t136 58t155 30t156.5 4.5l473 -21v-288z" />
    <glyph glyph-name="currency" unicode="&#xa4;" horiz-adv-x="1589" 
d="M1276 721q0 -144 -74 -264l244 -244l-143 -143l-246 245q-110 -69 -256 -69q-149 0 -264 73l-250 -249l-144 143l252 252q-69 113 -69 256t69 256l-252 252l144 143l250 -250q117 74 264 74q144 0 256 -70l246 246l143 -143l-244 -244q74 -120 74 -264zM801 492
q100 0 164.5 66.5t64.5 162.5t-64.5 162.5t-164.5 66.5t-165 -67t-65 -162t65 -162t165 -67z" />
    <glyph glyph-name="yen" unicode="&#xa5;" horiz-adv-x="1687" 
d="M1192 1444h352l-430 -787h283v-204h-389v-82h389v-205h-389v-166h-330v166h-389v205h389v82h-389v204h284l-430 787h353l305 -600v-187h82v187z" />
    <glyph glyph-name="brokenbar" unicode="&#xa6;" horiz-adv-x="532" 
d="M389 989h-246v758h246v-758zM143 455h246v-758h-246v758z" />
    <glyph glyph-name="section" unicode="&#xa7;" horiz-adv-x="1265" 
d="M143 729q0 70 47.5 128.5t151.5 82.5q-115 49 -157 102.5t-42 131.5q0 138 118.5 214t332.5 76q127 0 224 -30t154.5 -82t86 -118t28.5 -144h-327q0 58 -43 93.5t-125 35.5q-58 0 -89.5 -15.5t-31.5 -42.5q0 -12 5.5 -22.5t19.5 -20t28 -17t41 -16.5t48.5 -16t60 -18.5
t65.5 -20.5q170 -56 230 -88q130 -68 149 -181q4 -22 4 -46q0 -70 -47 -128.5t-151 -82.5q116 -49 158 -102.5t42 -131.5q0 -138 -119 -214t-333 -76q-127 0 -224 30t-155 82t-86.5 118t-28.5 144h330q0 -57 42.5 -93t123.5 -36q58 0 89.5 15.5t31.5 42.5q0 12 -5.5 22.5
t-19.5 20t-28 17t-41 16.5l-48 16t-59.5 18.5t-65.5 20.5q-170 56 -230 87q-131 68 -151 180q-4 23 -4 48zM453 764q0 -47 44 -79.5t128 -59.5q86 -29 138 -16.5t52 69.5q0 47 -42.5 76t-133.5 61q-56 21 -97.5 23t-65 -16.5t-23.5 -57.5z" />
    <glyph glyph-name="dieresis" unicode="&#xa8;" horiz-adv-x="1230" 
d="M346 1137q-98 0 -150.5 42t-52.5 121q0 78 52.5 121t150.5 43t152.5 -43t54.5 -121q0 -79 -54 -121t-153 -42zM879 1137q-98 0 -150.5 42t-52.5 121q0 78 52.5 121t150.5 43t152 -43t54 -121q0 -79 -53.5 -121t-152.5 -42z" />
    <glyph glyph-name="copyright" unicode="&#xa9;" horiz-adv-x="2328" 
d="M1163 -446q-231 0 -424.5 80.5t-323 219t-201 324.5t-71.5 397t71.5 397t201 325t323 219.5t424.5 80.5q186 0 349 -52t285 -146t210 -221t133 -281t45 -322q0 -211 -71.5 -397t-201 -324.5t-323.5 -219t-426 -80.5zM1163 -240q185 0 340.5 65.5t258.5 177t160.5 259.5
t57.5 313t-57.5 313t-160.5 260t-258.5 177.5t-340.5 65.5q-184 0 -339 -65.5t-258 -177.5t-160.5 -260t-57.5 -313t57.5 -313t160.5 -259.5t258 -177t339 -65.5zM604 578q0 168 73 290.5t199.5 184t292.5 61.5q108 0 205.5 -29t174.5 -84t124.5 -141.5t52.5 -193.5h-329
q-9 69 -70.5 114t-157.5 45q-115 0 -175 -64t-60 -183q0 -121 60 -185.5t175 -64.5q96 0 157.5 45t70.5 114h329q-5 -107 -52.5 -193.5t-124.5 -141.5t-174.5 -84t-205.5 -29q-254 0 -409.5 142.5t-155.5 396.5z" />
    <glyph glyph-name="guillemotleft" unicode="&#xab;" horiz-adv-x="1736" 
d="M494 508l485 -488l-182 -163l-654 651l654 649l182 -164zM1110 508l485 -488l-182 -163l-653 651l653 649l182 -164z" />
    <glyph glyph-name="logicalnot" unicode="&#xac;" horiz-adv-x="1392" 
d="M143 852h1106v-553h-245v305h-861v248z" />
    <glyph glyph-name="registered" unicode="&#xae;" horiz-adv-x="1501" 
d="M750 442q-112 0 -209.5 31t-170 87t-124 132t-77.5 167.5t-26 191.5q0 126 41.5 236t117.5 193t192 131t256 48q187 0 327 -83t210.5 -219.5t70.5 -305.5q0 -126 -41.5 -236.5t-117.5 -193.5t-192 -131t-257 -48zM750 608q105 0 190 35.5t140 97t84.5 141t29.5 169.5
q0 121 -50 220t-152.5 160.5t-241.5 61.5q-104 0 -189 -35.5t-140 -96.5t-84.5 -140.5t-29.5 -169.5t29.5 -170t84.5 -141t140 -96.5t189 -35.5zM641 768h-156v575h254q51 0 97 -7t94 -23.5t77 -51.5t29 -85q0 -38 -14.5 -64.5t-42 -40.5t-55 -21t-64.5 -10v-41h125
q51 0 51 -51v-180h-157v160h-238v-160zM641 1188v-105h98q40 0 59.5 1t41.5 6t30.5 16.5t8.5 30.5t-8.5 29.5t-31 15t-41 5.5t-59.5 1h-98z" />
    <glyph glyph-name="macron" unicode="&#xaf;" horiz-adv-x="1169" 
d="M143 1229v246h883v-242z" />
    <glyph glyph-name="degree" unicode="&#xb0;" horiz-adv-x="1236" 
d="M618 575q-139 0 -248.5 65t-168 173t-58.5 238q0 199 133 337t342 138q104 0 194 -38t151.5 -102t96 -151t34.5 -184q0 -199 -133.5 -337.5t-342.5 -138.5zM618 821q100 0 165 67t65 163q0 95 -65 161t-165 66t-164.5 -66t-64.5 -161q0 -96 65 -163t164 -67z" />
    <glyph glyph-name="plusminus" unicode="&#xb1;" horiz-adv-x="1392" 
d="M819 1188v-285h430v-248h-430v-286h-246v286h-430v248h430v285h246zM1249 0h-1106v246h1106v-246z" />
    <glyph glyph-name="acute" unicode="&#xb4;" horiz-adv-x="1142" 
d="M199 1137l-56 233l801 176l55 -233z" />
    <glyph glyph-name="paragraph" unicode="&#xb6;" horiz-adv-x="1525" 
d="M764 1747h246v-2050h-246v1030q-120 0 -215.5 17.5t-163 51.5t-115 79t-75 103.5t-40 121.5t-12.5 137t12.5 137t40 121.5t75 103.5t115 79t163 51.5t215.5 17.5zM1135 -303v2050h247v-2050h-247z" />
    <glyph glyph-name="periodcentered" unicode="&#xb7;" horiz-adv-x="737" 
d="M367 293q-102 0 -163 64t-61 163q0 96 61 159.5t163 63.5q100 0 163.5 -64t63.5 -159q0 -98 -63.5 -162.5t-163.5 -64.5z" />
    <glyph glyph-name="cedilla" unicode="&#xb8;" horiz-adv-x="858" 
d="M539 -82q47 0 84 -9.5t65.5 -39.5t28.5 -78q0 -42 -17 -75.5t-45 -56.5t-73 -39.5t-90.5 -26t-108 -15t-116.5 -7t-124 -1.5v184h74q148 -1 200 6.5t52 40.5q0 15 -13 25t-34 10q-55 0 -160 -37l-104 80l55 121h246l-111 -123q87 41 191 41z" />
    <glyph glyph-name="guillemotright" unicode="&#xbb;" horiz-adv-x="1736" 
d="M324 -143l-181 163l486 488l-486 485l181 164l655 -649zM940 -143l-180 163l485 488l-485 485l180 164l655 -649z" />
    <glyph glyph-name="onequarter" unicode="&#xbc;" horiz-adv-x="2451" 
d="M694 -133l695 1800l231 -90l-692 -1800zM166 995l-105 226q68 58 96.5 93.5t45 90t28.5 162.5h465v-973h-247v747l40 144h-61q-5 -78 -18 -143t-40.5 -136t-79.5 -125.5t-124 -85.5zM2011 123h-450v506q325 61 372 344h246q-10 -97 -46.5 -185.5t-103 -170t-176 -141.5
t-251.5 -87v-61l143 41h266v161h246v-161h133v-246h-133v-123h-246v123z" />
    <glyph glyph-name="onehalf" unicode="&#xbd;" horiz-adv-x="2420" 
d="M694 -133l695 1800l231 -90l-692 -1800zM166 995l-105 226q68 58 96.5 93.5t45 90t28.5 162.5h465v-973h-247v747l40 144h-61q-5 -78 -18 -143t-40.5 -136t-79.5 -125.5t-124 -85.5zM1786 559h-248q0 87 27 164t79.5 138t138.5 96.5t195 35.5q82 0 147.5 -19t108.5 -51
t71.5 -76t41 -91t12.5 -99q0 -86 -35.5 -152.5t-94 -110.5t-149.5 -76.5t-186.5 -50.5t-220.5 -31v-62l146 31h540v-205h-768v381q4 0 40.5 4.5t61.5 8.5t71.5 12t80.5 18.5t77.5 25.5t74 35t58.5 44.5t42 57t14 70.5q0 56 -35.5 93.5t-115.5 37.5q-98 0 -136 -56t-38 -173z
" />
    <glyph glyph-name="threequarters" unicode="&#xbe;" horiz-adv-x="2600" 
d="M844 -133l694 1800l231 -90l-692 -1800zM61 969h246q0 -57 14 -94.5t43.5 -56.5t63 -25.5t82.5 -6.5q85 0 126.5 24.5t41.5 92.5q0 33 -11 54.5t-33.5 31.5t-45 13.5t-56.5 3.5h-98v202h98q67 0 99.5 17.5t32.5 72.5q0 52 -36.5 72.5t-117.5 20.5q-96 0 -143.5 -28.5
t-47.5 -102.5h-245q0 159 115 247t321 88q199 0 300 -73.5t101 -186.5q0 -52 -18.5 -89t-54.5 -58.5t-73.5 -32.5t-92.5 -20v-62q37 -7 55 -11t50 -13t48.5 -18t38.5 -24.5t33 -34t19 -45t8 -59.5q0 -134 -105 -210t-309 -76q-212 0 -330.5 96.5t-118.5 290.5zM2159 123
h-451v506q326 61 373 344h248q-8 -77 -31.5 -148.5t-70 -142t-110.5 -127t-158.5 -100.5t-209.5 -66v-61l145 41h265v161h247v-161h134v-246h-134v-123h-247v123z" />
    <glyph glyph-name="questiondown" unicode="&#xbf;" horiz-adv-x="1136" 
d="M573 1055q102 0 163 -64.5t61 -163.5q0 -96 -61 -159.5t-163 -63.5q-100 0 -163.5 64t-63.5 159q0 98 63.5 163t163.5 65zM788 -72h246q0 -89 -28 -163t-84.5 -132.5t-151.5 -91.5t-221 -33q-114 0 -200 29.5t-133.5 78.5t-70 104t-22.5 116q0 68 23.5 126t61.5 100
t96 76.5t117.5 57t135.5 40.5t141.5 28.5t143.5 18.5v69l-156 -55h-467v207h705v-408q-114 -2 -210 -17t-175.5 -43.5t-124.5 -77t-45 -112.5q0 -67 50 -100t134 -33q124 0 179.5 54.5t55.5 160.5z" />
    <glyph glyph-name="Agrave" unicode="&#xc0;" horiz-adv-x="1593" 
d="M444 1956l801 -176l-55 -234l-801 176zM1552 0h-333l-129 463h-586l-129 -463h-334l416 1444h678zM754 1362l-170 -612h426l-172 612h-84z" />
    <glyph glyph-name="Aacute" unicode="&#xc1;" horiz-adv-x="1593" 
d="M1149 1956l55 -234l-801 -176l-55 234zM1552 0h-333l-129 463h-586l-129 -463h-334l416 1444h678zM754 1362l-170 -612h426l-172 612h-84z" />
    <glyph glyph-name="Acircumflex" unicode="&#xc2;" horiz-adv-x="1593" 
d="M1067 1524l-270 186l-269 -186l-174 164l443 309l444 -309zM1552 0h-333l-129 463h-586l-129 -463h-334l416 1444h678zM754 1362l-170 -612h426l-172 612h-84z" />
    <glyph glyph-name="Atilde" unicode="&#xc3;" horiz-adv-x="1593" 
d="M639 1782q-38 0 -57 -29t-19 -115h-246q0 180 80.5 286t220.5 106q52 0 97.5 -17t76.5 -41t58 -48t53.5 -41t50.5 -17q38 0 57 29t19 114h248q0 -181 -80.5 -286t-222.5 -105q-52 0 -97.5 17t-76.5 41t-58 48t-53.5 41t-50.5 17zM1552 0h-333l-129 463h-586l-129 -463
h-334l416 1444h678zM754 1362l-170 -612h426l-172 612h-84z" />
    <glyph glyph-name="Adieresis" unicode="&#xc4;" horiz-adv-x="1593" 
d="M530 1546q-98 0 -150 42t-52 122q0 78 52 121t150 43t152.5 -43t54.5 -121q0 -79 -54 -121.5t-153 -42.5zM1063 1546q-98 0 -150.5 42.5t-52.5 121.5q0 78 52.5 121t150.5 43t152.5 -43t54.5 -121q0 -79 -54 -121.5t-153 -42.5zM1552 0h-333l-129 463h-586l-129 -463
h-334l416 1444h678zM754 1362l-170 -612h426l-172 612h-84z" />
    <glyph glyph-name="Aring" unicode="&#xc5;" horiz-adv-x="1593" 
d="M795 1546q-153 0 -237.5 63.5t-84.5 188.5q0 124 85 188t237 64q153 0 239 -64t86 -188t-86 -188t-239 -64zM795 1864q-76 0 -76 -66q0 -67 76 -67q77 0 77 67q0 66 -77 66zM1552 0h-333l-129 463h-586l-129 -463h-334l416 1444h678zM754 1362l-170 -612h426l-172 612
h-84z" />
    <glyph glyph-name="AE" unicode="&#xc6;" horiz-adv-x="2263" 
d="M2181 1444v-289h-702v-289h600v-286h-600v-291h702v-289h-1032v479h-514l-246 -479h-348l743 1444h1397zM1087 1362l-305 -596h367v596h-62z" />
    <glyph glyph-name="Ccedilla" unicode="&#xc7;" horiz-adv-x="1658" 
d="M848 268q151 0 254 75.5t127 215.5h327q-29 -249 -193.5 -400.5t-428.5 -174.5l-96 -107q87 41 190 41q47 0 84 -9.5t65.5 -39.5t28.5 -78q0 -42 -17 -75.5t-45 -56.5t-72.5 -39.5t-90 -26t-108 -15t-116.5 -7t-124 -1.5v184h74q147 -1 199 6.5t52 40.5q0 15 -13 25
t-34 10q-54 0 -159 -37l-105 80l51 113q-276 44 -436 244.5t-160 486.5q0 210 88.5 377.5t259 265.5t394.5 98q301 0 490.5 -154.5t221.5 -422.5h-327q-24 139 -126.5 214t-254.5 75q-192 0 -304 -117.5t-112 -335.5q0 -220 112 -337.5t304 -117.5z" />
    <glyph glyph-name="Egrave" unicode="&#xc8;" horiz-adv-x="1234" 
d="M287 1956l800 -176l-55 -234l-801 176zM1155 0h-1032v1444h1032v-289h-702v-289h600v-286h-600v-291h702v-289z" />
    <glyph glyph-name="Eacute" unicode="&#xc9;" horiz-adv-x="1234" 
d="M246 1546l-56 234l801 176l56 -234zM1155 0h-1032v1444h1032v-289h-702v-289h600v-286h-600v-291h702v-289z" />
    <glyph glyph-name="Ecircumflex" unicode="&#xca;" horiz-adv-x="1234" 
d="M639 1997l444 -309l-174 -164l-270 186l-268 -186l-174 164zM1155 0h-1032v1444h1032v-289h-702v-289h600v-286h-600v-291h702v-289z" />
    <glyph glyph-name="Edieresis" unicode="&#xcb;" horiz-adv-x="1234" 
d="M371 1546q-98 0 -150.5 42.5t-52.5 121.5q0 78 52.5 121t150.5 43t152.5 -43t54.5 -121q0 -79 -54 -121.5t-153 -42.5zM903 1546q-98 0 -150.5 42.5t-52.5 121.5q0 78 52.5 121t150.5 43t152.5 -43t54.5 -121q0 -79 -54 -121.5t-153 -42.5zM1155 0h-1032v1444h1032v-289
h-702v-289h600v-286h-600v-291h702v-289z" />
    <glyph glyph-name="Igrave" unicode="&#xcc;" horiz-adv-x="1189" 
d="M242 1956l800 -176l-55 -234l-801 176zM1087 1444v-289h-327v-866h327v-289h-985v289h328v866h-328v289h985z" />
    <glyph glyph-name="Iacute" unicode="&#xcd;" horiz-adv-x="1189" 
d="M946 1956l55 -234l-800 -176l-56 234zM1087 1444v-289h-327v-866h327v-289h-985v289h328v866h-328v289h985z" />
    <glyph glyph-name="Icircumflex" unicode="&#xce;" horiz-adv-x="1189" 
d="M864 1524l-270 186l-268 -186l-174 164l442 309l444 -309zM1087 1444v-289h-327v-866h327v-289h-985v289h328v866h-328v289h985z" />
    <glyph glyph-name="Idieresis" unicode="&#xcf;" horiz-adv-x="1189" 
d="M326 1546q-98 0 -150.5 42.5t-52.5 121.5q0 78 52.5 121t150.5 43t152 -43t54 -121q0 -79 -53.5 -121.5t-152.5 -42.5zM858 1546q-98 0 -150.5 42.5t-52.5 121.5q0 78 52.5 121t150.5 43t152.5 -43t54.5 -121q0 -79 -54 -121.5t-153 -42.5zM1087 1444v-289h-327v-866h327
v-289h-985v289h328v866h-328v289h985z" />
    <glyph glyph-name="Eth" unicode="&#xd0;" horiz-adv-x="1710" 
d="M819 1444q90 0 166 -7t159 -27.5t148.5 -53.5t126 -88.5t101 -129.5t64.5 -179.5t24 -235.5t-24 -236t-64.5 -180t-101 -130t-126 -89t-148.5 -53.5t-159 -27.5t-166 -7h-532v625h-185v245h185v574h532zM616 289h203q44 0 75 1t70.5 4.5t67 10t59.5 18t54 28.5t45 40.5
t37.5 55.5t27 72t18 91.5t5.5 112.5q0 87 -13 154t-32.5 112t-55 77t-69.5 49t-87 26.5t-95 11.5t-107 2h-203v-285h302v-245h-302v-336z" />
    <glyph glyph-name="Ntilde" unicode="&#xd1;" 
d="M645 1638h-246q0 180 80.5 286t220.5 106q52 0 97.5 -17t76.5 -41t58 -48t53.5 -41t50.5 -17q38 0 57 29t19 114h248q0 -181 -80.5 -286t-222.5 -105q-52 0 -97.5 17t-76.5 41t-58 48t-53.5 41t-50.5 17q-38 0 -57 -29t-19 -115zM453 0h-330v1444h647l434 -1362h82
l-61 207v1155h329v-1444h-649l-432 1362h-84l64 -207v-1155z" />
    <glyph glyph-name="Ograve" unicode="&#xd2;" 
d="M487 1956l801 -176l-55 -234l-801 176zM102 723q0 157 51.5 293t145 235t233 156t308.5 57q168 0 307 -57t232.5 -156t144.5 -235t51 -293q0 -158 -51 -294t-144.5 -235.5t-232.5 -156.5t-307 -57q-169 0 -308.5 57t-233 156.5t-145 235.5t-51.5 294zM432 723
q0 -214 104 -334.5t304 -120.5t303.5 120.5t103.5 334.5q0 212 -103.5 332.5t-303.5 120.5t-304 -120.5t-104 -332.5z" />
    <glyph glyph-name="Oacute" unicode="&#xd3;" 
d="M446 1546l-55 234l801 176l55 -234zM102 723q0 157 51.5 293t145 235t233 156t308.5 57q168 0 307 -57t232.5 -156t144.5 -235t51 -293q0 -158 -51 -294t-144.5 -235.5t-232.5 -156.5t-307 -57q-169 0 -308.5 57t-233 156.5t-145 235.5t-51.5 294zM432 723
q0 -214 104 -334.5t304 -120.5t303.5 120.5t103.5 334.5q0 212 -103.5 332.5t-303.5 120.5t-304 -120.5t-104 -332.5z" />
    <glyph glyph-name="Ocircumflex" unicode="&#xd4;" 
d="M840 1997l444 -309l-174 -164l-270 186l-269 -186l-174 164zM102 723q0 157 51.5 293t145 235t233 156t308.5 57q168 0 307 -57t232.5 -156t144.5 -235t51 -293q0 -158 -51 -294t-144.5 -235.5t-232.5 -156.5t-307 -57q-169 0 -308.5 57t-233 156.5t-145 235.5t-51.5 294
zM432 723q0 -214 104 -334.5t304 -120.5t303.5 120.5t103.5 334.5q0 212 -103.5 332.5t-303.5 120.5t-304 -120.5t-104 -332.5z" />
    <glyph glyph-name="Otilde" unicode="&#xd5;" 
d="M606 1638h-246q0 180 81 286t221 106q52 0 97.5 -17t76.5 -41t57.5 -48t53 -41t50.5 -17q38 0 57 29t19 114h248q0 -181 -80.5 -286t-222.5 -105q-52 0 -97.5 17t-76.5 41t-58 48t-53.5 41t-50.5 17q-38 0 -57 -29t-19 -115zM102 723q0 157 51.5 293t145 235t233 156
t308.5 57q168 0 307 -57t232.5 -156t144.5 -235t51 -293q0 -158 -51 -294t-144.5 -235.5t-232.5 -156.5t-307 -57q-169 0 -308.5 57t-233 156.5t-145 235.5t-51.5 294zM432 723q0 -214 104 -334.5t304 -120.5t303.5 120.5t103.5 334.5q0 212 -103.5 332.5t-303.5 120.5
t-304 -120.5t-104 -332.5z" />
    <glyph glyph-name="Odieresis" unicode="&#xd6;" 
d="M571 1546q-98 0 -150 42t-52 122q0 78 52 121t150 43t152.5 -43t54.5 -121q0 -79 -54 -121.5t-153 -42.5zM1104 1546q-98 0 -150.5 42.5t-52.5 121.5q0 78 52.5 121t150.5 43t152.5 -43t54.5 -121q0 -79 -54 -121.5t-153 -42.5zM102 723q0 157 51.5 293t145 235t233 156
t308.5 57q168 0 307 -57t232.5 -156t144.5 -235t51 -293q0 -158 -51 -294t-144.5 -235.5t-232.5 -156.5t-307 -57q-169 0 -308.5 57t-233 156.5t-145 235.5t-51.5 294zM432 723q0 -214 104 -334.5t304 -120.5t303.5 120.5t103.5 334.5q0 212 -103.5 332.5t-303.5 120.5
t-304 -120.5t-104 -332.5z" />
    <glyph glyph-name="multiply" unicode="&#xd7;" horiz-adv-x="1245" 
d="M926 1010l174 -174l-303 -304l303 -305l-174 -174l-303 305l-306 -305l-174 174l306 305l-306 304l174 174l306 -303z" />
    <glyph glyph-name="Oslash" unicode="&#xd8;" 
d="M1397 1483l-94 -164q131 -100 201.5 -254.5t70.5 -341.5q0 -158 -51 -294t-144.5 -235.5t-232.5 -156.5t-307 -57q-161 0 -289 49l-98 -170l-172 100l96 166q-132 100 -203.5 255.5t-71.5 342.5q0 157 51.5 293t145 235t233 156t308.5 57q155 0 282 -47l99 168zM432 723
q0 -212 100 -330l443 766q-70 17 -135 17q-200 0 -304 -120.5t-104 -332.5zM840 268q200 0 303.5 120.5t103.5 334.5q0 212 -100 330l-447 -766q68 -19 140 -19z" />
    <glyph glyph-name="Ugrave" unicode="&#xd9;" horiz-adv-x="1470" 
d="M381 1956l801 -176l-56 -234l-800 176zM82 537v907h330v-760q0 -63 2 -105t9 -90t20.5 -78t37 -60t57.5 -46.5t82.5 -26.5t112.5 -10q56 0 100.5 7t77.5 22t57.5 34t40.5 48.5t26 59t15.5 72t7 81t1.5 92.5v760h330v-907q0 -271 -168 -414t-488 -143t-485.5 143
t-165.5 414z" />
    <glyph glyph-name="Uacute" unicode="&#xda;" horiz-adv-x="1470" 
d="M340 1546l-55 234l800 176l56 -234zM82 537v907h330v-760q0 -63 2 -105t9 -90t20.5 -78t37 -60t57.5 -46.5t82.5 -26.5t112.5 -10q56 0 100.5 7t77.5 22t57.5 34t40.5 48.5t26 59t15.5 72t7 81t1.5 92.5v760h330v-907q0 -271 -168 -414t-488 -143t-485.5 143t-165.5 414z
" />
    <glyph glyph-name="Ucircumflex" unicode="&#xdb;" horiz-adv-x="1470" 
d="M733 1997l445 -309l-174 -164l-271 186l-268 -186l-174 164zM82 537v907h330v-760q0 -63 2 -105t9 -90t20.5 -78t37 -60t57.5 -46.5t82.5 -26.5t112.5 -10q56 0 100.5 7t77.5 22t57.5 34t40.5 48.5t26 59t15.5 72t7 81t1.5 92.5v760h330v-907q0 -271 -168 -414t-488 -143
t-485.5 143t-165.5 414z" />
    <glyph glyph-name="Udieresis" unicode="&#xdc;" horiz-adv-x="1470" 
d="M465 1546q-98 0 -150.5 42.5t-52.5 121.5q0 78 52.5 121t150.5 43t152.5 -43t54.5 -121q0 -79 -54 -121.5t-153 -42.5zM997 1546q-98 0 -150 42t-52 122q0 78 52 121t150 43t152.5 -43t54.5 -121q0 -79 -54 -121.5t-153 -42.5zM82 537v907h330v-760q0 -63 2 -105t9 -90
t20.5 -78t37 -60t57.5 -46.5t82.5 -26.5t112.5 -10q56 0 100.5 7t77.5 22t57.5 34t40.5 48.5t26 59t15.5 72t7 81t1.5 92.5v760h330v-907q0 -271 -168 -414t-488 -143t-485.5 143t-165.5 414z" />
    <glyph glyph-name="Yacute" unicode="&#xdd;" horiz-adv-x="1482" 
d="M346 1546l-55 234l801 176l55 -234zM780 844l310 600h352l-537 -979v-465h-330v465l-534 979h352l305 -600v-187h82v187z" />
    <glyph glyph-name="Thorn" unicode="&#xde;" horiz-adv-x="1368" 
d="M453 1229h188q120 0 208.5 -10.5t175 -42.5t141 -86.5t87.5 -147t33 -219.5q0 -92 -17 -166t-46.5 -126.5t-76 -91t-98 -62.5t-120.5 -38t-136 -19t-151 -5h-188v-215h-330v1444h330v-215zM453 504h209h5q73 0 105.5 1.5t77 12.5t62 33.5t31 64.5t13.5 107q0 46 -7 80.5
t-16 57.5t-31.5 38.5t-39 23.5t-55 12t-63 4.5t-77.5 0.5h-5h-209v-436z" />
    <glyph glyph-name="germandbls" unicode="&#xdf;" horiz-adv-x="1382" 
d="M862 -20l-295 20v289l254 -19q104 -8 148.5 20t44.5 111q0 41 -20.5 71t-53 48t-72.5 33t-79.5 32.5t-72 40t-53 61.5t-20.5 91q0 53 21 96t50.5 70t59.5 50.5t51 48.5t21 51q0 42 -36 62t-122 20q-112 0 -173.5 -55.5t-61.5 -192.5v-928h-330v969q0 108 29 193t79 141
t122.5 92.5t154.5 52.5t180 16q123 0 218.5 -25.5t152.5 -69t86 -96.5t29 -112q0 -51 -20.5 -93.5t-50 -72.5t-59.5 -58t-50.5 -63t-20.5 -75q0 -36 20.5 -61t53 -41t71.5 -31.5t78 -38t71.5 -53.5t53 -86t20.5 -128q0 -136 -66 -226.5t-172 -126.5t-241 -27z" />
    <glyph glyph-name="agrave" unicode="&#xe0;" horiz-adv-x="1320" 
d="M283 1546l800 -176l-55 -233l-801 176zM82 283q0 137 95 215.5t319 109.5l325 45q0 133 -207 133q-98 0 -150 -38t-52 -109h-310q0 128 68 223.5t183.5 144t260.5 48.5q88 0 165.5 -16.5t146.5 -53.5t118.5 -92t78 -135.5t28.5 -179.5v-289h149v-289h-229q-73 0 -113 40
t-40 114v20l51 123h-82q-16 -70 -43.5 -123t-76 -99t-126 -70.5t-182.5 -24.5q-92 0 -162.5 22t-110 54t-64 75t-32.5 79t-8 73zM412 344q0 -41 32.5 -59.5t79.5 -18.5q135 0 216 54.5t81 148.5l-264 -37q-79 -12 -112 -29.5t-33 -58.5z" />
    <glyph glyph-name="aacute" unicode="&#xe1;" horiz-adv-x="1320" 
d="M242 1137l-56 233l801 176l55 -233zM82 283q0 137 95 215.5t319 109.5l325 45q0 133 -207 133q-98 0 -150 -38t-52 -109h-310q0 128 68 223.5t183.5 144t260.5 48.5q88 0 165.5 -16.5t146.5 -53.5t118.5 -92t78 -135.5t28.5 -179.5v-289h149v-289h-229q-73 0 -113 40
t-40 114v20l51 123h-82q-16 -70 -43.5 -123t-76 -99t-126 -70.5t-182.5 -24.5q-92 0 -162.5 22t-110 54t-64 75t-32.5 79t-8 73zM412 344q0 -41 32.5 -59.5t79.5 -18.5q135 0 216 54.5t81 148.5l-264 -37q-79 -12 -112 -29.5t-33 -58.5z" />
    <glyph glyph-name="acircumflex" unicode="&#xe2;" horiz-adv-x="1320" 
d="M635 1587l444 -309l-174 -164l-270 186l-268 -186l-174 164zM82 283q0 137 95 215.5t319 109.5l325 45q0 133 -207 133q-98 0 -150 -38t-52 -109h-310q0 128 68 223.5t183.5 144t260.5 48.5q88 0 165.5 -16.5t146.5 -53.5t118.5 -92t78 -135.5t28.5 -179.5v-289h149v-289
h-229q-73 0 -113 40t-40 114v20l51 123h-82q-16 -70 -43.5 -123t-76 -99t-126 -70.5t-182.5 -24.5q-92 0 -162.5 22t-110 54t-64 75t-32.5 79t-8 73zM412 344q0 -41 32.5 -59.5t79.5 -18.5q135 0 216 54.5t81 148.5l-264 -37q-79 -12 -112 -29.5t-33 -58.5z" />
    <glyph glyph-name="atilde" unicode="&#xe3;" horiz-adv-x="1320" 
d="M401 1229h-245q0 180 80.5 285.5t220.5 105.5q52 0 97.5 -17t76.5 -41t58 -48t53.5 -41t50.5 -17q38 0 56.5 28.5t18.5 114.5h248q0 -181 -80.5 -286t-222.5 -105q-52 0 -97.5 17t-76.5 41t-58 48t-53.5 41t-50.5 17q-38 0 -57 -29t-19 -114zM82 283q0 137 95 215.5
t319 109.5l325 45q0 133 -207 133q-98 0 -150 -38t-52 -109h-310q0 128 68 223.5t183.5 144t260.5 48.5q88 0 165.5 -16.5t146.5 -53.5t118.5 -92t78 -135.5t28.5 -179.5v-289h149v-289h-229q-73 0 -113 40t-40 114v20l51 123h-82q-16 -70 -43.5 -123t-76 -99t-126 -70.5
t-182.5 -24.5q-92 0 -162.5 22t-110 54t-64 75t-32.5 79t-8 73zM412 344q0 -41 32.5 -59.5t79.5 -18.5q135 0 216 54.5t81 148.5l-264 -37q-79 -12 -112 -29.5t-33 -58.5z" />
    <glyph glyph-name="adieresis" unicode="&#xe4;" horiz-adv-x="1320" 
d="M367 1137q-98 0 -150.5 42t-52.5 121q0 78 52.5 121t150.5 43t152 -43t54 -121q0 -79 -53.5 -121t-152.5 -42zM899 1137q-98 0 -150.5 42t-52.5 121q0 78 52.5 121t150.5 43t152.5 -43t54.5 -121q0 -79 -54 -121t-153 -42zM82 283q0 137 95 215.5t319 109.5l325 45
q0 133 -207 133q-98 0 -150 -38t-52 -109h-310q0 128 68 223.5t183.5 144t260.5 48.5q88 0 165.5 -16.5t146.5 -53.5t118.5 -92t78 -135.5t28.5 -179.5v-289h149v-289h-229q-73 0 -113 40t-40 114v20l51 123h-82q-16 -70 -43.5 -123t-76 -99t-126 -70.5t-182.5 -24.5
q-92 0 -162.5 22t-110 54t-64 75t-32.5 79t-8 73zM412 344q0 -41 32.5 -59.5t79.5 -18.5q135 0 216 54.5t81 148.5l-264 -37q-79 -12 -112 -29.5t-33 -58.5z" />
    <glyph glyph-name="aring" unicode="&#xe5;" horiz-adv-x="1320" 
d="M633 1137q-153 0 -237.5 63.5t-84.5 188.5q0 124 85 187.5t237 63.5q153 0 239 -64t86 -187q0 -124 -86 -188t-239 -64zM633 1321q78 0 78 68q0 65 -78 65q-76 0 -76 -65q0 -68 76 -68zM82 283q0 137 95 215.5t319 109.5l325 45q0 133 -207 133q-98 0 -150 -38t-52 -109
h-310q0 128 68 223.5t183.5 144t260.5 48.5q88 0 165.5 -16.5t146.5 -53.5t118.5 -92t78 -135.5t28.5 -179.5v-289h149v-289h-229q-73 0 -113 40t-40 114v20l51 123h-82q-16 -70 -43.5 -123t-76 -99t-126 -70.5t-182.5 -24.5q-92 0 -162.5 22t-110 54t-64 75t-32.5 79t-8 73
zM412 344q0 -41 32.5 -59.5t79.5 -18.5q135 0 216 54.5t81 148.5l-264 -37q-79 -12 -112 -29.5t-33 -58.5z" />
    <glyph glyph-name="ae" unicode="&#xe6;" horiz-adv-x="2134" 
d="M1722 365h330q-6 -47 -29.5 -97.5t-69.5 -102.5t-107.5 -92.5t-151.5 -66.5t-193 -26q-206 0 -341 85.5t-195 231.5h-78q-32 -142 -136 -229.5t-292 -87.5q-92 0 -162.5 22t-110 54t-64 75t-32.5 79t-8 73q0 137 95 215.5t319 109.5l325 45q0 133 -207 133
q-98 0 -150 -38t-52 -109h-310q0 128 68 223.5t183.5 144t260.5 48.5q136 0 241.5 -49t166.5 -150q71 96 185.5 147.5t258.5 51.5q246 0 397.5 -136t151.5 -368v-102h-784q0 -93 68.5 -148t201.5 -55q88 0 147 31t74 88zM1466 786q-125 0 -180 -43.5t-55 -109.5h475
q0 66 -57 109.5t-183 43.5zM524 266q135 0 216 54.5t81 148.5l-264 -37q-80 -12 -112.5 -30t-32.5 -64q0 -72 112 -72z" />
    <glyph glyph-name="ccedilla" unicode="&#xe7;" horiz-adv-x="1284" 
d="M647 268q96 0 157 45t70 115h328q-7 -185 -134 -300.5t-318 -141.5l-99 -109q87 41 191 41q47 0 84 -9.5t65.5 -39.5t28.5 -78q0 -42 -17 -75.5t-45 -56.5t-73 -39.5t-90.5 -26t-108 -15t-116.5 -7t-124 -1.5v184h74q148 -1 200 6.5t52 40.5q0 15 -13 25t-34 10
q-55 0 -160 -37l-104 80l51 113q-198 35 -314 171.5t-116 354.5q0 253 156 395t409 142q108 0 205.5 -29t174 -84t124 -142t51.5 -194h-328q-9 70 -70 115t-157 45q-115 0 -175 -64.5t-60 -183.5q0 -121 60 -185.5t175 -64.5z" />
    <glyph glyph-name="egrave" unicode="&#xe8;" horiz-adv-x="1292" 
d="M295 1546l801 -176l-56 -233l-800 176zM82 530q0 243 150 384t395 141t396 -136t151 -368v-102h-783q0 -93 68 -148t203 -55q88 0 147 31t74 88h327q-6 -47 -29 -97.5t-69 -102.5t-107 -93t-150.5 -66.5t-192.5 -25.5q-144 0 -257 44.5t-182.5 121t-105 174.5t-35.5 210z
M391 633h475q0 66 -56.5 109.5t-182.5 43.5t-181 -43t-55 -110z" />
    <glyph glyph-name="eacute" unicode="&#xe9;" horiz-adv-x="1292" 
d="M254 1137l-55 233l800 176l56 -233zM82 530q0 243 150 384t395 141t396 -136t151 -368v-102h-783q0 -93 68 -148t203 -55q88 0 147 31t74 88h327q-6 -47 -29 -97.5t-69 -102.5t-107 -93t-150.5 -66.5t-192.5 -25.5q-144 0 -257 44.5t-182.5 121t-105 174.5t-35.5 210z
M391 633h475q0 66 -56.5 109.5t-182.5 43.5t-181 -43t-55 -110z" />
    <glyph glyph-name="ecircumflex" unicode="&#xea;" horiz-adv-x="1292" 
d="M647 1587l445 -309l-174 -164l-271 186l-268 -186l-174 164zM82 530q0 243 150 384t395 141t396 -136t151 -368v-102h-783q0 -93 68 -148t203 -55q88 0 147 31t74 88h327q-6 -47 -29 -97.5t-69 -102.5t-107 -93t-150.5 -66.5t-192.5 -25.5q-144 0 -257 44.5t-182.5 121
t-105 174.5t-35.5 210zM391 633h475q0 66 -56.5 109.5t-182.5 43.5t-181 -43t-55 -110z" />
    <glyph glyph-name="edieresis" unicode="&#xeb;" horiz-adv-x="1292" 
d="M379 1137q-98 0 -150.5 42t-52.5 121q0 78 52.5 121t150.5 43t152.5 -43t54.5 -121q0 -79 -54 -121t-153 -42zM911 1137q-98 0 -150 42t-52 121q0 78 52 121t150 43t152.5 -43t54.5 -121q0 -79 -54 -121t-153 -42zM82 530q0 243 150 384t395 141t396 -136t151 -368v-102
h-783q0 -93 68 -148t203 -55q88 0 147 31t74 88h327q-6 -47 -29 -97.5t-69 -102.5t-107 -93t-150.5 -66.5t-192.5 -25.5q-144 0 -257 44.5t-182.5 121t-105 174.5t-35.5 210zM391 633h475q0 66 -56.5 109.5t-182.5 43.5t-181 -43t-55 -110z" />
    <glyph glyph-name="igrave" unicode="&#xec;" horiz-adv-x="1026" 
d="M119 1546l801 -176l-56 -233l-801 176zM985 0h-903v289h293v469l-252 -13v289l389 21q87 4 133.5 -40.5t46.5 -131.5v-594h293v-289z" />
    <glyph glyph-name="iacute" unicode="&#xed;" horiz-adv-x="1064" 
d="M137 1137l-55 233l801 176l55 -233zM1024 0h-903v289h293v469l-252 -13v289l391 21q86 4 132 -40.5t46 -131.5v-594h293v-289z" />
    <glyph glyph-name="icircumflex" unicode="&#xee;" horiz-adv-x="1058" 
d="M504 1587l444 -309l-174 -164l-270 186l-268 -186l-175 164zM1018 0h-903v289h293v469l-252 -13v289l391 21q86 4 132 -40.5t46 -131.5v-594h293v-289z" />
    <glyph glyph-name="idieresis" unicode="&#xef;" horiz-adv-x="1064" 
d="M262 1137q-98 0 -150.5 42t-52.5 121q0 78 52.5 121t150.5 43t152.5 -43t54.5 -121q0 -79 -54 -121t-153 -42zM795 1137q-98 0 -150.5 42t-52.5 121q0 78 52.5 121t150.5 43t152 -43t54 -121q0 -79 -53.5 -121t-152.5 -42zM1024 0h-903v289h293v469l-252 -13v289l391 21
q86 4 132 -40.5t46 -131.5v-594h293v-289z" />
    <glyph glyph-name="eth" unicode="&#xf0;" horiz-adv-x="1439" 
d="M1221 1464l-177 -112q316 -244 316 -699q0 -315 -173.5 -494t-473.5 -179q-288 0 -459.5 149.5t-171.5 386.5q0 112 39.5 210.5t111.5 171.5t180.5 115t239.5 42q224 0 349 -132.5t145 -353.5h82l-62 185q-20 161 -110.5 268.5t-251.5 173.5l-170 -109l-219 97l135 86
q-81 18 -207 35v286q295 -31 508 -127l149 97zM721 268q153 0 231 64.5t78 183.5q0 133 -75.5 191.5t-233.5 58.5t-233.5 -58.5t-75.5 -191.5q0 -119 78 -183.5t231 -64.5z" />
    <glyph glyph-name="ntilde" unicode="&#xf1;" horiz-adv-x="1390" 
d="M502 1229h-246q0 180 80.5 285.5t220.5 105.5q52 0 97.5 -17t76.5 -41t58 -48t53.5 -41t50.5 -17q38 0 57 29t19 114h248q0 -181 -81 -286t-223 -105q-52 0 -97.5 17t-76.5 41t-57.5 48t-53 41t-50.5 17q-38 0 -57 -29t-19 -114zM745 766q-69 0 -120.5 -19.5t-91 -62.5
t-60 -118.5t-20.5 -182.5v-383h-330v1034h330v-125l-64 -184h84q33 147 133 238.5t258 91.5q200 0 312 -129.5t112 -366.5v-559h-330v508q0 141 -47.5 199.5t-165.5 58.5z" />
    <glyph glyph-name="ograve" unicode="&#xf2;" horiz-adv-x="1329" 
d="M313 1546l801 -176l-55 -233l-801 176zM82 518q0 132 45 235.5t125 168.5t185 99t229 34q123 0 227.5 -34t184 -99t124.5 -168.5t45 -235.5t-45 -236t-124.5 -169.5t-184 -99t-227.5 -33.5q-124 0 -229 33.5t-185 99t-125 169.5t-45 236zM412 518q0 -127 66.5 -188.5
t187.5 -61.5q120 0 187 62t67 188q0 125 -67 186.5t-187 61.5q-121 0 -187.5 -61.5t-66.5 -186.5z" />
    <glyph glyph-name="oacute" unicode="&#xf3;" horiz-adv-x="1329" 
d="M272 1137l-55 233l801 176l55 -233zM82 518q0 132 45 235.5t125 168.5t185 99t229 34q123 0 227.5 -34t184 -99t124.5 -168.5t45 -235.5t-45 -236t-124.5 -169.5t-184 -99t-227.5 -33.5q-124 0 -229 33.5t-185 99t-125 169.5t-45 236zM412 518q0 -127 66.5 -188.5
t187.5 -61.5q120 0 187 62t67 188q0 125 -67 186.5t-187 61.5q-121 0 -187.5 -61.5t-66.5 -186.5z" />
    <glyph glyph-name="ocircumflex" unicode="&#xf4;" horiz-adv-x="1329" 
d="M666 1587l444 -309l-174 -164l-270 186l-269 -186l-174 164zM82 518q0 132 45 235.5t125 168.5t185 99t229 34q123 0 227.5 -34t184 -99t124.5 -168.5t45 -235.5t-45 -236t-124.5 -169.5t-184 -99t-227.5 -33.5q-124 0 -229 33.5t-185 99t-125 169.5t-45 236zM412 518
q0 -127 66.5 -188.5t187.5 -61.5q120 0 187 62t67 188q0 125 -67 186.5t-187 61.5q-121 0 -187.5 -61.5t-66.5 -186.5z" />
    <glyph glyph-name="otilde" unicode="&#xf5;" horiz-adv-x="1329" 
d="M432 1229h-246q0 180 80.5 285.5t220.5 105.5q52 0 97.5 -17t76.5 -41t58 -48t53.5 -41t50.5 -17q38 0 57 29t19 114h248q0 -181 -80.5 -286t-222.5 -105q-52 0 -97.5 17t-76.5 41t-58 48t-53.5 41t-50.5 17q-38 0 -57 -29t-19 -114zM82 518q0 132 45 235.5t125 168.5
t185 99t229 34q123 0 227.5 -34t184 -99t124.5 -168.5t45 -235.5t-45 -236t-124.5 -169.5t-184 -99t-227.5 -33.5q-124 0 -229 33.5t-185 99t-125 169.5t-45 236zM412 518q0 -127 66.5 -188.5t187.5 -61.5q120 0 187 62t67 188q0 125 -67 186.5t-187 61.5
q-121 0 -187.5 -61.5t-66.5 -186.5z" />
    <glyph glyph-name="odieresis" unicode="&#xf6;" horiz-adv-x="1329" 
d="M397 1137q-98 0 -150 42t-52 121q0 78 52 121t150 43t152.5 -43t54.5 -121q0 -79 -54 -121t-153 -42zM930 1137q-98 0 -150.5 42t-52.5 121q0 78 52.5 121t150.5 43t152.5 -43t54.5 -121q0 -79 -54 -121t-153 -42zM82 518q0 132 45 235.5t125 168.5t185 99t229 34
q123 0 227.5 -34t184 -99t124.5 -168.5t45 -235.5t-45 -236t-124.5 -169.5t-184 -99t-227.5 -33.5q-124 0 -229 33.5t-185 99t-125 169.5t-45 236zM412 518q0 -127 66.5 -188.5t187.5 -61.5q120 0 187 62t67 188q0 125 -67 186.5t-187 61.5q-121 0 -187.5 -61.5
t-66.5 -186.5z" />
    <glyph glyph-name="divide" unicode="&#xf7;" horiz-adv-x="1392" 
d="M694 758q-102 0 -162.5 64t-60.5 163q0 96 60.5 159.5t162.5 63.5q100 0 165 -64t65 -159q0 -97 -65 -162t-165 -65zM143 428v246h1106v-246h-1106zM694 -102q-102 0 -162.5 64t-60.5 163q0 96 60.5 159.5t162.5 63.5q100 0 165 -64t65 -159q0 -97 -65 -162t-165 -65z
" />
    <glyph glyph-name="oslash" unicode="&#xf8;" horiz-adv-x="1329" 
d="M1090 1053l-56 -97q213 -140 213 -436q0 -132 -45 -236t-124.5 -169.5t-184 -99t-227.5 -33.5q-106 0 -187 20l-67 -115l-172 97l57 98q-215 142 -215 438q0 132 45 235.5t125 168.5t185 99t229 34q98 0 180 -21l67 117zM412 520q0 -100 43 -162l235 410h-24
q-121 0 -187.5 -61.5t-66.5 -186.5zM666 270q120 0 187 62t67 188q0 100 -46 162l-239 -410q10 -2 31 -2z" />
    <glyph glyph-name="ugrave" unicode="&#xf9;" horiz-adv-x="1370" 
d="M332 1546l801 -176l-56 -233l-801 176zM643 268q143 0 219 87.5t76 295.5v383h330v-1034h-330v125l61 184h-81q-33 -146 -133.5 -237.5t-258.5 -91.5q-200 0 -312 129t-112 366v559h330v-506q0 -142 47 -201t164 -59z" />
    <glyph glyph-name="uacute" unicode="&#xfa;" horiz-adv-x="1370" 
d="M291 1137l-55 233l800 176l56 -233zM643 268q143 0 219 87.5t76 295.5v383h330v-1034h-330v125l61 184h-81q-33 -146 -133.5 -237.5t-258.5 -91.5q-200 0 -312 129t-112 366v559h330v-506q0 -142 47 -201t164 -59z" />
    <glyph glyph-name="ucircumflex" unicode="&#xfb;" horiz-adv-x="1370" 
d="M684 1587l444 -309l-174 -164l-270 186l-268 -186l-174 164zM643 268q143 0 219 87.5t76 295.5v383h330v-1034h-330v125l61 184h-81q-33 -146 -133.5 -237.5t-258.5 -91.5q-200 0 -312 129t-112 366v559h330v-506q0 -142 47 -201t164 -59z" />
    <glyph glyph-name="udieresis" unicode="&#xfc;" horiz-adv-x="1370" 
d="M416 1137q-98 0 -150.5 42t-52.5 121q0 78 52.5 121t150.5 43t152.5 -43t54.5 -121q0 -79 -54 -121t-153 -42zM948 1137q-98 0 -150.5 42t-52.5 121q0 78 52.5 121t150.5 43t152.5 -43t54.5 -121q0 -79 -54 -121t-153 -42zM643 268q143 0 219 87.5t76 295.5v383h330
v-1034h-330v125l61 184h-81q-33 -146 -133.5 -237.5t-258.5 -91.5q-200 0 -312 129t-112 366v559h330v-506q0 -142 47 -201t164 -59z" />
    <glyph glyph-name="yacute" unicode="&#xfd;" horiz-adv-x="1378" 
d="M1051 1546l55 -233l-801 -176l-55 233zM739 467l226 567h372l-473 -973v-319q0 -86 -45.5 -130.5t-130.5 -41.5l-508 14v287l355 -4v194l-474 973h371l225 -567v-164h82v164z" />
    <glyph glyph-name="thorn" unicode="&#xfe;" horiz-adv-x="1409" 
d="M881 1055q144 0 247 -74.5t151 -194.5t48 -270q0 -112 -28 -208t-82 -169.5t-140.5 -116t-195.5 -42.5q-75 0 -136.5 15t-103.5 39.5t-76 60.5t-54.5 72t-37.5 81h-84l64 -185v-452h-330v1894h330v-534l-64 -185h84q17 45 37.5 81t54.5 72.5t76 60.5t103.5 39.5
t136.5 15.5zM725 268q136 0 205 59.5t69 188.5q0 250 -274 250q-135 0 -203.5 -60.5t-68.5 -189.5t68.5 -188.5t203.5 -59.5z" />
    <glyph glyph-name="ydieresis" unicode="&#xff;" horiz-adv-x="1378" 
d="M432 1137q-98 0 -150.5 42t-52.5 121q0 78 52.5 121t150.5 43t152.5 -43t54.5 -121q0 -79 -54 -121t-153 -42zM965 1137q-98 0 -150.5 42t-52.5 121q0 78 52.5 121t150.5 43t152 -43t54 -121q0 -79 -53.5 -121t-152.5 -42zM739 467l226 567h372l-473 -973v-319
q0 -86 -45.5 -130.5t-130.5 -41.5l-508 14v287l355 -4v194l-474 973h371l225 -567v-164h82v164z" />
    <glyph glyph-name="Amacron" unicode="&#x100;" horiz-adv-x="1593" 
d="M356 1884h883v-242l-883 -4v246zM1552 0h-333l-129 463h-586l-129 -463h-334l416 1444h678zM754 1362l-170 -612h426l-172 612h-84z" />
    <glyph glyph-name="amacron" unicode="&#x101;" horiz-adv-x="1320" 
d="M195 1229v246h882v-242zM82 283q0 137 95 215.5t319 109.5l325 45q0 133 -207 133q-98 0 -150 -38t-52 -109h-310q0 128 68 223.5t183.5 144t260.5 48.5q88 0 165.5 -16.5t146.5 -53.5t118.5 -92t78 -135.5t28.5 -179.5v-289h149v-289h-229q-73 0 -113 40t-40 114v20
l51 123h-82q-16 -70 -43.5 -123t-76 -99t-126 -70.5t-182.5 -24.5q-92 0 -162.5 22t-110 54t-64 75t-32.5 79t-8 73zM412 344q0 -41 32.5 -59.5t79.5 -18.5q135 0 216 54.5t81 148.5l-264 -37q-79 -12 -112 -29.5t-33 -58.5z" />
    <glyph glyph-name="Abreve" unicode="&#x102;" horiz-adv-x="1593" 
d="M797 1546q-100 0 -174.5 34t-117 92.5t-63 129t-20.5 152.5h246q0 -102 32.5 -142t96.5 -40t96.5 40t32.5 142h245q0 -65 -12 -123t-40.5 -111t-70.5 -91t-106.5 -60.5t-144.5 -22.5zM1552 0h-333l-129 463h-586l-129 -463h-334l416 1444h678zM754 1362l-170 -612h426
l-172 612h-84z" />
    <glyph glyph-name="abreve" unicode="&#x103;" horiz-adv-x="1320" 
d="M764 1544h246q0 -82 -20.5 -152.5t-63 -129t-117 -92t-174.5 -33.5t-174.5 33.5t-117 92t-63 129t-20.5 152.5h246q0 -102 32.5 -142t96.5 -40t96.5 40t32.5 142zM82 283q0 137 95 215.5t319 109.5l325 45q0 133 -207 133q-98 0 -150 -38t-52 -109h-310q0 128 68 223.5
t183.5 144t260.5 48.5q88 0 165.5 -16.5t146.5 -53.5t118.5 -92t78 -135.5t28.5 -179.5v-289h149v-289h-229q-73 0 -113 40t-40 114v20l51 123h-82q-16 -70 -43.5 -123t-76 -99t-126 -70.5t-182.5 -24.5q-92 0 -162.5 22t-110 54t-64 75t-32.5 79t-8 73zM412 344
q0 -41 32.5 -59.5t79.5 -18.5q135 0 216 54.5t81 148.5l-264 -37q-79 -12 -112 -29.5t-33 -58.5z" />
    <glyph glyph-name="Aogonek" unicode="&#x104;" horiz-adv-x="1593" 
d="M1552 0l-75 -162l276 29v-246l-379 -31q-53 -4 -98 14.5t-68.5 51t-29 73t21.5 78.5l125 193h-106l-129 463h-586l-129 -463h-334l416 1444h678l417 -1442v-2zM754 1362l-170 -612h426l-172 612h-84z" />
    <glyph glyph-name="aogonek" unicode="&#x105;" horiz-adv-x="1320" 
d="M1298 0l-75 -162l276 29v-246l-379 -31q-53 -4 -98 14.5t-68.5 51t-29 73t21.5 78.5l125 193q-73 0 -113 40t-40 114v20l51 123h-82q-16 -70 -43.5 -123t-76 -99t-126 -70.5t-182.5 -24.5q-92 0 -162.5 22t-110 54t-64 75t-32.5 79t-8 73q0 137 95 215.5t319 109.5
l325 45q0 133 -207 133q-98 0 -150 -38t-52 -109h-310q0 128 68 223.5t183.5 144t260.5 48.5q88 0 165.5 -16.5t146.5 -53.5t118.5 -92t78 -135.5t28.5 -179.5v-289h149v-289h-2zM524 266q135 0 216 54.5t81 148.5l-264 -37q-79 -12 -112 -29.5t-33 -58.5t32.5 -59.5
t79.5 -18.5z" />
    <glyph glyph-name="Cacute" unicode="&#x106;" horiz-adv-x="1658" 
d="M446 1546l-55 234l801 176l55 -234zM102 723q0 210 88.5 377.5t259 265.5t394.5 98q301 0 490.5 -154.5t221.5 -422.5h-327q-24 139 -126.5 214t-254.5 75q-192 0 -304 -117.5t-112 -335.5q0 -220 112 -337.5t304 -117.5q151 0 254 75.5t127 215.5h327
q-32 -269 -221.5 -424t-490.5 -155q-169 0 -309 57t-234.5 156.5t-146.5 235.5t-52 294z" />
    <glyph glyph-name="cacute" unicode="&#x107;" horiz-adv-x="1284" 
d="M254 1137l-55 233l800 176l56 -233zM82 518q0 253 156 395t409 142q108 0 205.5 -29t174 -84t124 -142t51.5 -194h-328q-9 70 -70 115t-157 45q-115 0 -175 -64.5t-60 -183.5q0 -121 60 -185.5t175 -64.5q96 0 157 45t70 115h328q-4 -107 -51.5 -193.5t-124 -141.5
t-174 -84t-205.5 -29q-166 0 -292.5 61.5t-199.5 184.5t-73 292z" />
    <glyph glyph-name="Cdotaccent" unicode="&#x10a;" horiz-adv-x="1658" 
d="M838 1546q-98 0 -150.5 42.5t-52.5 121.5q0 78 52.5 121t150.5 43t152 -43t54 -121q0 -79 -53.5 -121.5t-152.5 -42.5zM102 723q0 210 88.5 377.5t259 265.5t394.5 98q301 0 490.5 -154.5t221.5 -422.5h-327q-24 139 -126.5 214t-254.5 75q-192 0 -304 -117.5
t-112 -335.5q0 -220 112 -337.5t304 -117.5q151 0 254 75.5t127 215.5h327q-32 -269 -221.5 -424t-490.5 -155q-169 0 -309 57t-234.5 156.5t-146.5 235.5t-52 294z" />
    <glyph glyph-name="cdotaccent" unicode="&#x10b;" horiz-adv-x="1284" 
d="M645 1137q-98 0 -150.5 42t-52.5 121q0 78 52.5 121t150.5 43t152.5 -43t54.5 -121q0 -79 -54 -121t-153 -42zM82 518q0 253 156 395t409 142q108 0 205.5 -29t174 -84t124 -142t51.5 -194h-328q-9 70 -70 115t-157 45q-115 0 -175 -64.5t-60 -183.5q0 -121 60 -185.5
t175 -64.5q96 0 157 45t70 115h328q-4 -107 -51.5 -193.5t-124 -141.5t-174 -84t-205.5 -29q-166 0 -292.5 61.5t-199.5 184.5t-73 292z" />
    <glyph glyph-name="Ccaron" unicode="&#x10c;" horiz-adv-x="1658" 
d="M1110 2009l174 -164l-444 -309l-443 309l174 164l269 -186zM102 723q0 210 88.5 377.5t259 265.5t394.5 98q301 0 490.5 -154.5t221.5 -422.5h-327q-24 139 -126.5 214t-254.5 75q-192 0 -304 -117.5t-112 -335.5q0 -220 112 -337.5t304 -117.5q151 0 254 75.5t127 215.5
h327q-32 -269 -221.5 -424t-490.5 -155q-169 0 -309 57t-234.5 156.5t-146.5 235.5t-52 294z" />
    <glyph glyph-name="ccaron" unicode="&#x10d;" horiz-adv-x="1284" 
d="M918 1599l174 -163l-445 -310l-442 310l174 163l268 -186zM82 518q0 253 156 395t409 142q108 0 205.5 -29t174 -84t124 -142t51.5 -194h-328q-9 70 -70 115t-157 45q-115 0 -175 -64.5t-60 -183.5q0 -121 60 -185.5t175 -64.5q96 0 157 45t70 115h328
q-4 -107 -51.5 -193.5t-124 -141.5t-174 -84t-205.5 -29q-166 0 -292.5 61.5t-199.5 184.5t-73 292z" />
    <glyph glyph-name="Dcaron" unicode="&#x10e;" horiz-adv-x="1544" 
d="M911 2009l174 -164l-444 -309l-442 309l174 164l268 -186zM655 1444q89 0 165 -7t159 -27.5t148.5 -53.5t126.5 -88.5t101.5 -129.5t64.5 -179.5t24 -235.5t-24 -236t-64.5 -180t-101.5 -130t-126.5 -89t-148.5 -53.5t-159 -27.5t-165 -7h-532v1444h532zM453 289h202
q44 0 75 1t70.5 4.5t67 10t59.5 18t54 28.5t45 40.5t37.5 55.5t27 72t18 91.5t5.5 112.5q0 87 -13 154t-32.5 112t-55 77t-69.5 49t-87 26.5t-95 11.5t-107 2h-202v-866z" />
    <glyph glyph-name="dcaron" unicode="&#x10f;" horiz-adv-x="1779" 
d="M1473 932v655h245v-655h-245zM1286 1505v-1505h-328v63l62 185h-82q-17 -45 -38 -81t-55 -72t-76 -60.5t-103.5 -39.5t-135.5 -15q-109 0 -195.5 42.5t-141 117t-83 171t-28.5 207.5q0 150 48.5 269.5t152 193.5t247.5 74q92 0 163.5 -22t118 -62t75.5 -84t51 -101h82
l-62 185v534h328zM958 518q0 248 -274 248q-135 0 -203.5 -60t-68.5 -188q0 -250 272 -250q274 0 274 250z" />
    <glyph glyph-name="Dcroat" unicode="&#x110;" horiz-adv-x="1710" 
d="M819 1444q90 0 166 -7t159 -27.5t148.5 -53.5t126 -88.5t101 -129.5t64.5 -179.5t24 -235.5t-24 -236t-64.5 -180t-101 -130t-126 -89t-148.5 -53.5t-159 -27.5t-166 -7h-532v625h-185v245h185v574h532zM616 289h203q44 0 75 1t70.5 4.5t67 10t59.5 18t54 28.5t45 40.5
t37.5 55.5t27 72t18 91.5t5.5 112.5q0 87 -13 154t-32.5 112t-55 77t-69.5 49t-87 26.5t-95 11.5t-107 2h-203v-285h302v-245h-302v-336z" />
    <glyph glyph-name="dcroat" unicode="&#x111;" horiz-adv-x="1470" 
d="M1286 1407h123v-246h-123v-1161h-328v63l62 185h-82q-17 -45 -38 -81t-55 -72t-76 -60.5t-103.5 -39.5t-135.5 -15q-109 0 -195.5 42.5t-141 117t-83 171t-28.5 207.5q0 150 48.5 269.5t152 193.5t247.5 74q92 0 163.5 -22t118 -62t75.5 -84t51 -101h82l-62 185v190h-286
v246h286v98h328v-98zM684 268q274 0 274 250q0 248 -274 248q-135 0 -203.5 -60t-68.5 -188q0 -250 272 -250z" />
    <glyph glyph-name="Emacron" unicode="&#x112;" horiz-adv-x="1234" 
d="M199 1638v246h882v-242zM1155 0h-1032v1444h1032v-289h-702v-289h600v-286h-600v-291h702v-289z" />
    <glyph glyph-name="emacron" unicode="&#x113;" horiz-adv-x="1292" 
d="M207 1229v246h883v-242zM82 530q0 243 150 384t395 141t396 -136t151 -368v-102h-783q0 -93 68 -148t203 -55q88 0 147 31t74 88h327q-6 -47 -29 -97.5t-69 -102.5t-107 -93t-150.5 -66.5t-192.5 -25.5q-144 0 -257 44.5t-182.5 121t-105 174.5t-35.5 210zM391 633h475
q0 66 -56.5 109.5t-182.5 43.5t-181 -43t-55 -110z" />
    <glyph glyph-name="Edotaccent" unicode="&#x116;" horiz-adv-x="1234" 
d="M637 1546q-98 0 -150.5 42.5t-52.5 121.5q0 78 52.5 121t150.5 43t152.5 -43t54.5 -121q0 -79 -54 -121.5t-153 -42.5zM1155 0h-1032v1444h1032v-289h-702v-289h600v-286h-600v-291h702v-289z" />
    <glyph glyph-name="edotaccent" unicode="&#x117;" horiz-adv-x="1292" 
d="M645 1137q-98 0 -150.5 42t-52.5 121q0 78 52.5 121t150.5 43t152.5 -43t54.5 -121q0 -79 -54 -121t-153 -42zM82 530q0 243 150 384t395 141t396 -136t151 -368v-102h-783q0 -93 68 -148t203 -55q88 0 147 31t74 88h327q-6 -47 -29 -97.5t-69 -102.5t-107 -93
t-150.5 -66.5t-192.5 -25.5q-144 0 -257 44.5t-182.5 121t-105 174.5t-35.5 210zM391 633h475q0 66 -56.5 109.5t-182.5 43.5t-181 -43t-55 -110z" />
    <glyph glyph-name="Eogonek" unicode="&#x118;" horiz-adv-x="1234" 
d="M1155 1444v-289h-702v-289h600v-286h-600v-291h702v-289h-223l-76 -162l277 29v-246l-379 -31q-53 -4 -98 14.5t-68.5 51t-29 73t21.5 78.5l125 193h-582v1444h1032z" />
    <glyph glyph-name="eogonek" unicode="&#x119;" horiz-adv-x="1292" 
d="M883 365h327q-12 -107 -112 -216.5t-269 -150.5l-73 -160l276 29v-246l-379 -31q-53 -4 -98 14.5t-68.5 51t-29 73t21.5 78.5l115 175q-127 11 -227 59t-161 123t-92.5 167.5t-31.5 198.5q0 243 150 384t395 141t396 -136t151 -368v-102h-783q0 -93 68 -148t203 -55
q88 0 147 31t74 88zM627 786q-126 0 -181 -43t-55 -110h475q0 66 -56.5 109.5t-182.5 43.5z" />
    <glyph glyph-name="Ecaron" unicode="&#x11a;" horiz-adv-x="1234" 
d="M909 2009l174 -164l-444 -309l-442 309l174 164l268 -186zM1155 0h-1032v1444h1032v-289h-702v-289h600v-286h-600v-291h702v-289z" />
    <glyph glyph-name="ecaron" unicode="&#x11b;" horiz-adv-x="1292" 
d="M918 1599l174 -163l-445 -310l-442 310l174 163l268 -186zM82 530q0 243 150 384t395 141t396 -136t151 -368v-102h-783q0 -93 68 -148t203 -55q88 0 147 31t74 88h327q-6 -47 -29 -97.5t-69 -102.5t-107 -93t-150.5 -66.5t-192.5 -25.5q-144 0 -257 44.5t-182.5 121
t-105 174.5t-35.5 210zM391 633h475q0 66 -56.5 109.5t-182.5 43.5t-181 -43t-55 -110z" />
    <glyph glyph-name="Gbreve" unicode="&#x11e;" horiz-adv-x="1822" 
d="M958 1954h246q0 -82 -20.5 -152.5t-63 -129t-117 -92.5t-174.5 -34q-80 0 -144.5 22.5t-106.5 60.5t-70.5 91t-40.5 111t-12 123h245q0 -102 32.5 -142t96.5 -40t96.5 40t32.5 142zM102 723q0 216 94.5 386t260 262.5t372.5 92.5q271 0 463 -150t224 -386h-328
q-25 128 -111 188t-248 60q-397 0 -397 -453q0 -237 86.5 -346t265.5 -109q151 0 235.5 74t84.5 217h-334v246h756q85 0 129.5 -44.5t44.5 -129.5v-631h-330v498l62 225h-82q-2 -351 -145.5 -547t-432.5 -196q-212 0 -364.5 94t-229 260.5t-76.5 388.5z" />
    <glyph glyph-name="gbreve" unicode="&#x11f;" horiz-adv-x="1445" 
d="M686 1137q-100 0 -174.5 33.5t-117 92t-63 129t-20.5 152.5h246q0 -102 32.5 -142t96.5 -40t96.5 40t32.5 142h246q0 -82 -20.5 -152.5t-63 -129t-117 -92t-174.5 -33.5zM1337 1034h90v-289h-69q-67 0 -96 -16q10 -14 19 -47.5t9 -71.5q0 -139 -120 -237.5t-347 -175.5
q92 6 170 -5t144 -40.5t103.5 -86t37.5 -135.5q0 -46 -10.5 -84t-33.5 -68.5t-54 -55t-78.5 -43.5t-99 -33t-124 -24t-145.5 -16t-171 -9.5t-193 -5t-219 -1.5v289q503 0 635 16q125 16 151 60q10 18 10 45q0 35 -25.5 57t-77 29t-106.5 7t-139.5 -10.5t-147.5 -20
t-157 -25.5q-24 -4 -35 -6l-35 186q426 41 639 92v82q-144 -51 -282 -63t-249.5 15t-180 106t-68.5 202q0 99 45 177.5t125 127t185 74t229 25.5q258 0 409 -111q41 54 108 72t154 18zM686 496q144 0 209.5 33.5t65.5 101.5q0 137 -275 137q-274 0 -274 -137
q0 -68 65 -101.5t209 -33.5z" />
    <glyph glyph-name="Gdotaccent" unicode="&#x120;" horiz-adv-x="1822" 
d="M827 1546q-98 0 -150 42t-52 122q0 78 52 121t150 43t152.5 -43t54.5 -121q0 -79 -54 -121.5t-153 -42.5zM102 723q0 216 94.5 386t260 262.5t372.5 92.5q271 0 463 -150t224 -386h-328q-25 128 -111 188t-248 60q-397 0 -397 -453q0 -237 86.5 -346t265.5 -109
q151 0 235.5 74t84.5 217h-334v246h756q85 0 129.5 -44.5t44.5 -129.5v-631h-330v498l62 225h-82q-2 -351 -145.5 -547t-432.5 -196q-212 0 -364.5 94t-229 260.5t-76.5 388.5z" />
    <glyph glyph-name="gdotaccent" unicode="&#x121;" horiz-adv-x="1445" 
d="M684 1137q-98 0 -150.5 42t-52.5 121q0 78 52.5 121t150.5 43t152.5 -43t54.5 -121q0 -79 -54 -121t-153 -42zM1337 1034h90v-289h-69q-67 0 -96 -16q10 -14 19 -47.5t9 -71.5q0 -139 -120 -237.5t-347 -175.5q92 6 170 -5t144 -40.5t103.5 -86t37.5 -135.5
q0 -46 -10.5 -84t-33.5 -68.5t-54 -55t-78.5 -43.5t-99 -33t-124 -24t-145.5 -16t-171 -9.5t-193 -5t-219 -1.5v289q503 0 635 16q125 16 151 60q10 18 10 45q0 35 -25.5 57t-77 29t-106.5 7t-139.5 -10.5t-147.5 -20t-157 -25.5q-24 -4 -35 -6l-35 186q426 41 639 92v82
q-144 -51 -282 -63t-249.5 15t-180 106t-68.5 202q0 99 45 177.5t125 127t185 74t229 25.5q258 0 409 -111q41 54 108 72t154 18zM686 496q144 0 209.5 33.5t65.5 101.5q0 137 -275 137q-274 0 -274 -137q0 -68 65 -101.5t209 -33.5z" />
    <glyph glyph-name="uni0122" unicode="&#x122;" horiz-adv-x="1822" 
d="M102 723q0 216 94.5 386t260 262.5t372.5 92.5q271 0 463 -150t224 -386h-328q-25 128 -111 188t-248 60q-397 0 -397 -453q0 -237 86.5 -346t265.5 -109q151 0 235.5 74t84.5 217h-334v246h756q85 0 129.5 -44.5t44.5 -129.5v-631h-330v498l62 225h-82
q-2 -351 -145.5 -547t-432.5 -196q-212 0 -364.5 94t-229 260.5t-76.5 388.5zM522 -451l127 351l234 -76l-127 -350z" />
    <glyph glyph-name="uni0123" unicode="&#x123;" horiz-adv-x="1445" 
d="M694 1645l240 -64l-152 -444l-237 63zM1337 1034h90v-289h-69q-67 0 -96 -16q10 -14 19 -47.5t9 -71.5q0 -139 -120 -237.5t-347 -175.5q92 6 170 -5t144 -40.5t103.5 -86t37.5 -135.5q0 -46 -10.5 -84t-33.5 -68.5t-54 -55t-78.5 -43.5t-99 -33t-124 -24t-145.5 -16
t-171 -9.5t-193 -5t-219 -1.5v289q503 0 635 16q125 16 151 60q10 18 10 45q0 35 -25.5 57t-77 29t-106.5 7t-139.5 -10.5t-147.5 -20t-157 -25.5q-24 -4 -35 -6l-35 186q426 41 639 92v82q-144 -51 -282 -63t-249.5 15t-180 106t-68.5 202q0 99 45 177.5t125 127t185 74
t229 25.5q258 0 409 -111q41 54 108 72t154 18zM686 496q144 0 209.5 33.5t65.5 101.5q0 137 -275 137q-274 0 -274 -137q0 -68 65 -101.5t209 -33.5z" />
    <glyph glyph-name="Hbar" unicode="&#x126;" horiz-adv-x="1751" 
d="M1567 1280h123v-246h-123v-1034h-330v559h-723v-559h-330v1034h-123v246h123v164h330v-164h723v164h330v-164zM514 846h723v188h-723v-188z" />
    <glyph glyph-name="hbar" unicode="&#x127;" horiz-adv-x="1472" 
d="M946 1055q200 0 312 -129.5t112 -366.5v-559h-330v508q0 141 -47.5 199.5t-165.5 58.5q-69 0 -120.5 -19.5t-91 -62.5t-60 -118.5t-20.5 -182.5v-383h-330v1161h-123v246h123v98h330v-98h286v-246h-286v-252l-62 -184h82q33 147 133 238.5t258 91.5z" />
    <glyph glyph-name="Imacron" unicode="&#x12a;" horiz-adv-x="1189" 
d="M154 1884h882v-242l-882 -4v246zM1087 1444v-289h-327v-866h327v-289h-985v289h328v866h-328v289h985z" />
    <glyph glyph-name="imacron" unicode="&#x12b;" horiz-adv-x="1056" 
d="M82 1229v246h883v-242zM1016 0h-903v289h293v469l-252 -13v289l391 21q86 4 132 -40.5t46 -131.5v-594h293v-289z" />
    <glyph glyph-name="Iogonek" unicode="&#x12e;" horiz-adv-x="1189" 
d="M1087 1444v-289h-327v-866h327v-289h-204l-76 -162l276 29v-246l-378 -31q-53 -4 -98.5 14.5t-69 51t-29 73t21.5 78.5l125 193h-553v289h328v866h-328v289h985z" />
    <glyph glyph-name="iogonek" unicode="&#x12f;" horiz-adv-x="1026" 
d="M469 1137q-98 0 -150.5 42t-52.5 121q0 78 52.5 121t150.5 43t152.5 -43t54.5 -121q0 -79 -54 -121t-153 -42zM985 289v-289h-221l-76 -162l277 29v-246l-379 -31q-53 -4 -98 14.5t-68.5 51t-29 73t21.5 78.5l125 193h-455v289h293v469l-252 -13v289l389 21
q87 4 133.5 -40.5t46.5 -131.5v-594h293z" />
    <glyph glyph-name="Idotaccent" unicode="&#x130;" horiz-adv-x="1189" 
d="M592 1546q-98 0 -150.5 42.5t-52.5 121.5q0 78 52.5 121t150.5 43t152.5 -43t54.5 -121q0 -79 -54 -121.5t-153 -42.5zM1087 1444v-289h-327v-866h327v-289h-985v289h328v866h-328v289h985z" />
    <glyph glyph-name="dotlessi" unicode="&#x131;" horiz-adv-x="1026" 
d="M985 0h-903v289h293v469l-252 -13v289l389 21q87 4 133.5 -40.5t46.5 -131.5v-594h293v-289z" />
    <glyph glyph-name="uni0136" unicode="&#x136;" horiz-adv-x="1576" 
d="M1055 1444h481l-870 -723l870 -721h-481l-602 510v-510h-330v1444h330v-512zM735 -526l-233 75l127 351l233 -76z" />
    <glyph glyph-name="uni0137" unicode="&#x137;" horiz-adv-x="1372" 
d="M1120 604l-159 -74l350 -530h-375l-256 399l-227 -106v-293h-330v1505h330v-874l471 217l-4 186h329v-225q0 -74 -31 -123.5t-98 -81.5zM664 -526l-234 75l127 351l234 -76z" />
    <glyph glyph-name="Lacute" unicode="&#x139;" horiz-adv-x="1208" 
d="M178 1546l-55 234l801 176l55 -234zM1169 0l-856 -20q-85 -2 -130.5 42.5t-45.5 129.5v1292h330v-1176l702 21v-289z" />
    <glyph glyph-name="lacute" unicode="&#x13a;" horiz-adv-x="1050" 
d="M113 1608l-56 233l801 176l55 -233zM1010 0h-904v289h287v940l-246 -12v288l398 15q86 3 132 -41.5t46 -130.5v-1059h287v-289z" />
    <glyph glyph-name="uni013B" unicode="&#x13b;" horiz-adv-x="1193" 
d="M1155 0l-856 -20q-85 -2 -130.5 42.5t-45.5 129.5v1292h330v-1176l702 21v-289zM424 -451l127 351l233 -76l-127 -350z" />
    <glyph glyph-name="uni013C" unicode="&#x13c;" horiz-adv-x="1005" 
d="M965 0h-904v289h287v940l-246 -12v288l396 15q88 3 134 -41.5t46 -130.5v-1059h287v-289zM246 -451l127 351l233 -76l-127 -350z" />
    <glyph glyph-name="Lcaron" unicode="&#x13d;" horiz-adv-x="1214" 
d="M692 932v655h246v-655h-246zM1155 0l-856 -20q-85 -2 -130.5 42.5t-45.5 129.5v1292h330v-1176l702 21v-289z" />
    <glyph glyph-name="lcaron" unicode="&#x13e;" horiz-adv-x="1107" 
d="M821 932v655h246v-655h-246zM965 0h-904v289h287v940l-246 -12v288l396 15q88 3 134 -41.5t46 -130.5v-1059h287v-289z" />
    <glyph glyph-name="Lslash" unicode="&#x141;" horiz-adv-x="1386" 
d="M623 700v-432l702 21v-289l-856 -20q-85 -2 -130.5 42.5t-45.5 129.5v460l-150 -41l-61 234l211 57v582h330v-492l352 97l61 -236z" />
    <glyph glyph-name="lslash" unicode="&#x142;" horiz-adv-x="1005" 
d="M678 666v-377h287v-289h-904v289h287v289l-201 -56l-61 236l262 71v400l-246 -12v288l396 15q88 3 134 -41.5t46 -130.5v-428l199 53l63 -236z" />
    <glyph glyph-name="Nacute" unicode="&#x143;" 
d="M485 1546l-55 234l801 176l55 -234zM453 0h-330v1444h647l434 -1362h82l-61 207v1155h329v-1444h-649l-432 1362h-84l64 -207v-1155z" />
    <glyph glyph-name="nacute" unicode="&#x144;" horiz-adv-x="1390" 
d="M342 1137l-55 233l800 176l56 -233zM745 766q-69 0 -120.5 -19.5t-91 -62.5t-60 -118.5t-20.5 -182.5v-383h-330v1034h330v-125l-64 -184h84q33 147 133 238.5t258 91.5q200 0 312 -129.5t112 -366.5v-559h-330v508q0 141 -47.5 199.5t-165.5 58.5z" />
    <glyph glyph-name="uni0145" unicode="&#x145;" 
d="M453 0h-330v1444h647l434 -1362h82l-61 207v1155h329v-1444h-649l-432 1362h-84l64 -207v-1155zM582 -451l127 351l233 -76l-127 -350z" />
    <glyph glyph-name="uni0146" unicode="&#x146;" horiz-adv-x="1390" 
d="M745 766q-69 0 -120.5 -19.5t-91 -62.5t-60 -118.5t-20.5 -182.5v-383h-330v1034h330v-125l-64 -184h84q33 147 133 238.5t258 91.5q200 0 312 -129.5t112 -366.5v-559h-330v508q0 141 -47.5 199.5t-165.5 58.5zM459 -451l127 351l233 -76l-127 -350z" />
    <glyph glyph-name="Ncaron" unicode="&#x147;" 
d="M1149 2009l174 -164l-444 -309l-443 309l174 164l269 -186zM453 0h-330v1444h647l434 -1362h82l-61 207v1155h329v-1444h-649l-432 1362h-84l64 -207v-1155z" />
    <glyph glyph-name="ncaron" unicode="&#x148;" horiz-adv-x="1390" 
d="M1006 1599l174 -163l-445 -310l-442 310l174 163l268 -186zM745 766q-69 0 -120.5 -19.5t-91 -62.5t-60 -118.5t-20.5 -182.5v-383h-330v1034h330v-125l-64 -184h84q33 147 133 238.5t258 91.5q200 0 312 -129.5t112 -366.5v-559h-330v508q0 141 -47.5 199.5t-165.5 58.5
z" />
    <glyph glyph-name="Eng" unicode="&#x14a;" 
d="M1225 289v1155h329v-1682q0 -86 -45.5 -130.5t-130.5 -41.5l-508 15v289l355 -13v119h-320l-432 1362h-84l64 -207v-1155h-330v1444h647l434 -1362h82z" />
    <glyph glyph-name="eng" unicode="&#x14b;" horiz-adv-x="1390" 
d="M864 1055q200 0 312 -129.5t112 -366.5v-797q0 -86 -45.5 -130.5t-130.5 -41.5l-508 15v289l354 -13v627q0 141 -47.5 199.5t-165.5 58.5q-69 0 -120.5 -19.5t-91 -62.5t-60 -118.5t-20.5 -182.5v-383h-330v1034h330v-125l-64 -184h84q33 147 133 238.5t258 91.5z" />
    <glyph glyph-name="Omacron" unicode="&#x14c;" 
d="M399 1638v246h883v-242zM102 723q0 157 51.5 293t145 235t233 156t308.5 57q168 0 307 -57t232.5 -156t144.5 -235t51 -293q0 -158 -51 -294t-144.5 -235.5t-232.5 -156.5t-307 -57q-169 0 -308.5 57t-233 156.5t-145 235.5t-51.5 294zM432 723q0 -214 104 -334.5
t304 -120.5t303.5 120.5t103.5 334.5q0 212 -103.5 332.5t-303.5 120.5t-304 -120.5t-104 -332.5z" />
    <glyph glyph-name="omacron" unicode="&#x14d;" horiz-adv-x="1329" 
d="M225 1229v246h883v-242zM82 518q0 132 45 235.5t125 168.5t185 99t229 34q123 0 227.5 -34t184 -99t124.5 -168.5t45 -235.5t-45 -236t-124.5 -169.5t-184 -99t-227.5 -33.5q-124 0 -229 33.5t-185 99t-125 169.5t-45 236zM412 518q0 -127 66.5 -188.5t187.5 -61.5
q120 0 187 62t67 188q0 125 -67 186.5t-187 61.5q-121 0 -187.5 -61.5t-66.5 -186.5z" />
    <glyph glyph-name="Ohungarumlaut" unicode="&#x150;" 
d="M535 1546l-173 160l410 348l174 -162zM1049 1546l-172 160l409 348l174 -162zM102 723q0 157 51.5 293t145 235t233 156t308.5 57q168 0 307 -57t232.5 -156t144.5 -235t51 -293q0 -158 -51 -294t-144.5 -235.5t-232.5 -156.5t-307 -57q-169 0 -308.5 57t-233 156.5
t-145 235.5t-51.5 294zM432 723q0 -214 104 -334.5t304 -120.5t303.5 120.5t103.5 334.5q0 212 -103.5 332.5t-303.5 120.5t-304 -120.5t-104 -332.5z" />
    <glyph glyph-name="ohungarumlaut" unicode="&#x151;" horiz-adv-x="1329" 
d="M360 1137l-172 159l410 349l174 -162zM874 1137l-172 159l410 349l174 -162zM82 518q0 132 45 235.5t125 168.5t185 99t229 34q123 0 227.5 -34t184 -99t124.5 -168.5t45 -235.5t-45 -236t-124.5 -169.5t-184 -99t-227.5 -33.5q-124 0 -229 33.5t-185 99t-125 169.5
t-45 236zM412 518q0 -127 66.5 -188.5t187.5 -61.5q120 0 187 62t67 188q0 125 -67 186.5t-187 61.5q-121 0 -187.5 -61.5t-66.5 -186.5z" />
    <glyph glyph-name="OE" unicode="&#x152;" horiz-adv-x="2379" 
d="M2298 1444v-289h-703v-289h600v-286h-600v-291h703v-289h-1030v100q-177 -120 -428 -120q-169 0 -308.5 57t-233 156.5t-145 235.5t-51.5 294q0 157 51.5 293t145 235t233 156t308.5 57q250 0 428 -121v101h1030zM840 268q200 0 303.5 120.5t103.5 334.5
q0 212 -103.5 332.5t-303.5 120.5t-304 -120.5t-104 -332.5q0 -214 104 -334.5t304 -120.5z" />
    <glyph glyph-name="oe" unicode="&#x153;" horiz-adv-x="2211" 
d="M1802 365h328q-8 -60 -45 -124t-101.5 -124t-170 -98.5t-232.5 -38.5q-298 0 -455 182q-76 -90 -195.5 -136t-264.5 -46q-124 0 -229 33.5t-185 99t-125 169.5t-45 236t45 235.5t125 168.5t185 99t229 34q141 0 258.5 -44t195.5 -130q72 85 181.5 129.5t244.5 44.5
q245 0 396 -136t151 -368v-102h-784q0 -93 68.5 -148t203.5 -55q88 0 147 31t74 88zM1546 786q-126 0 -181.5 -43t-55.5 -110h477q0 66 -57 109.5t-183 43.5zM666 268q120 0 187 62t67 188q0 125 -67 186.5t-187 61.5q-121 0 -187.5 -61.5t-66.5 -186.5q0 -127 66.5 -188.5
t187.5 -61.5z" />
    <glyph glyph-name="Racute" unicode="&#x154;" horiz-adv-x="1468" 
d="M309 1546l-55 234l801 176l55 -234zM453 0h-330v1444h559q110 0 200 -10.5t175 -38.5t143 -72.5t92.5 -116.5t34.5 -166q0 -281 -369 -323v-82h211q85 0 131 -45t46 -129v-461h-330v508h-563v-508zM453 1155v-360h229q75 0 109.5 1.5t83.5 10t69.5 27t36.5 53.5t16 88
t-16 88t-36.5 53.5t-69.5 27t-83.5 10t-109.5 1.5h-229z" />
    <glyph glyph-name="racute" unicode="&#x155;" horiz-adv-x="1024" 
d="M178 1137l-55 233l799 176l57 -233zM477 0h-330v879q0 85 46 129.5t131 42.5l680 -17v-289l-527 13v-758z" />
    <glyph glyph-name="uni0156" unicode="&#x156;" horiz-adv-x="1468" 
d="M453 0h-330v1444h559q110 0 200 -10.5t175 -38.5t143 -72.5t92.5 -116.5t34.5 -166q0 -281 -369 -323v-82h211q85 0 131 -45t46 -129v-461h-330v508h-563v-508zM453 1155v-360h229q75 0 109.5 1.5t83.5 10t69.5 27t36.5 53.5t16 88t-16 88t-36.5 53.5t-69.5 27t-83.5 10
t-109.5 1.5h-229zM508 -451l127 351l233 -76l-127 -350z" />
    <glyph glyph-name="uni0157" unicode="&#x157;" horiz-adv-x="974" 
d="M430 0h-330v879q0 85 45.5 129.5t130.5 42.5l678 -17v-289l-524 13v-758zM10 -451l127 351l234 -76l-127 -350z" />
    <glyph glyph-name="Rcaron" unicode="&#x158;" horiz-adv-x="1468" 
d="M973 2009l174 -164l-445 -309l-442 309l174 164l268 -186zM453 0h-330v1444h559q110 0 200 -10.5t175 -38.5t143 -72.5t92.5 -116.5t34.5 -166q0 -281 -369 -323v-82h211q85 0 131 -45t46 -129v-461h-330v508h-563v-508zM453 1155v-360h229q75 0 109.5 1.5t83.5 10
t69.5 27t36.5 53.5t16 88t-16 88t-36.5 53.5t-69.5 27t-83.5 10t-109.5 1.5h-229z" />
    <glyph glyph-name="rcaron" unicode="&#x159;" horiz-adv-x="1030" 
d="M834 1599l176 -163l-445 -310l-442 310l174 163l268 -186zM471 0h-330v879q0 85 45.5 129.5t130.5 42.5l680 -17v-289l-526 13v-758z" />
    <glyph glyph-name="Sacute" unicode="&#x15a;" horiz-adv-x="1456" 
d="M336 1546l-55 234l800 176l56 -234zM1395 397q0 -196 -149.5 -306.5t-469.5 -110.5q-192 0 -330.5 38.5t-222.5 114t-123 180t-39 244.5h330q0 -162 88.5 -225.5t306.5 -63.5q152 0 216.5 31.5t64.5 93.5q0 68 -112 122q-54 26 -246 91q-16 6 -29 10q-228 76 -317 122
q-165 85 -213 211q-23 60 -23 134q0 185 144.5 283t422.5 98q161 0 285.5 -39.5t201.5 -109.5t115.5 -161.5t38.5 -201.5h-327q0 64 -23.5 109t-67.5 69.5t-98 35t-125 10.5q-237 0 -237 -105q0 -35 19 -57t72.5 -46.5t172.5 -64.5q222 -75 285 -101q280 -115 357 -268
q32 -64 32 -137z" />
    <glyph glyph-name="sacute" unicode="&#x15b;" horiz-adv-x="1130" 
d="M182 1137l-55 233l801 176l55 -233zM1090 285q0 -68 -26 -121.5t-81.5 -95.5t-151 -65t-225.5 -23q-277 0 -411 103.5t-134 291.5h330q0 -67 52.5 -108.5t172.5 -41.5q144 0 144 70q0 35 -45 59q-29 15 -178 64q-16 5 -58 18.5t-61 19.5t-57.5 20.5t-58 24.5t-51 27
t-48 32.5t-37.5 38.5t-31.5 46.5t-18 54t-7.5 64.5q0 138 118 214.5t332 76.5q127 0 224.5 -30t155.5 -82.5t87 -118.5t29 -144h-330q0 58 -43 93.5t-125 35.5q-119 0 -119 -59q0 -33 56 -58.5t199 -71.5q8 -3 12 -4q162 -53 216 -80q128 -63 158 -168q11 -38 11 -83z" />
    <glyph glyph-name="Scedilla" unicode="&#x15e;" horiz-adv-x="1456" 
d="M1395 397q0 -188 -136.5 -297.5t-429.5 -119.5l-92 -103q87 41 191 41q47 0 84 -9.5t65.5 -39.5t28.5 -78q0 -42 -17 -75.5t-45 -56.5t-73 -39.5t-90.5 -26t-108 -15t-116.5 -7t-124 -1.5v184h74q148 -1 200 6.5t52 40.5q0 15 -13 25t-34 10q-55 0 -160 -37l-104 80
l51 111q-282 33 -409.5 176t-127.5 391h330q0 -162 88.5 -225.5t306.5 -63.5q152 0 216.5 31.5t64.5 93.5q0 68 -112 122q-54 26 -246 91q-16 6 -29 10q-228 76 -317 122q-165 85 -213 211q-23 60 -23 134q0 185 144.5 283t422.5 98q161 0 285.5 -39.5t201.5 -109.5
t115.5 -161.5t38.5 -201.5h-327q0 64 -23.5 109t-67.5 69.5t-98 35t-125 10.5q-237 0 -237 -105q0 -35 19 -57t72.5 -46.5t172.5 -64.5q222 -75 285 -101q280 -115 357 -268q32 -64 32 -137z" />
    <glyph glyph-name="scedilla" unicode="&#x15f;" horiz-adv-x="1130" 
d="M1090 285q0 -130 -98.5 -211t-313.5 -92l-94 -105q87 41 190 41q47 0 84 -9.5t65.5 -39.5t28.5 -78q0 -42 -17 -75.5t-45 -56.5t-72.5 -39.5t-90 -26t-108 -15t-116.5 -7t-124 -1.5v184h74q148 -1 200 6.5t52 40.5q0 15 -13.5 25t-34.5 10q-54 0 -159 -37l-105 80l51 111
q-195 29 -289 128t-94 257h330q0 -67 52.5 -108.5t172.5 -41.5q144 0 144 70q0 35 -45 59q-29 15 -178 64q-16 5 -58 18.5t-61 19.5t-57.5 20.5t-58 24.5t-51 27t-48 32.5t-37.5 38.5t-31.5 46.5t-18 54t-7.5 64.5q0 138 118 214.5t332 76.5q127 0 224.5 -30t155.5 -82.5
t87 -118.5t29 -144h-330q0 58 -43 93.5t-125 35.5q-119 0 -119 -59q0 -33 56 -58.5t199 -71.5q8 -3 12 -4q162 -53 216 -80q128 -63 158 -168q11 -38 11 -83z" />
    <glyph glyph-name="Scaron" unicode="&#x160;" horiz-adv-x="1456" 
d="M999 2009l175 -164l-445 -309l-442 309l174 164l268 -186zM1395 397q0 -196 -149.5 -306.5t-469.5 -110.5q-192 0 -330.5 38.5t-222.5 114t-123 180t-39 244.5h330q0 -162 88.5 -225.5t306.5 -63.5q152 0 216.5 31.5t64.5 93.5q0 68 -112 122q-54 26 -246 91
q-16 6 -29 10q-228 76 -317 122q-165 85 -213 211q-23 60 -23 134q0 185 144.5 283t422.5 98q161 0 285.5 -39.5t201.5 -109.5t115.5 -161.5t38.5 -201.5h-327q0 64 -23.5 109t-67.5 69.5t-98 35t-125 10.5q-237 0 -237 -105q0 -35 19 -57t72.5 -46.5t172.5 -64.5
q222 -75 285 -101q280 -115 357 -268q32 -64 32 -137z" />
    <glyph glyph-name="scaron" unicode="&#x161;" horiz-adv-x="1130" 
d="M846 1599l174 -163l-445 -310l-442 310l174 163l268 -186zM1090 285q0 -68 -26 -121.5t-81.5 -95.5t-151 -65t-225.5 -23q-277 0 -411 103.5t-134 291.5h330q0 -67 52.5 -108.5t172.5 -41.5q144 0 144 70q0 35 -45 59q-29 15 -178 64q-16 5 -58 18.5t-61 19.5t-57.5 20.5
t-58 24.5t-51 27t-48 32.5t-37.5 38.5t-31.5 46.5t-18 54t-7.5 64.5q0 138 118 214.5t332 76.5q127 0 224.5 -30t155.5 -82.5t87 -118.5t29 -144h-330q0 58 -43 93.5t-125 35.5q-119 0 -119 -59q0 -33 56 -58.5t199 -71.5q8 -3 12 -4q162 -53 216 -80q128 -63 158 -168
q11 -38 11 -83z" />
    <glyph glyph-name="uni0162" unicode="&#x162;" horiz-adv-x="1394" 
d="M862 1155v-1155h-45l-110 -123q87 41 190 41q47 0 84 -9.5t65.5 -39.5t28.5 -78q0 -42 -17 -75.5t-45 -56.5t-72.5 -39.5t-90 -26t-108 -15t-116.5 -7t-124 -1.5v184h74q147 -1 199 6.5t52 40.5q0 15 -13 25t-34 10q-54 0 -159 -37l-105 80l55 121h-36v1155h-474v289
h1272v-289h-471z" />
    <glyph glyph-name="uni0163" unicode="&#x163;" horiz-adv-x="1038" 
d="M819 -82q47 0 84 -9.5t65.5 -39.5t28.5 -78q0 -42 -17 -75.5t-45 -56.5t-72.5 -39.5t-90 -26t-108 -15t-116.5 -7t-124 -1.5v184h74q148 -1 200 6.5t52 40.5q0 15 -13.5 25t-34.5 10q-54 0 -159 -37l-105 80l47 103l-45 -2q-84 -3 -129 43t-45 131v591h-246v289h246v195
l330 102v-297h340v-289h-340v-477l381 21v-289l-246 -10l-102 -113q87 41 190 41z" />
    <glyph glyph-name="Tcaron" unicode="&#x164;" horiz-adv-x="1394" 
d="M969 2009l174 -164l-445 -309l-442 309l174 164l268 -186zM61 1444h1272v-289h-471v-1155h-327v1155h-474v289z" />
    <glyph glyph-name="tcaron" unicode="&#x165;" horiz-adv-x="1038" 
d="M731 1137v368h246v-368h-246zM936 745h-340v-477l381 21v-289l-537 -20q-84 -3 -129 43t-45 131v591h-246v289h246v195l330 102v-297h340v-289z" />
    <glyph glyph-name="Tbar" unicode="&#x166;" horiz-adv-x="1394" 
d="M1333 1444v-289h-471v-346h305v-248h-305v-561h-327v561h-310v248h310v346h-474v289h1272z" />
    <glyph glyph-name="tbar" unicode="&#x167;" horiz-adv-x="1038" 
d="M596 414v-146l381 21v-289l-537 -20q-84 -3 -129 43t-45 131v260h-205v245h205v86h-246v289h246v195l330 102v-297h340v-289h-340v-86h299v-245h-299z" />
    <glyph glyph-name="Umacron" unicode="&#x16a;" horiz-adv-x="1470" 
d="M293 1638v246h883v-242zM82 537v907h330v-760q0 -63 2 -105t9 -90t20.5 -78t37 -60t57.5 -46.5t82.5 -26.5t112.5 -10q56 0 100.5 7t77.5 22t57.5 34t40.5 48.5t26 59t15.5 72t7 81t1.5 92.5v760h330v-907q0 -271 -168 -414t-488 -143t-485.5 143t-165.5 414z" />
    <glyph glyph-name="umacron" unicode="&#x16b;" horiz-adv-x="1370" 
d="M244 1229v246h882v-242zM643 268q143 0 219 87.5t76 295.5v383h330v-1034h-330v125l61 184h-81q-33 -146 -133.5 -237.5t-258.5 -91.5q-200 0 -312 129t-112 366v559h330v-506q0 -142 47 -201t164 -59z" />
    <glyph glyph-name="Uring" unicode="&#x16e;" horiz-adv-x="1470" 
d="M731 1546q-153 0 -237 63.5t-84 188.5q0 124 84.5 188t236.5 64q153 0 239.5 -64.5t86.5 -187.5t-86.5 -187.5t-239.5 -64.5zM731 1731q78 0 78 67q0 66 -78 66q-76 0 -76 -66q0 -67 76 -67zM82 537v907h330v-760q0 -63 2 -105t9 -90t20.5 -78t37 -60t57.5 -46.5
t82.5 -26.5t112.5 -10q56 0 100.5 7t77.5 22t57.5 34t40.5 48.5t26 59t15.5 72t7 81t1.5 92.5v760h330v-907q0 -271 -168 -414t-488 -143t-485.5 143t-165.5 414z" />
    <glyph glyph-name="uring" unicode="&#x16f;" horiz-adv-x="1370" 
d="M682 1137q-153 0 -237.5 63.5t-84.5 188.5q0 124 85 187.5t237 63.5q153 0 239.5 -64t86.5 -187t-86.5 -187.5t-239.5 -64.5zM682 1321q78 0 78 68q0 65 -78 65q-76 0 -76 -65q0 -68 76 -68zM643 268q143 0 219 87.5t76 295.5v383h330v-1034h-330v125l61 184h-81
q-33 -146 -133.5 -237.5t-258.5 -91.5q-200 0 -312 129t-112 366v559h330v-506q0 -142 47 -201t164 -59z" />
    <glyph glyph-name="Uhungarumlaut" unicode="&#x170;" horiz-adv-x="1470" 
d="M428 1546l-172 160l410 348l174 -162zM942 1546l-172 160l410 348l174 -162zM82 537v907h330v-760q0 -63 2 -105t9 -90t20.5 -78t37 -60t57.5 -46.5t82.5 -26.5t112.5 -10q56 0 100.5 7t77.5 22t57.5 34t40.5 48.5t26 59t15.5 72t7 81t1.5 92.5v760h330v-907
q0 -271 -168 -414t-488 -143t-485.5 143t-165.5 414z" />
    <glyph glyph-name="uhungarumlaut" unicode="&#x171;" horiz-adv-x="1370" 
d="M379 1137l-172 159l409 349l175 -162zM893 1137l-172 159l409 349l175 -162zM643 268q143 0 219 87.5t76 295.5v383h330v-1034h-330v125l61 184h-81q-33 -146 -133.5 -237.5t-258.5 -91.5q-200 0 -312 129t-112 366v559h330v-506q0 -142 47 -201t164 -59z" />
    <glyph glyph-name="Uogonek" unicode="&#x172;" horiz-adv-x="1470" 
d="M1059 684v760h330v-907q0 -221 -113.5 -358.5t-331.5 -180.5l-74 -160l277 29v-246l-379 -31q-53 -4 -98 14.5t-68.5 51t-29 73t21.5 78.5l113 173q-307 6 -466 149t-159 408v907h330v-760q0 -63 2 -105t9 -90t20.5 -78t37 -60t57.5 -46.5t82.5 -26.5t112.5 -10
q56 0 100.5 7t77.5 22t57.5 34t40.5 48.5t26 59t15.5 72t7 81t1.5 92.5z" />
    <glyph glyph-name="uogonek" unicode="&#x173;" horiz-adv-x="1370" 
d="M1268 0l-76 -162l276 29v-246l-378 -31q-53 -4 -98.5 14.5t-69 51t-29 73t21.5 78.5l125 193h-102v125l61 184h-81q-33 -146 -133.5 -237.5t-258.5 -91.5q-200 0 -312 129t-112 366v559h330v-506q0 -142 47 -201t164 -59q143 0 219 87.5t76 295.5v383h330v-1034z" />
    <glyph glyph-name="Wcircumflex" unicode="&#x174;" horiz-adv-x="2396" 
d="M1196 1997l444 -309l-174 -164l-270 186l-268 -186l-174 164zM289 0l-248 1444h319l228 -1362h82l178 1362h700l176 -1362h82l230 1362h319l-248 -1444h-684l-184 1362h-82l-186 -1362h-682z" />
    <glyph glyph-name="wcircumflex" unicode="&#x175;" horiz-adv-x="1943" 
d="M971 1587l444 -309l-174 -164l-270 186l-269 -186l-174 164zM164 0l-144 1034h316l131 -952h82l80 952h686l80 -952h82l133 952h313l-143 -1034h-688l-78 952h-84l-78 -952h-688z" />
    <glyph glyph-name="Ycircumflex" unicode="&#x176;" horiz-adv-x="1482" 
d="M739 1997l445 -309l-174 -164l-271 186l-268 -186l-174 164zM780 844l310 600h352l-537 -979v-465h-330v465l-534 979h352l305 -600v-187h82v187z" />
    <glyph glyph-name="ycircumflex" unicode="&#x177;" horiz-adv-x="1378" 
d="M969 1114l-271 186l-268 -186l-174 164l442 309l445 -309zM739 467l226 567h372l-473 -973v-319q0 -86 -45.5 -130.5t-130.5 -41.5l-508 14v287l355 -4v194l-474 973h371l225 -567v-164h82v164z" />
    <glyph glyph-name="Ydieresis" unicode="&#x178;" horiz-adv-x="1482" 
d="M473 1546q-98 0 -150.5 42.5t-52.5 121.5q0 78 52.5 121t150.5 43t152.5 -43t54.5 -121q0 -79 -54 -121.5t-153 -42.5zM1006 1546q-98 0 -150.5 42.5t-52.5 121.5q0 78 52.5 121t150.5 43t152 -43t54 -121q0 -79 -53.5 -121.5t-152.5 -42.5zM780 844l310 600h352
l-537 -979v-465h-330v465l-534 979h352l305 -600v-187h82v187z" />
    <glyph glyph-name="Zacute" unicode="&#x179;" horiz-adv-x="1366" 
d="M291 1546l-55 234l800 176l56 -234zM1284 0h-1202v606l1120 529v82l-184 -62h-936v289h1202v-606l-1120 -529v-82l184 62h936v-289z" />
    <glyph glyph-name="zacute" unicode="&#x17a;" horiz-adv-x="1181" 
d="M199 1137l-56 233l801 176l55 -233zM1100 0h-1018v553l936 174v82l-184 -61h-752v286h1018v-553l-936 -172v-84l184 64h752v-289z" />
    <glyph glyph-name="Zdotaccent" unicode="&#x17b;" horiz-adv-x="1366" 
d="M682 1546q-98 0 -150.5 42.5t-52.5 121.5q0 78 52.5 121t150.5 43t152.5 -43t54.5 -121q0 -79 -54 -121.5t-153 -42.5zM1284 0h-1202v606l1120 529v82l-184 -62h-936v289h1202v-606l-1120 -529v-82l184 62h936v-289z" />
    <glyph glyph-name="zdotaccent" unicode="&#x17c;" horiz-adv-x="1181" 
d="M590 1137q-98 0 -150.5 42t-52.5 121q0 78 52.5 121t150.5 43t152.5 -43t54.5 -121q0 -79 -54 -121t-153 -42zM1100 0h-1018v553l936 174v82l-184 -61h-752v286h1018v-553l-936 -172v-84l184 64h752v-289z" />
    <glyph glyph-name="Zcaron" unicode="&#x17d;" horiz-adv-x="1366" 
d="M954 2009l174 -164l-444 -309l-442 309l174 164l268 -186zM1284 0h-1202v606l1120 529v82l-184 -62h-936v289h1202v-606l-1120 -529v-82l184 62h936v-289z" />
    <glyph glyph-name="zcaron" unicode="&#x17e;" horiz-adv-x="1181" 
d="M862 1599l174 -163l-444 -310l-442 310l174 163l268 -186zM1100 0h-1018v553l936 174v82l-184 -61h-752v286h1018v-553l-936 -172v-84l184 64h752v-289z" />
    <glyph glyph-name="uni0218" unicode="&#x218;" horiz-adv-x="1456" 
d="M1395 397q0 -196 -149.5 -306.5t-469.5 -110.5q-192 0 -330.5 38.5t-222.5 114t-123 180t-39 244.5h330q0 -162 88.5 -225.5t306.5 -63.5q152 0 216.5 31.5t64.5 93.5q0 68 -112 122q-54 26 -246 91q-16 6 -29 10q-228 76 -317 122q-165 85 -213 211q-23 60 -23 134
q0 185 144.5 283t422.5 98q161 0 285.5 -39.5t201.5 -109.5t115.5 -161.5t38.5 -201.5h-327q0 64 -23.5 109t-67.5 69.5t-98 35t-125 10.5q-237 0 -237 -105q0 -35 19 -57t72.5 -46.5t172.5 -64.5q222 -75 285 -101q280 -115 357 -268q32 -64 32 -137zM473 -451l127 351
l234 -76l-127 -350z" />
    <glyph glyph-name="uni0219" unicode="&#x219;" horiz-adv-x="1130" 
d="M1090 285q0 -68 -26 -121.5t-81.5 -95.5t-151 -65t-225.5 -23q-277 0 -411 103.5t-134 291.5h330q0 -67 52.5 -108.5t172.5 -41.5q144 0 144 70q0 35 -45 59q-29 15 -178 64q-16 5 -58 18.5t-61 19.5t-57.5 20.5t-58 24.5t-51 27t-48 32.5t-37.5 38.5t-31.5 46.5t-18 54
t-7.5 64.5q0 138 118 214.5t332 76.5q127 0 224.5 -30t155.5 -82.5t87 -118.5t29 -144h-330q0 58 -43 93.5t-125 35.5q-119 0 -119 -59q0 -33 56 -58.5t199 -71.5q8 -3 12 -4q162 -53 216 -80q128 -63 158 -168q11 -38 11 -83zM319 -451l127 351l234 -76l-127 -350z" />
    <glyph glyph-name="uni021A" unicode="&#x21a;" horiz-adv-x="1394" 
d="M61 1444h1272v-289h-471v-1155h-327v1155h-474v289zM676 -526l-234 75l127 351l234 -76z" />
    <glyph glyph-name="uni021B" unicode="&#x21b;" horiz-adv-x="1038" 
d="M596 745v-477l381 21v-289l-537 -20q-84 -3 -129 43t-45 131v591h-246v289h246v195l330 102v-297h340v-289h-340zM598 -526l-233 75l127 351l233 -76z" />
    <glyph glyph-name="circumflex" unicode="&#x2c6;" horiz-adv-x="1173" 
d="M586 1587l444 -309l-174 -164l-270 186l-269 -186l-174 164z" />
    <glyph glyph-name="caron" unicode="&#x2c7;" horiz-adv-x="1173" 
d="M856 1599l174 -163l-444 -310l-443 310l174 163l269 -186z" />
    <glyph glyph-name="breve" unicode="&#x2d8;" horiz-adv-x="1036" 
d="M647 1544h246q0 -82 -20.5 -152.5t-63 -129t-117 -92t-174.5 -33.5t-174.5 33.5t-117 92t-63 129t-20.5 152.5h246q0 -102 32.5 -142t96.5 -40t96.5 40t32.5 142z" />
    <glyph glyph-name="dotaccent" unicode="&#x2d9;" horiz-adv-x="696" 
d="M346 1137q-98 0 -150.5 42t-52.5 121q0 78 52.5 121t150.5 43t152.5 -43t54.5 -121q0 -79 -54 -121t-153 -42z" />
    <glyph glyph-name="ring" unicode="&#x2da;" horiz-adv-x="892" 
d="M465 1137q-153 0 -237.5 63.5t-84.5 188.5q0 124 85 187.5t237 63.5q153 0 239.5 -64t86.5 -187t-86.5 -187.5t-239.5 -64.5zM465 1321q78 0 78 68q0 65 -78 65q-76 0 -76 -65q0 -68 76 -68z" />
    <glyph glyph-name="ogonek" unicode="&#x2db;" horiz-adv-x="862" 
d="M442 -162l277 29v-246l-379 -31q-53 -4 -98 14.5t-68.5 51t-29 73t21.5 78.5l127 195h225z" />
    <glyph glyph-name="tilde" unicode="&#x2dc;" horiz-adv-x="1247" 
d="M389 1208h-246q0 180 80.5 285.5t220.5 105.5q52 0 97.5 -17t76.5 -40.5t58 -47.5t53.5 -41t50.5 -17q38 0 57 29t19 114h248q0 -181 -80.5 -286t-222.5 -105q-52 0 -97.5 17t-76.5 41t-58 48t-53.5 41t-50.5 17q-38 0 -57 -29t-19 -115z" />
    <glyph glyph-name="hungarumlaut" unicode="&#x2dd;" horiz-adv-x="1382" 
d="M315 1137l-172 159l410 349l174 -162zM829 1137l-172 159l410 349l174 -162z" />
    <glyph glyph-name="gravecomb" unicode="&#x300;" horiz-adv-x="0" 
d="M-944 1546l801 -176l-56 -233l-800 176z" />
    <glyph glyph-name="acutecomb" unicode="&#x301;" horiz-adv-x="0" 
d="M-944 1137l-55 233l800 176l56 -233z" />
    <glyph glyph-name="uni0302" unicode="&#x302;" horiz-adv-x="0" 
d="M-588 1587l445 -309l-174 -164l-271 186l-268 -186l-174 164z" />
    <glyph glyph-name="tildecomb" unicode="&#x303;" horiz-adv-x="0" 
d="M-858 1208h-246q0 180 80.5 285.5t220.5 105.5q52 0 97.5 -17t76.5 -40.5t58 -47.5t53.5 -41t50.5 -17q38 0 57 29t19 114h248q0 -181 -80.5 -286t-222.5 -105q-52 0 -97.5 17t-76.5 41t-58 48t-53.5 41t-50.5 17q-38 0 -57 -29t-19 -115z" />
    <glyph glyph-name="uni0304" unicode="&#x304;" horiz-adv-x="0" 
d="M-1026 1229v246h883v-242z" />
    <glyph glyph-name="uni0306" unicode="&#x306;" horiz-adv-x="0" 
d="M-389 1544h246q0 -82 -20.5 -152.5t-63 -129t-117 -92t-174.5 -33.5t-174.5 33.5t-117 92t-63 129t-20.5 152.5h246q0 -102 32.5 -142t96.5 -40t96.5 40t32.5 142z" />
    <glyph glyph-name="uni0307" unicode="&#x307;" horiz-adv-x="0" 
d="M-350 1137q-98 0 -150.5 42t-52.5 121q0 78 52.5 121t150.5 43t152.5 -43t54.5 -121q0 -79 -54 -121t-153 -42z" />
    <glyph glyph-name="uni0308" unicode="&#x308;" horiz-adv-x="0" 
d="M-883 1137q-98 0 -150 42t-52 121q0 78 52 121t150 43t152.5 -43t54.5 -121q0 -79 -54 -121t-153 -42zM-350 1137q-98 0 -150.5 42t-52.5 121q0 78 52.5 121t150.5 43t152.5 -43t54.5 -121q0 -79 -54 -121t-153 -42z" />
    <glyph glyph-name="uni030A" unicode="&#x30a;" horiz-adv-x="0" 
d="M-467 1137q-153 0 -237 63.5t-84 188.5q0 124 84.5 187.5t236.5 63.5q153 0 239.5 -64t86.5 -187t-86.5 -187.5t-239.5 -64.5zM-467 1321q78 0 78 68q0 65 -78 65q-76 0 -76 -65q0 -68 76 -68z" />
    <glyph glyph-name="uni030B" unicode="&#x30b;" horiz-adv-x="0" 
d="M-1067 1137l-172 159l410 349l174 -162zM-553 1137l-172 159l410 349l174 -162z" />
    <glyph glyph-name="uni030C" unicode="&#x30c;" horiz-adv-x="0" 
d="M-317 1599l174 -163l-445 -310l-442 310l174 163l268 -186z" />
    <glyph glyph-name="uni0312" unicode="&#x312;" horiz-adv-x="0" 
d="M-530 1200l149 445l240 -64l-152 -444z" />
    <glyph glyph-name="uni0326" unicode="&#x326;" horiz-adv-x="0" 
d="M-514 -451l127 351l233 -76l-127 -350z" />
    <glyph glyph-name="uni0327" unicode="&#x327;" horiz-adv-x="0" 
d="M-319 -82q47 0 84 -9.5t65.5 -39.5t28.5 -78q0 -42 -17 -75.5t-45 -56.5t-73 -39.5t-90.5 -26t-108 -15t-116.5 -7t-124 -1.5v184h74q148 -1 200 6.5t52 40.5q0 15 -13 25t-34 10q-55 0 -160 -37l-104 80l55 121h246l-111 -123q87 41 191 41z" />
    <glyph glyph-name="uni0328" unicode="&#x328;" horiz-adv-x="0" 
d="M-420 -162l277 29v-246l-379 -31q-53 -4 -98 14.5t-68.5 51t-29 73t21.5 78.5l127 195h225z" />
    <glyph glyph-name="uni0400" unicode="&#x400;" horiz-adv-x="1234" 
d="M287 1956l800 -176l-55 -234l-801 176zM1155 0h-1032v1444h1032v-289h-702v-289h600v-286h-600v-291h702v-289z" />
    <glyph glyph-name="uni0401" unicode="&#x401;" horiz-adv-x="1234" 
d="M371 1546q-98 0 -150.5 42.5t-52.5 121.5q0 78 52.5 121t150.5 43t152.5 -43t54.5 -121q0 -79 -54 -121.5t-153 -42.5zM903 1546q-98 0 -150.5 42.5t-52.5 121.5q0 78 52.5 121t150.5 43t152.5 -43t54.5 -121q0 -79 -54 -121.5t-153 -42.5zM1155 0h-1032v1444h1032v-289
h-702v-289h600v-286h-600v-291h702v-289z" />
    <glyph glyph-name="uni0402" unicode="&#x402;" horiz-adv-x="1777" 
d="M819 870l266 37q140 22 253 10t192.5 -56t122.5 -134.5t43 -226.5q0 -98 -26 -177.5t-74 -133t-108 -91.5t-135.5 -59t-148.5 -30t-155 -9v289q158 0 237.5 50.5t79.5 139.5q0 72 -36.5 108t-100.5 39t-150 -8l-260 -36v-582h-327v1155h-451v289h1229v-289h-451v-285z
" />
    <glyph glyph-name="uni0403" unicode="&#x403;" horiz-adv-x="1202" 
d="M266 1546l-55 234l801 176l55 -234zM453 0h-330v1444h1020v-289h-690v-1155z" />
    <glyph glyph-name="uni0404" unicode="&#x404;" horiz-adv-x="1660" 
d="M848 268q151 0 254 75.5t127 215.5h327q-32 -269 -221.5 -424t-490.5 -155q-169 0 -309 57t-234.5 156.5t-146.5 235.5t-52 294q0 210 88.5 377.5t259 265.5t394.5 98q301 0 490.5 -154.5t221.5 -422.5h-327q-24 139 -126.5 214t-254.5 75q-157 0 -262 -79.5t-140 -230.5
h521v-286h-521q35 -152 140 -232t262 -80z" />
    <glyph glyph-name="uni0405" unicode="&#x405;" horiz-adv-x="1456" 
d="M1395 397q0 -196 -149.5 -306.5t-469.5 -110.5q-192 0 -330.5 38.5t-222.5 114t-123 180t-39 244.5h330q0 -162 88.5 -225.5t306.5 -63.5q152 0 216.5 31.5t64.5 93.5q0 68 -112 122q-54 26 -246 91q-16 6 -29 10q-228 76 -317 122q-165 85 -213 211q-23 60 -23 134
q0 185 144.5 283t422.5 98q161 0 285.5 -39.5t201.5 -109.5t115.5 -161.5t38.5 -201.5h-327q0 64 -23.5 109t-67.5 69.5t-98 35t-125 10.5q-237 0 -237 -105q0 -35 19 -57t72.5 -46.5t172.5 -64.5q222 -75 285 -101q280 -115 357 -268q32 -64 32 -137z" />
    <glyph glyph-name="uni0406" unicode="&#x406;" horiz-adv-x="1189" 
d="M1087 1444v-289h-327v-866h327v-289h-985v289h328v866h-328v289h985z" />
    <glyph glyph-name="uni0407" unicode="&#x407;" horiz-adv-x="1189" 
d="M326 1546q-98 0 -150.5 42.5t-52.5 121.5q0 78 52.5 121t150.5 43t152 -43t54 -121q0 -79 -53.5 -121.5t-152.5 -42.5zM858 1546q-98 0 -150.5 42.5t-52.5 121.5q0 78 52.5 121t150.5 43t152.5 -43t54.5 -121q0 -79 -54 -121.5t-153 -42.5zM1087 1444v-289h-327v-866h327
v-289h-985v289h328v866h-328v289h985z" />
    <glyph glyph-name="uni0408" unicode="&#x408;" horiz-adv-x="1097" 
d="M408 -20l-367 20v289l367 -21q59 -3 102.5 6.5t71.5 36t45 57t25.5 82t11 98t2.5 116.5v512l-435 -21v289l588 20q85 3 130.5 -42.5t45.5 -131.5v-737q0 -106 -11.5 -186.5t-38 -149t-70.5 -114.5t-109 -77t-154 -42t-204 -4z" />
    <glyph glyph-name="uni0409" unicode="&#x409;" horiz-adv-x="2299" 
d="M1386 973h189q80 0 144.5 -4.5t133.5 -18t121 -35.5t100 -59t79 -87.5t49 -122.5t18 -161t-18 -160.5t-49 -122t-79 -87t-100 -58.5t-121 -35t-133.5 -17.5t-144.5 -4.5h-518v1155h-385q-1 -119 -5.5 -213t-14 -196.5t-25 -181.5t-40 -159.5t-58 -139t-80.5 -111
t-106 -85t-135 -51t-167 -18.5v289q160 0 229 186q62 166 71 567q3 123 3 402h1042v-471zM1386 289h189q78 0 124.5 3.5t87.5 14.5t61 33t31 57t11 88q0 54 -11 89.5t-31 58t-61 34t-88 15.5t-124 4h-189v-397z" />
    <glyph glyph-name="uni040A" unicode="&#x40a;" horiz-adv-x="2420" 
d="M1505 973h189q80 0 144.5 -4.5t133.5 -18t121 -35.5t100 -59t79 -87.5t49 -122.5t18 -161t-18 -160.5t-49 -122t-79 -87t-100 -58.5t-121 -35t-133.5 -17.5t-144.5 -4.5h-518v559h-723v-559h-330v1444h330v-598h723v598h329v-471zM1505 289h189q78 0 124.5 3.5t87.5 14.5
t61 33t31 57t11 88q0 54 -11 89.5t-31 58t-61 34t-88 15.5t-124 4h-189v-397z" />
    <glyph glyph-name="uni040B" unicode="&#x40b;" horiz-adv-x="1767" 
d="M684 977l782 41q87 5 134 -38.5t47 -129.5v-850h-330v723l-633 -33v-690h-330v1155h-313v289h1147v-289h-504v-178z" />
    <glyph glyph-name="uni040C" unicode="&#x40c;" horiz-adv-x="1427" 
d="M1044 1956l56 -234l-801 -176l-55 234zM1386 0h-391l-430 553q-53 -44 -112 -55v-498h-330v1444h330v-553l395 455q85 98 213 98h285v-289h-248l-322 -367z" />
    <glyph glyph-name="uni040D" unicode="&#x40d;" 
d="M518 1956l801 -176l-55 -234l-801 176zM1554 1444v-1444h-329v1155l63 207h-84l-432 -1362h-649v1444h330v-1155l-62 -207h82l434 1362h647z" />
    <glyph glyph-name="uni040F" unicode="&#x40f;" horiz-adv-x="1546" 
d="M1094 289v1155h329v-1444h-485v-287h-330v287h-485v1444h330v-1155h641z" />
    <glyph glyph-name="uni0410" unicode="&#x410;" horiz-adv-x="1593" 
d="M1552 0h-333l-129 463h-586l-129 -463h-334l416 1444h678zM754 1362l-170 -612h426l-172 612h-84z" />
    <glyph glyph-name="uni0411" unicode="&#x411;" horiz-adv-x="1388" 
d="M453 973h188q80 0 144.5 -4.5t133.5 -18t121 -35.5t100 -59t79 -87.5t49 -122.5t18 -161t-18 -160.5t-49 -122t-79 -87t-100 -58.5t-121 -35t-133.5 -17.5t-144.5 -4.5h-518v1444h993v-289h-663v-182zM453 289h188q78 0 124.5 3.5t87.5 14.5t61 33t31 57t11 88
q0 54 -11 89.5t-31 58t-61 34t-88 15.5t-124 4h-188v-397z" />
    <glyph glyph-name="uni0412" unicode="&#x412;" horiz-adv-x="1437" 
d="M655 0h-532v1444h508q126 0 217.5 -9.5t166.5 -33t120.5 -64t69.5 -101.5t24 -146q0 -75 -22 -129t-50 -82.5t-81.5 -46t-86.5 -21.5t-95 -9q-9 -1 -13 -1v-82q43 -2 73.5 -3.5t72 -6.5t70 -12.5t63.5 -20t58.5 -29.5t47 -42t37.5 -56.5t23 -73.5t9 -92
q0 -96 -35.5 -165.5t-94 -111t-149.5 -66t-184 -32.5t-217 -8zM453 1155v-260h221q37 0 54.5 0.5t46.5 2.5t43 7t33 14.5t27 23.5t14.5 34.5t6.5 48.5q0 38 -12 63t-28 38t-51 19.5t-59 7.5t-75 1h-221zM453 608v-319h243q156 0 205 12q81 19 99 89q6 24 6 56q0 24 -3 44
t-11 35t-15.5 27t-24 21t-28 15t-35.5 9.5t-39.5 6t-47 3.5t-50 1h-56.5h-243z" />
    <glyph glyph-name="uni0413" unicode="&#x413;" horiz-adv-x="1202" 
d="M453 0h-330v1444h1020v-289h-690v-1155z" />
    <glyph glyph-name="uni0414" unicode="&#x414;" horiz-adv-x="1587" 
d="M1411 289h135v-576h-329v287h-846v-287h-330v576h135q101 128 157 420t56 735h1022v-1155zM506 289h575v866h-368q-34 -648 -207 -866z" />
    <glyph glyph-name="uni0415" unicode="&#x415;" horiz-adv-x="1234" 
d="M1155 0h-1032v1444h1032v-289h-702v-289h600v-286h-600v-291h702v-289z" />
    <glyph glyph-name="uni0416" unicode="&#x416;" horiz-adv-x="2197" 
d="M2157 1444v-289h-248l-359 -407l607 -748h-408l-414 524q-34 -18 -71 -26v-498h-330v498q-38 6 -72 26l-413 -524h-408l606 745l-358 410h-248v289h283q128 0 213 -98l397 -455v553h330v-553l395 455q85 98 215 98h283z" />
    <glyph glyph-name="uni0417" unicode="&#x417;" horiz-adv-x="1501" 
d="M102 551h330q0 -167 74.5 -225t269.5 -58q158 0 225.5 38t67.5 126q0 84 -52 126t-147 42h-200v287h200q179 0 179 145q0 74 -60.5 109t-212.5 35q-128 0 -197.5 -21.5t-97.5 -68t-28 -132.5h-330q0 109 32.5 196t90 145t140.5 96.5t179.5 55.5t210.5 17q131 0 240 -24.5
t190.5 -72t126.5 -122.5t45 -172q0 -53 -12 -94.5t-37 -70.5t-53 -49t-72 -34.5t-80 -23t-90 -17.5v-82q49 -7 78.5 -12t73.5 -16t70 -24.5t56.5 -36.5t47 -52.5t28 -73t11.5 -96.5q0 -104 -48 -184t-134 -129t-197 -73.5t-244 -24.5q-116 0 -213 17.5t-184 59t-147 105.5
t-95 163t-35 226z" />
    <glyph glyph-name="uni0418" unicode="&#x418;" 
d="M1554 1444v-1444h-329v1155l63 207h-84l-432 -1362h-649v1444h330v-1155l-62 -207h82l434 1362h647z" />
    <glyph glyph-name="uni0419" unicode="&#x419;" 
d="M999 1954h246q0 -82 -20.5 -152.5t-63 -129t-117 -92.5t-174.5 -34q-80 0 -144.5 22.5t-106.5 60.5t-70.5 91t-40.5 111t-12 123h245q0 -102 32.5 -142t96.5 -40t96.5 40t32.5 142zM1554 1444v-1444h-329v1155l63 207h-84l-432 -1362h-649v1444h330v-1155l-62 -207h82
l434 1362h647z" />
    <glyph glyph-name="uni041A" unicode="&#x41a;" horiz-adv-x="1427" 
d="M1386 0h-391l-430 553q-53 -44 -112 -55v-498h-330v1444h330v-553l395 455q85 98 213 98h285v-289h-248l-322 -367z" />
    <glyph glyph-name="uni041B" unicode="&#x41b;" horiz-adv-x="1507" 
d="M1386 1444v-1444h-329v1155h-385q-1 -119 -5.5 -213t-14 -196.5t-25 -181.5t-40 -159.5t-58 -139t-80.5 -111t-106 -85t-135 -51t-167 -18.5v289q160 0 229 186q62 166 71 567q3 123 3 402h1042z" />
    <glyph glyph-name="uni041C" unicode="&#x41c;" horiz-adv-x="2041" 
d="M453 0h-330v1444h647l209 -1362h84l209 1362h647v-1444h-330v1155l62 207h-82l-230 -1362h-637l-229 1362h-84l64 -207v-1155z" />
    <glyph glyph-name="uni041D" unicode="&#x41d;" horiz-adv-x="1628" 
d="M1176 846v598h329v-1444h-329v559h-723v-559h-330v1444h330v-598h723z" />
    <glyph glyph-name="uni041E" unicode="&#x41e;" 
d="M102 723q0 157 51.5 293t145 235t233 156t308.5 57q168 0 307 -57t232.5 -156t144.5 -235t51 -293q0 -158 -51 -294t-144.5 -235.5t-232.5 -156.5t-307 -57q-169 0 -308.5 57t-233 156.5t-145 235.5t-51.5 294zM432 723q0 -214 104 -334.5t304 -120.5t303.5 120.5
t103.5 334.5q0 212 -103.5 332.5t-303.5 120.5t-304 -120.5t-104 -332.5z" />
    <glyph glyph-name="uni041F" unicode="&#x41f;" horiz-adv-x="1503" 
d="M1382 1444v-1444h-329v1155h-600v-1155h-330v1444h1259z" />
    <glyph glyph-name="uni0420" unicode="&#x420;" horiz-adv-x="1368" 
d="M641 1444q120 0 208.5 -10.5t175 -42.5t141 -86.5t87.5 -147t33 -219.5q0 -92 -17 -166t-46.5 -126.5t-76 -91t-98 -62.5t-120.5 -38t-136 -19t-151 -5h-188v-430h-330v1444h518zM453 717h209q54 0 90 2.5t72.5 10t58.5 22.5t40 39.5t25.5 60.5t7.5 86q0 58 -12.5 98
t-34 63.5t-61 36t-80.5 16t-106 3.5h-209v-438z" />
    <glyph glyph-name="uni0421" unicode="&#x421;" horiz-adv-x="1658" 
d="M102 723q0 210 88.5 377.5t259 265.5t394.5 98q301 0 490.5 -154.5t221.5 -422.5h-327q-24 139 -126.5 214t-254.5 75q-192 0 -304 -117.5t-112 -335.5q0 -220 112 -337.5t304 -117.5q151 0 254 75.5t127 215.5h327q-32 -269 -221.5 -424t-490.5 -155q-169 0 -309 57
t-234.5 156.5t-146.5 235.5t-52 294z" />
    <glyph glyph-name="uni0422" unicode="&#x422;" horiz-adv-x="1394" 
d="M61 1444h1272v-289h-471v-1155h-327v1155h-474v289z" />
    <glyph glyph-name="uni0423" unicode="&#x423;" horiz-adv-x="1417" 
d="M760 860l266 584h352l-493 -993v-299q0 -86 -46 -130.5t-132 -41.5l-506 14v289l354 -13v181l-494 993h351l266 -584v-164h82v164z" />
    <glyph glyph-name="uni0424" unicode="&#x424;" horiz-adv-x="1781" 
d="M1720 719q0 -248 -177.5 -394.5t-506.5 -172.5v-152h-288v152q-331 26 -509 172.5t-178 394.5q0 247 178 393t509 172v160h288v-160q329 -26 506.5 -172t177.5 -393zM391 719q0 -137 86.5 -202t270.5 -79v559q-185 -14 -271 -78t-86 -200zM1036 997v-559q184 15 269.5 80
t85.5 201q0 135 -85 199t-270 79z" />
    <glyph glyph-name="uni0425" unicode="&#x425;" horiz-adv-x="1617" 
d="M420 0h-379l487 682v82l-487 680h379l387 -553l391 553h379l-490 -680v-82l490 -682h-379l-391 555z" />
    <glyph glyph-name="uni0426" unicode="&#x426;" horiz-adv-x="1830" 
d="M1382 289h213q85 0 129.5 -45t44.5 -131v-400h-329v287h-1317v1444h330v-1155h600v1155h329v-1155z" />
    <glyph glyph-name="uni0427" unicode="&#x427;" horiz-adv-x="1536" 
d="M1085 754v690h330v-1444h-330v467l-784 -41q-86 -5 -132 38.5t-46 129.5v850h330v-723z" />
    <glyph glyph-name="uni0428" unicode="&#x428;" horiz-adv-x="2043" 
d="M1593 289v1155h330v-1444h-1800v1444h330v-1155h405v1155h330v-1155h405z" />
    <glyph glyph-name="uni0429" unicode="&#x429;" horiz-adv-x="2371" 
d="M1923 289h213q85 0 129.5 -45t44.5 -131v-400h-330v287h-1857v1444h330v-1155h405v1155h330v-1155h405v1155h330v-1155z" />
    <glyph glyph-name="uni042A" unicode="&#x42a;" horiz-adv-x="1613" 
d="M698 973h189q80 0 144.5 -4.5t133.5 -18t121 -35.5t100 -59t79 -87.5t49 -122.5t18 -161t-18 -160.5t-49 -122t-79 -87t-100 -58.5t-121 -35t-133.5 -17.5t-144.5 -4.5h-518v1155h-328v289h657v-471zM698 289h189q78 0 124.5 3.5t87.5 14.5t61 33t31 57t11 88
q0 54 -11 89.5t-31 58t-61 34t-88 15.5t-124 4h-189v-397z" />
    <glyph glyph-name="uni042B" unicode="&#x42b;" horiz-adv-x="1918" 
d="M123 1444h330v-471h188q80 0 144.5 -4.5t133.5 -18t121 -35.5t100 -59t79 -87.5t49 -122.5t18 -161t-18 -160.5t-49 -122t-79 -87t-100 -58.5t-121 -35t-133.5 -17.5t-144.5 -4.5h-518v1444zM1468 0v1444h328v-1444h-328zM453 686v-397h188q78 0 124.5 3.5t87.5 14.5
t61 33t31 57t11 88q0 54 -11 89.5t-31 58t-61 34t-88 15.5t-124 4h-188z" />
    <glyph glyph-name="uni042C" unicode="&#x42c;" horiz-adv-x="1368" 
d="M123 1444h330v-471h188q80 0 144.5 -4.5t133.5 -18t121 -35.5t100 -59t79 -87.5t49 -122.5t18 -161t-18 -160.5t-49 -122t-79 -87t-100 -58.5t-121 -35t-133.5 -17.5t-144.5 -4.5h-518v1444zM453 686v-397h188q78 0 124.5 3.5t87.5 14.5t61 33t31 57t11 88q0 54 -11 89.5
t-31 58t-61 34t-88 15.5t-124 4h-188z" />
    <glyph glyph-name="uni042D" unicode="&#x42d;" horiz-adv-x="1658" 
d="M815 1464q224 0 394 -98t258.5 -265.5t88.5 -377.5q0 -211 -88.5 -379t-258.5 -266t-394 -98q-301 0 -491 155t-222 424h330q24 -139 126.5 -215t252.5 -76q158 0 263 80t140 232h-522v286h522q-35 151 -140.5 230.5t-262.5 79.5q-150 0 -252.5 -75t-126.5 -214h-330
q32 268 222 422.5t491 154.5z" />
    <glyph glyph-name="uni042E" unicode="&#x42e;" horiz-adv-x="2103" 
d="M1307 1464q168 0 300.5 -54t218.5 -152t130.5 -233.5t44.5 -301.5q0 -167 -44.5 -303t-130.5 -234t-218.5 -152t-300.5 -54q-300 0 -477.5 160.5t-213.5 439.5h-163v-580h-330v1444h330v-578h163q38 278 214.5 438t476.5 160zM1307 268q179 0 271.5 106.5t92.5 348.5
q0 240 -92.5 346.5t-271.5 106.5q-181 0 -275 -106.5t-94 -346.5q0 -242 94 -348.5t275 -106.5z" />
    <glyph glyph-name="uni042F" unicode="&#x42f;" horiz-adv-x="1406" 
d="M670 1444h616v-1444h-330v594h-149l-248 -469q-65 -125 -207 -125h-311v289h256l172 317q-192 28 -296.5 126t-104.5 288q0 98 30 172t82 121.5t130 77t165 41.5t195 12zM629 881h327v276h-327q-125 0 -179.5 -27.5t-54.5 -109.5q0 -84 54 -111.5t180 -27.5z" />
    <glyph glyph-name="uni0430" unicode="&#x430;" horiz-adv-x="1320" 
d="M82 283q0 137 95 215.5t319 109.5l325 45q0 133 -207 133q-98 0 -150 -38t-52 -109h-310q0 128 68 223.5t183.5 144t260.5 48.5q88 0 165.5 -16.5t146.5 -53.5t118.5 -92t78 -135.5t28.5 -179.5v-289h149v-289h-229q-73 0 -113 40t-40 114v20l51 123h-82
q-16 -70 -43.5 -123t-76 -99t-126 -70.5t-182.5 -24.5q-92 0 -162.5 22t-110 54t-64 75t-32.5 79t-8 73zM412 344q0 -41 32.5 -59.5t79.5 -18.5q135 0 216 54.5t81 148.5l-264 -37q-79 -12 -112 -29.5t-33 -58.5z" />
    <glyph glyph-name="uni0431" unicode="&#x431;" horiz-adv-x="1427" 
d="M102 670q0 158 35.5 278t106.5 204t165 139.5t224 97.5q193 62 261 101t81 97h371q-8 -60 -31 -111.5t-53.5 -89t-77.5 -69.5t-91 -53.5t-107 -41.5t-112 -32t-118 -27q-209 -44 -310.5 -128.5t-132.5 -241.5l-82 -185h82q34 213 163 330t331 117q235 0 383.5 -149
t148.5 -376q0 -119 -36.5 -217.5t-110 -173.5t-193.5 -117t-278 -42q-297 0 -458 180.5t-161 509.5zM432 518q0 -123 75.5 -186.5t213.5 -63.5q139 0 214 63.5t75 186.5t-74.5 185.5t-214.5 62.5t-214.5 -62.5t-74.5 -185.5z" />
    <glyph glyph-name="uni0432" unicode="&#x432;" horiz-adv-x="1179" 
d="M680 0h-557v1034h481q104 0 180 -11t137 -37t92 -75t31 -120q0 -199 -229 -216v-81q46 -1 84 -5.5t81 -19t72 -38t48.5 -65.5t19.5 -98q0 -268 -440 -268zM432 809v-168h172q79 0 105 14.5t26 69.5q0 52 -27 68t-104 16h-172zM432 416v-191h248q72 0 101.5 21.5
t29.5 75.5q0 57 -28 75.5t-103 18.5h-248z" />
    <glyph glyph-name="uni0433" unicode="&#x433;" horiz-adv-x="1021" 
d="M453 0h-330v1034h878v-289h-548v-745z" />
    <glyph glyph-name="uni0434" unicode="&#x434;" horiz-adv-x="1464" 
d="M1227 1034v-745h135v-576h-330v287h-620v-287h-330v576h135q83 109 117.5 277t34.5 468h858zM547 289h350v456h-209q-13 -162 -47 -269.5t-94 -186.5z" />
    <glyph glyph-name="uni0435" unicode="&#x435;" horiz-adv-x="1292" 
d="M82 530q0 243 150 384t395 141t396 -136t151 -368v-102h-783q0 -93 68 -148t203 -55q88 0 147 31t74 88h327q-6 -47 -29 -97.5t-69 -102.5t-107 -93t-150.5 -66.5t-192.5 -25.5q-144 0 -257 44.5t-182.5 121t-105 174.5t-35.5 210zM391 633h475q0 66 -56.5 109.5
t-182.5 43.5t-181 -43t-55 -110z" />
    <glyph glyph-name="uni0436" unicode="&#x436;" horiz-adv-x="1804" 
d="M1763 1034v-289h-166l-147 -192l313 -553h-356l-219 385h-17h-104v-385h-330v385h-104h-17l-219 -385h-356l313 553l-147 192h-166v289h184q154 0 217 -84l207 -278h88v362h330v-362h88l207 278q63 84 217 84h184z" />
    <glyph glyph-name="uni0437" unicode="&#x437;" horiz-adv-x="1202" 
d="M102 397h310q0 -61 11.5 -99t38.5 -58.5t62.5 -27.5t93.5 -7q173 0 173 110q0 61 -38.5 82t-115.5 21h-102v225h102q133 0 133 94q0 52 -37 72t-123 20q-106 0 -142 -26t-36 -103h-309q0 173 122.5 264t364.5 91q225 0 347 -77.5t122 -205.5q0 -73 -32.5 -120t-79 -64
t-105.5 -17v-82q44 0 84 -11t75.5 -34.5t57 -66.5t21.5 -101q0 -135 -127.5 -215.5t-354.5 -80.5q-516 0 -516 417z" />
    <glyph glyph-name="uni0438" unicode="&#x438;" horiz-adv-x="1419" 
d="M1337 1034v-1034h-327v778l61 174h-82l-223 -952h-643v1034h328v-766l-62 -186h82l223 952h643z" />
    <glyph glyph-name="uni0439" unicode="&#x439;" horiz-adv-x="1419" 
d="M868 1544h246q0 -82 -20.5 -152.5t-63 -129t-117 -92t-174.5 -33.5q-80 0 -144.5 22.5t-106.5 60.5t-70.5 90.5t-40.5 110.5t-12 123h245q0 -102 32.5 -142t96.5 -40t96.5 40t32.5 142zM1337 1034v-1034h-327v778l61 174h-82l-223 -952h-643v1034h328v-766l-62 -186h82
l223 952h643z" />
    <glyph glyph-name="uni043A" unicode="&#x43a;" horiz-adv-x="1230" 
d="M858 582l332 -582h-356l-220 387q-18 -2 -57 -2h-104v-385h-330v1034h330v-362h88l204 278q63 84 220 84h184v-289h-166z" />
    <glyph glyph-name="uni043B" unicode="&#x43b;" horiz-adv-x="1282" 
d="M1161 1034v-1034h-330v745h-221q-3 -108 -11 -190.5t-24 -163t-42 -138t-65.5 -108t-93.5 -81t-127 -47.5t-165 -17v289q46 0 77.5 14t54.5 52t36 88.5t20.5 142t10 191.5t2.5 257h878z" />
    <glyph glyph-name="uni043C" unicode="&#x43c;" horiz-adv-x="1802" 
d="M451 0h-328v1034h651l86 -952h82l84 952h655v-1034h-329v768l61 184h-82l-110 -952h-641l-109 952h-82l62 -184v-768z" />
    <glyph glyph-name="uni043D" unicode="&#x43d;" horiz-adv-x="1390" 
d="M938 662v372h330v-1034h-330v375h-485v-375h-330v1034h330v-372h485z" />
    <glyph glyph-name="uni043E" unicode="&#x43e;" horiz-adv-x="1329" 
d="M82 518q0 132 45 235.5t125 168.5t185 99t229 34q123 0 227.5 -34t184 -99t124.5 -168.5t45 -235.5t-45 -236t-124.5 -169.5t-184 -99t-227.5 -33.5q-124 0 -229 33.5t-185 99t-125 169.5t-45 236zM412 518q0 -127 66.5 -188.5t187.5 -61.5q120 0 187 62t67 188
q0 125 -67 186.5t-187 61.5q-121 0 -187.5 -61.5t-66.5 -186.5z" />
    <glyph glyph-name="uni043F" unicode="&#x43f;" horiz-adv-x="1300" 
d="M1178 1034v-1034h-330v745h-395v-745h-330v1034h1055z" />
    <glyph glyph-name="uni0440" unicode="&#x440;" horiz-adv-x="1409" 
d="M123 -389v1423h330v-63l-64 -185h84q17 45 37.5 81t54.5 72.5t76 60.5t103.5 39.5t136.5 15.5q144 0 247 -74.5t151 -194.5t48 -270q0 -112 -28 -208t-82 -169.5t-140.5 -116t-195.5 -42.5q-75 0 -136.5 15t-103.5 39.5t-76 60.5t-54.5 72t-37.5 81h-84l64 -185v-452
h-330zM453 516q0 -129 68.5 -188.5t203.5 -59.5q136 0 205 59.5t69 188.5q0 250 -274 250q-135 0 -203.5 -60.5t-68.5 -189.5z" />
    <glyph glyph-name="uni0441" unicode="&#x441;" horiz-adv-x="1284" 
d="M82 518q0 253 156 395t409 142q108 0 205.5 -29t174 -84t124 -142t51.5 -194h-328q-9 70 -70 115t-157 45q-115 0 -175 -64.5t-60 -183.5q0 -121 60 -185.5t175 -64.5q96 0 157 45t70 115h328q-4 -107 -51.5 -193.5t-124 -141.5t-174 -84t-205.5 -29q-166 0 -292.5 61.5
t-199.5 184.5t-73 292z" />
    <glyph glyph-name="uni0442" unicode="&#x442;" horiz-adv-x="1230" 
d="M1169 1034v-289h-389v-745h-329v745h-390v289h1108z" />
    <glyph glyph-name="uni0443" unicode="&#x443;" horiz-adv-x="1378" 
d="M739 467l226 567h372l-473 -973v-319q0 -86 -45.5 -130.5t-130.5 -41.5l-508 14v287l355 -4v194l-474 973h371l225 -567v-164h82v164z" />
    <glyph glyph-name="uni0444" unicode="&#x444;" horiz-adv-x="1658" 
d="M1577 520q0 -232 -160.5 -369t-441.5 -165v-355h-289v355q-284 28 -444 164t-160 370q0 230 160.5 365.5t443.5 163.5v333h289v-333q281 -28 441.5 -163.5t160.5 -365.5zM412 520q0 -112 70 -170t204 -74v482q-134 -16 -204 -72.5t-70 -165.5zM975 758v-482
q134 18 203 75.5t69 168.5q0 106 -69.5 163t-202.5 75z" />
    <glyph glyph-name="uni0445" unicode="&#x445;" horiz-adv-x="1382" 
d="M453 0h-392l394 477v82l-394 475h392l237 -332l240 332h391l-393 -475v-82l393 -477h-391l-240 334z" />
    <glyph glyph-name="uni0446" unicode="&#x446;" horiz-adv-x="1566" 
d="M1178 289h174q85 0 129.5 -45t44.5 -131v-400h-330v287h-1073v1034h330v-745h395v745h330v-745z" />
    <glyph glyph-name="uni0447" unicode="&#x447;" horiz-adv-x="1353" 
d="M901 657v377h330v-1034h-330v369l-598 -39q-86 -6 -133 38t-47 130v536h330v-413z" />
    <glyph glyph-name="uni0448" unicode="&#x448;" 
d="M1225 289v745h329v-1034h-1431v1034h330v-745h221v745h330v-745h221z" />
    <glyph glyph-name="uni0449" unicode="&#x449;" horiz-adv-x="1943" 
d="M1554 289h175q85 0 129.5 -45t44.5 -131v-400h-330v287h-1450v1034h330v-745h221v745h330v-745h221v745h329v-745z" />
    <glyph glyph-name="uni044A" unicode="&#x44a;" horiz-adv-x="1370" 
d="M641 811h145q502 0 502 -405q0 -406 -502 -406h-475v745h-270v289h600v-223zM641 289h125q109 0 150.5 22t41.5 95q0 74 -41 96t-151 22h-125v-235z" />
    <glyph glyph-name="uni044B" unicode="&#x44b;" horiz-adv-x="1708" 
d="M453 811h145q502 0 502 -405q0 -406 -502 -406h-475v1034h330v-223zM1585 0h-328v1034h328v-1034zM453 524v-235h125q109 0 150.5 22t41.5 95q0 74 -41 96t-151 22h-125z" />
    <glyph glyph-name="uni044C" unicode="&#x44c;" horiz-adv-x="1179" 
d="M453 811h145q502 0 502 -405q0 -406 -502 -406h-475v1034h330v-223zM453 524v-235h125q109 0 150.5 22t41.5 95q0 74 -41 96t-151 22h-125z" />
    <glyph glyph-name="uni044D" unicode="&#x44d;" horiz-adv-x="1284" 
d="M637 1055q253 0 409 -142t156 -395q0 -169 -73 -292t-199.5 -184.5t-292.5 -61.5q-108 0 -204.5 29t-173.5 84t-124.5 141.5t-52.5 193.5h330q9 -70 69.5 -115t155.5 -45q178 0 223 148h-307v205h307q-45 145 -223 145q-95 0 -155.5 -45t-69.5 -115h-330q5 107 52.5 194
t124.5 142t174 84t204 29z" />
    <glyph glyph-name="uni044E" unicode="&#x44e;" horiz-adv-x="1718" 
d="M1116 1055q168 0 286.5 -69.5t176 -189t57.5 -278.5q0 -244 -134.5 -391t-385.5 -147q-213 0 -342.5 105.5t-165.5 289.5h-155v-375h-330v1034h330v-372h155q36 183 166 288t342 105zM1116 268q99 0 146 61t47 189q0 127 -47 187.5t-146 60.5t-145.5 -60.5t-46.5 -187.5
q0 -128 46.5 -189t145.5 -61z" />
    <glyph glyph-name="uni044F" unicode="&#x44f;" horiz-adv-x="1126" 
d="M444 1034h560v-1034h-330v410h-82l-211 -299q-41 -59 -90.5 -85t-118.5 -26h-152v268h158l109 150q-55 9 -95.5 27.5t-74.5 52.5t-52 90.5t-18 134.5q0 67 22 120.5t59.5 89t89 58.5t107.5 33t119 10zM526 635h148v174h-148q-85 0 -118 -18.5t-33 -67.5q0 -51 32.5 -69.5
t118.5 -18.5z" />
    <glyph glyph-name="uni0450" unicode="&#x450;" horiz-adv-x="1292" 
d="M295 1546l801 -176l-56 -233l-800 176zM82 530q0 243 150 384t395 141t396 -136t151 -368v-102h-783q0 -93 68 -148t203 -55q88 0 147 31t74 88h327q-6 -47 -29 -97.5t-69 -102.5t-107 -93t-150.5 -66.5t-192.5 -25.5q-144 0 -257 44.5t-182.5 121t-105 174.5t-35.5 210z
M391 633h475q0 66 -56.5 109.5t-182.5 43.5t-181 -43t-55 -110z" />
    <glyph glyph-name="uni0451" unicode="&#x451;" horiz-adv-x="1292" 
d="M379 1137q-98 0 -150.5 42t-52.5 121q0 78 52.5 121t150.5 43t152.5 -43t54.5 -121q0 -79 -54 -121t-153 -42zM911 1137q-98 0 -150 42t-52 121q0 78 52 121t150 43t152.5 -43t54.5 -121q0 -79 -54 -121t-153 -42zM82 530q0 243 150 384t395 141t396 -136t151 -368v-102
h-783q0 -93 68 -148t203 -55q88 0 147 31t74 88h327q-6 -47 -29 -97.5t-69 -102.5t-107 -93t-150.5 -66.5t-192.5 -25.5q-144 0 -257 44.5t-182.5 121t-105 174.5t-35.5 210zM391 633h475q0 66 -56.5 109.5t-182.5 43.5t-181 -43t-55 -110z" />
    <glyph glyph-name="uni0452" unicode="&#x452;" horiz-adv-x="1492" 
d="M967 1055q200 0 312 -129.5t112 -366.5v-797q0 -86 -46 -130.5t-131 -41.5l-507 15v289l354 -13v627q0 141 -47.5 199.5t-165.5 58.5q-69 0 -120.5 -19.5t-91.5 -62.5t-60.5 -118.5t-20.5 -182.5v-383h-330v1161h-123v246h123v98h330v-98h287v-246h-287v-252l-61 -184h81
q33 147 133.5 238.5t258.5 91.5z" />
    <glyph glyph-name="uni0453" unicode="&#x453;" horiz-adv-x="1036" 
d="M178 1137l-55 233l801 176l55 -233zM467 0h-330v1034h879v-289h-549v-745z" />
    <glyph glyph-name="uni0454" unicode="&#x454;" horiz-adv-x="1286" 
d="M647 268q96 0 157 45t70 115h328q-4 -86 -35.5 -159.5t-83.5 -126t-121.5 -89.5t-149 -55t-165.5 -18q-166 0 -292.5 61.5t-199.5 184.5t-73 292q0 253 156 395t409 142q108 0 205 -29t174 -84t124.5 -142t51.5 -194h-328q-9 70 -70 115t-157 45q-176 0 -221 -145h305
v-205h-305q45 -148 221 -148z" />
    <glyph glyph-name="uni0455" unicode="&#x455;" horiz-adv-x="1130" 
d="M1090 285q0 -68 -26 -121.5t-81.5 -95.5t-151 -65t-225.5 -23q-277 0 -411 103.5t-134 291.5h330q0 -67 52.5 -108.5t172.5 -41.5q144 0 144 70q0 35 -45 59q-29 15 -178 64q-16 5 -58 18.5t-61 19.5t-57.5 20.5t-58 24.5t-51 27t-48 32.5t-37.5 38.5t-31.5 46.5t-18 54
t-7.5 64.5q0 138 118 214.5t332 76.5q127 0 224.5 -30t155.5 -82.5t87 -118.5t29 -144h-330q0 58 -43 93.5t-125 35.5q-119 0 -119 -59q0 -33 56 -58.5t199 -71.5q8 -3 12 -4q162 -53 216 -80q128 -63 158 -168q11 -38 11 -83z" />
    <glyph glyph-name="uni0456" unicode="&#x456;" horiz-adv-x="1026" 
d="M506 1137q-92 0 -142.5 42t-50.5 121q0 78 51 121t142 43t143.5 -43t52.5 -121q0 -79 -52 -121t-144 -42zM985 0h-903v289h293v469l-252 -13v289l389 21q87 4 133.5 -40.5t46.5 -131.5v-594h293v-289z" />
    <glyph glyph-name="uni0457" unicode="&#x457;" horiz-adv-x="1064" 
d="M262 1137q-98 0 -150.5 42t-52.5 121q0 78 52.5 121t150.5 43t152.5 -43t54.5 -121q0 -79 -54 -121t-153 -42zM795 1137q-98 0 -150.5 42t-52.5 121q0 78 52.5 121t150.5 43t152 -43t54 -121q0 -79 -53.5 -121t-152.5 -42zM1024 0h-903v289h293v469l-252 -13v289l391 21
q86 4 132 -40.5t46 -131.5v-594h293v-289z" />
    <glyph glyph-name="uni0458" unicode="&#x458;" horiz-adv-x="712" 
d="M422 1137q-92 0 -142.5 42t-50.5 121q0 78 51 121t142 43q93 0 146 -43t53 -121q0 -79 -53 -121t-146 -42zM391 -410h-371l218 357q34 54 34 139v672l-252 -13v289l418 15q85 3 130.5 -41t45.5 -129v-818q0 -77 -34 -139z" />
    <glyph glyph-name="uni0459" unicode="&#x459;" horiz-adv-x="1888" 
d="M1161 811h146q501 0 501 -405q0 -406 -501 -406h-476v745h-221q-3 -108 -11 -190.5t-24 -163t-42 -138t-65.5 -108t-93.5 -81t-127 -47.5t-165 -17v289q46 0 77.5 14t54.5 52t36 88.5t20.5 142t10 191.5t2.5 257h878v-223zM1161 289h125q110 0 151.5 22t41.5 95
q0 74 -41.5 96t-151.5 22h-125v-235z" />
    <glyph glyph-name="uni045A" unicode="&#x45a;" horiz-adv-x="1996" 
d="M1268 811h147q500 0 500 -405q0 -406 -500 -406h-477v375h-485v-375h-330v1034h330v-372h485v372h330v-223zM1268 289h127q109 0 149.5 22t40.5 95q0 74 -40 96t-150 22h-127v-235z" />
    <glyph glyph-name="uni045B" unicode="&#x45b;" horiz-adv-x="1472" 
d="M946 1055q200 0 312 -129.5t112 -366.5v-559h-330v508q0 141 -47.5 199.5t-165.5 58.5q-69 0 -120.5 -19.5t-91 -62.5t-60 -118.5t-20.5 -182.5v-383h-330v1161h-123v246h123v98h330v-98h286v-246h-286v-252l-62 -184h82q33 147 133 238.5t258 91.5z" />
    <glyph glyph-name="uni045C" unicode="&#x45c;" horiz-adv-x="1230" 
d="M1006 1546l55 -233l-801 -176l-55 233zM858 582l332 -582h-356l-220 387q-18 -2 -57 -2h-104v-385h-330v1034h330v-362h88l204 278q63 84 220 84h184v-289h-166z" />
    <glyph glyph-name="uni045F" unicode="&#x45f;" horiz-adv-x="1382" 
d="M930 289v725h330v-1014h-404v-287h-330v287h-403v1014h330v-725h477z" />
    <glyph glyph-name="uni0490" unicode="&#x490;" horiz-adv-x="1161" 
d="M813 1444v225h330v-514h-690v-1155h-330v1444h690z" />
    <glyph glyph-name="uni0491" unicode="&#x491;" horiz-adv-x="1021" 
d="M672 1034v264h329v-553h-548v-745h-330v1034h549z" />
    <glyph glyph-name="Wgrave" unicode="&#x1e80;" horiz-adv-x="2396" 
d="M844 1956l801 -176l-56 -234l-801 176zM289 0l-248 1444h319l228 -1362h82l178 1362h700l176 -1362h82l230 1362h319l-248 -1444h-684l-184 1362h-82l-186 -1362h-682z" />
    <glyph glyph-name="wgrave" unicode="&#x1e81;" horiz-adv-x="1943" 
d="M618 1546l801 -176l-55 -233l-801 176zM164 0l-144 1034h316l131 -952h82l80 952h686l80 -952h82l133 952h313l-143 -1034h-688l-78 952h-84l-78 -952h-688z" />
    <glyph glyph-name="Wacute" unicode="&#x1e82;" horiz-adv-x="2396" 
d="M803 1546l-55 234l800 176l56 -234zM289 0l-248 1444h319l228 -1362h82l178 1362h700l176 -1362h82l230 1362h319l-248 -1444h-684l-184 1362h-82l-186 -1362h-682z" />
    <glyph glyph-name="wacute" unicode="&#x1e83;" horiz-adv-x="1943" 
d="M578 1137l-56 233l801 176l55 -233zM164 0l-144 1034h316l131 -952h82l80 952h686l80 -952h82l133 952h313l-143 -1034h-688l-78 952h-84l-78 -952h-688z" />
    <glyph glyph-name="Wdieresis" unicode="&#x1e84;" horiz-adv-x="2396" 
d="M930 1546q-98 0 -150.5 42.5t-52.5 121.5q0 78 52.5 121t150.5 43t152.5 -43t54.5 -121q0 -79 -54 -121.5t-153 -42.5zM1462 1546q-98 0 -150 42t-52 122q0 78 52 121t150 43t152.5 -43t54.5 -121q0 -79 -54 -121.5t-153 -42.5zM289 0l-248 1444h319l228 -1362h82
l178 1362h700l176 -1362h82l230 1362h319l-248 -1444h-684l-184 1362h-82l-186 -1362h-682z" />
    <glyph glyph-name="wdieresis" unicode="&#x1e85;" horiz-adv-x="1943" 
d="M705 1137q-98 0 -150.5 42t-52.5 121q0 78 52.5 121t150.5 43t152 -43t54 -121q0 -79 -53.5 -121t-152.5 -42zM1237 1137q-98 0 -150.5 42t-52.5 121q0 78 52.5 121t150.5 43t152.5 -43t54.5 -121q0 -79 -54 -121t-153 -42zM164 0l-144 1034h316l131 -952h82l80 952h686
l80 -952h82l133 952h313l-143 -1034h-688l-78 952h-84l-78 -952h-688z" />
    <glyph glyph-name="uni1E9E" unicode="&#x1e9e;" horiz-adv-x="1458" 
d="M819 -20l-252 20v289l252 -19q130 -9 189 27.5t59 124.5q0 74 -36 118t-90.5 51.5t-120 -15.5t-122.5 -74l-100 407l301 117q0 150 -192 150q-124 0 -189 -59t-65 -202v-915h-330v965q0 150 78.5 264.5t210.5 174.5t295 60q70 0 141.5 -18t140.5 -59t122 -99t85.5 -145
t32.5 -191l-508 -204l16 -78q68 43 144.5 64.5t149.5 20.5t139.5 -27t116.5 -71.5t80 -118.5t30 -163q0 -224 -139.5 -321.5t-438.5 -73.5z" />
    <glyph glyph-name="Ygrave" unicode="&#x1ef2;" horiz-adv-x="1482" 
d="M387 1956l801 -176l-55 -234l-801 176zM780 844l310 600h352l-537 -979v-465h-330v465l-534 979h352l305 -600v-187h82v187z" />
    <glyph glyph-name="ygrave" unicode="&#x1ef3;" horiz-adv-x="1378" 
d="M346 1546l801 -176l-55 -233l-801 176zM739 467l226 567h372l-473 -973v-319q0 -86 -45.5 -130.5t-130.5 -41.5l-508 14v287l355 -4v194l-474 973h371l225 -567v-164h82v164z" />
    <glyph glyph-name="endash" unicode="&#x2013;" horiz-adv-x="1822" 
d="M143 430v246h1538v-246h-1538z" />
    <glyph glyph-name="emdash" unicode="&#x2014;" horiz-adv-x="2232" 
d="M143 430v246h1948v-246h-1948z" />
    <glyph glyph-name="quoteleft" unicode="&#x2018;" horiz-adv-x="694" 
d="M143 1532l238 63l170 -634l-238 -64z" />
    <glyph glyph-name="quoteright" unicode="&#x2019;" horiz-adv-x="694" 
d="M143 961l170 634l240 -63l-170 -635z" />
    <glyph glyph-name="quotesinglbase" unicode="&#x201a;" horiz-adv-x="724" 
d="M143 -352l201 725l238 -64l-201 -727z" />
    <glyph glyph-name="quotedblleft" unicode="&#x201c;" horiz-adv-x="1093" 
d="M143 1532l238 63l170 -634l-238 -64zM541 1532l239 63l170 -634l-239 -64z" />
    <glyph glyph-name="quotedblright" unicode="&#x201d;" horiz-adv-x="1093" 
d="M143 961l170 634l240 -63l-170 -635zM543 961l170 634l237 -63l-170 -635z" />
    <glyph glyph-name="quotedblbase" unicode="&#x201e;" horiz-adv-x="1126" 
d="M143 -352l201 725l238 -64l-201 -727zM543 -352l202 725l238 -64l-201 -727z" />
    <glyph glyph-name="dagger" unicode="&#x2020;" horiz-adv-x="1187" 
d="M717 1405h327v-246h-327v-850h-246v850h-328v246h328v342h246v-342z" />
    <glyph glyph-name="daggerdbl" unicode="&#x2021;" horiz-adv-x="1187" 
d="M1044 1405v-246h-327v-262h327v-246h-327v-342h-246v342h-328v246h328v262h-328v246h328v342h246v-342h327z" />
    <glyph glyph-name="bullet" unicode="&#x2022;" horiz-adv-x="1605" 
d="M797 -143q-199 0 -349.5 88t-228.5 238t-78 339q0 137 45.5 256.5t128.5 207.5t207.5 139t274.5 51q194 0 347.5 -87.5t236.5 -236t83 -330.5q0 -187 -83 -338.5t-236 -239t-348 -87.5z" />
    <glyph glyph-name="ellipsis" unicode="&#x2026;" horiz-adv-x="1865" 
d="M367 -20q-102 0 -163 64t-61 163q0 96 61 159.5t163 63.5q100 0 163.5 -64t63.5 -159q0 -98 -63.5 -162.5t-163.5 -64.5zM930 -20q-102 0 -162.5 64t-60.5 163q0 96 60.5 159.5t162.5 63.5q101 0 165 -64t64 -159q0 -98 -63.5 -162.5t-165.5 -64.5zM1495 -20
q-102 0 -163.5 64t-61.5 163q0 96 61.5 159.5t163.5 63.5q100 0 163.5 -64t63.5 -159q0 -98 -63.5 -162.5t-163.5 -64.5z" />
    <glyph glyph-name="perthousand" unicode="&#x2030;" horiz-adv-x="3588" 
d="M809 -154l692 1801l234 -91l-695 -1800zM618 575q-139 0 -248.5 65t-168 173t-58.5 238q0 199 133 337t342 138q104 0 194 -38t151.5 -102t96 -151t34.5 -184q0 -199 -133.5 -337.5t-342.5 -138.5zM618 821q100 0 165 67t65 163q0 95 -65 161t-165 66t-164.5 -66
t-64.5 -161q0 -96 65 -163t164 -67zM1919 -143q-140 0 -250 64.5t-168.5 172.5t-58.5 238t58.5 238t168.5 172.5t250 64.5q209 0 342 -138t133 -337t-133 -337t-342 -138zM2970 -143q-104 0 -194 38t-151.5 102t-96 151t-34.5 184t34.5 184t96 151t151.5 102t194 38
q209 0 342 -138t133 -337t-133 -337t-342 -138zM1919 102q98 0 162.5 67.5t64.5 162.5t-64.5 161t-162.5 66q-100 0 -164.5 -66t-64.5 -161q0 -96 65 -163t164 -67zM2970 102q99 0 163 67t64 163t-63.5 161.5t-163.5 65.5t-165 -66t-65 -161q0 -96 65 -163t165 -67z" />
    <glyph glyph-name="guilsinglleft" unicode="&#x2039;" horiz-adv-x="1120" 
d="M494 508l485 -488l-182 -163l-654 651l654 649l182 -164z" />
    <glyph glyph-name="guilsinglright" unicode="&#x203a;" horiz-adv-x="1120" 
d="M324 -143l-181 163l486 488l-486 485l181 164l655 -649z" />
    <glyph glyph-name="fraction" unicode="&#x2044;" horiz-adv-x="884" 
d="M-20 -133l692 1800l233 -90l-694 -1800z" />
    <glyph glyph-name="Euro" unicode="&#x20ac;" horiz-adv-x="1777" 
d="M1018 268q251 0 291 221h325q-34 -240 -196.5 -374.5t-419.5 -134.5t-423 127.5t-228 347.5h-224v204h191q-2 20 -2 64q0 39 2 59h-191v205h224q61 221 226.5 349t424.5 128q258 0 420 -134t196 -374h-329q-37 220 -287 220q-241 0 -316 -189h400v-205h-438
q-2 -18 -2 -59q0 -44 2 -64h438v-204h-400q42 -102 121.5 -144.5t194.5 -42.5z" />
    <glyph glyph-name="trademark" unicode="&#x2122;" horiz-adv-x="1984" 
d="M143 1444h615v-184h-203v-500h-205v500h-207v184zM1346 842l81 602h414v-684h-205v448l52 154h-62l-90 -602h-420l-92 602h-59l49 -154v-448h-205v684h416l80 -602h41z" />
    <glyph glyph-name="oneeighth" unicode="&#x215b;" horiz-adv-x="2435" 
d="M692 -133l694 1800l232 -90l-692 -1800zM166 995l-105 226q68 58 96.5 93.5t45 90t28.5 162.5h465v-973h-247v747l40 144h-61q-5 -78 -18 -143t-40.5 -136t-79.5 -125.5t-124 -85.5zM1536 250q0 59 24.5 104.5t67.5 72.5t88 42.5t99 22.5v40q-40 5 -77.5 18t-74 37
t-58.5 65.5t-22 95.5q0 115 94 180t279 65q182 0 275 -65t93 -180q0 -54 -21.5 -95.5t-57.5 -65.5t-72 -37t-76 -18v-40q53 -7 98.5 -22.5t87.5 -42.5t66.5 -72.5t24.5 -104.5q0 -124 -110.5 -197t-307.5 -73q-199 0 -309.5 72.5t-110.5 197.5zM1831 707q0 -93 125 -93
q71 0 96 26t25 67q0 38 -25 59.5t-96 21.5q-73 0 -99 -21.5t-26 -59.5zM1784 295q0 -111 172 -111q170 0 170 111q0 115 -170 115q-172 0 -172 -115z" />
    <glyph glyph-name="threeeighths" unicode="&#x215c;" horiz-adv-x="2541" 
d="M803 -133l692 1800l234 -90l-693 -1800zM61 969h246q0 -57 14 -94.5t43.5 -56.5t63 -25.5t82.5 -6.5q85 0 126.5 24.5t41.5 92.5q0 33 -11 54.5t-33.5 31.5t-45 13.5t-56.5 3.5h-98v202h98q67 0 99.5 17.5t32.5 72.5q0 52 -36.5 72.5t-117.5 20.5q-96 0 -143.5 -28.5
t-47.5 -102.5h-245q0 159 115 247t321 88q199 0 300 -73.5t101 -186.5q0 -52 -18.5 -89t-54.5 -58.5t-73.5 -32.5t-92.5 -20v-62q37 -7 55 -11t50 -13t48.5 -18t38.5 -24.5t33 -34t19 -45t8 -59.5q0 -134 -105 -210t-309 -76q-212 0 -330.5 96.5t-118.5 290.5zM1645 250
q0 59 24 104.5t66.5 72.5t87.5 42.5t98 22.5v40q-40 5 -77 18t-73 37t-57.5 65.5t-21.5 95.5q0 115 93.5 180t276.5 65q182 0 275.5 -65t93.5 -180q0 -54 -21.5 -95.5t-57.5 -65.5t-72 -37t-76 -18v-40q53 -7 98 -22.5t87.5 -42.5t66.5 -72.5t24 -104.5q0 -124 -110.5 -197
t-307.5 -73t-307 72.5t-110 197.5zM1937 707q0 -93 125 -93q72 0 97.5 26t25.5 67q0 38 -25 59.5t-98 21.5t-99 -21.5t-26 -59.5zM1890 295q0 -111 172 -111t172 111q0 115 -172 115t-172 -115z" />
    <glyph glyph-name="fiveeighths" unicode="&#x215d;" horiz-adv-x="2527" 
d="M788 -133l693 1800l233 -90l-692 -1800zM61 915h246q0 -64 49 -96.5t125 -32.5q89 0 137 32.5t48 111.5q0 157 -129 157q-103 0 -175 -112l-274 94v508h764v-207h-518v-176l-33 -90l41 -23q27 94 99.5 152.5t189.5 58.5q96 0 161 -48t92 -122t27 -170q0 -77 -25 -142.5
t-75 -117t-132.5 -81t-189.5 -29.5q-205 0 -316.5 85.5t-111.5 247.5zM1630 250q0 59 24.5 104.5t66.5 72.5t87.5 42.5t98.5 22.5v40q-40 5 -77 18t-73.5 37t-58 65.5t-21.5 95.5q0 115 94 180t277 65q182 0 275.5 -65t93.5 -180q0 -54 -21.5 -95.5t-58 -65.5t-72.5 -37
t-76 -18v-40q53 -7 98.5 -22.5t87.5 -42.5t66.5 -72.5t24.5 -104.5q0 -124 -110.5 -197t-307.5 -73t-307.5 73t-110.5 197zM1923 707q0 -93 125 -93q72 0 97.5 26t25.5 67q0 38 -25 59.5t-98 21.5t-99 -21.5t-26 -59.5zM1876 295q0 -111 172 -111t172 111q0 115 -172 115
t-172 -115z" />
    <glyph glyph-name="seveneighths" unicode="&#x215e;" horiz-adv-x="2394" 
d="M653 -133l693 1800l233 -90l-692 -1800zM422 594h-246q0 212 63.5 354t183 223t312.5 129v62h-674v205h756v-416q-222 -67 -308.5 -194.5t-86.5 -362.5zM1497 250q0 59 24.5 104.5t66.5 72.5t87.5 42.5t98.5 22.5v40q-40 5 -77 18t-73.5 37t-58 65.5t-21.5 95.5
q0 115 94 180t277 65q182 0 275.5 -65t93.5 -180q0 -54 -21.5 -95.5t-58 -65.5t-72.5 -37t-76 -18v-40q53 -7 98.5 -22.5t87.5 -42.5t66.5 -72.5t24.5 -104.5q0 -124 -110.5 -197t-307.5 -73t-307.5 73t-110.5 197zM1790 707q0 -93 125 -93q72 0 97.5 26t25.5 67
q0 38 -25 59.5t-98 21.5t-99 -21.5t-26 -59.5zM1743 295q0 -111 172 -111t172 111q0 115 -172 115t-172 -115z" />
    <glyph glyph-name="arrowleft" unicode="&#x2190;" horiz-adv-x="1783" 
d="M616 631h1024v-246h-1024l363 -365l-182 -163l-654 651l654 649l182 -164z" />
    <glyph glyph-name="arrowup" unicode="&#x2191;" horiz-adv-x="1589" 
d="M793 1251l653 -655l-166 -180l-362 360v-1024h-248v1026l-363 -362l-164 180z" />
    <glyph glyph-name="arrowright" unicode="&#x2192;" horiz-adv-x="1783" 
d="M807 993l180 164l653 -649l-653 -651l-180 163l362 365h-1026v246h1026z" />
    <glyph glyph-name="arrowdown" unicode="&#x2193;" horiz-adv-x="1589" 
d="M918 219l362 361l166 -181l-653 -655l-650 655l164 181l363 -363v1026h248v-1024z" />
    <glyph glyph-name="arrowboth" unicode="&#x2194;" horiz-adv-x="2793" 
d="M1817 1178l180 163l653 -649l-653 -651l-180 164l362 364h-1026v246h1026zM797 973l182 -164l-363 -363h1024v-245h-1024l363 -365l-182 -164l-654 652z" />
    <glyph glyph-name="arrowupdn" unicode="&#x2195;" horiz-adv-x="1957" 
d="M897 240h-248v1024l-362 -363l-164 182l649 654l653 -654l-165 -182l-363 361v-1022zM1307 -279l364 363l164 -182l-651 -654l-652 654l166 182l361 -360v1021h248v-1024z" />
    <glyph glyph-name="uni2196" unicode="&#x2196;" horiz-adv-x="1431" 
d="M565 850l725 -725l-176 -174l-725 725v-514l-246 12v924l922 -4l12 -244h-512z" />
    <glyph glyph-name="uni2197" unicode="&#x2197;" horiz-adv-x="1431" 
d="M354 850l13 244l921 4v-924l-246 -12v514l-725 -725l-176 174l725 725h-512z" />
    <glyph glyph-name="uni2198" unicode="&#x2198;" horiz-adv-x="1431" 
d="M1042 311v514l246 -12v-924l-921 5l-13 243h512l-725 725l176 174z" />
    <glyph glyph-name="uni2199" unicode="&#x2199;" horiz-adv-x="1431" 
d="M1114 1036l176 -174l-725 -725h512l-12 -243l-922 -5v924l246 12v-514z" />
    <glyph glyph-name="partialdiff" unicode="&#x2202;" horiz-adv-x="1564" 
d="M1421 653q0 -315 -173.5 -494t-473.5 -179q-288 0 -459.5 149.5t-171.5 386.5q0 112 39.5 210.5t111.5 171.5t181 115t240 42q224 0 348.5 -132.5t144.5 -353.5h82l-61 185q-12 104 -55.5 186t-112 141.5t-169.5 104t-218.5 72.5t-267.5 47v286q182 -19 333 -62t279 -119
t216 -180.5t137.5 -251t49.5 -325.5zM1092 516q0 133 -76 191.5t-234 58.5t-233.5 -58.5t-75.5 -191.5q0 -119 78 -183.5t231 -64.5t231.5 64.5t78.5 183.5z" />
    <glyph glyph-name="emptyset" unicode="&#x2205;" horiz-adv-x="2023" 
d="M1661 1452l-107 -184q155 -121 240.5 -301.5t85.5 -391.5q0 -178 -63 -337.5t-175 -276.5t-275.5 -185.5t-354.5 -68.5q-175 0 -326 57l-108 -188l-216 123l107 184q-155 121 -240.5 301t-85.5 391q0 178 63.5 337.5t175.5 277t275.5 186t354.5 68.5q171 0 325 -58
l109 189zM389 575q0 -137 54.5 -259.5t152.5 -211.5l614 1063q-95 31 -198 31q-135 0 -252.5 -50t-198 -135t-126.5 -199t-46 -239zM1012 -47q180 0 323.5 85.5t221 227t77.5 309.5q0 137 -54.5 260t-152.5 212l-614 -1063q95 -31 199 -31z" />
    <glyph glyph-name="product" unicode="&#x220f;" horiz-adv-x="1681" 
d="M1538 1444v-248h-301v-1565h-248v1565h-297v-1565h-246v1565h-303v248h1395z" />
    <glyph glyph-name="summation" unicode="&#x2211;" horiz-adv-x="1339" 
d="M1196 -367h-1053v486l611 379v82l-611 378v486h1053v-248h-786l-185 64v-84l781 -490v-295l-781 -489v-84l185 63h786v-248z" />
    <glyph glyph-name="minus" unicode="&#x2212;" horiz-adv-x="1392" 
d="M143 430v246h1106v-246h-1106z" />
    <glyph glyph-name="radical" unicode="&#x221a;" horiz-adv-x="1705" 
d="M621 -287l350 1577q34 154 192 154h400v-248h-377l-344 -1565h-523l-176 789h246l150 -707h82z" />
    <glyph glyph-name="infinity" unicode="&#x221e;" horiz-adv-x="2213" 
d="M143 614q0 110 37 205.5t99 160t143.5 101.5t169.5 37q51 0 98.5 -10.5t85 -26t75 -42t63.5 -49.5t57 -58.5t49 -58t45.5 -60t40.5 -53.5q13 16 40.5 53.5t45.5 60t49 58t57 58.5t64 49.5t75.5 42t85.5 26t99 10.5q88 0 169.5 -37t143.5 -101.5t99 -160t37 -205.5
t-37 -205t-99 -159.5t-143.5 -101.5t-169.5 -37q-51 0 -99 10.5t-85.5 26t-75.5 42t-64 49.5t-57 58.5t-49 58t-45.5 60t-40.5 53.5q-13 -16 -40.5 -53.5t-45.5 -60t-49 -58t-57 -58.5t-63.5 -49.5t-75 -42t-85 -26t-98.5 -10.5q-88 0 -169.5 37t-143.5 101.5t-99 159.5
t-37 205zM389 614q0 -117 71.5 -186.5t192.5 -69.5q35 0 64.5 6t55.5 21t45 28.5t43.5 41.5t38.5 46t41.5 55.5t43.5 57.5q-16 20 -43.5 57.5t-41.5 55.5t-38.5 46t-43.5 41.5t-45 28.5t-55.5 21t-64.5 6q-121 0 -192.5 -69.5t-71.5 -186.5zM1229 614q16 -21 43 -57.5
t41.5 -55.5t38 -46t42.5 -41t45 -29t55.5 -21t64.5 -6q121 0 192.5 69.5t71.5 186.5t-71.5 186.5t-192.5 69.5q-35 0 -64.5 -6t-55.5 -21t-45 -29t-42.5 -41t-38 -46t-41.5 -55.5t-43 -57.5z" />
    <glyph glyph-name="integral" unicode="&#x222b;" horiz-adv-x="1517" 
d="M539 -369h-396v248h363l358 1417q38 148 197 148h313v-248h-280l-359 -1417q-38 -148 -196 -148z" />
    <glyph glyph-name="approxequal" unicode="&#x2248;" horiz-adv-x="1368" 
d="M389 573h-246q0 192 78.5 302t212.5 110q67 0 138 -25.5t119.5 -56.5t102 -56.5t89.5 -25.5q51 0 73.5 37t22.5 127h246q0 -194 -78 -303t-213 -109q-67 0 -138 25.5t-119.5 56.5t-102 56.5t-89.5 25.5q-51 0 -73.5 -37t-22.5 -127zM389 82h-246q0 192 78.5 301
t212.5 109q67 0 138 -25.5t119.5 -56.5t102 -56.5t89.5 -25.5q51 0 73.5 37t22.5 127h246q0 -192 -78.5 -301t-212.5 -109q-67 0 -138 25.5t-119.5 56.5t-102 56.5t-89.5 25.5q-51 0 -73.5 -37t-22.5 -127z" />
    <glyph glyph-name="notequal" unicode="&#x2260;" horiz-adv-x="1392" 
d="M1249 903v-248h-375l-118 -204h493v-246h-635l-188 -324l-176 103l127 221h-234v246h375l119 204h-494v248h637l187 324l178 -105l-127 -219h231z" />
    <glyph glyph-name="lessequal" unicode="&#x2264;" horiz-adv-x="1406" 
d="M1186 328l-1043 383v247l1043 406l80 -234l-836 -294l836 -273zM158 246h1108v-246h-1108v246z" />
    <glyph glyph-name="greaterequal" unicode="&#x2265;" horiz-adv-x="1406" 
d="M1266 958v-247l-1045 -383l-78 235l834 273l-834 294l78 234zM143 0v246h1106v-246h-1106z" />
    <glyph glyph-name="uni2460" unicode="&#x2460;" horiz-adv-x="2246" 
d="M1122 -362q-186 0 -348 51.5t-284 145t-210 220t-133 280.5t-45 322q0 211 71.5 397t201 325t323 219.5t424.5 80.5q186 0 349 -52t285 -146t210 -221t133 -281t45 -322t-45 -322t-133 -280.5t-210 -220t-285 -145t-349 -51.5zM1122 -158q185 0 340.5 65.5t258.5 177
t160.5 259.5t57.5 313t-57.5 313t-160.5 260t-258.5 177.5t-340.5 65.5q-184 0 -339 -65.5t-258 -177.5t-160.5 -260t-57.5 -313t57.5 -313t160.5 -259.5t258 -177t339 -65.5zM831 571l-104 226q68 56 96.5 92.5t45 91t28.5 162.5h465v-973h-248v748l41 143h-61
q-26 -389 -263 -490z" />
    <glyph glyph-name="uni2461" unicode="&#x2461;" horiz-adv-x="2246" 
d="M1122 -362q-186 0 -348 51.5t-284 145t-210 220t-133 280.5t-45 322q0 211 71.5 397t201 325t323 219.5t424.5 80.5q186 0 349 -52t285 -146t210 -221t133 -281t45 -322t-45 -322t-133 -280.5t-210 -220t-285 -145t-349 -51.5zM1122 -158q185 0 340.5 65.5t258.5 177
t160.5 259.5t57.5 313t-57.5 313t-160.5 260t-258.5 177.5t-340.5 65.5q-184 0 -339 -65.5t-258 -177.5t-160.5 -260t-57.5 -313t57.5 -313t160.5 -259.5t258 -177t339 -65.5zM950 774h-248q0 86 27 163t80 138t139 97t195 36q101 0 177.5 -29t119.5 -78.5t63.5 -107.5
t20.5 -123q0 -86 -35.5 -152.5t-94 -110.5t-149.5 -76t-186.5 -49.5t-220.5 -30.5v-64l145 31h541v-205h-768v381q4 0 40.5 4.5t61.5 8.5t71.5 12t80.5 18.5t77.5 25.5t74 35t58.5 44.5t42 57t14 70.5q0 56 -36 93.5t-116 37.5q-98 0 -136 -55.5t-38 -171.5z" />
    <glyph glyph-name="uni2462" unicode="&#x2462;" horiz-adv-x="2246" 
d="M1122 -362q-186 0 -348 51.5t-284 145t-210 220t-133 280.5t-45 322q0 211 71.5 397t201 325t323 219.5t424.5 80.5q186 0 349 -52t285 -146t210 -221t133 -281t45 -322t-45 -322t-133 -280.5t-210 -220t-285 -145t-349 -51.5zM1122 -158q185 0 340.5 65.5t258.5 177
t160.5 259.5t57.5 313t-57.5 313t-160.5 260t-258.5 177.5t-340.5 65.5q-184 0 -339 -65.5t-258 -177.5t-160.5 -260t-57.5 -313t57.5 -313t160.5 -259.5t258 -177t339 -65.5zM692 539h248q0 -57 14 -94.5t43 -56.5t62 -25.5t82 -6.5q85 0 126.5 24.5t41.5 92.5
q0 33 -11 54.5t-33.5 31.5t-45 13t-56.5 3h-98v203h98q67 0 99 17.5t32 72.5q0 52 -36 72.5t-117 20.5q-94 0 -141.5 -29t-47.5 -103h-247q0 159 115 247.5t321 88.5q200 0 301.5 -73.5t101.5 -186.5q0 -52 -18.5 -89t-55 -58.5t-74.5 -32.5t-93 -20v-62q37 -7 55.5 -11
t50.5 -13t48.5 -18t38.5 -24.5t33 -34t19 -45t8 -59.5q0 -134 -104.5 -210t-310.5 -76q-212 0 -330.5 96.5t-118.5 290.5z" />
    <glyph glyph-name="uni2463" unicode="&#x2463;" horiz-adv-x="2246" 
d="M1122 -362q-186 0 -348 51.5t-284 145t-210 220t-133 280.5t-45 322q0 211 71.5 397t201 325t323 219.5t424.5 80.5q186 0 349 -52t285 -146t210 -221t133 -281t45 -322t-45 -322t-133 -280.5t-210 -220t-285 -145t-349 -51.5zM1122 -158q185 0 340.5 65.5t258.5 177
t160.5 259.5t57.5 313t-57.5 313t-160.5 260t-258.5 177.5t-340.5 65.5q-184 0 -339 -65.5t-258 -177.5t-160.5 -260t-57.5 -313t57.5 -313t160.5 -259.5t258 -177t339 -65.5zM1155 303h-450v506q325 61 372 344h248q-8 -77 -31.5 -148.5t-70 -142t-110.5 -127
t-158.5 -100.5t-209.5 -66v-61l144 41h266v162h248v-162h133v-246h-133v-123h-248v123z" />
    <glyph glyph-name="uni2464" unicode="&#x2464;" horiz-adv-x="2246" 
d="M1122 -362q-186 0 -348 51.5t-284 145t-210 220t-133 280.5t-45 322q0 211 71.5 397t201 325t323 219.5t424.5 80.5q186 0 349 -52t285 -146t210 -221t133 -281t45 -322t-45 -322t-133 -280.5t-210 -220t-285 -145t-349 -51.5zM1122 -158q185 0 340.5 65.5t258.5 177
t160.5 259.5t57.5 313t-57.5 313t-160.5 260t-258.5 177.5t-340.5 65.5q-184 0 -339 -65.5t-258 -177.5t-160.5 -260t-57.5 -313t57.5 -313t160.5 -259.5t258 -177t339 -65.5zM721 444h248q0 -64 49 -96.5t123 -32.5q88 0 136 32.5t48 111.5q0 157 -129 157
q-100 0 -172 -112l-276 94v506h765v-205h-518v-176l-32 -90l41 -23q27 94 99 152.5t189 58.5q142 0 211.5 -96t69.5 -244q0 -77 -25 -142.5t-75 -117t-133 -81t-191 -29.5q-205 0 -316.5 85.5t-111.5 247.5z" />
    <glyph glyph-name="uni2465" unicode="&#x2465;" horiz-adv-x="2246" 
d="M1122 -362q-186 0 -348 51.5t-284 145t-210 220t-133 280.5t-45 322q0 211 71.5 397t201 325t323 219.5t424.5 80.5q186 0 349 -52t285 -146t210 -221t133 -281t45 -322t-45 -322t-133 -280.5t-210 -220t-285 -145t-349 -51.5zM1122 -158q185 0 340.5 65.5t258.5 177
t160.5 259.5t57.5 313t-57.5 313t-160.5 260t-258.5 177.5t-340.5 65.5q-184 0 -339 -65.5t-258 -177.5t-160.5 -260t-57.5 -313t57.5 -313t160.5 -259.5t258 -177t339 -65.5zM688 616q0 101 15 184.5t53.5 159.5t99 125t158.5 71t225 7l172 -20v-205l-192 20
q-198 20 -279.5 -46.5t-81.5 -200.5l-63 -144h61q11 48 34.5 92t62.5 84t101 64t138 24q65 0 121.5 -18t103.5 -56t74 -105t27 -156q0 -92 -32.5 -160.5t-89 -108t-125.5 -58.5t-149 -19q-215 0 -324.5 112t-109.5 354zM936 492q0 -72 39.5 -105t126.5 -33t127.5 33
t40.5 105q0 69 -41 102t-127 33q-87 0 -126.5 -32.5t-39.5 -102.5z" />
    <glyph glyph-name="uni2466" unicode="&#x2466;" horiz-adv-x="2246" 
d="M1122 -362q-186 0 -348 51.5t-284 145t-210 220t-133 280.5t-45 322q0 211 71.5 397t201 325t323 219.5t424.5 80.5q186 0 349 -52t285 -146t210 -221t133 -281t45 -322t-45 -322t-133 -280.5t-210 -220t-285 -145t-349 -51.5zM1122 -158q185 0 340.5 65.5t258.5 177
t160.5 259.5t57.5 313t-57.5 313t-160.5 260t-258.5 177.5t-340.5 65.5q-184 0 -339 -65.5t-258 -177.5t-160.5 -260t-57.5 -313t57.5 -313t160.5 -259.5t258 -177t339 -65.5zM1128 127h-247q0 160 34 278.5t106.5 202t174 137t246.5 89.5v61h-676v205h758v-416
q-223 -67 -309.5 -194.5t-86.5 -362.5z" />
    <glyph glyph-name="uni2467" unicode="&#x2467;" horiz-adv-x="2246" 
d="M1122 -362q-186 0 -348 51.5t-284 145t-210 220t-133 280.5t-45 322q0 211 71.5 397t201 325t323 219.5t424.5 80.5q186 0 349 -52t285 -146t210 -221t133 -281t45 -322t-45 -322t-133 -280.5t-210 -220t-285 -145t-349 -51.5zM1122 -158q185 0 340.5 65.5t258.5 177
t160.5 259.5t57.5 313t-57.5 313t-160.5 260t-258.5 177.5t-340.5 65.5q-184 0 -339 -65.5t-258 -177.5t-160.5 -260t-57.5 -313t57.5 -313t160.5 -259.5t258 -177t339 -65.5zM705 422q0 59 24 104.5t66.5 72.5t87.5 42.5t98 22.5v41q-40 5 -77 18t-73 36.5t-57.5 65
t-21.5 95.5q0 115 93.5 180t276.5 65t277 -65t94 -180q0 -54 -22 -95.5t-58 -65t-72.5 -36.5t-76.5 -18v-41q53 -7 98.5 -22.5t88 -42.5t67 -72.5t24.5 -104.5q0 -125 -110.5 -197.5t-309.5 -72.5q-197 0 -307 72.5t-110 197.5zM999 879q0 -93 123 -93q72 0 97.5 26t25.5 67
q0 38 -25.5 60t-97.5 22q-71 0 -97 -22t-26 -60zM952 467q0 -111 170 -111q172 0 172 111q0 115 -172 115q-170 0 -170 -115z" />
    <glyph glyph-name="uni2468" unicode="&#x2468;" horiz-adv-x="2246" 
d="M1122 -362q-186 0 -348 51.5t-284 145t-210 220t-133 280.5t-45 322q0 211 71.5 397t201 325t323 219.5t424.5 80.5q186 0 349 -52t285 -146t210 -221t133 -281t45 -322t-45 -322t-133 -280.5t-210 -220t-285 -145t-349 -51.5zM1122 -158q185 0 340.5 65.5t258.5 177
t160.5 259.5t57.5 313t-57.5 313t-160.5 260t-258.5 177.5t-340.5 65.5q-184 0 -339 -65.5t-258 -177.5t-160.5 -260t-57.5 -313t57.5 -313t160.5 -259.5t258 -177t339 -65.5zM1565 702q0 -610 -551 -546l-174 20v205l194 -21q102 -11 173.5 3t111 50t57 83.5t17.5 111.5
l63 144h-61q-11 -48 -34.5 -92t-62.5 -84.5t-101 -64.5t-138 -24q-65 0 -121 18t-102.5 56t-73.5 105t-27 157q0 93 32 161.5t88 108t124.5 58t148.5 18.5q216 0 326.5 -112.5t110.5 -354.5zM1317 827q0 72 -40 105t-128 33q-85 0 -125.5 -33t-40.5 -105q0 -133 166 -133
q88 0 128 32t40 101z" />
    <glyph glyph-name="uni24EA" unicode="&#x24ea;" horiz-adv-x="2246" 
d="M1122 1679q186 0 349 -52t285 -146t210 -221t133 -281t45 -322t-45 -322t-133 -280.5t-210 -220t-285 -145t-349 -51.5t-348 51.5t-284 145t-210 220t-133 280.5t-45 322q0 211 71.5 397t201 325t323 219.5t424.5 80.5zM1122 -158q185 0 340.5 65.5t258.5 177
t160.5 259.5t57.5 313t-57.5 313t-160.5 260t-258.5 177.5t-340.5 65.5q-184 0 -339 -65.5t-258 -177.5t-160.5 -260t-57.5 -313t57.5 -313t160.5 -259.5t258 -177t339 -65.5zM1124 1165q143 0 245 -67t151 -179.5t49 -259.5q0 -227 -116 -367t-329 -140t-328.5 139.5
t-115.5 367.5q0 147 49 259.5t150.5 179.5t244.5 67zM1124 920q-91 0 -143.5 -72t-52.5 -189q0 -58 16 -114l299 338q-47 37 -119 37zM1124 397q102 0 149.5 69.5t47.5 192.5q0 63 -12 113l-303 -332q53 -43 118 -43z" />
    <glyph glyph-name="uni24FF" unicode="&#x24ff;" horiz-adv-x="2246" 
d="M1122 -362q-186 0 -348 51.5t-284 145t-210 220t-133 280.5t-45 322q0 211 71.5 397t201 325t323 219.5t424.5 80.5q186 0 349 -52t285 -146t210 -221t133 -281t45 -322t-45 -322t-133 -280.5t-210 -220t-285 -145t-349 -51.5zM680 659q0 -228 115.5 -367.5t328.5 -139.5
t329 140t116 367q0 147 -49 259.5t-151 179.5t-245 67t-244.5 -67t-150.5 -179.5t-49 -259.5zM928 659q0 117 52.5 189t143.5 72q72 0 119 -37l-301 -338q-14 46 -14 114zM1008 440l301 334q12 -49 12 -115q0 -123 -47.5 -192.5t-149.5 -69.5q-63 0 -116 43z" />
    <glyph glyph-name="lozenge" unicode="&#x25ca;" horiz-adv-x="1169" 
d="M340 1444h494l192 -694l-192 -695h-494l-197 695zM545 137h82l137 613l-137 612h-82l-139 -612z" />
    <glyph glyph-name="uni2776" unicode="&#x2776;" horiz-adv-x="2246" 
d="M1122 -362q186 0 349 51.5t285 145t210 220t133 280.5t45 322t-45 322t-133 281t-210 221t-285 146t-349 52q-231 0 -424.5 -80.5t-323 -219.5t-201 -325t-71.5 -397q0 -168 45 -322t133 -280.5t210 -220t284 -145t348 -51.5zM831 571l-104 226q68 56 96.5 92.5t45 91
t28.5 162.5h465v-973h-248v748l41 143h-61q-26 -389 -263 -490z" />
    <glyph glyph-name="uni2777" unicode="&#x2777;" horiz-adv-x="2246" 
d="M1122 -362q186 0 349 51.5t285 145t210 220t133 280.5t45 322t-45 322t-133 281t-210 221t-285 146t-349 52q-231 0 -424.5 -80.5t-323 -219.5t-201 -325t-71.5 -397q0 -168 45 -322t133 -280.5t210 -220t284 -145t348 -51.5zM950 774h-248q0 86 27 163t80 138t139 97
t195 36q101 0 177.5 -29t119.5 -78.5t63.5 -107.5t20.5 -123q0 -86 -35.5 -152.5t-94 -110.5t-149.5 -76t-186.5 -49.5t-220.5 -30.5v-64l145 31h541v-205h-768v381q4 0 40.5 4.5t61.5 8.5t71.5 12t80.5 18.5t77.5 25.5t74 35t58.5 44.5t42 57t14 70.5q0 56 -36 93.5
t-116 37.5q-98 0 -136 -55.5t-38 -171.5z" />
    <glyph glyph-name="uni2778" unicode="&#x2778;" horiz-adv-x="2246" 
d="M1122 -362q186 0 349 51.5t285 145t210 220t133 280.5t45 322t-45 322t-133 281t-210 221t-285 146t-349 52q-231 0 -424.5 -80.5t-323 -219.5t-201 -325t-71.5 -397q0 -168 45 -322t133 -280.5t210 -220t284 -145t348 -51.5zM692 539h248q0 -57 14 -94.5t43 -56.5
t62 -25.5t82 -6.5q85 0 126.5 24.5t41.5 92.5q0 33 -11 54.5t-33.5 31.5t-45 13t-56.5 3h-98v203h98q67 0 99 17.5t32 72.5q0 52 -36 72.5t-117 20.5q-94 0 -141.5 -29t-47.5 -103h-247q0 159 115 247.5t321 88.5q200 0 301.5 -73.5t101.5 -186.5q0 -52 -18.5 -89t-55 -58.5
t-74.5 -32.5t-93 -20v-62q37 -7 55.5 -11t50.5 -13t48.5 -18t38.5 -24.5t33 -34t19 -45t8 -59.5q0 -134 -104.5 -210t-310.5 -76q-212 0 -330.5 96.5t-118.5 290.5z" />
    <glyph glyph-name="uni2779" unicode="&#x2779;" horiz-adv-x="2246" 
d="M1122 -362q186 0 349 51.5t285 145t210 220t133 280.5t45 322t-45 322t-133 281t-210 221t-285 146t-349 52q-231 0 -424.5 -80.5t-323 -219.5t-201 -325t-71.5 -397q0 -168 45 -322t133 -280.5t210 -220t284 -145t348 -51.5zM1159 317h-450v506q325 61 372 344h248
q-8 -77 -31.5 -148.5t-69.5 -141.5t-110.5 -126.5t-158.5 -100.5t-209 -66v-62l145 41h264v162h248v-162h133v-246h-133v-122h-248v122z" />
    <glyph glyph-name="uni277A" unicode="&#x277a;" horiz-adv-x="2246" 
d="M1122 -362q186 0 349 51.5t285 145t210 220t133 280.5t45 322t-45 322t-133 281t-210 221t-285 146t-349 52q-231 0 -424.5 -80.5t-323 -219.5t-201 -325t-71.5 -397q0 -168 45 -322t133 -280.5t210 -220t284 -145t348 -51.5zM721 444h248q0 -64 49 -96.5t123 -32.5
q88 0 136 32.5t48 111.5q0 157 -129 157q-100 0 -172 -112l-276 94v506h765v-205h-518v-176l-32 -90l41 -23q27 94 99 152.5t189 58.5q142 0 211.5 -96t69.5 -244q0 -77 -25 -142.5t-75 -117t-133 -81t-191 -29.5q-205 0 -316.5 85.5t-111.5 247.5z" />
    <glyph glyph-name="uni277B" unicode="&#x277b;" horiz-adv-x="2246" 
d="M1122 -362q186 0 349 51.5t285 145t210 220t133 280.5t45 322t-45 322t-133 281t-210 221t-285 146t-349 52q-231 0 -424.5 -80.5t-323 -219.5t-201 -325t-71.5 -397q0 -168 45 -322t133 -280.5t210 -220t284 -145t348 -51.5zM688 616q0 101 15 184.5t53.5 159.5t99 125
t158.5 71t225 7l172 -20v-205l-192 20q-198 20 -279.5 -46.5t-81.5 -200.5l-63 -144h61q11 48 34.5 92t62.5 84t101 64t138 24q65 0 121.5 -18t103.5 -56t74 -105t27 -156q0 -92 -32.5 -160.5t-89 -108t-125.5 -58.5t-149 -19q-215 0 -324.5 112t-109.5 354zM936 492
q0 -72 39.5 -105t126.5 -33t127.5 33t40.5 105q0 69 -41 102t-127 33q-87 0 -126.5 -32.5t-39.5 -102.5z" />
    <glyph glyph-name="uni277C" unicode="&#x277c;" horiz-adv-x="2246" 
d="M1122 -362q186 0 349 51.5t285 145t210 220t133 280.5t45 322t-45 322t-133 281t-210 221t-285 146t-349 52q-231 0 -424.5 -80.5t-323 -219.5t-201 -325t-71.5 -397q0 -168 45 -322t133 -280.5t210 -220t284 -145t348 -51.5zM1128 127h-247q0 160 34 278.5t106.5 202
t174 137t246.5 89.5v61h-676v205h758v-416q-223 -67 -309.5 -194.5t-86.5 -362.5z" />
    <glyph glyph-name="uni277D" unicode="&#x277d;" horiz-adv-x="2246" 
d="M1122 -362q186 0 349 51.5t285 145t210 220t133 280.5t45 322t-45 322t-133 281t-210 221t-285 146t-349 52q-231 0 -424.5 -80.5t-323 -219.5t-201 -325t-71.5 -397q0 -168 45 -322t133 -280.5t210 -220t284 -145t348 -51.5zM705 422q0 59 24 104.5t66.5 72.5t87.5 42.5
t98 22.5v41q-40 5 -77 18t-73 36.5t-57.5 65t-21.5 95.5q0 115 93.5 180t276.5 65t277 -65t94 -180q0 -54 -22 -95.5t-58 -65t-72.5 -36.5t-76.5 -18v-41q53 -7 98.5 -22.5t88 -42.5t67 -72.5t24.5 -104.5q0 -125 -110.5 -197.5t-309.5 -72.5q-197 0 -307 72.5t-110 197.5z
M999 879q0 -93 123 -93q72 0 97.5 26t25.5 67q0 38 -25.5 60t-97.5 22q-71 0 -97 -22t-26 -60zM952 467q0 -111 170 -111q172 0 172 111q0 115 -172 115q-170 0 -170 -115z" />
    <glyph glyph-name="uni277E" unicode="&#x277e;" horiz-adv-x="2246" 
d="M1122 -362q186 0 349 51.5t285 145t210 220t133 280.5t45 322t-45 322t-133 281t-210 221t-285 146t-349 52q-231 0 -424.5 -80.5t-323 -219.5t-201 -325t-71.5 -397q0 -168 45 -322t133 -280.5t210 -220t284 -145t348 -51.5zM1565 702q0 -610 -551 -546l-174 20v205
l194 -21q102 -11 173.5 3t111 50t57 83.5t17.5 111.5l63 144h-61q-11 -48 -34.5 -92t-62.5 -84.5t-101 -64.5t-138 -24q-65 0 -121 18t-102.5 56t-73.5 105t-27 157q0 93 32 161.5t88 108t124.5 58t148.5 18.5q216 0 326.5 -112.5t110.5 -354.5zM1317 827q0 72 -40 105
t-128 33q-85 0 -125.5 -33t-40.5 -105q0 -133 166 -133q88 0 128 32t40 101z" />
    <glyph glyph-name="G.ss01" horiz-adv-x="1697" 
d="M102 723q0 216 94.5 386t260 262.5t372.5 92.5q271 0 463 -149.5t226 -386.5h-330q-25 128 -111 188t-248 60q-189 0 -293 -116t-104 -337q0 -228 93 -341.5t290 -113.5q117 0 213 31t157.5 98.5t61.5 161.5h-413v246h567q85 0 130.5 -44.5t45.5 -129.5v-631h-330v129
l62 225h-82q-1 -23 -4 -47.5t-14.5 -63t-30.5 -72t-54.5 -70t-82.5 -62.5t-119 -42.5t-160 -16.5q-207 0 -357.5 94t-226.5 260.5t-76 388.5z" />
    <glyph glyph-name="Gbreve.ss01" horiz-adv-x="1697" 
d="M958 1954h246q0 -82 -20.5 -152.5t-63 -129t-117 -92.5t-174.5 -34q-80 0 -144.5 22.5t-106.5 60.5t-70.5 91t-40.5 111t-12 123h245q0 -102 32.5 -142t96.5 -40t96.5 40t32.5 142zM102 723q0 216 94.5 386t260 262.5t372.5 92.5q271 0 463 -149.5t226 -386.5h-330
q-25 128 -111 188t-248 60q-189 0 -293 -116t-104 -337q0 -228 93 -341.5t290 -113.5q117 0 213 31t157.5 98.5t61.5 161.5h-413v246h567q85 0 130.5 -44.5t45.5 -129.5v-631h-330v129l62 225h-82q-1 -23 -4 -47.5t-14.5 -63t-30.5 -72t-54.5 -70t-82.5 -62.5t-119 -42.5
t-160 -16.5q-207 0 -357.5 94t-226.5 260.5t-76 388.5z" />
    <glyph glyph-name="uni0122.ss01" horiz-adv-x="1697" 
d="M102 723q0 216 94.5 386t260 262.5t372.5 92.5q271 0 463 -149.5t226 -386.5h-330q-25 128 -111 188t-248 60q-189 0 -293 -116t-104 -337q0 -228 93 -341.5t290 -113.5q117 0 213 31t157.5 98.5t61.5 161.5h-413v246h567q85 0 130.5 -44.5t45.5 -129.5v-631h-330v129
l62 225h-82q-1 -23 -4 -47.5t-14.5 -63t-30.5 -72t-54.5 -70t-82.5 -62.5t-119 -42.5t-160 -16.5q-207 0 -357.5 94t-226.5 260.5t-76 388.5zM522 -451l127 351l234 -76l-127 -350z" />
    <glyph glyph-name="Gdotaccent.ss01" horiz-adv-x="1697" 
d="M827 1546q-98 0 -150 42t-52 122q0 78 52 121t150 43t152.5 -43t54.5 -121q0 -79 -54 -121.5t-153 -42.5zM102 723q0 216 94.5 386t260 262.5t372.5 92.5q271 0 463 -149.5t226 -386.5h-330q-25 128 -111 188t-248 60q-189 0 -293 -116t-104 -337q0 -228 93 -341.5
t290 -113.5q117 0 213 31t157.5 98.5t61.5 161.5h-413v246h567q85 0 130.5 -44.5t45.5 -129.5v-631h-330v129l62 225h-82q-1 -23 -4 -47.5t-14.5 -63t-30.5 -72t-54.5 -70t-82.5 -62.5t-119 -42.5t-160 -16.5q-207 0 -357.5 94t-226.5 260.5t-76 388.5z" />
    <glyph glyph-name="i.loclTRK" horiz-adv-x="1026" 
d="M469 1137q-98 0 -150.5 42t-52.5 121q0 78 52.5 121t150.5 43t152.5 -43t54.5 -121q0 -79 -54 -121t-153 -42zM985 0h-903v289h293v469l-252 -13v289l389 21q87 4 133.5 -40.5t46.5 -131.5v-594h293v-289z" />
    <glyph glyph-name="a.ss01" horiz-adv-x="1409" 
d="M1329 1034v-1034h-330v63l62 185h-82q-45 -117 -145 -192.5t-263 -75.5q-116 0 -210 42.5t-154.5 116.5t-92.5 171t-32 208q0 149 54.5 269t167.5 194t267 74q163 0 263 -76t145 -193h82l-62 185v63h330zM999 518q0 133 -76.5 190.5t-217.5 57.5t-217 -57.5t-76 -190.5
q0 -134 76 -192t217 -58t217.5 58t76.5 192z" />
    <glyph glyph-name="aacute.ss01" horiz-adv-x="1409" 
d="M332 1137l-56 233l801 176l56 -233zM1329 1034v-1034h-330v63l62 185h-82q-45 -117 -145 -192.5t-263 -75.5q-116 0 -210 42.5t-154.5 116.5t-92.5 171t-32 208q0 149 54.5 269t167.5 194t267 74q163 0 263 -76t145 -193h82l-62 185v63h330zM999 518q0 133 -76.5 190.5
t-217.5 57.5t-217 -57.5t-76 -190.5q0 -134 76 -192t217 -58t217.5 58t76.5 192z" />
    <glyph glyph-name="abreve.ss01" horiz-adv-x="1409" 
d="M854 1544h246q0 -82 -20.5 -152.5t-63 -129t-117 -92t-174.5 -33.5t-174.5 33.5t-117 92t-63 129t-20.5 152.5h246q0 -102 32.5 -142t96.5 -40t96.5 40t32.5 142zM1329 1034v-1034h-330v63l62 185h-82q-45 -117 -145 -192.5t-263 -75.5q-116 0 -210 42.5t-154.5 116.5
t-92.5 171t-32 208q0 149 54.5 269t167.5 194t267 74q163 0 263 -76t145 -193h82l-62 185v63h330zM999 518q0 133 -76.5 190.5t-217.5 57.5t-217 -57.5t-76 -190.5q0 -134 76 -192t217 -58t217.5 58t76.5 192z" />
    <glyph glyph-name="acircumflex.ss01" horiz-adv-x="1409" 
d="M725 1587l444 -309l-174 -164l-270 186l-268 -186l-174 164zM1329 1034v-1034h-330v63l62 185h-82q-45 -117 -145 -192.5t-263 -75.5q-116 0 -210 42.5t-154.5 116.5t-92.5 171t-32 208q0 149 54.5 269t167.5 194t267 74q163 0 263 -76t145 -193h82l-62 185v63h330z
M999 518q0 133 -76.5 190.5t-217.5 57.5t-217 -57.5t-76 -190.5q0 -134 76 -192t217 -58t217.5 58t76.5 192z" />
    <glyph glyph-name="adieresis.ss01" horiz-adv-x="1409" 
d="M457 1137q-98 0 -150.5 42t-52.5 121q0 78 52.5 121t150.5 43t152.5 -43t54.5 -121q0 -79 -54 -121t-153 -42zM989 1137q-98 0 -150.5 42t-52.5 121q0 78 52.5 121t150.5 43t152.5 -43t54.5 -121q0 -79 -54 -121t-153 -42zM1329 1034v-1034h-330v63l62 185h-82
q-45 -117 -145 -192.5t-263 -75.5q-116 0 -210 42.5t-154.5 116.5t-92.5 171t-32 208q0 149 54.5 269t167.5 194t267 74q163 0 263 -76t145 -193h82l-62 185v63h330zM999 518q0 133 -76.5 190.5t-217.5 57.5t-217 -57.5t-76 -190.5q0 -134 76 -192t217 -58t217.5 58
t76.5 192z" />
    <glyph glyph-name="agrave.ss01" horiz-adv-x="1409" 
d="M373 1546l801 -176l-56 -233l-801 176zM1329 1034v-1034h-330v63l62 185h-82q-45 -117 -145 -192.5t-263 -75.5q-116 0 -210 42.5t-154.5 116.5t-92.5 171t-32 208q0 149 54.5 269t167.5 194t267 74q163 0 263 -76t145 -193h82l-62 185v63h330zM999 518
q0 133 -76.5 190.5t-217.5 57.5t-217 -57.5t-76 -190.5q0 -134 76 -192t217 -58t217.5 58t76.5 192z" />
    <glyph glyph-name="amacron.ss01" horiz-adv-x="1409" 
d="M285 1229v246h882v-242zM1329 1034v-1034h-330v63l62 185h-82q-45 -117 -145 -192.5t-263 -75.5q-116 0 -210 42.5t-154.5 116.5t-92.5 171t-32 208q0 149 54.5 269t167.5 194t267 74q163 0 263 -76t145 -193h82l-62 185v63h330zM999 518q0 133 -76.5 190.5t-217.5 57.5
t-217 -57.5t-76 -190.5q0 -134 76 -192t217 -58t217.5 58t76.5 192z" />
    <glyph glyph-name="aogonek.ss01" horiz-adv-x="1409" 
d="M1327 0l-76 -164l277 29v-246l-379 -31q-53 -4 -98 14.5t-68.5 51t-29 73t21.5 78.5l127 195h-103v63l62 185h-82q-45 -117 -145 -192.5t-263 -75.5q-116 0 -210 42.5t-154.5 116.5t-92.5 171t-32 208q0 149 54.5 269t167.5 194t267 74q163 0 263 -76t145 -193h82
l-62 185v63h330v-1034h-2zM705 268q141 0 217.5 58t76.5 192q0 133 -76.5 190.5t-217.5 57.5t-217 -57.5t-76 -190.5q0 -134 76 -192t217 -58z" />
    <glyph glyph-name="aring.ss01" horiz-adv-x="1409" 
d="M723 1137q-153 0 -237.5 63.5t-84.5 188.5q0 124 85 187.5t237 63.5q153 0 239.5 -64t86.5 -187t-86.5 -187.5t-239.5 -64.5zM723 1321q78 0 78 68q0 65 -78 65q-76 0 -76 -65q0 -68 76 -68zM1329 1034v-1034h-330v63l62 185h-82q-45 -117 -145 -192.5t-263 -75.5
q-116 0 -210 42.5t-154.5 116.5t-92.5 171t-32 208q0 149 54.5 269t167.5 194t267 74q163 0 263 -76t145 -193h82l-62 185v63h330zM999 518q0 133 -76.5 190.5t-217.5 57.5t-217 -57.5t-76 -190.5q0 -134 76 -192t217 -58t217.5 58t76.5 192z" />
    <glyph glyph-name="atilde.ss01" horiz-adv-x="1409" 
d="M492 1229h-246q0 180 80.5 285.5t220.5 105.5q52 0 97.5 -17t76.5 -41t58 -48t53.5 -41t50.5 -17q38 0 56.5 28.5t18.5 114.5h248q0 -181 -80.5 -286t-222.5 -105q-52 0 -97.5 17t-76.5 41t-58 48t-53.5 41t-50.5 17q-38 0 -56.5 -28.5t-18.5 -114.5zM1329 1034v-1034
h-330v63l62 185h-82q-45 -117 -145 -192.5t-263 -75.5q-116 0 -210 42.5t-154.5 116.5t-92.5 171t-32 208q0 149 54.5 269t167.5 194t267 74q163 0 263 -76t145 -193h82l-62 185v63h330zM999 518q0 133 -76.5 190.5t-217.5 57.5t-217 -57.5t-76 -190.5q0 -134 76 -192
t217 -58t217.5 58t76.5 192z" />
    <glyph glyph-name="g.ss01" horiz-adv-x="1449" 
d="M999 971v63h330v-1272q0 -86 -46.5 -130t-131.5 -42l-868 15v289l716 -13v182l62 185h-82q-45 -117 -145 -192.5t-263 -75.5q-116 0 -210 42.5t-154.5 116.5t-92.5 171t-32 208q0 149 54.5 269t167.5 194t267 74q163 0 263 -76t145 -193h82zM705 268q141 0 217.5 58
t76.5 192q0 133 -76.5 190.5t-217.5 57.5t-217 -57.5t-76 -190.5q0 -134 76 -192t217 -58z" />
    <glyph glyph-name="gbreve.ss01" horiz-adv-x="1449" 
d="M686 1137q-100 0 -174.5 33.5t-117 92t-63 129t-20.5 152.5h246q0 -102 32.5 -142t96.5 -40t96.5 40t32.5 142h246q0 -82 -20.5 -152.5t-63 -129t-117 -92t-174.5 -33.5zM999 971v63h330v-1272q0 -86 -46.5 -130t-131.5 -42l-868 15v289l716 -13v182l62 185h-82
q-45 -117 -145 -192.5t-263 -75.5q-116 0 -210 42.5t-154.5 116.5t-92.5 171t-32 208q0 149 54.5 269t167.5 194t267 74q163 0 263 -76t145 -193h82zM705 268q141 0 217.5 58t76.5 192q0 133 -76.5 190.5t-217.5 57.5t-217 -57.5t-76 -190.5q0 -134 76 -192t217 -58z" />
    <glyph glyph-name="uni0123.ss01" horiz-adv-x="1449" 
d="M694 1645l240 -64l-152 -444l-237 63zM999 971v63h330v-1272q0 -86 -46.5 -130t-131.5 -42l-868 15v289l716 -13v182l62 185h-82q-45 -117 -145 -192.5t-263 -75.5q-116 0 -210 42.5t-154.5 116.5t-92.5 171t-32 208q0 149 54.5 269t167.5 194t267 74q163 0 263 -76
t145 -193h82zM705 268q141 0 217.5 58t76.5 192q0 133 -76.5 190.5t-217.5 57.5t-217 -57.5t-76 -190.5q0 -134 76 -192t217 -58z" />
    <glyph glyph-name="gdotaccent.ss01" horiz-adv-x="1449" 
d="M684 1137q-98 0 -150.5 42t-52.5 121q0 78 52.5 121t150.5 43t152.5 -43t54.5 -121q0 -79 -54 -121t-153 -42zM999 971v63h330v-1272q0 -86 -46.5 -130t-131.5 -42l-868 15v289l716 -13v182l62 185h-82q-45 -117 -145 -192.5t-263 -75.5q-116 0 -210 42.5t-154.5 116.5
t-92.5 171t-32 208q0 149 54.5 269t167.5 194t267 74q163 0 263 -76t145 -193h82zM705 268q141 0 217.5 58t76.5 192q0 133 -76.5 190.5t-217.5 57.5t-217 -57.5t-76 -190.5q0 -134 76 -192t217 -58z" />
    <glyph glyph-name="k.ss01" horiz-adv-x="1449" 
d="M901 1034h488l-506 -416l506 -618h-404l-342 424l-190 -158v-266h-330v1505h330v-839z" />
    <glyph glyph-name="uni0137.ss01" horiz-adv-x="1449" 
d="M901 1034h488l-506 -416l506 -618h-404l-342 424l-190 -158v-266h-330v1505h330v-839zM727 -526l-233 75l127 351l233 -76z" />
    <glyph glyph-name="uni0438.loclBGR" horiz-adv-x="1419" 
d="M1337 1034v-1034h-327v778l61 174h-82l-223 -952h-643v1034h328v-766l-62 -186h82l223 952h643z" />
    <glyph glyph-name="uni0439.loclBGR" horiz-adv-x="1419" 
d="M868 1544h246q0 -82 -20.5 -152.5t-63 -129t-117 -92t-174.5 -33.5q-80 0 -144.5 22.5t-106.5 60.5t-70.5 90.5t-40.5 110.5t-12 123h245q0 -102 32.5 -142t96.5 -40t96.5 40t32.5 142zM1337 1034v-1034h-327v778l61 174h-82l-223 -952h-643v1034h328v-766l-62 -186h82
l223 952h643z" />
    <glyph glyph-name="uni045D.loclBGR" horiz-adv-x="1419" 
d="M387 1546l801 -176l-55 -233l-801 176zM1337 1034v-1034h-327v778l61 174h-82l-223 -952h-643v1034h328v-766l-62 -186h82l223 952h643z" />
    <glyph glyph-name="zero.dnom" horiz-adv-x="1009" 
d="M506 993q142 0 243.5 -67t151 -179.5t49.5 -259.5q0 -227 -116 -367t-328 -140q-213 0 -329 140t-116 367q0 147 49 259.5t151 179.5t245 67zM506 748q-91 0 -145 -72t-54 -189q0 -58 17 -114l301 338q-47 37 -119 37zM506 227q101 0 148.5 69t47.5 191q0 65 -12 115
l-301 -332q46 -43 117 -43z" />
    <glyph glyph-name="one.dnom" horiz-adv-x="757" 
d="M166 401l-105 226q68 58 96.5 93.5t45 90t28.5 162.5h465v-973h-247v748l40 143h-61q-5 -78 -18 -143t-40.5 -136t-79.5 -125.5t-124 -85.5z" />
    <glyph glyph-name="two.dnom" horiz-adv-x="942" 
d="M307 559h-246q0 87 27 164t80 138t139 96.5t195 35.5q100 0 176 -28.5t119 -77.5t63.5 -107t20.5 -123q0 -86 -35.5 -152.5t-94 -110.5t-149.5 -76.5t-186 -50.5t-219 -31v-62l143 31h541v-205h-766v381q4 0 40.5 4.5t61.5 8.5t71.5 12t80.5 18.5t77.5 25.5t74 35
t58.5 44.5t42 57t14 70.5q0 56 -36 93.5t-116 37.5q-98 0 -137 -56t-39 -173z" />
    <glyph glyph-name="three.dnom" horiz-adv-x="985" 
d="M61 367h246q0 -57 14 -94.5t43.5 -56.5t63 -25.5t82.5 -6.5q85 0 126.5 24.5t41.5 92.5q0 33 -11 54.5t-33.5 31.5t-45 13t-56.5 3h-98v203h98q67 0 99.5 17.5t32.5 72.5q0 52 -36.5 72t-117.5 20q-96 0 -143.5 -28.5t-47.5 -102.5h-245q0 159 115 247.5t321 88.5
q199 0 300 -73.5t101 -186.5q0 -52 -18.5 -89t-54.5 -59t-74 -33t-92 -20v-61q37 -7 55 -11t50 -13t48.5 -18t38.5 -24.5t33 -34t19 -45t8 -59.5q0 -134 -105 -210t-309 -76q-212 0 -330.5 96.5t-118.5 290.5z" />
    <glyph glyph-name="four.dnom" horiz-adv-x="952" 
d="M512 123h-451v506q326 61 373 344h246q-10 -97 -46.5 -185.5t-103.5 -170t-176.5 -141.5t-251.5 -87v-61l144 41h266v161h246v-161h133v-246h-133v-123h-246v123z" />
    <glyph glyph-name="five.dnom" horiz-adv-x="972" 
d="M61 313h246q0 -64 49 -96.5t125 -32.5q89 0 137 32.5t48 111.5q0 157 -129 157q-103 0 -175 -112l-274 94v508h764v-207h-518v-176l-33 -90l41 -23q27 94 99.5 152.5t189.5 58.5q96 0 161 -48t92 -122t27 -170q0 -77 -25 -142.5t-75 -117t-132.5 -81t-189.5 -29.5
q-205 0 -316.5 85.5t-111.5 247.5z" />
    <glyph glyph-name="six.dnom" horiz-adv-x="950" 
d="M61 446q0 101 15 184.5t53 159.5t98.5 125t158 71t224.5 7l174 -20v-205l-194 20q-102 11 -173.5 -3t-111 -49.5t-57 -83t-17.5 -111.5l-63 -144h61q11 48 34.5 92t62.5 84.5t101 64.5t138 24q65 0 121 -18t102.5 -56t73.5 -105t27 -157q0 -92 -32 -160.5t-88 -108
t-124.5 -58.5t-148.5 -19q-215 0 -325 112t-110 354zM307 322q0 -72 40 -105t128 -33q87 0 127.5 33t40.5 105q0 69 -41 102t-127 33q-87 0 -127.5 -33t-40.5 -102z" />
    <glyph glyph-name="seven.dnom" horiz-adv-x="878" 
d="M422 0h-246q0 212 63.5 354.5t183 223.5t312.5 129v61h-674v205h756v-416q-222 -67 -308.5 -194.5t-86.5 -362.5z" />
    <glyph glyph-name="eight.dnom" horiz-adv-x="958" 
d="M61 250q0 59 24.5 104.5t66.5 72.5t87.5 42.5t98.5 22.5v40q-40 5 -77 18t-73 37t-57.5 65.5t-21.5 95.5q0 115 93.5 180t276.5 65q182 0 275.5 -65t93.5 -180q0 -54 -21.5 -95.5t-57.5 -65.5t-72 -37t-76 -18v-40q53 -7 98 -22.5t87.5 -42.5t66.5 -72.5t24 -104.5
q0 -124 -110.5 -197t-307.5 -73t-307.5 73t-110.5 197zM354 707q0 -93 125 -93q72 0 97.5 26t25.5 67q0 38 -25 59.5t-98 21.5t-99 -21.5t-26 -59.5zM307 295q0 -111 172 -111t172 111q0 115 -172 115t-172 -115z" />
    <glyph glyph-name="nine.dnom" horiz-adv-x="950" 
d="M889 535q0 -101 -15 -184.5t-53 -159.5t-98.5 -125t-158 -71t-224.5 -7l-174 20v205l194 -20q102 -11 173.5 3t111 49.5t57 83t17.5 111.5l63 144h-61q-11 -48 -34.5 -92t-62.5 -84.5t-101 -64.5t-138 -24q-65 0 -121 18t-102.5 56t-73.5 105t-27 157q0 92 32 160.5
t88.5 108t125 58.5t148.5 19q215 0 324.5 -112t109.5 -354zM643 659q0 72 -40 105t-128 33q-87 0 -127.5 -33t-40.5 -105q0 -69 41 -102t127 -33q87 0 127.5 33t40.5 102z" />
    <glyph glyph-name="zero.numr" horiz-adv-x="1009" 
d="M506 1604q142 0 243.5 -67t151 -179.5t49.5 -259.5q0 -227 -116 -367.5t-328 -140.5q-213 0 -329 140.5t-116 367.5q0 147 49 259.5t151 179.5t245 67zM506 1358q-91 0 -145 -71.5t-54 -188.5q0 -59 17 -115l301 338q-47 37 -119 37zM506 838q101 0 148.5 69t47.5 191
q0 64 -12 114l-301 -331q46 -43 117 -43z" />
    <glyph glyph-name="one.numr" horiz-adv-x="757" 
d="M166 995l-105 226q68 58 96.5 93.5t45 90t28.5 162.5h465v-973h-247v747l40 144h-61q-5 -78 -18 -143t-40.5 -136t-79.5 -125.5t-124 -85.5z" />
    <glyph glyph-name="two.numr" horiz-adv-x="942" 
d="M307 1161h-246q0 87 27 164t80 138t139 96.5t195 35.5q100 0 176 -28.5t119 -77.5t63.5 -106.5t20.5 -122.5q0 -86 -35.5 -152.5t-94 -111t-149.5 -76.5t-186 -50.5t-219 -31.5v-62l143 31h541v-205h-766v381q5 1 35.5 4.5t53 6.5t62.5 10t70.5 14.5t71 20t70.5 26.5
t61 34.5t51 43.5t32.5 53t12.5 64q0 56 -36 93.5t-116 37.5q-98 0 -137 -56.5t-39 -173.5z" />
    <glyph glyph-name="three.numr" horiz-adv-x="985" 
d="M61 969h246q0 -57 14 -94.5t43.5 -56.5t63 -25.5t82.5 -6.5q85 0 126.5 24.5t41.5 92.5q0 33 -11 54.5t-33.5 31.5t-45 13.5t-56.5 3.5h-98v202h98q67 0 99.5 17.5t32.5 72.5q0 52 -36.5 72.5t-117.5 20.5q-96 0 -143.5 -28.5t-47.5 -102.5h-245q0 159 115 247t321 88
q199 0 300 -73.5t101 -186.5q0 -52 -18.5 -89t-54.5 -58.5t-73.5 -32.5t-92.5 -20v-62q37 -7 55 -11t50 -13t48.5 -18t38.5 -24.5t33 -34t19 -45t8 -59.5q0 -134 -105 -210t-309 -76q-212 0 -330.5 96.5t-118.5 290.5z" />
    <glyph glyph-name="four.numr" horiz-adv-x="952" 
d="M512 717h-451v506q326 61 373 344h246q-10 -97 -46.5 -185.5t-103.5 -170t-176.5 -141.5t-251.5 -87v-61l144 41h266v161h246v-161h133v-246h-133v-123h-246v123z" />
    <glyph glyph-name="five.numr" horiz-adv-x="972" 
d="M61 915h246q0 -64 49 -96.5t125 -32.5q89 0 137 32.5t48 111.5q0 157 -129 157q-103 0 -175 -112l-274 94v508h764v-207h-518v-176l-33 -90l41 -23q27 94 99.5 152.5t189.5 58.5q96 0 161 -48t92 -122t27 -170q0 -77 -25 -142.5t-75 -117t-132.5 -81t-189.5 -29.5
q-205 0 -316.5 85.5t-111.5 247.5z" />
    <glyph glyph-name="six.numr" horiz-adv-x="950" 
d="M61 1059q0 101 15 184.5t53 159.5t98.5 125t158 71t224.5 7l174 -21v-205l-194 21q-102 11 -173.5 -3t-111 -50t-57 -83.5t-17.5 -111.5l-63 -143h61q11 48 34.5 92t62.5 84t101 64t138 24q65 0 121 -18t102.5 -56t73.5 -105t27 -157q0 -92 -32 -160.5t-88 -108
t-124.5 -58.5t-148.5 -19q-215 0 -325 112.5t-110 354.5zM307 934q0 -72 40 -104.5t128 -32.5q87 0 127.5 32.5t40.5 104.5q0 69 -41 102t-127 33q-87 0 -127.5 -33t-40.5 -102z" />
    <glyph glyph-name="seven.numr" horiz-adv-x="878" 
d="M422 594h-246q0 212 63.5 354t183 223t312.5 129v62h-674v205h756v-416q-222 -67 -308.5 -194.5t-86.5 -362.5z" />
    <glyph glyph-name="eight.numr" horiz-adv-x="958" 
d="M61 860q0 59 24.5 104.5t66.5 72.5t87.5 42.5t98.5 22.5v41q-40 5 -77 18t-73 36.5t-57.5 65t-21.5 95.5q0 116 93.5 181t276.5 65q182 0 275.5 -65.5t93.5 -180.5q0 -54 -21.5 -95.5t-57.5 -65t-72 -36.5t-76 -18v-41q53 -7 98 -22.5t87.5 -42.5t66.5 -72.5t24 -104.5
q0 -124 -110.5 -197t-307.5 -73t-307.5 73t-110.5 197zM354 1317q0 -92 125 -92q72 0 97.5 25.5t25.5 66.5q0 38 -25.5 60t-97.5 22q-73 0 -99 -22t-26 -60zM307 905q0 -110 172 -110t172 110q0 115 -172 115t-172 -115z" />
    <glyph glyph-name="nine.numr" horiz-adv-x="950" 
d="M889 1147q0 -101 -15 -184.5t-53 -159.5t-98.5 -125t-158 -71t-224.5 -7l-174 21v204l194 -20q102 -11 173.5 3t111 50t57 83.5t17.5 111.5l63 143h-61q-11 -48 -34.5 -92t-62.5 -84t-101 -64t-138 -24q-65 0 -121 18t-102.5 56t-73.5 105t-27 157q0 92 32 160.5
t88.5 108t125 58.5t148.5 19q215 0 324.5 -112.5t109.5 -354.5zM643 1272q0 72 -40 104.5t-128 32.5q-87 0 -127.5 -32.5t-40.5 -104.5q0 -69 41 -102t127 -33q87 0 127.5 33t40.5 102z" />
    <glyph glyph-name="colon.case" horiz-adv-x="737" 
d="M367 854q-102 0 -163 64t-61 163q0 96 61 160t163 64q100 0 163.5 -64.5t63.5 -159.5q0 -98 -63.5 -162.5t-163.5 -64.5zM367 137q-102 0 -163 64.5t-61 163.5q0 96 61 159.5t163 63.5q100 0 163.5 -64t63.5 -159q0 -98 -63.5 -163t-163.5 -65z" />
    <glyph glyph-name="bullet.case" horiz-adv-x="1605" 
d="M797 61q-199 0 -349.5 88t-228.5 238.5t-78 339.5q0 184 78 331.5t228.5 234.5t349.5 87q146 0 271 -50.5t211.5 -138t135.5 -208t49 -256.5q0 -140 -49 -263t-135.5 -211.5t-211.5 -140t-271 -51.5z" />
    <glyph glyph-name="parenleft.case" horiz-adv-x="923" 
d="M780 51v-205q-162 30 -285 107.5t-199.5 193t-114.5 260t-38 316.5q0 231 66 409.5t210.5 301.5t360.5 163v-204q-96 -30 -166.5 -78t-113 -106.5t-68 -138t-34.5 -160.5t-9 -187t9 -187t34.5 -161t68 -138.5t113 -107t166.5 -78.5z" />
    <glyph glyph-name="parenright.case" horiz-adv-x="923" 
d="M143 -154v205q96 30 166.5 78.5t113.5 107t68.5 138.5t34.5 161t9 187t-9 187t-34.5 160.5t-68.5 138t-113.5 106.5t-166.5 78v204q216 -40 360.5 -163t210.5 -301.5t66 -409.5q0 -172 -38 -316.5t-114.5 -260t-199.5 -193t-285 -107.5z" />
    <glyph glyph-name="braceleft.case" horiz-adv-x="1320" 
d="M1178 1382h-455l-186 62v-82q106 -26 174 -48.5t129.5 -55t94.5 -72.5t52 -97t19 -133q0 -108 -72 -239q72 -131 72 -240q0 -64 -11.5 -113t-39 -88t-62.5 -67.5t-92 -53t-116.5 -43t-147.5 -40.5v-82l186 61h455v-205h-723v353q87 26 145 52t106.5 64.5t71.5 93
t23 128.5q-152 -152 -312 -152q-155 0 -250.5 88.5t-95.5 243.5q0 159 89.5 245.5t256.5 86.5q160 0 312 -152q0 74 -23 128.5t-71.5 93t-106.5 64.5t-145 52v352h723v-205zM528 569q49 0 104 42t101 106q-45 64 -100.5 105.5t-104.5 41.5q-60 0 -99.5 -38.5t-39.5 -108.5
q0 -71 39.5 -109.5t99.5 -38.5z" />
    <glyph glyph-name="braceright.case" horiz-adv-x="1320" 
d="M831 385q-159 0 -311 152q0 -74 23 -128.5t71.5 -93t106.5 -64.5t145 -52v-353h-723v205h455l186 -61v82q-106 26 -174 48.5t-129.5 54.5t-94.5 72t-52 97t-19 133q0 109 72 240q-72 131 -72 239q0 64 11.5 113.5t38.5 88t62 67t92 53.5t117 43.5t148 40.5v82l-186 -62
h-455v205h723v-352q-87 -26 -145 -52t-106.5 -64.5t-71.5 -93t-23 -128.5q152 152 311 152q167 0 257 -86.5t90 -245.5q0 -155 -96 -243.5t-251 -88.5zM793 864q-49 0 -104.5 -41.5t-100.5 -105.5q46 -64 101 -106t104 -42q59 0 98 39t39 109t-39 108.5t-98 38.5z" />
    <glyph glyph-name="bracketleft.case" horiz-adv-x="944" 
d="M143 -154v1751h658v-204h-410v-1342h410v-205h-658z" />
    <glyph glyph-name="bracketright.case" horiz-adv-x="944" 
d="M143 1597h658v-1751h-658v205h410v1342h-410v204z" />
    <glyph glyph-name="braceleft.ss01" horiz-adv-x="952" 
d="M143 440v254q60 0 108 8t78 19.5t52 30t32.5 34t16.5 38.5t7 36t1 33q0 68 -48.5 123t-141.5 69v359h561v-205h-377l-102 61v-81q86 -28 145.5 -56t109.5 -68.5t74.5 -95.5t24.5 -127q0 -134 -91 -199t-247 -65v-82q155 0 246.5 -66t91.5 -200q0 -72 -24.5 -126.5
t-75 -94t-109 -66.5t-145.5 -55v-82l102 62h377v-205h-561v358q93 14 141.5 67.5t48.5 121.5q0 20 -1 33t-7 36t-16.5 38.5t-32.5 34.5t-52 30.5t-78 19.5t-108 8z" />
    <glyph glyph-name="braceright.ss01" horiz-adv-x="952" 
d="M809 694v-254q-60 0 -108 -8t-78 -19.5t-52 -30.5t-32.5 -34.5t-16.5 -38.5t-7 -36t-1 -33q0 -68 49 -121.5t142 -67.5v-358h-562v205h377l103 -62v82q-87 28 -145.5 55t-109.5 66.5t-75.5 94t-24.5 126.5q0 134 91.5 200t246.5 66v82q-156 0 -247 65t-91 199
q0 72 24.5 127t75 95.5t110 68.5t145.5 56v81l-103 -61h-377v205h562v-359q-93 -14 -142 -69t-49 -123q0 -20 1 -33t7 -36t16.5 -38.5t32.5 -34t52 -30t78 -19.5t108 -8z" />
    <glyph glyph-name="braceleft.case.ss01" horiz-adv-x="952" 
d="M143 594v254q60 0 108 8t78 19.5t52 30t32.5 34t16.5 38.5t7 36t1 33q0 68 -48.5 123t-141.5 69v358h561v-204h-377l-102 61v-82q86 -28 145.5 -56t109.5 -68t74.5 -95t24.5 -127q0 -134 -91 -199t-247 -65v-82q155 0 246.5 -66t91.5 -200q0 -72 -24.5 -126.5t-75 -94
t-109 -66.5t-145.5 -55v-82l102 61h377v-205h-561v359q93 14 141.5 67t48.5 121q0 29 -2.5 48t-18 51t-44.5 51.5t-88 35t-142 15.5z" />
    <glyph glyph-name="braceright.case.ss01" horiz-adv-x="952" 
d="M809 848v-254q-83 0 -142 -15.5t-88 -35t-44.5 -51.5t-18 -51t-2.5 -48q0 -68 49 -121t142 -67v-359h-562v205h377l103 -61v82q-87 28 -145.5 55t-109.5 66.5t-75.5 94t-24.5 126.5q0 134 91.5 200t246.5 66v82q-156 0 -247 65t-91 199q0 72 24.5 127t75 95t109.5 68
t146 56v82l-103 -61h-377v204h562v-358q-93 -14 -142 -69t-49 -123q0 -20 1 -33t7 -36t16.5 -38.5t32.5 -34t52 -30t78 -19.5t108 -8z" />
    <glyph glyph-name="hyphen.case" horiz-adv-x="1392" 
d="M143 600v246h1106v-246h-1106z" />
    <glyph glyph-name="endash.case" horiz-adv-x="1822" 
d="M143 600v246h1538v-246h-1538z" />
    <glyph glyph-name="emdash.case" horiz-adv-x="2232" 
d="M143 600v246h1948v-246h-1948z" />
    <glyph glyph-name="guillemotleft.case" horiz-adv-x="1736" 
d="M494 723l485 -487l-182 -164l-654 651l654 649l182 -164zM1110 723l485 -487l-182 -164l-653 651l653 649l182 -164z" />
    <glyph glyph-name="guillemotright.case" horiz-adv-x="1779" 
d="M365 72l-181 164l486 487l-486 485l181 164l655 -649zM981 72l-180 164l485 487l-485 485l180 164l655 -649z" />
    <glyph glyph-name="guilsinglleft.case" horiz-adv-x="1120" 
d="M494 723l485 -487l-182 -164l-654 651l654 649l182 -164z" />
    <glyph glyph-name="guilsinglright.case" horiz-adv-x="1163" 
d="M365 72l-181 164l486 487l-486 485l181 164l655 -649z" />
    <glyph glyph-name="ampersand.ss01" horiz-adv-x="1992" 
d="M1522 1034h327q0 -220 -81.5 -405t-225.5 -326q140 -85 307 -182l-176 -242q-249 147 -393 236q-261 -135 -547 -135q-278 0 -434 105.5t-156 303.5q0 64 17.5 118.5t46.5 94t73.5 73.5t89.5 57.5t103 45.5q-94 142 -94 273q0 204 142.5 308.5t391.5 104.5
q216 0 352 -106t136 -256q0 -154 -86 -239.5t-328 -178.5q102 -85 297 -215q238 211 238 565zM897 1176q-95 0 -141.5 -30t-46.5 -95q0 -77 75 -170q178 58 232.5 94t54.5 94q0 50 -49 78.5t-125 28.5zM733 268q135 0 256 39q-190 133 -325 256q-106 -44 -148.5 -81
t-42.5 -83q0 -68 70.5 -99.5t189.5 -31.5z" />
    <glyph glyph-name="brevecombcy" horiz-adv-x="0" 
d="M-389 1544h246q0 -82 -20.5 -152.5t-63 -129t-117 -92t-174.5 -33.5t-174.5 33.5t-117 92t-63 129t-20.5 152.5h246q0 -102 32.5 -142t96.5 -40t96.5 40t32.5 142z" />
    </font>
</defs>
</svg>
